<svg xmlns="http://www.w3.org/2000/svg" xmlns:xlink="http://www.w3.org/1999/xlink" width="103" height="103" viewBox="0 0 103 103">
  <defs>
    <filter id="Trazado_978624" x="0" y="0" width="103" height="103" filterUnits="userSpaceOnUse">
      <feOffset dy="3" input="SourceAlpha"/>
      <feGaussianBlur stdDeviation="3" result="blur"/>
      <feFlood flood-opacity="0.161"/>
      <feComposite operator="in" in2="blur"/>
      <feComposite in="SourceGraphic"/>
    </filter>
  </defs>
  <g id="Grupo_1201046" data-name="Grupo 1201046" transform="translate(-171 -2935)">
    <g id="Grupo_1183359" data-name="Grupo 1183359" transform="translate(180 2941)">
      <g id="Grupo_1174730" data-name="Grupo 1174730">
        <g id="Grupo_1173798" data-name="Grupo 1173798">
          <g id="Grupo_1171925" data-name="Grupo 1171925">
            <g id="Grupo_1164524" data-name="Grupo 1164524">
              <g id="Grupo_1144123" data-name="Grupo 1144123">
                <g transform="matrix(1, 0, 0, 1, -9, -6)" filter="url(#Trazado_978624)">
                  <g id="Trazado_978624-2" data-name="Trazado 978624" transform="translate(9 6)" fill="#edf3fc">
                    <path d="M 42.5 83.5 C 36.96437835693359 83.5 31.59512901306152 82.41617584228516 26.54141235351562 80.27863311767578 C 21.65934181213379 78.21369171142578 17.27447128295898 75.25723266601562 13.50862312316895 71.49137878417969 C 9.742764472961426 67.72553253173828 6.786305904388428 63.34066009521484 4.721364498138428 58.45858764648438 C 2.583823442459106 53.40486907958984 1.5 48.03562164306641 1.5 42.5 C 1.5 36.96437835693359 2.583823442459106 31.59512901306152 4.721364498138428 26.54141235351562 C 6.786305904388428 21.65934181213379 9.742764472961426 17.27447128295898 13.50862312316895 13.50862312316895 C 17.27447128295898 9.742764472961426 21.65934181213379 6.786305904388428 26.54141235351562 4.721364498138428 C 31.59512901306152 2.583823442459106 36.96437835693359 1.5 42.5 1.5 C 48.03562164306641 1.5 53.40486907958984 2.583823442459106 58.45858764648438 4.721364498138428 C 63.34066009521484 6.786305904388428 67.72553253173828 9.742764472961426 71.49137878417969 13.50862312316895 C 75.25723266601562 17.27447128295898 78.21369171142578 21.65934181213379 80.27863311767578 26.54141235351562 C 82.41617584228516 31.59512901306152 83.5 36.96437835693359 83.5 42.5 C 83.5 48.03562164306641 82.41617584228516 53.40486907958984 80.27863311767578 58.45858764648438 C 78.21369171142578 63.34066009521484 75.25723266601562 67.72553253173828 71.49137878417969 71.49137878417969 C 67.72553253173828 75.25723266601562 63.34066009521484 78.21369171142578 58.45858764648438 80.27863311767578 C 53.40486907958984 82.41617584228516 48.03562164306641 83.5 42.5 83.5 Z" stroke="none"/>
                    <path d="M 42.5 3 C 37.16621398925781 3 31.99356079101562 4.043960571289062 27.125732421875 6.102882385253906 C 22.42246627807617 8.092185974121094 18.19785308837891 10.94070434570312 14.56928253173828 14.56928253173828 C 10.94070434570312 18.19785308837891 8.092185974121094 22.42246627807617 6.102882385253906 27.125732421875 C 4.043960571289062 31.99356079101562 3 37.16621398925781 3 42.5 C 3 47.83378601074219 4.043960571289062 53.00643920898438 6.102882385253906 57.87425231933594 C 8.092185974121094 62.57753372192383 10.94070434570312 66.80213165283203 14.56928253173828 70.43071746826172 C 18.19786834716797 74.05929565429688 22.42246627807617 76.90781402587891 27.125732421875 78.89711761474609 C 31.99356079101562 80.95603942871094 37.16621398925781 82 42.5 82 C 47.83378601074219 82 53.00642395019531 80.95603942871094 57.87425231933594 78.89711761474609 C 62.57753372192383 76.90781402587891 66.80213165283203 74.05929565429688 70.43071746826172 70.43071746826172 C 74.05929565429688 66.80213165283203 76.90781402587891 62.57753372192383 78.89711761474609 57.87425231933594 C 80.95603942871094 53.00642395019531 82 47.83378601074219 82 42.5 C 82 37.16621398925781 80.95603942871094 31.99356079101562 78.89711761474609 27.125732421875 C 76.90781402587891 22.42246627807617 74.05929565429688 18.19786834716797 70.43071746826172 14.56928253173828 C 66.80213165283203 10.94070434570312 62.57753372192383 8.092185974121094 57.87425231933594 6.102882385253906 C 53.00643920898438 4.043960571289062 47.83378601074219 3 42.5 3 M 42.5 0 C 65.97209167480469 0 85 19.02789306640625 85 42.5 C 85 65.97209167480469 65.97209167480469 85 42.5 85 C 19.02789306640625 85 0 65.97209167480469 0 42.5 C 0 19.02789306640625 19.02789306640625 0 42.5 0 Z" stroke="none" fill="#5692e8"/>
                  </g>
                </g>
              </g>
            </g>
          </g>
        </g>
      </g>
    </g>
    <g id="repetitivo_2_" data-name="repetitivo (2)" transform="translate(195.983 2956.837)">
      <g id="Grupo_1201044" data-name="Grupo 1201044" transform="translate(0.777 0.94)">
        <path id="Trazado_1070211" data-name="Trazado 1070211" d="M122.282,332.636c0-9.056,5.751-12.536,5.751-12.536l16.2-1.036a17.747,17.747,0,0,1,5.751,13.572Z" transform="translate(-110.393 -286.808)" fill="#ffb4bf"/>
        <path id="Trazado_1070212" data-name="Trazado 1070212" d="M352.354,9.305a5.422,5.422,0,0,1,7.668,7.668c-2.117,2.117-6.265,2.832-8.382.715s-1.4-6.265.715-8.382Z" transform="translate(-314.85 -7.712)" fill="#4c5698"/>
        <path id="Trazado_1070213" data-name="Trazado 1070213" d="M65.465,27.4a19.736,19.736,0,1,1,39.472,0Z" transform="translate(-59.461 -7.663)" fill="#696eb1"/>
        <path id="Trazado_1070214" data-name="Trazado 1070214" d="M63.444,10.838a6.444,6.444,0,0,0-1.117-1.533,5.422,5.422,0,0,0-7.668,7.668A6.629,6.629,0,0,0,56.611,18.3a19.611,19.611,0,0,0-2.255,9.152h7.007a24.836,24.836,0,0,1,9.887-19.53A19.612,19.612,0,0,0,63.444,10.838Z" transform="translate(-48.352 -7.712)" fill="#4c5698"/>
        <circle id="Elipse_13481" data-name="Elipse 13481" cx="4.103" cy="4.103" r="4.103" transform="translate(38.039 17.452)" fill="#c7856a"/>
        <path id="Trazado_1070215" data-name="Trazado 1070215" d="M177.936,319.064l-16.2,1.036a9.642,9.642,0,0,0-1.856,1.619,19.944,19.944,0,0,0,9.937,2.579H170a19.974,19.974,0,0,0,10.173-2.775A13.412,13.412,0,0,0,177.936,319.064Z" transform="translate(-144.096 -286.808)" fill="#ff8d9d"/>
        <path id="Trazado_1070216" data-name="Trazado 1070216" d="M130.319,115.379a1.239,1.239,0,0,0-1.849-.448,5.211,5.211,0,0,1-6.98-.683,1.232,1.232,0,0,0-1.817,0,5.212,5.212,0,0,1-7.732,0,1.232,1.232,0,0,0-1.817,0,5.211,5.211,0,0,1-6.98.683,1.235,1.235,0,0,0-1.843.435,16.128,16.128,0,0,0-1.694,7.218c0,8.94,7.4,15.241,16.343,15.163,8.881-.077,16.056-6.264,16.056-15.163a16.13,16.13,0,0,0-1.688-7.206Z" transform="translate(-90.067 -102.849)" fill="#da9d81"/>
        <path id="Trazado_1070217" data-name="Trazado 1070217" d="M68.887,142.143a24.947,24.947,0,0,1-1.958-19.355,5.207,5.207,0,0,1-1.041-.6,1.235,1.235,0,0,0-1.843.435,16.089,16.089,0,0,0-1.535,4.951c-.117-.011-.237-.017-.361-.017a4.1,4.1,0,1,0,0,8.206,3.508,3.508,0,0,0,1.3-.236A14.719,14.719,0,0,0,68.887,142.143Z" transform="translate(-52.809 -110.101)" fill="#c7856a"/>
        <g id="Grupo_1201043" data-name="Grupo 1201043" transform="translate(12.94 23.656)">
          <g id="Grupo_1201042" data-name="Grupo 1201042">
            <g id="Grupo_1201040" data-name="Grupo 1201040">
              <ellipse id="Elipse_13482" data-name="Elipse 13482" cx="3.45" cy="2.747" rx="3.45" ry="2.747" fill="#eeedff"/>
            </g>
            <g id="Grupo_1201041" data-name="Grupo 1201041" transform="translate(18.7)">
              <ellipse id="Elipse_13483" data-name="Elipse 13483" cx="3.45" cy="2.747" rx="3.45" ry="2.747" fill="#eeedff"/>
            </g>
          </g>
        </g>
        <path id="Trazado_1070218" data-name="Trazado 1070218" d="M7.5,438.69H58.98v6.8H7.5Z" transform="translate(-7.5 -394.043)" fill="#71dbba"/>
        <path id="Trazado_1070219" data-name="Trazado 1070219" d="M104.389,305.64a4.782,4.782,0,0,0-4.782,4.783,2.876,2.876,0,0,0,2.876,2.876H106.3a2.876,2.876,0,0,0,2.876-2.876A4.782,4.782,0,0,0,104.389,305.64Z" transform="translate(-90.066 -274.775)" fill="#c7856a"/>
        <path id="Trazado_1070220" data-name="Trazado 1070220" d="M191.59,386.88H179.081l-1.911-3.652,1.911-3.652H191.59l1.9,3.652Z" transform="translate(-159.595 -341.053)" fill="#fce29f"/>
        <path id="Trazado_1070221" data-name="Trazado 1070221" d="M77.3,379.576a2.454,2.454,0,0,0-2.454,2.454v2.4A2.454,2.454,0,0,0,77.3,386.88H87.36v-7.3Z" transform="translate(-67.875 -341.053)" fill="#ff8d9d"/>
        <path id="Trazado_1070222" data-name="Trazado 1070222" d="M326.438,379.576H316.383v7.3h10.055a2.454,2.454,0,0,0,2.454-2.454v-2.4a2.454,2.454,0,0,0-2.454-2.454Z" transform="translate(-284.388 -341.052)" fill="#c8a9f1"/>
        <path id="Trazado_1070223" data-name="Trazado 1070223" d="M78.353,381.383a7.965,7.965,0,0,1,.209-1.807H77.3a2.454,2.454,0,0,0-2.454,2.454v2.4A2.454,2.454,0,0,0,77.3,386.88h3.257A7.923,7.923,0,0,1,78.353,381.383Z" transform="translate(-67.875 -341.053)" fill="#e95b70"/>
        <path id="Trazado_1070224" data-name="Trazado 1070224" d="M201.328,386.88a7.94,7.94,0,0,1-2-7.3h-3.711v7.3Z" transform="translate(-176.131 -341.053)" fill="#ffcd71"/>
        <path id="Trazado_1070225" data-name="Trazado 1070225" d="M322.094,386.88a7.94,7.94,0,0,1-2-7.3h-3.711v7.3Z" transform="translate(-284.388 -341.053)" fill="#b18ae3"/>
      </g>
      <g id="Grupo_1201045" data-name="Grupo 1201045" transform="translate(0 0.163)">
        <path id="Trazado_1070226" data-name="Trazado 1070226" d="M178.421,215.918a.777.777,0,0,0-.777.777v1.41a.777.777,0,1,0,1.554,0v-1.41A.777.777,0,0,0,178.421,215.918Z" transform="translate(-159.243 -193.57)"/>
        <path id="Trazado_1070227" data-name="Trazado 1070227" d="M320.133,215.918a.777.777,0,0,0-.777.777v1.41a.777.777,0,1,0,1.554,0v-1.41A.777.777,0,0,0,320.133,215.918Z" transform="translate(-286.276 -193.57)"/>
        <path id="Trazado_1070228" data-name="Trazado 1070228" d="M234.976,229.318a.777.777,0,0,0-1.1.075,1.787,1.787,0,0,1-2.7,0,.777.777,0,0,0-1.171,1.021,3.341,3.341,0,0,0,5.041,0A.777.777,0,0,0,234.976,229.318Z" transform="translate(-206.014 -205.41)"/>
        <path id="Trazado_1070229" data-name="Trazado 1070229" d="M52.257,44.81H46.019a3.244,3.244,0,0,0,.038-.5v-2.4a3.234,3.234,0,0,0-3.231-3.231H39.49a18.211,18.211,0,0,0-3.123-4.869A15.361,15.361,0,0,0,42.072,27.3a4.876,4.876,0,0,0,4.939-7.458,20.388,20.388,0,0,0-1.971-7.983A7.138,7.138,0,0,0,46.5,10.75a6.206,6.206,0,0,0,0-8.766A6.137,6.137,0,0,0,44.085.49a.777.777,0,0,0-.493,1.474A4.6,4.6,0,0,1,45.4,3.083a4.65,4.65,0,0,1,0,6.569,5.529,5.529,0,0,1-1.083.831,20.74,20.74,0,0,0-6.1-6.652,5.26,5.26,0,0,1,.617-.748,4.639,4.639,0,0,1,2.1-1.206.777.777,0,0,0-.394-1.5,6.2,6.2,0,0,0-2.805,1.611,6.839,6.839,0,0,0-.826,1.006,20.5,20.5,0,0,0-20.778,0A6.84,6.84,0,0,0,15.3,1.984,6.2,6.2,0,0,0,6.536,10.75a7.138,7.138,0,0,0,1.459,1.108,20.388,20.388,0,0,0-1.971,7.983A4.876,4.876,0,0,0,10.977,27.3a15.194,15.194,0,0,0,2.642,3.933,5.568,5.568,0,0,0-4.078,5.357,3.631,3.631,0,0,0,.666,2.1,3.234,3.234,0,0,0-3.231,3.231v2.4a3.245,3.245,0,0,0,.038.5H.777A.777.777,0,0,0,0,45.586v6.8a.777.777,0,0,0,.777.777H11.1a.777.777,0,1,0,0-1.554H1.554V46.363H7.709a3.212,3.212,0,0,0,2.487,1.18H42.838a3.211,3.211,0,0,0,2.487-1.18H51.48v5.246H14.2a.777.777,0,1,0,0,1.554H52.257a.777.777,0,0,0,.777-.777v-6.8a.777.777,0,0,0-.777-.777ZM44.5,41.917v2.4a1.679,1.679,0,0,1-1.677,1.677H33.548V40.24h9.278A1.679,1.679,0,0,1,44.5,41.917Zm-6.725-3.231H19.994a3.906,3.906,0,0,0,.588-3.016,18.989,18.989,0,0,0,14.405-1.056,16.307,16.307,0,0,1,2.791,4.072ZM26.654,35.062a16.849,16.849,0,0,1-6.78-1.324,5.577,5.577,0,0,0-4.222-2.683,13.731,13.731,0,0,1-4.512-9.229c0-.011,0-.021,0-.032a15.428,15.428,0,0,1,1.57-7.991.458.458,0,0,1,.683-.16,5.99,5.99,0,0,0,8.021-.785.455.455,0,0,1,.665,0,5.992,5.992,0,0,0,8.884,0,.455.455,0,0,1,.665,0,5.99,5.99,0,0,0,8.021.784.462.462,0,0,1,.689.172,15.465,15.465,0,0,1,1.606,6.86c0,8.413-6.772,14.31-15.286,14.386Zm16.265-9.241q-.125,0-.25-.009a16.054,16.054,0,0,0,.825-5.135c0-.474-.026-1.045-.062-1.466a3.325,3.325,0,0,1-.513,6.611Zm2.4-7.571a4.885,4.885,0,0,0-2.1-.626,16.892,16.892,0,0,0-1.5-4.5,2.016,2.016,0,0,0-3.009-.724,4.437,4.437,0,0,1-5.939-.582,2.01,2.01,0,0,0-2.969,0,4.437,4.437,0,0,1-6.58,0,2.009,2.009,0,0,0-2.969,0,4.437,4.437,0,0,1-5.939.582,2.008,2.008,0,0,0-1.67-.345c-1.112.264-1.437,1.192-1.846,2.191a16.692,16.692,0,0,0-.989,3.379,4.873,4.873,0,0,0-2.1.626,18.96,18.96,0,0,1,37.608,0ZM7.635,9.652A4.645,4.645,0,1,1,14.2,3.083a5.266,5.266,0,0,1,.617.748,20.74,20.74,0,0,0-6.1,6.652,5.532,5.532,0,0,1-1.083-.831ZM10.378,25.81a3.325,3.325,0,0,1-.776-6.6,17.123,17.123,0,0,0-.014,2.728c0,.006,0,.013,0,.019a15.686,15.686,0,0,0,.788,3.853ZM15.1,32.582c.065,0,.13,0,.194,0h0a4.014,4.014,0,0,1,3.811,4,2.1,2.1,0,0,1-2.1,2.1H13.193a2.1,2.1,0,0,1-2.1-2.1A4.01,4.01,0,0,1,15.1,32.582ZM8.53,41.917a1.679,1.679,0,0,1,1.677-1.677h9.278v5.75H10.207A1.679,1.679,0,0,1,8.53,44.313ZM21.039,40.24H31.995v5.75H21.039Z" transform="translate(0 -0.163)"/>
      </g>
    </g>
  </g>
</svg>
