<svg xmlns="http://www.w3.org/2000/svg" xmlns:xlink="http://www.w3.org/1999/xlink" width="103" height="103" viewBox="0 0 103 103">
  <defs>
    <filter id="Trazado_978624" x="0" y="0" width="103" height="103" filterUnits="userSpaceOnUse">
      <feOffset dy="3" input="SourceAlpha"/>
      <feGaussianBlur stdDeviation="3" result="blur"/>
      <feFlood flood-opacity="0.161"/>
      <feComposite operator="in" in2="blur"/>
      <feComposite in="SourceGraphic"/>
    </filter>
  </defs>
  <g id="Grupo_1201063" data-name="Grupo 1201063" transform="translate(-612 -4285.673)">
    <g id="Grupo_1201047" data-name="Grupo 1201047" transform="translate(-17)">
      <g id="Grupo_1183360" data-name="Grupo 1183360" transform="translate(17 3337.673)">
        <g id="Grupo_1179494" data-name="Grupo 1179494" transform="translate(621 954)">
          <g id="Grupo_1144531" data-name="Grupo 1144531">
            <g transform="matrix(1, 0, 0, 1, -9, -6)" filter="url(#Trazado_978624)">
              <g id="Trazado_978624-2" data-name="Trazado 978624" transform="translate(9 6)" fill="#edf3fc">
                <path d="M 42.5 83.5 C 36.96437835693359 83.5 31.59512901306152 82.41617584228516 26.54141235351562 80.27863311767578 C 21.65934181213379 78.21369171142578 17.27447128295898 75.25723266601562 13.50862312316895 71.49137878417969 C 9.742764472961426 67.72553253173828 6.786305904388428 63.34066009521484 4.721364498138428 58.45858764648438 C 2.583823442459106 53.40486907958984 1.5 48.03562164306641 1.5 42.5 C 1.5 36.96437835693359 2.583823442459106 31.59512901306152 4.721364498138428 26.54141235351562 C 6.786305904388428 21.65934181213379 9.742764472961426 17.27447128295898 13.50862312316895 13.50862312316895 C 17.27447128295898 9.742764472961426 21.65934181213379 6.786305904388428 26.54141235351562 4.721364498138428 C 31.59512901306152 2.583823442459106 36.96437835693359 1.5 42.5 1.5 C 48.03562164306641 1.5 53.40486907958984 2.583823442459106 58.45858764648438 4.721364498138428 C 63.34066009521484 6.786305904388428 67.72553253173828 9.742764472961426 71.49137878417969 13.50862312316895 C 75.25723266601562 17.27447128295898 78.21369171142578 21.65934181213379 80.27863311767578 26.54141235351562 C 82.41617584228516 31.59512901306152 83.5 36.96437835693359 83.5 42.5 C 83.5 48.03562164306641 82.41617584228516 53.40486907958984 80.27863311767578 58.45858764648438 C 78.21369171142578 63.34066009521484 75.25723266601562 67.72553253173828 71.49137878417969 71.49137878417969 C 67.72553253173828 75.25723266601562 63.34066009521484 78.21369171142578 58.45858764648438 80.27863311767578 C 53.40486907958984 82.41617584228516 48.03562164306641 83.5 42.5 83.5 Z" stroke="none"/>
                <path d="M 42.5 3 C 37.16621398925781 3 31.99356079101562 4.043960571289062 27.125732421875 6.102882385253906 C 22.42246627807617 8.092185974121094 18.19785308837891 10.94070434570312 14.56928253173828 14.56928253173828 C 10.94070434570312 18.19785308837891 8.092185974121094 22.42246627807617 6.102882385253906 27.125732421875 C 4.043960571289062 31.99356079101562 3 37.16621398925781 3 42.5 C 3 47.83378601074219 4.043960571289062 53.00643920898438 6.102882385253906 57.87425231933594 C 8.092185974121094 62.57753372192383 10.94070434570312 66.80213165283203 14.56928253173828 70.43071746826172 C 18.19786834716797 74.05929565429688 22.42246627807617 76.90781402587891 27.125732421875 78.89711761474609 C 31.99356079101562 80.95603942871094 37.16621398925781 82 42.5 82 C 47.83378601074219 82 53.00642395019531 80.95603942871094 57.87425231933594 78.89711761474609 C 62.57753372192383 76.90781402587891 66.80213165283203 74.05929565429688 70.43071746826172 70.43071746826172 C 74.05929565429688 66.80213165283203 76.90781402587891 62.57753372192383 78.89711761474609 57.87425231933594 C 80.95603942871094 53.00642395019531 82 47.83378601074219 82 42.5 C 82 37.16621398925781 80.95603942871094 31.99356079101562 78.89711761474609 27.125732421875 C 76.90781402587891 22.42246627807617 74.05929565429688 18.19786834716797 70.43071746826172 14.56928253173828 C 66.80213165283203 10.94070434570312 62.57753372192383 8.092185974121094 57.87425231933594 6.102882385253906 C 53.00643920898438 4.043960571289062 47.83378601074219 3 42.5 3 M 42.5 0 C 65.97209167480469 0 85 19.02789306640625 85 42.5 C 85 65.97209167480469 65.97209167480469 85 42.5 85 C 19.02789306640625 85 0 65.97209167480469 0 42.5 C 0 19.02789306640625 19.02789306640625 0 42.5 0 Z" stroke="none" fill="#5692e8"/>
              </g>
            </g>
          </g>
        </g>
      </g>
    </g>
    <g id="casa" transform="translate(633.238 4295.444)">
      <g id="Grupo_1201052" data-name="Grupo 1201052" transform="translate(8.073 26.775)">
        <path id="Trazado_1074670" data-name="Trazado 1074670" d="M112.671,172.463,95.1,154.888l-4.617,4.457-4.614-4.457L68.293,172.463v20.108a2.224,2.224,0,0,0,2.2,2.215h5.525V181.7c0-3.371,2.114-4.651,3.87-5.4a4.606,4.606,0,1,1,6.718,0,5.691,5.691,0,0,1,3.666,3.719c.067-.007.137-.007.2-.007s.141,0,.208.007a5.68,5.68,0,0,1,3.662-3.719,4.607,4.607,0,1,1,6.722,0c1.756.754,3.87,2.034,3.87,5.4v13.085h5.525a2.221,2.221,0,0,0,2.2-2.215V172.463Z" transform="translate(-68.293 -154.888)" fill="#fff" fill-rule="evenodd"/>
      </g>
      <g id="Grupo_1201053" data-name="Grupo 1201053" transform="translate(18.455 10.783)">
        <path id="Trazado_1074671" data-name="Trazado 1074671" d="M177.805,30.522a6.353,6.353,0,0,0-8.823-9.145l-1.052,1.012-1.049-1.012a6.355,6.355,0,0,0-8.826,9.145l.65.627,4.611,4.447,4.614,4.457,4.617-4.457,4.607-4.447Z" transform="translate(-156.124 -19.603)" fill="#ff7b79" fill-rule="evenodd"/>
      </g>
      <g id="Grupo_1201054" data-name="Grupo 1201054" transform="translate(34.879 22.328)">
        <path id="Trazado_1074672" data-name="Trazado 1074672" d="M318.595,136.191l-18.922-18.919-4.607,4.447,17.571,17.575,1.427,1.427a3.2,3.2,0,1,0,4.53-4.53Z" transform="translate(-295.066 -117.272)" fill="#ffe6b4" fill-rule="evenodd"/>
      </g>
      <g id="Grupo_1201055" data-name="Grupo 1201055" transform="translate(1.184 22.328)">
        <path id="Trazado_1074673" data-name="Trazado 1074673" d="M16.9,139.293l17.575-17.575-4.611-4.447L10.947,136.19a3.185,3.185,0,0,0-.935,2.255v.02a3.2,3.2,0,0,0,5.465,2.255Z" transform="translate(-10.012 -117.271)" fill="#ffe6b4" fill-rule="evenodd"/>
      </g>
      <g id="Grupo_1201056" data-name="Grupo 1201056" transform="translate(18.427 40.426)">
        <path id="Trazado_1074674" data-name="Trazado 1074674" d="M165.1,274.982a4.61,4.61,0,1,0-1.246,3.15A4.607,4.607,0,0,0,165.1,274.982Z" transform="translate(-155.884 -270.375)" fill="#ffdcd5" fill-rule="evenodd"/>
      </g>
      <g id="Grupo_1201057" data-name="Grupo 1201057" transform="translate(15.803 48.184)">
        <path id="Trazado_1074675" data-name="Trazado 1074675" d="M147.942,339.719A5.691,5.691,0,0,0,144.276,336a4.6,4.6,0,0,1-6.718,0c-1.756.754-3.87,2.034-3.87,5.4V354.49h9.06v-4.949a4.1,4.1,0,0,1,2.888-4.038,3.44,3.44,0,0,1,2.305-5.784Z" transform="translate(-133.688 -336)" fill="#ff7b79" fill-rule="evenodd"/>
      </g>
      <g id="Grupo_1201058" data-name="Grupo 1201058" transform="translate(32.885 40.426)">
        <path id="Trazado_1074676" data-name="Trazado 1074676" d="M287.414,274.982a4.61,4.61,0,1,0-1.246,3.15A4.609,4.609,0,0,0,287.414,274.982Z" transform="translate(-278.199 -270.375)" fill="#ffdcd5" fill-rule="evenodd"/>
      </g>
      <g id="Grupo_1201059" data-name="Grupo 1201059" transform="translate(30.469 48.184)">
        <path id="Trazado_1074677" data-name="Trazado 1074677" d="M272.014,341.4c0-3.371-2.114-4.651-3.87-5.4a4.6,4.6,0,0,1-6.722,0,5.68,5.68,0,0,0-3.662,3.719,3.437,3.437,0,0,1,2.3,5.784,4.1,4.1,0,0,1,2.892,4.038v4.949h9.06V341.4Z" transform="translate(-257.76 -335.999)" fill="#a0c8ff" fill-rule="evenodd"/>
      </g>
      <g id="Grupo_1201060" data-name="Grupo 1201060" transform="translate(26.824 51.896)">
        <path id="Trazado_1074678" data-name="Trazado 1074678" d="M233.8,370.846a3.443,3.443,0,0,0-3.233-3.435c-.067,0-.137,0-.208,0s-.137,0-.2,0a3.44,3.44,0,1,0,3.646,3.435Z" transform="translate(-226.92 -367.408)" fill="#ffdcd5" fill-rule="evenodd"/>
      </g>
      <g id="Grupo_1201061" data-name="Grupo 1201061" transform="translate(24.863 57.687)">
        <path id="Trazado_1074679" data-name="Trazado 1074679" d="M221.136,420.431a4.1,4.1,0,0,0-2.892-4.038,3.436,3.436,0,0,1-5.02,0,4.1,4.1,0,0,0-2.888,4.038v4.949h10.8v-4.949Z" transform="translate(-210.336 -416.393)" fill="#ffcd69" fill-rule="evenodd"/>
      </g>
      <path id="Trazado_1074680" data-name="Trazado 1074680" d="M59.244,40.411l-6.658-6.655a1.182,1.182,0,0,0-1.671,1.672l6.657,6.654a2.021,2.021,0,1,1-2.857,2.86L36.566,26.79l2.906-2.8,3.937,3.934a1.182,1.182,0,1,0,1.671-1.672l-3.912-3.909A7.535,7.535,0,0,0,30.494,11.705l-.231.222-.23-.222A7.536,7.536,0,0,0,19.355,22.338L1.283,40.411a4.382,4.382,0,0,0,3.1,7.483h0a4.36,4.36,0,0,0,2.508-.785V64.459a3.4,3.4,0,0,0,3.4,3.4H50.236a3.4,3.4,0,0,0,3.4-3.4V47.107a4.385,4.385,0,0,0,5.611-6.7ZM21.08,13.539a5.128,5.128,0,0,1,3.628-1.572h.1a5.136,5.136,0,0,1,3.589,1.443l1.049,1.012a1.182,1.182,0,0,0,1.64,0l1.054-1.014a5.171,5.171,0,0,1,7.181,7.444l-9.054,8.738-9.054-8.738a5.178,5.178,0,0,1-.128-7.313ZM4.382,45.531h0a2,2,0,0,1-1.427-.589,2.024,2.024,0,0,1,0-2.859l18.1-18.1,2.908,2.806L7.271,43.483c-.023.021-.045.043-.065.065L5.813,44.942a2.007,2.007,0,0,1-1.43.589Zm18.648,2.929a3.425,3.425,0,1,1,3.425-3.425A3.427,3.427,0,0,1,23.031,48.459Zm-3.568,1.127a5.768,5.768,0,0,0,7.139,0A4.615,4.615,0,0,1,28.419,51.1a4.616,4.616,0,0,0-2.364,6.144,4.958,4.958,0,0,0-2.374,4.482v3.767h-6.7v-11.9a4.042,4.042,0,0,1,2.478-4Zm18.03-1.127a3.425,3.425,0,1,1,3.425-3.425A3.429,3.429,0,0,1,37.493,48.459Zm-3.571,1.127a5.771,5.771,0,0,0,7.141,0,4.043,4.043,0,0,1,2.479,4v11.9h-6.7V61.724a4.956,4.956,0,0,0-2.374-4.481A4.614,4.614,0,0,0,32.106,51.1a4.606,4.606,0,0,1,1.816-1.513Zm-3.66,3.493a2.258,2.258,0,1,1-2.256,2.256,2.26,2.26,0,0,1,2.256-2.256Zm-2.691,6.011a4.6,4.6,0,0,0,5.383,0,2.691,2.691,0,0,1,1.527,2.635v3.767H26.046V61.724A2.693,2.693,0,0,1,27.571,59.089Zm22.665,6.4h-4.33v-11.9a6.308,6.308,0,0,0-3.3-5.848,5.789,5.789,0,1,0-10.231,0,6.863,6.863,0,0,0-2.115,1.872,6.875,6.875,0,0,0-2.116-1.872,5.788,5.788,0,1,0-10.227,0,6.307,6.307,0,0,0-3.3,5.847v11.9H10.288a1.047,1.047,0,0,1-1.033-1.033V44.843L25.66,28.434l3.78,3.648a1.182,1.182,0,0,0,1.642,0l3.782-3.65,16.4,16.407V64.459a1.034,1.034,0,0,1-1.033,1.033Z" transform="translate(0 0)"/>
      <g id="Grupo_1201062" data-name="Grupo 1201062" transform="translate(46.815 29.654)">
        <path id="Trazado_1074681" data-name="Trazado 1074681" d="M397.223,181.61a1.176,1.176,0,0,1-1.054-.651l0-.007a1.179,1.179,0,1,1,1.057.658Z" transform="translate(-396.04 -179.242)"/>
      </g>
    </g>
  </g>
</svg>
