<svg xmlns="http://www.w3.org/2000/svg" xmlns:xlink="http://www.w3.org/1999/xlink" width="103" height="103" viewBox="0 0 103 103">
  <defs>
    <filter id="Trazado_978624" x="0" y="0" width="103" height="103" filterUnits="userSpaceOnUse">
      <feOffset dy="3" input="SourceAlpha"/>
      <feGaussianBlur stdDeviation="3" result="blur"/>
      <feFlood flood-opacity="0.161"/>
      <feComposite operator="in" in2="blur"/>
      <feComposite in="SourceGraphic"/>
    </filter>
  </defs>
  <g id="Grupo_1200857" data-name="Grupo 1200857" transform="translate(-1293 -1619)">
    <g id="Grupo_1181205" data-name="Grupo 1181205" transform="translate(681 671)">
      <g id="Grupo_1179494" data-name="Grupo 1179494" transform="translate(621 954)">
        <g id="Grupo_1144531" data-name="Grupo 1144531">
          <g transform="matrix(1, 0, 0, 1, -9, -6)" filter="url(#Trazado_978624)">
            <g id="Trazado_978624-2" data-name="Trazado 978624" transform="translate(9 6)" fill="#fdfbec">
              <path d="M 42.5 83.5 C 36.96437835693359 83.5 31.59512901306152 82.41617584228516 26.54141235351562 80.27863311767578 C 21.65934181213379 78.21369171142578 17.27447128295898 75.25723266601562 13.50862312316895 71.49137878417969 C 9.742764472961426 67.72553253173828 6.786305904388428 63.34066009521484 4.721364498138428 58.45858764648438 C 2.583823442459106 53.40486907958984 1.5 48.03562164306641 1.5 42.5 C 1.5 36.96437835693359 2.583823442459106 31.59512901306152 4.721364498138428 26.54141235351562 C 6.786305904388428 21.65934181213379 9.742764472961426 17.27447128295898 13.50862312316895 13.50862312316895 C 17.27447128295898 9.742764472961426 21.65934181213379 6.786305904388428 26.54141235351562 4.721364498138428 C 31.59512901306152 2.583823442459106 36.96437835693359 1.5 42.5 1.5 C 48.03562164306641 1.5 53.40486907958984 2.583823442459106 58.45858764648438 4.721364498138428 C 63.34066009521484 6.786305904388428 67.72553253173828 9.742764472961426 71.49137878417969 13.50862312316895 C 75.25723266601562 17.27447128295898 78.21369171142578 21.65934181213379 80.27863311767578 26.54141235351562 C 82.41617584228516 31.59512901306152 83.5 36.96437835693359 83.5 42.5 C 83.5 48.03562164306641 82.41617584228516 53.40486907958984 80.27863311767578 58.45858764648438 C 78.21369171142578 63.34066009521484 75.25723266601562 67.72553253173828 71.49137878417969 71.49137878417969 C 67.72553253173828 75.25723266601562 63.34066009521484 78.21369171142578 58.45858764648438 80.27863311767578 C 53.40486907958984 82.41617584228516 48.03562164306641 83.5 42.5 83.5 Z" stroke="none"/>
              <path d="M 42.5 3 C 37.16621398925781 3 31.99356079101562 4.043960571289062 27.125732421875 6.102882385253906 C 22.42246627807617 8.092185974121094 18.19785308837891 10.94070434570312 14.56928253173828 14.56928253173828 C 10.94070434570312 18.19785308837891 8.092185974121094 22.42246627807617 6.102882385253906 27.125732421875 C 4.043960571289062 31.99356079101562 3 37.16621398925781 3 42.5 C 3 47.83378601074219 4.043960571289062 53.00643920898438 6.102882385253906 57.87425231933594 C 8.092185974121094 62.57753372192383 10.94070434570312 66.80213165283203 14.56928253173828 70.43071746826172 C 18.19786834716797 74.05929565429688 22.42246627807617 76.90781402587891 27.125732421875 78.89711761474609 C 31.99356079101562 80.95603942871094 37.16621398925781 82 42.5 82 C 47.83378601074219 82 53.00642395019531 80.95603942871094 57.87425231933594 78.89711761474609 C 62.57753372192383 76.90781402587891 66.80213165283203 74.05929565429688 70.43071746826172 70.43071746826172 C 74.05929565429688 66.80213165283203 76.90781402587891 62.57753372192383 78.89711761474609 57.87425231933594 C 80.95603942871094 53.00642395019531 82 47.83378601074219 82 42.5 C 82 37.16621398925781 80.95603942871094 31.99356079101562 78.89711761474609 27.125732421875 C 76.90781402587891 22.42246627807617 74.05929565429688 18.19786834716797 70.43071746826172 14.56928253173828 C 66.80213165283203 10.94070434570312 62.57753372192383 8.092185974121094 57.87425231933594 6.102882385253906 C 53.00643920898438 4.043960571289062 47.83378601074219 3 42.5 3 M 42.5 0 C 65.97209167480469 0 85 19.02789306640625 85 42.5 C 85 65.97209167480469 65.97209167480469 85 42.5 85 C 19.02789306640625 85 0 65.97209167480469 0 42.5 C 0 19.02789306640625 19.02789306640625 0 42.5 0 Z" stroke="none" fill="#84792b"/>
            </g>
          </g>
        </g>
      </g>
    </g>
    <g id="maternidad_1_" data-name="maternidad (1)" transform="translate(1318.271 1641.268)">
      <g id="Grupo_1200856" data-name="Grupo 1200856" transform="translate(1.025 1.027)">
        <path id="Trazado_1069715" data-name="Trazado 1069715" d="M422.918,64a2.487,2.487,0,0,1-3.677,0,2.564,2.564,0,0,0-2.531,2.6c0,2.008,4.369,5.349,4.369,5.349s4.369-3.34,4.369-5.349A2.564,2.564,0,0,0,422.918,64Z" transform="translate(-375.04 -58.469)" fill="#fe90c5"/>
        <path id="Trazado_1069716" data-name="Trazado 1069716" d="M16.208,10a2.494,2.494,0,0,0-1.838.812A2.494,2.494,0,0,0,12.531,10,2.564,2.564,0,0,0,10,12.6c0,2.008,4.369,5.349,4.369,5.349s4.369-3.34,4.369-5.349A2.564,2.564,0,0,0,16.208,10Z" transform="translate(-10 -10.002)" fill="#fe90c5"/>
      </g>
      <path id="Trazado_1069717" data-name="Trazado 1069717" d="M97.335,121.055l11.539-11.539-5.5-5.5.006-4.568a14.661,14.661,0,0,0-2.484-8.186l-4.51-6.725a3.058,3.058,0,0,0-4.307-.792,3.11,3.11,0,0,0-.807,4.146l1.724,2.843a.441.441,0,0,1-.688.54L79.618,78.584a3.04,3.04,0,0,0-4.269-.066,2.99,2.99,0,0,0-.154,4.09l-1.85-1.85a2.992,2.992,0,0,0-4.19-.04,3.056,3.056,0,0,0,.015,4.327l1.795,1.795a2.99,2.99,0,0,0-4.09.154,3.04,3.04,0,0,0,.066,4.269l2.011,2.011a2.99,2.99,0,0,0-4.076.14h0a2.992,2.992,0,0,0,0,4.231l9.719,9.719h0l3.9,3.9a14.659,14.659,0,0,0,10.387,4.294l2.952,0Z" transform="translate(-57.441 -69.714)" fill="#ffd4ac"/>
      <path id="Trazado_1069718" data-name="Trazado 1069718" d="M18.3,246.866l4.5-4.5,3.284,0a10.54,10.54,0,0,0,5.885-1.786l4.835-3.242a2.2,2.2,0,0,0,.576-3.087h0a2.2,2.2,0,0,0-2.94-.619L32.35,234.9a.317.317,0,0,1-.388-.5l6.917-6.917a2.151,2.151,0,0,0,0-3.042h0a2.151,2.151,0,0,0-3.042,0l-4.833,4.833,1.512-1.5,4.833-4.833a2.151,2.151,0,0,0,0-3.042h0a2.151,2.151,0,0,0-3.042,0l-4.833,4.833-1.5,1.512,4.833-4.833a2.151,2.151,0,0,0,0-3.042h0a2.151,2.151,0,0,0-3.042,0l-4.833,4.833.005.005,1.265-1.265a2.151,2.151,0,0,0,0-3.042h0a2.151,2.151,0,0,0-3.042,0l-2.769,2.769,2.281-2.281-5.085,5.085a10.539,10.539,0,0,0-3.087,7.467l0,2.122-4.5,4.5Z" transform="translate(-8.975 -195.431)" fill="#ffcc9c"/>
      <path id="Trazado_1069719" data-name="Trazado 1069719" d="M35.115,105.7a1.025,1.025,0,0,0-.724-.3h0l-2.952,0h-.019a13.714,13.714,0,0,1-4.79-.871l1.772-1.188a3.221,3.221,0,0,0-1.8-5.9h-.05l4.081-4.081a3.179,3.179,0,0,0-1.035-5.183,3.177,3.177,0,0,0-4.346-4.346,3.177,3.177,0,0,0-5.183-1.035L18.6,84.27a3.177,3.177,0,0,0-5.139-.934l-.649.649-2.64-2.626A1.967,1.967,0,0,1,12.8,78.441L15.359,81a1.025,1.025,0,1,0,1.449-1.449L12.4,75.138a1.967,1.967,0,1,1,2.782-2.782L22.908,80.1a1.025,1.025,0,0,0,1.449-1.449l-5.875-5.89A1.967,1.967,0,0,1,21.4,70.131l2.152,2.153A1.025,1.025,0,0,0,25,70.834l-2.152-2.153a4.013,4.013,0,0,0-6.718,1.8,4.016,4.016,0,0,0-5.6,5.605,4.012,4.012,0,0,0-2.053,6.445,4.013,4.013,0,0,0-1.764,6.708l.457.457A11.475,11.475,0,0,0,4.5,97.1l0,1.7L.3,103a1.025,1.025,0,1,0,1.449,1.449l4.5-4.5a1.025,1.025,0,0,0,.3-.726l0-2.122a9.451,9.451,0,0,1,2.787-6.741l5.085-5.085h0l.488-.488a1.126,1.126,0,0,1,1.677,1.5l-1.354,1.354a1.025,1.025,0,0,0,0,1.449l0,0,0,0a1.025,1.025,0,0,0,1.449,0l4.827-4.838a1.126,1.126,0,0,1,1.677,1.5l-4.917,4.927a1.025,1.025,0,1,0,1.449,1.449l6.334-6.345a1.126,1.126,0,0,1,1.593,1.593L21.3,93.71a1.025,1.025,0,0,0,1.449,1.449l4.928-4.917a1.126,1.126,0,0,1,1.5,1.677l-6.917,6.918a1.341,1.341,0,0,0,1.644,2.1L26,99.666a1.174,1.174,0,0,1,1.262,1.978l-4.835,3.242a9.482,9.482,0,0,1-5.3,1.612H17.11l-3.284,0h0a1.025,1.025,0,0,0-.724.3l-4.5,4.5a1.025,1.025,0,1,0,1.449,1.449l4.2-4.2,2.859,0h.016a11.525,11.525,0,0,0,6.441-1.959l1.035-.694a15.77,15.77,0,0,0,6.818,1.561h.022l2.527,0,5.2,5.2a1.025,1.025,0,1,0,1.449-1.449ZM8.158,85.012a1.97,1.97,0,0,1,2.631-.136l.566.566-.663.663h0L8.581,88.217l-.422-.422A1.97,1.97,0,0,1,8.158,85.012Z" transform="translate(0 -60.588)"/>
      <path id="Trazado_1069720" data-name="Trazado 1069720" d="M493.025,378.452a1.025,1.025,0,1,0,.724.3A1.028,1.028,0,0,0,493.025,378.452Z" transform="translate(-441.591 -339.674)"/>
      <path id="Trazado_1069721" data-name="Trazado 1069721" d="M292.989,142.823,293,138.68a15.63,15.63,0,0,0-2.658-8.758l-4.51-6.725a4.082,4.082,0,0,0-5.732-1.07,4.1,4.1,0,0,0-1.55,4.577l-2.678-2.678a1.025,1.025,0,0,0-1.449,1.449l5.752,5.752a1.465,1.465,0,0,0,2.289-1.8l-1.762-2.907a2.033,2.033,0,0,1,3.427-2.186l4.51,6.725a13.588,13.588,0,0,1,2.311,7.613l-.006,4.568a1.025,1.025,0,0,0,.3.726l2.748,2.748a1.025,1.025,0,0,0,1.449-1.449Z" transform="translate(-246.034 -108.948)"/>
      <path id="Trazado_1069722" data-name="Trazado 1069722" d="M251.636,122.761a1.025,1.025,0,1,0-.725-.3A1.03,1.03,0,0,0,251.636,122.761Z" transform="translate(-224.933 -108.342)"/>
      <path id="Trazado_1069723" data-name="Trazado 1069723" d="M331.305,263.5a1.025,1.025,0,0,0-1.449-1.449l-.447.447a4.913,4.913,0,0,0,0,6.94,1.025,1.025,0,0,0,1.449-1.449,2.861,2.861,0,0,1,0-4.042Z" transform="translate(-294.371 -234.932)"/>
      <path id="Trazado_1069724" data-name="Trazado 1069724" d="M413.942,54a3.494,3.494,0,0,1-3.677,0,3.592,3.592,0,0,0-3.555,3.62c0,1.131.813,2.49,2.487,4.154a26.1,26.1,0,0,0,2.285,2.009,1.025,1.025,0,0,0,1.245,0,26.123,26.123,0,0,0,2.285-2.009c1.673-1.664,2.487-3.023,2.487-4.154A3.592,3.592,0,0,0,413.942,54ZM412.1,61.66c-1.712-1.422-3.344-3.237-3.344-4.038a1.541,1.541,0,0,1,1.506-1.571,1.464,1.464,0,0,1,1.085.482,1.025,1.025,0,0,0,1.506,0,1.465,1.465,0,0,1,1.085-.482,1.541,1.541,0,0,1,1.506,1.571C415.449,58.422,413.816,60.237,412.1,61.66Z" transform="translate(-365.04 -48.466)"/>
      <path id="Trazado_1069725" data-name="Trazado 1069725" d="M4.771,9.786a1.025,1.025,0,0,0,1.245,0A26.12,26.12,0,0,0,8.3,7.777c1.673-1.664,2.487-3.023,2.487-4.154A3.592,3.592,0,0,0,7.232,0,3.519,3.519,0,0,0,5.394.526,3.519,3.519,0,0,0,3.555,0,3.592,3.592,0,0,0,0,3.623c0,1.131.813,2.49,2.487,4.154A26.128,26.128,0,0,0,4.771,9.786ZM3.555,2.052a1.464,1.464,0,0,1,1.085.482,1.025,1.025,0,0,0,1.506,0,1.465,1.465,0,0,1,1.085-.482A1.541,1.541,0,0,1,8.739,3.623c0,.8-1.633,2.614-3.345,4.038C3.681,6.239,2.049,4.425,2.049,3.623A1.541,1.541,0,0,1,3.555,2.052Z" transform="translate(0 0)"/>
    </g>
  </g>
</svg>
