<svg xmlns="http://www.w3.org/2000/svg" xmlns:xlink="http://www.w3.org/1999/xlink" width="400" height="411" viewBox="0 0 400 411">
  <defs>
    <clipPath id="clip-path">
      <rect id="Rect치ngulo_416181" data-name="Rect치ngulo 416181" width="400" height="411" transform="translate(180 1817)" fill="#fff" stroke="#707070" stroke-width="1"/>
    </clipPath>
  </defs>
  <g id="Enmascarar_grupo_1098854" data-name="Enmascarar grupo 1098854" transform="translate(-180 -1817)" clip-path="url(#clip-path)">
    <g id="Grupo_1201241" data-name="Grupo 1201241" transform="translate(-898.119 -54.666)">
      <g id="OBJECTS" transform="translate(1065 1882.28)">
        <g id="Grupo_1201184" data-name="Grupo 1201184" transform="translate(2.491 0)">
          <path id="Trazado_1074921" data-name="Trazado 1074921" d="M80.877,49.169C50.7,78.154,36.846,122.277,41.929,163.81s28.1,79.98,60.326,106.673,73.1,41.984,114.719,46.36c35.384,3.722,72.4-.489,103.652-17.494,45.617-24.822,73.908-74.634,82.6-125.834,4.167-24.543,4.207-50.53-5.455-73.473S367.346,57.811,342.616,54.95c-27.272-3.155-54.213,13.31-81.348,9.139C243.158,61.3,227.831,49.763,211.379,41.7,169.426,21.127,112.5,18.794,80.877,49.169Z" transform="translate(-8.78 -26.28)" fill="#fcf8db"/>
          <g id="Grupo_1201183" data-name="Grupo 1201183" transform="translate(10.628 78.172)" opacity="0.8">
            <g id="Grupo_1201168" data-name="Grupo 1201168" transform="translate(38.86 25.645)">
              <g id="Grupo_1201159" data-name="Grupo 1201159" transform="translate(36.218)">
                <path id="Trazado_1074922" data-name="Trazado 1074922" d="M102.4,196.293a64.666,64.666,0,0,1-2.374-53.917A78.178,78.178,0,0,1,102.4,196.293Z" transform="translate(-95.255 -142.376)" fill="#d1cd5c"/>
                <path id="Trazado_1074923" data-name="Trazado 1074923" d="M100.267,167.463a248.144,248.144,0,0,1,2.918,32.5" transform="translate(-96.19 -147.059)" fill="none" stroke="#74a847" stroke-linecap="round" stroke-linejoin="round" stroke-miterlimit="10" stroke-width="1"/>
              </g>
              <g id="Grupo_1201160" data-name="Grupo 1201160" transform="translate(0 42.022)">
                <path id="Trazado_1074924" data-name="Trazado 1074924" d="M95.617,207.175a56.891,56.891,0,0,0-44.894-12.464C61.07,205.295,77.008,210.069,95.617,207.175Z" transform="translate(-50.723 -194.044)" fill="#d1cd5c"/>
                <path id="Trazado_1074925" data-name="Trazado 1074925" d="M98.866,209.318q-13.965-4.03-28.205-7.006" transform="translate(-54.445 -195.587)" fill="none" stroke="#74a847" stroke-linecap="round" stroke-linejoin="round" stroke-miterlimit="10" stroke-width="1"/>
              </g>
              <g id="Grupo_1201161" data-name="Grupo 1201161" transform="translate(53.743 20.757)">
                <path id="Trazado_1074926" data-name="Trazado 1074926" d="M120.855,225.067a71.966,71.966,0,0,1,4.152-57.169A77.034,77.034,0,0,1,120.855,225.067Z" transform="translate(-116.801 -167.898)" fill="#d1cd5c"/>
                <path id="Trazado_1074927" data-name="Trazado 1074927" d="M123.112,197.948a182.489,182.489,0,0,1-1.527,31.953" transform="translate(-117.694 -173.508)" fill="none" stroke="#74a847" stroke-linecap="round" stroke-linejoin="round" stroke-miterlimit="10" stroke-width="1"/>
              </g>
              <g id="Grupo_1201162" data-name="Grupo 1201162" transform="translate(13.874 66.936)">
                <path id="Trazado_1074928" data-name="Trazado 1074928" d="M113.2,238.378a52.851,52.851,0,0,0-45.422-12.733C74.92,237.092,89.938,242.967,113.2,238.378Z" transform="translate(-67.781 -224.676)" fill="#d1cd5c"/>
                <path id="Trazado_1074929" data-name="Trazado 1074929" d="M116.641,239.932a100.228,100.228,0,0,0-30.209-8.306" transform="translate(-71.263 -225.973)" fill="none" stroke="#74a847" stroke-linecap="round" stroke-linejoin="round" stroke-miterlimit="10" stroke-width="1"/>
              </g>
              <g id="Grupo_1201163" data-name="Grupo 1201163" transform="translate(67.071 48.336)">
                <path id="Trazado_1074930" data-name="Trazado 1074930" d="M134.881,254.165a58.449,58.449,0,0,1,12.81-52.358C148.958,219.254,144.549,237.069,134.881,254.165Z" transform="translate(-133.189 -201.807)" fill="#d1cd5c"/>
                <path id="Trazado_1074931" data-name="Trazado 1074931" d="M140.967,227.089q-2.84,15.854-5.681,31.706" transform="translate(-133.58 -206.527)" fill="none" stroke="#74a847" stroke-linecap="round" stroke-linejoin="round" stroke-miterlimit="10" stroke-width="1"/>
              </g>
              <g id="Grupo_1201164" data-name="Grupo 1201164" transform="translate(24.705 90.43)">
                <path id="Trazado_1074932" data-name="Trazado 1074932" d="M126.214,266.97c-3.989-7.327-12.122-11.718-20.371-12.959s-16.663.273-24.745,2.342C90.839,267.539,107.7,271.876,126.214,266.97Z" transform="translate(-81.098 -253.563)" fill="#d1cd5c"/>
                <path id="Trazado_1074933" data-name="Trazado 1074933" d="M129.923,268.843A100.587,100.587,0,0,0,98.73,262.09" transform="translate(-84.39 -255.155)" fill="none" stroke="#74a847" stroke-linecap="round" stroke-linejoin="round" stroke-miterlimit="10" stroke-width="1"/>
              </g>
              <g id="Grupo_1201165" data-name="Grupo 1201165" transform="translate(76 73.576)">
                <path id="Trazado_1074934" data-name="Trazado 1074934" d="M144.653,280.59a45.44,45.44,0,0,1,25.489-47.75C166.879,252.106,157.569,270.3,144.653,280.59Z" transform="translate(-144.167 -232.84)" fill="#d1cd5c"/>
                <path id="Trazado_1074935" data-name="Trazado 1074935" d="M158.464,253.684l-13.726,30.645" transform="translate(-144.274 -236.731)" fill="none" stroke="#74a847" stroke-linecap="round" stroke-linejoin="round" stroke-miterlimit="10" stroke-width="1"/>
              </g>
              <g id="Grupo_1201166" data-name="Grupo 1201166" transform="translate(35.531 111.512)">
                <path id="Trazado_1074936" data-name="Trazado 1074936" d="M136.685,294.88A45.592,45.592,0,0,0,94.41,280.252C105.336,291.453,120.088,298.853,136.685,294.88Z" transform="translate(-94.41 -279.483)" fill="#d1cd5c"/>
                <path id="Trazado_1074937" data-name="Trazado 1074937" d="M140.543,296.438a185.815,185.815,0,0,0-28-10.373" transform="translate(-97.795 -280.712)" fill="none" stroke="#74a847" stroke-linecap="round" stroke-linejoin="round" stroke-miterlimit="10" stroke-width="1"/>
              </g>
              <g id="Grupo_1201167" data-name="Grupo 1201167" transform="translate(5.049 3.443)">
                <path id="Trazado_1074938" data-name="Trazado 1074938" d="M87.4,185.717a49.306,49.306,0,0,0-30.384-39.108c-.626,7.113,2.3,14.174,6.609,19.869S73.553,176.712,87.4,185.717Z" transform="translate(-56.93 -146.609)" fill="#d1cd5c"/>
                <path id="Trazado_1074939" data-name="Trazado 1074939" d="M69.642,163.139a294.946,294.946,0,0,1,64.734,117.8" transform="translate(-59.303 -149.695)" fill="none" stroke="#74a847" stroke-linecap="round" stroke-linejoin="round" stroke-miterlimit="10" stroke-width="1"/>
              </g>
            </g>
            <g id="Grupo_1201178" data-name="Grupo 1201178" transform="translate(292.074 150.72)">
              <g id="Grupo_1201169" data-name="Grupo 1201169" transform="translate(56.906)">
                <path id="Trazado_1074940" data-name="Trazado 1074940" d="M432.3,344.463a59.984,59.984,0,0,0,13.156-48.3A72.519,72.519,0,0,0,432.3,344.463Z" transform="translate(-432.026 -296.16)" fill="#d1cd5c"/>
                <path id="Trazado_1074941" data-name="Trazado 1074941" d="M442.054,319.034a230.074,230.074,0,0,0-9.274,28.809" transform="translate(-432.167 -300.43)" fill="none" stroke="#74a847" stroke-linecap="round" stroke-linejoin="round" stroke-miterlimit="10" stroke-width="1"/>
              </g>
              <g id="Grupo_1201170" data-name="Grupo 1201170" transform="translate(55.537 43.367)">
                <path id="Trazado_1074942" data-name="Trazado 1074942" d="M430.343,355.223a52.773,52.773,0,0,1,43.167-2.113C461.988,360.575,446.591,361.641,430.343,355.223Z" transform="translate(-430.343 -349.481)" fill="#d1cd5c"/>
                <path id="Trazado_1074943" data-name="Trazado 1074943" d="M430.719,357.183q13.459-.8,26.953-.581" transform="translate(-430.413 -350.802)" fill="none" stroke="#74a847" stroke-linecap="round" stroke-linejoin="round" stroke-miterlimit="10" stroke-width="1"/>
              </g>
              <g id="Grupo_1201171" data-name="Grupo 1201171" transform="translate(37.319 14.504)">
                <path id="Trazado_1074944" data-name="Trazado 1074944" d="M409.837,366.571a66.755,66.755,0,0,0,7.914-52.578A71.461,71.461,0,0,0,409.837,366.571Z" transform="translate(-407.943 -313.993)" fill="#d1cd5c"/>
                <path id="Trazado_1074945" data-name="Trazado 1074945" d="M415.79,341.884a169.178,169.178,0,0,0-5.141,29.225" transform="translate(-408.448 -319.2)" fill="none" stroke="#74a847" stroke-linecap="round" stroke-linejoin="round" stroke-miterlimit="10" stroke-width="1"/>
              </g>
              <g id="Grupo_1201172" data-name="Grupo 1201172" transform="translate(37.291 62.892)">
                <path id="Trazado_1074946" data-name="Trazado 1074946" d="M407.923,379.825a49.024,49.024,0,0,1,43.7-2.248C442.827,386.477,428.038,388.727,407.923,379.825Z" transform="translate(-407.911 -373.488)" fill="#d1cd5c"/>
                <path id="Trazado_1074947" data-name="Trazado 1074947" d="M407.908,381.135a92.975,92.975,0,0,1,29.031-1.348" transform="translate(-407.908 -374.558)" fill="none" stroke="#74a847" stroke-linecap="round" stroke-linejoin="round" stroke-miterlimit="10" stroke-width="1"/>
              </g>
              <g id="Grupo_1201173" data-name="Grupo 1201173" transform="translate(20.438 35.453)">
                <path id="Trazado_1074948" data-name="Trazado 1074948" d="M391.391,389.742a54.218,54.218,0,0,0-.9-49.992C385.779,355.278,386.133,372.3,391.391,389.742Z" transform="translate(-387.187 -339.75)" fill="#d1cd5c"/>
                <path id="Trazado_1074949" data-name="Trazado 1074949" d="M393.7,364.412q-.666,14.925-1.333,29.85" transform="translate(-388.153 -344.354)" fill="none" stroke="#74a847" stroke-linecap="round" stroke-linejoin="round" stroke-miterlimit="10" stroke-width="1"/>
              </g>
              <g id="Grupo_1201174" data-name="Grupo 1201174" transform="translate(22.608 80.424)">
                <path id="Trazado_1074950" data-name="Trazado 1074950" d="M390.39,402.693c5.105-5.816,13.361-8.128,21.079-7.566s15.023,3.649,21.913,7.171C422.283,410.43,406.138,410.911,390.39,402.693Z" transform="translate(-389.955 -395.044)" fill="#d1cd5c"/>
                <path id="Trazado_1074951" data-name="Trazado 1074951" d="M389.855,404.413a93.287,93.287,0,0,1,29.6.258" transform="translate(-389.855 -396.596)" fill="none" stroke="#74a847" stroke-linecap="round" stroke-linejoin="round" stroke-miterlimit="10" stroke-width="1"/>
              </g>
              <g id="Grupo_1201175" data-name="Grupo 1201175" transform="translate(0 54.126)">
                <path id="Trazado_1074952" data-name="Trazado 1074952" d="M375.5,411.12a42.149,42.149,0,0,0-13.314-48.411C361.2,380.808,365.913,399.175,375.5,411.12Z" transform="translate(-362.058 -362.709)" fill="#d1cd5c"/>
                <path id="Trazado_1074953" data-name="Trazado 1074953" d="M371.069,384.528l6.163,30.532" transform="translate(-363.74 -366.782)" fill="none" stroke="#74a847" stroke-linecap="round" stroke-linejoin="round" stroke-miterlimit="10" stroke-width="1"/>
              </g>
              <g id="Grupo_1201176" data-name="Grupo 1201176" transform="translate(10.611 99.342)">
                <path id="Trazado_1074954" data-name="Trazado 1074954" d="M375.714,426.28a42.29,42.29,0,0,1,41.24-4.606C404.78,429.58,389.921,433.264,375.714,426.28Z" transform="translate(-375.219 -418.304)" fill="#d1cd5c"/>
                <path id="Trazado_1074955" data-name="Trazado 1074955" d="M375.105,427.517a172.448,172.448,0,0,1,27.453-3.671" transform="translate(-375.105 -419.338)" fill="none" stroke="#74a847" stroke-linecap="round" stroke-linejoin="round" stroke-miterlimit="10" stroke-width="1"/>
              </g>
              <g id="Grupo_1201177" data-name="Grupo 1201177" transform="translate(7.424 10.435)">
                <path id="Trazado_1074956" data-name="Trazado 1074956" d="M443.94,338.174a45.737,45.737,0,0,1,35.477-29.184c-.885,6.564-4.976,12.356-10.036,16.629S458.306,332.854,443.94,338.174Z" transform="translate(-384.768 -308.99)" fill="#d1cd5c"/>
                <path id="Trazado_1074957" data-name="Trazado 1074957" d="M453.812,321.374a273.591,273.591,0,0,0-82.626,93.38" transform="translate(-371.186 -311.302)" fill="none" stroke="#74a847" stroke-linecap="round" stroke-linejoin="round" stroke-miterlimit="10" stroke-width="1"/>
              </g>
            </g>
            <g id="Grupo_1201179" data-name="Grupo 1201179" transform="translate(231.531)">
              <path id="Trazado_1074958" data-name="Trazado 1074958" d="M290.291,333.378c-2.62-38.507-5.216-77.461,2.142-116.427s25.768-78.557,58.423-106.105C345.511,184.406,324.446,258.5,290.291,333.378Z" transform="translate(-287.618 -110.845)" fill="#d1cd5c"/>
              <path id="Trazado_1074959" data-name="Trazado 1074959" d="M328.666,171.083c-21.7,53.979-34.241,110.344-36.958,166.16" transform="translate(-288.382 -122.09)" fill="none" stroke="#74a847" stroke-linecap="round" stroke-linejoin="round" stroke-miterlimit="10" stroke-width="1"/>
            </g>
            <g id="Grupo_1201180" data-name="Grupo 1201180" transform="translate(238.267 47.182)">
              <path id="Trazado_1074960" data-name="Trazado 1074960" d="M295.918,355.472c-1.078-82.643,48.561-159.331,120.79-186.615C389.01,231.966,350.93,289.383,295.918,355.472Z" transform="translate(-295.901 -168.857)" fill="#d1cd5c"/>
              <path id="Trazado_1074961" data-name="Trazado 1074961" d="M378.146,217.7a505.433,505.433,0,0,0-82.013,145.808" transform="translate(-295.944 -177.975)" fill="none" stroke="#74a847" stroke-linecap="round" stroke-linejoin="round" stroke-miterlimit="10" stroke-width="1"/>
            </g>
            <g id="Grupo_1201181" data-name="Grupo 1201181" transform="translate(13.082 113.177)">
              <path id="Trazado_1074962" data-name="Trazado 1074962" d="M122.538,382.109c-6.568-31.085-14.19-62.739-30.776-88.828s-44.075-45.863-72.733-43.006C46.622,293.674,77.79,320.729,122.538,382.109Z" transform="translate(-19.029 -250)" fill="#d1cd5c"/>
              <path id="Trazado_1074963" data-name="Trazado 1074963" d="M46.35,266.521c35.127,28.221,63.144,67.224,80.1,111.514" transform="translate(-24.129 -253.084)" fill="none" stroke="#74a847" stroke-linecap="round" stroke-linejoin="round" stroke-miterlimit="10" stroke-width="1"/>
            </g>
            <g id="Grupo_1201182" data-name="Grupo 1201182" transform="translate(0 182.907)">
              <path id="Trazado_1074964" data-name="Trazado 1074964" d="M146.723,439.661c-13.557-29.783-30.931-58.308-55.563-78.414S33.725,330.353,2.944,338.43C39.621,385.891,110.461,394.11,146.723,439.661Z" transform="translate(-2.944 -335.734)" fill="#d1cd5c"/>
              <path id="Trazado_1074965" data-name="Trazado 1074965" d="M42.9,354.794a333.02,333.02,0,0,1,109.953,84.05" transform="translate(-10.403 -339.292)" fill="none" stroke="#74a847" stroke-linecap="round" stroke-linejoin="round" stroke-miterlimit="10" stroke-width="1"/>
            </g>
          </g>
        </g>
        <g id="Grupo_1201213" data-name="Grupo 1201213" transform="translate(19.479 46.515)">
          <g id="Grupo_1201200" data-name="Grupo 1201200" transform="translate(14.9)">
            <path id="Trazado_1074966" data-name="Trazado 1074966" d="M108.709,255.388c-2.827-12.693,1.511-25.889,7.229-37.57s12.914-22.788,16.394-35.319c3.338-12.021,3.071-24.694,3.5-37.163s1.705-25.329,7.715-36.262,17.838-19.514,31.385-19.658c17.293-10.808,40.712-10.9,58.089-.229s27.889,31.6,26.073,51.91c-1.217,13.6-7.449,26.492-7.788,40.146-.223,8.988,2.122,17.813,3.387,26.714,2.884,20.3-.212,42.007-11.574,58.995C197.976,265.778,152.925,261.124,108.709,255.388Z" transform="translate(-50.958 -81.247)" fill="#b84453"/>
            <path id="Trazado_1074967" data-name="Trazado 1074967" d="M290.957,349.638l8.981,53.4-49.031-6.311-1.214-34.71Z" transform="translate(-72.772 -122.515)" fill="#eb7563"/>
            <path id="Trazado_1074968" data-name="Trazado 1074968" d="M77.775,315.693s-45.65,63.36-35.742,86.028C50.767,421.7,100.1,416.1,100.1,416.1l.669-21.474L86.944,382.837,97.619,368.3Z" transform="translate(-40.626 -117.296)" fill="#ffa382"/>
            <g id="Grupo_1201187" data-name="Grupo 1201187" transform="translate(22.278 117.105)">
              <path id="Trazado_1074969" data-name="Trazado 1074969" d="M181.369,232.4s-73.561-2.685-114.418,84.856c0,0,20.446,27.988,36,45.469l-6.111,55.953L228.7,422.993s-3.762-42.1-3.431-44.259,3.037-14.081,3.037-14.081,33.591-7.279,41.141-19.6C269.448,345.049,264.074,246.935,181.369,232.4Z" transform="translate(-66.951 -221.591)" fill="#49c9a1"/>
              <g id="Grupo_1201185" data-name="Grupo 1201185" transform="translate(73.493)">
                <path id="Trazado_1074970" data-name="Trazado 1074970" d="M236.112,247.75s-14.994,35.491-39.215,32.783c-24.354-2.722-43.1-40.552-43.1-40.552,1.87-.542,19.108-9.021,19.9-9.715a12.27,12.27,0,0,0,1.168-3.673v-.008c.719-3.08,1.413-6.956,1.413-6.956l49.5,20.107,9.6,7.455Z" transform="translate(-153.798 -219.63)" fill="#ffa382"/>
                <path id="Trazado_1074971" data-name="Trazado 1074971" d="M239.221,247.192a42,42,0,0,1-60.523-20.6v-.008c.719-3.08,1.413-6.956,1.413-6.956l49.5,20.107Z" transform="translate(-157.627 -219.63)" fill="#eb7563"/>
              </g>
              <g id="Grupo_1201186" data-name="Grupo 1201186" transform="translate(37.001 52.156)">
                <path id="Trazado_1074972" data-name="Trazado 1074972" d="M122.025,281.263c3.3,15.237,6.625,30.681,5.928,46.256s-5.886,31.56-17.278,42.2c13.247-9.661,20.014-26.376,20.9-42.747S128.145,294.4,122.025,281.263Z" transform="translate(-110.675 -281.263)" fill="#32a69c"/>
                <path id="Trazado_1074973" data-name="Trazado 1074973" d="M139.875,296.579a93.8,93.8,0,0,1-10.44,53.082c6.751-6.167,10.393-15.152,11.769-24.191S141.892,307.22,139.875,296.579Z" transform="translate(-113.56 -283.618)" fill="#32a69c"/>
                <path id="Trazado_1074974" data-name="Trazado 1074974" d="M257.829,374.418a189.462,189.462,0,0,0,1.378-64.718C266.639,330.662,266.458,354.233,257.829,374.418Z" transform="translate(-133.302 -285.636)" fill="#32a69c"/>
                <path id="Trazado_1074975" data-name="Trazado 1074975" d="M270.213,292.942a173.921,173.921,0,0,1-7.182,52.554c4.433-7.019,6.636-16.006,7.406-24.985S270.639,302.463,270.213,292.942Z" transform="translate(-134.102 -283.059)" fill="#32a69c"/>
                <path id="Trazado_1074976" data-name="Trazado 1074976" d="M207.77,378.911a324.457,324.457,0,0,1-23.063,42.321c6.641-3.568,11.484-9.869,14.658-16.707S204.206,390.264,207.77,378.911Z" transform="translate(-122.058 -296.278)" fill="#32a69c"/>
              </g>
            </g>
            <g id="Grupo_1201199" data-name="Grupo 1201199" transform="translate(79.689 27.455)">
              <path id="Trazado_1074977" data-name="Trazado 1074977" d="M255.558,153.1s-2.86,16.832-6.474,32.58c-2.589,11.3-5.568,22.045-8.166,25.624-.415.575-.838,1.159-1.278,1.752-6.068,8.259-14.234,17.788-29.407,16.383-7.269-.669-17.763-4.468-27.672-12.914a71.005,71.005,0,0,1-16.967-21.655v-.008a95.713,95.713,0,0,1-9.376-29.9s7.845-5.627,10.68-12.177a26.859,26.859,0,0,1-3.808,1.346s7.76-5.7,8.42-9.08l-3.486,1.2s8.259-5.907,8.86-10.595l-3.884.685s15.232-13.193,18.456-22.654c0,0,8.581,13.9,27.994,21.427C231.085,139.636,246.681,138.273,255.558,153.1Z" transform="translate(-138.089 -113.69)" fill="#ffa382"/>
              <g id="Grupo_1201188" data-name="Grupo 1201188" transform="translate(0 47.054)">
                <path id="Trazado_1074978" data-name="Trazado 1074978" d="M156.227,176.665a17.828,17.828,0,0,0-7.921-6.635,10.182,10.182,0,0,0-9.851,1.2c-4.3,3.426-4.407,10.238-2.4,15.441a25.458,25.458,0,0,0,11.037,12.906,24.26,24.26,0,0,0,16.478,2.713C160,194.146,161.316,183.875,156.227,176.665Z" transform="translate(-134.794 -169.294)" fill="#ffa382"/>
                <path id="Trazado_1074979" data-name="Trazado 1074979" d="M147.956,179.466a11.179,11.179,0,0,0-4.592.7,5.774,5.774,0,0,0-3.255,3.178c-.867,2.357.32,4.978,1.851,6.968a20.4,20.4,0,0,0,7.62,6.072c2.3,1.058,5.233,1.6,7.215.019a5.359,5.359,0,0,0,1.662-5.056,11.218,11.218,0,0,0-2.471-4.94A30.187,30.187,0,0,0,147.956,179.466Z" transform="translate(-135.566 -170.857)" fill="#eb7563"/>
                <path id="Trazado_1074980" data-name="Trazado 1074980" d="M140.066,182.282a6.676,6.676,0,0,1,6-2.75,10.964,10.964,0,0,1,6.184,2.81,34.464,34.464,0,0,1,4.673,5.238" transform="translate(-135.605 -170.865)" fill="none" stroke="#c43945" stroke-linecap="round" stroke-linejoin="round" stroke-miterlimit="10" stroke-width="2"/>
              </g>
              <g id="Grupo_1201198" data-name="Grupo 1201198" transform="translate(27.507 25.689)">
                <path id="Trazado_1074981" data-name="Trazado 1074981" d="M210.272,153.66a16.49,16.49,0,0,0-31.445,5.655C186.193,152.161,197.47,149.312,210.272,153.66Z" transform="translate(-169.072 -144.047)" fill="#b84453"/>
                <path id="Trazado_1074982" data-name="Trazado 1074982" d="M273.562,155.443a10.148,10.148,0,0,0-6.9-7.388,13.515,13.515,0,0,0-9.915,1.167A17.182,17.182,0,0,0,249.021,157c3.981-1.99,8.04-2.166,12.152-2.048s8.364,1.593,11.106,4.908C272.683,158.451,273.085,157.044,273.562,155.443Z" transform="translate(-179.865 -144.588)" fill="#b84453"/>
                <path id="Trazado_1074983" data-name="Trazado 1074983" d="M239.2,196.672a15.373,15.373,0,0,0,.651,5.049,6,6,0,0,1-2.869,7.063l-.054.027" transform="translate(-178.006 -152.138)" fill="none" stroke="#c43945" stroke-linecap="round" stroke-linejoin="round" stroke-miterlimit="10" stroke-width="2"/>
                <path id="Trazado_1074984" data-name="Trazado 1074984" d="M229.83,217.092a18.637,18.637,0,0,1-9.8-2.531,12.228,12.228,0,0,0-2.538-1.35,2.851,2.851,0,0,0-2.726.4,3.489,3.489,0,0,0-.861,2.777,11.565,11.565,0,0,0,21.054,6.213,4.087,4.087,0,0,0,.86-3.573,3.3,3.3,0,0,0-2.614-1.935A18.691,18.691,0,0,0,229.83,217.092Z" transform="translate(-174.465 -154.655)" fill="#fff"/>
                <g id="Grupo_1201191" data-name="Grupo 1201191" transform="translate(13.049 19.784)">
                  <path id="Trazado_1074985" data-name="Trazado 1074985" d="M185.3,182.987c0-7.067,6.575-13.854,13.642-13.854s10.79,3.884,12.035,11.5c1.3,7.967-2.3,13.976-9.364,13.976C194.616,194.612,185.3,190.054,185.3,182.987Z" transform="translate(-183.116 -167.688)" fill="#fff"/>
                  <g id="Grupo_1201189" data-name="Grupo 1201189" transform="translate(14.343 10.864)">
                    <path id="Trazado_1074986" data-name="Trazado 1074986" d="M199.825,186.838c.822-4.386,4.646-7.266,8.541-6.431s6.387,5.067,5.566,9.453-4.646,7.266-8.542,6.431S199,191.225,199.825,186.838Z" transform="translate(-199.668 -180.264)" fill="#4f2b36"/>
                    <path id="Trazado_1074987" data-name="Trazado 1074987" d="M203.788,184.014c1.064-1.619,2.9-2.24,4.1-1.387s1.315,2.857.251,4.476-2.9,2.24-4.1,1.387S202.725,185.633,203.788,184.014Z" transform="translate(-200.189 -180.568)" fill="#fff"/>
                  </g>
                  <g id="Grupo_1201190" data-name="Grupo 1201190">
                    <path id="Trazado_1074988" data-name="Trazado 1074988" d="M208.28,171.877c-7.777-3.426-17.229-1.525-21.917,5.734a20.2,20.2,0,0,0-3.167,7.919c-1.816-6.167,1.728-13.256,7.389-16.292,5.625-3.1,13.5-2.227,17.694,2.639Z" transform="translate(-182.718 -167.425)" fill="#4f2b36"/>
                  </g>
                </g>
                <g id="Grupo_1201194" data-name="Grupo 1201194" transform="translate(67.174 20.407)">
                  <path id="Trazado_1074989" data-name="Trazado 1074989" d="M248.79,179.266c3.3-7.207,8.751-8.725,13.178-8.891,7.021-.263,4.18,10.063,1.924,15.556-2.358,5.737-6.308,9.89-11.947,8.121C247.717,192.727,246.2,184.905,248.79,179.266Z" transform="translate(-246.807 -168.502)" fill="#fff"/>
                  <g id="Grupo_1201192" data-name="Grupo 1201192" transform="translate(0 10.353)">
                    <path id="Trazado_1074990" data-name="Trazado 1074990" d="M247.476,185.462c1.72-4.1,5.661-6.121,8.8-4.514s4.3,6.232,2.576,10.331-5.661,6.121-8.8,4.514S245.756,189.561,247.476,185.462Z" transform="translate(-246.678 -180.396)" fill="#4f2b36"/>
                    <path id="Trazado_1074991" data-name="Trazado 1074991" d="M251.73,183.4c1.285-1.358,3-1.588,3.834-.513s.464,3.047-.822,4.4-3,1.588-3.834.513S250.444,184.757,251.73,183.4Z" transform="translate(-247.26 -180.675)" fill="#fff"/>
                  </g>
                  <g id="Grupo_1201193" data-name="Grupo 1201193" transform="translate(3.281)">
                    <path id="Trazado_1074992" data-name="Trazado 1074992" d="M250.555,173.922c2.143-5.78,10.283-7.221,15.27-4.274,1.686.973,3.314,2.881,3.073,4.915a7.178,7.178,0,0,0-4.149-2.48,19.913,19.913,0,0,0-14.193,1.84Z" transform="translate(-250.555 -168.162)" fill="#4f2b36"/>
                  </g>
                </g>
                <g id="Grupo_1201195" data-name="Grupo 1201195" transform="translate(70.769 46.301)">
                  <path id="Trazado_1074993" data-name="Trazado 1074993" d="M263.648,198.76c-2.59,11.3-5.568,22.045-8.166,25.624-.415.575-.838,1.159-1.278,1.752a28.553,28.553,0,0,1-3.123-9.529c-.609-4.908.559-10.2,3.91-13.836A12.659,12.659,0,0,1,263.648,198.76Z" transform="translate(-250.926 -198.76)" fill="#eb6563"/>
                  <path id="Trazado_1074994" data-name="Trazado 1074994" d="M258.677,210.437q-.967,2.558-1.936,5.116" transform="translate(-251.82 -200.555)" fill="none" stroke="#c43945" stroke-linecap="round" stroke-linejoin="round" stroke-miterlimit="10" stroke-width="2"/>
                </g>
                <g id="Grupo_1201197" data-name="Grupo 1201197" transform="translate(0 46.007)">
                  <path id="Trazado_1074995" data-name="Trazado 1074995" d="M191.358,225.9a21.5,21.5,0,0,1-7.091,3.656A71.005,71.005,0,0,1,167.3,207.9v-.008A15.482,15.482,0,1,1,191.358,225.9Z" transform="translate(-167.299 -198.414)" fill="#eb6563"/>
                  <g id="Grupo_1201196" data-name="Grupo 1201196" transform="translate(10.146 7.678)">
                    <path id="Trazado_1074996" data-name="Trazado 1074996" d="M179.842,212.234l-.553,6.36" transform="translate(-179.289 -208.217)" fill="none" stroke="#c43945" stroke-linecap="round" stroke-linejoin="round" stroke-miterlimit="10" stroke-width="2"/>
                    <path id="Trazado_1074997" data-name="Trazado 1074997" d="M185.895,207.487l1.559,12.043" transform="translate(-180.305 -207.487)" fill="none" stroke="#c43945" stroke-linecap="round" stroke-linejoin="round" stroke-miterlimit="10" stroke-width="2"/>
                    <path id="Trazado_1074998" data-name="Trazado 1074998" d="M193.745,211.581q-.692,2.558-1.383,5.116" transform="translate(-181.299 -208.117)" fill="none" stroke="#c43945" stroke-linecap="round" stroke-linejoin="round" stroke-miterlimit="10" stroke-width="2"/>
                  </g>
                </g>
              </g>
            </g>
          </g>
          <g id="Grupo_1201212" data-name="Grupo 1201212" transform="translate(0 231.569)">
            <g id="Grupo_1201205" data-name="Grupo 1201205" transform="translate(132.192)">
              <g id="Grupo_1201204" data-name="Grupo 1201204">
                <g id="Grupo_1201201" data-name="Grupo 1201201" transform="translate(53.075 25.411)">
                  <path id="Trazado_1074999" data-name="Trazado 1074999" d="M287.341,434.941a20.63,20.63,0,0,1-7.421,2.589c-15.8,2.353-37.971-28.1-37.971-28.1l5.34-24.516s1.21.288,3.266.812c10.527,2.691,43.116,11.644,47.22,20.3C301.829,414.581,297.783,428.9,287.341,434.941Z" transform="translate(-241.949 -384.92)" fill="#eb7563"/>
                </g>
                <g id="Grupo_1201203" data-name="Grupo 1201203">
                  <path id="Trazado_1075000" data-name="Trazado 1075000" d="M200.889,383.547a5.456,5.456,0,0,0-3.782,1.1,36.843,36.843,0,0,0-3.053,2.63,19.369,19.369,0,0,1-9.441,4.427,7.183,7.183,0,0,1-2.982-.006,3.216,3.216,0,0,1-2.235-1.835c-.733-1.93,1.1-3.97,2.752-5a9,9,0,0,0,3.482-3.743c1.471-3.152,1.951-6.222,3.2-7.862,2.837-3.717,7.961-4.667,12.857-5.033a65.783,65.783,0,0,1,17.372-11.9c2-.938,4.213-1.793,6.357-1.274a6.806,6.806,0,0,1,4.341,3.859,14.052,14.052,0,0,1,.954,6.761,34.606,34.606,0,0,1,3.753,3.252,23.722,23.722,0,0,1,6.849,15.645,89.014,89.014,0,0,1-.735,16.739,9.826,9.826,0,0,1-6.246,7.939,29.541,29.541,0,0,1-8.551,1.72,5.219,5.219,0,0,1-4.945-2.917,19.563,19.563,0,0,1-.861-2.075,9.775,9.775,0,0,1-5.546-8.1,5.045,5.045,0,0,1-4.662-2.173,5.109,5.109,0,0,1,.062-5.5A18.4,18.4,0,0,1,200.889,383.547Z" transform="translate(-179.23 -354.891)" fill="#ffa382"/>
                  <g id="Grupo_1201202" data-name="Grupo 1201202" transform="translate(31.447 10.238)">
                    <path id="Trazado_1075001" data-name="Trazado 1075001" d="M237.9,368.818q-.2,5.489-.393,10.977c-.055,1.529-.212,3.267-1.428,4.2a3.523,3.523,0,0,1-4.392-.581,8.984,8.984,0,0,1-2.126-4.265,93.746,93.746,0,0,1-2.178-12.156" transform="translate(-218.081 -366.99)" fill="none" stroke="#c43945" stroke-linecap="round" stroke-linejoin="round" stroke-miterlimit="10" stroke-width="2"/>
                    <path id="Trazado_1075002" data-name="Trazado 1075002" d="M222.41,374.08l4.076-1" transform="translate(-217.316 -367.926)" fill="none" stroke="#c43945" stroke-linecap="round" stroke-linejoin="round" stroke-miterlimit="10" stroke-width="2"/>
                    <path id="Trazado_1075003" data-name="Trazado 1075003" d="M240.431,389.288a66.647,66.647,0,0,1-8.087,8.768,22.337,22.337,0,0,1-10.535,5.315" transform="translate(-217.224 -370.419)" fill="none" stroke="#c43945" stroke-linecap="round" stroke-linejoin="round" stroke-miterlimit="10" stroke-width="2"/>
                    <path id="Trazado_1075004" data-name="Trazado 1075004" d="M227.027,380.914a114.03,114.03,0,0,0-10.636,12.523" transform="translate(-216.391 -369.131)" fill="none" stroke="#c43945" stroke-linecap="round" stroke-linejoin="round" stroke-miterlimit="10" stroke-width="2"/>
                    <path id="Trazado_1075005" data-name="Trazado 1075005" d="M244.048,404.388a30.976,30.976,0,0,1-15.847,8.5" transform="translate(-218.207 -372.74)" fill="none" stroke="#c43945" stroke-linecap="round" stroke-linejoin="round" stroke-miterlimit="10" stroke-width="2"/>
                  </g>
                </g>
              </g>
              <path id="Trazado_1075006" data-name="Trazado 1075006" d="M262.4,388.578a191.8,191.8,0,0,1,28.363,8.232" transform="translate(-192.019 -360.071)" fill="none" stroke="#c43945" stroke-linecap="round" stroke-linejoin="round" stroke-miterlimit="10" stroke-width="2"/>
            </g>
            <g id="Grupo_1201207" data-name="Grupo 1201207" transform="translate(0 25.495)">
              <g id="Grupo_1201206" data-name="Grupo 1201206">
                <path id="Trazado_1075007" data-name="Trazado 1075007" d="M142.845,423.042c-14.462-1.659-21.1,2.039-21.1,2.039L23.433,397.663l-.415-.118,1.024-5.627.178-.982a46.75,46.75,0,0,1,10.637-1.515c17.153-.685,36.312,5.814,43.057,8.344,1.608.6,2.513.982,2.513.982l8.293-7.134Z" transform="translate(-23.018 -385.688)" fill="#b84453"/>
                <path id="Trazado_1075008" data-name="Trazado 1075008" d="M90.723,398.074,90,401.632l71.048,29.643S176.129,408.6,199.107,410.5l-84.531-25.484S94.422,386.977,90.723,398.074Z" transform="translate(-33.317 -385.019)" fill="#ff6e70"/>
              </g>
              <path id="Trazado_1075009" data-name="Trazado 1075009" d="M82.349,401.971c-.905-.008-1.811.118-2.666.178-9.292-3.943-18.973-7.2-29-8.276-9.224-.99-18.8-.042-27.249,3.715l-.415-.118,1.024-5.627a51.574,51.574,0,0,1,10.815-2.5c9.19-1.142,18.77-.076,27.85,2.048,5.3,1.244,10.747,2.987,15.207,6.3A23.032,23.032,0,0,1,82.349,401.971Z" transform="translate(-23.018 -385.613)" fill="#ff6e70"/>
            </g>
            <g id="Grupo_1201211" data-name="Grupo 1201211" transform="translate(0.228 19.026)">
              <g id="Grupo_1201209" data-name="Grupo 1201209" transform="translate(60.772 10.561)">
                <path id="Trazado_1075010" data-name="Trazado 1075010" d="M96.03,417.018c-1.223-1.681-1.105-4.02-.4-5.976s1.918-3.685,2.8-5.566a8.022,8.022,0,0,0,.73-6.029c-.421-1.163-1.28-2.342-.878-3.512.454-1.324,2.244-1.633,3.587-1.24,2.76.808,4.625,3.52,5.247,6.328a31.745,31.745,0,0,1,.7,8.586c1.681,1.76,3.361,3.3,5.042,5.061" transform="translate(-95.103 -390.574)" fill="#ffa382"/>
                <path id="Trazado_1075011" data-name="Trazado 1075011" d="M95.1,426.48a82.315,82.315,0,0,0,30.914,8.708c13.243.666,27.492-6.97,34.785-19.129.768-1.281,1.465-2.918.7-4.2-.8-1.328-2.793-1.419-4.141-.657a12.048,12.048,0,0,0-3.2,3.324,6.124,6.124,0,0,1-3.7,2.612c1.6-2.287,3.223-4.642,3.892-7.35s.176-5.886-1.936-7.708c.742-.866.427-3.317-1-4.268a4.641,4.641,0,0,0-4.869.259,17.345,17.345,0,0,0-3.686,3.569,42.657,42.657,0,0,1-22.849,13.386,32.709,32.709,0,0,0,7.785-22.352,3.838,3.838,0,0,0-.3-1.563,2.552,2.552,0,0,0-2.54-1.245,4.568,4.568,0,0,0-2.618,1.368c-2.778,2.681-3.15,6.942-4.866,10.4a18.984,18.984,0,0,1-8.434,8.026,41.563,41.563,0,0,1-10.92,3.63A31.576,31.576,0,0,0,95.1,426.48Z" transform="translate(-95.103 -389.854)" fill="#ffa382"/>
                <g id="Grupo_1201208" data-name="Grupo 1201208" transform="translate(35.535 16.714)">
                  <path id="Trazado_1075012" data-name="Trazado 1075012" d="M137.094,424.627a33.154,33.154,0,0,0,17.8-15.022" transform="translate(-137.094 -409.605)" fill="none" stroke="#c43945" stroke-linecap="round" stroke-linejoin="round" stroke-miterlimit="10" stroke-width="2"/>
                  <path id="Trazado_1075013" data-name="Trazado 1075013" d="M151.4,429.034a14.835,14.835,0,0,0,7.432-6.409" transform="translate(-139.294 -411.607)" fill="none" stroke="#c43945" stroke-linecap="round" stroke-linejoin="round" stroke-miterlimit="10" stroke-width="2"/>
                </g>
              </g>
              <g id="Grupo_1201210" data-name="Grupo 1201210">
                <path id="Trazado_1075014" data-name="Trazado 1075014" d="M33.091,386.489l-7.738-8.953A97.527,97.527,0,0,1,66.5,384.1c6.077,2.386,12.485,6.042,14.691,12.106A167.917,167.917,0,0,0,33.091,386.489Z" transform="translate(-23.606 -377.374)" fill="#fff"/>
                <path id="Trazado_1075015" data-name="Trazado 1075015" d="M220.326,420.128c-.186-.034-.372-.068-.559-.093-29.339-5.1-57.366-9.359-85.394-13.616-7.9-10.917-20.665-21.5-37.328-18.913-7.015,1.092-13.785,6.508-16.772,12.584C63.8,389.968,42.667,387.819,23.559,394.1c-.093-2.64-.178-5.281-.271-7.921a69.3,69.3,0,0,1,57.146,8.5c2.539-5.839,8.065-9.9,14.141-11.974.779-.271,1.566-.5,2.361-.7,6.965-1.76,14.276-1.3,21.435-.7,29.068,2.471,58.585,7.582,84.091,21.748C209.8,407.13,217.111,412.368,220.326,420.128Z" transform="translate(-23.288 -377.896)" fill="#ebe0d8"/>
                <path id="Trazado_1075016" data-name="Trazado 1075016" d="M233.279,420.128c-.186-.034-.372-.068-.559-.093-7.616-4.392-16.527-5.949-25.049-7.328q-28.421-4.6-56.85-9.2c-6.525-7.845-14.674-15.427-24.685-19.159a34.75,34.75,0,0,0-18.609-1.642c.779-.271,1.566-.5,2.361-.7,6.965-1.76,14.276-1.3,21.435-.7,29.068,2.471,58.585,7.582,84.091,21.748C222.752,407.13,230.064,412.368,233.279,420.128Z" transform="translate(-36.241 -377.896)" fill="#fff"/>
              </g>
            </g>
          </g>
        </g>
        <g id="Grupo_1201227" data-name="Grupo 1201227" transform="translate(222.172 149.145)">
          <path id="Trazado_1075017" data-name="Trazado 1075017" d="M287.287,381.731l-24.746,27.477,10.407,20.219,31.372-18.774Z" transform="translate(-262.541 -230.079)" fill="#ffa382"/>
          <g id="Grupo_1201216" data-name="Grupo 1201216" transform="translate(19.057 100.75)">
            <path id="Trazado_1075018" data-name="Trazado 1075018" d="M416.152,429.112l-93.89,4.739-4.273-27.587-9.825,1.879c-11.822-6.482-23.1-30.608-23.1-30.608s18.076-19.7,27.291-24.837c3.334-1.87,10.959-3.013,19.709-3.495,15.418-.846,34.366.364,39.638,3.317.66.372,1.312.77,1.963,1.193C399.608,370.62,416.152,429.112,416.152,429.112Z" transform="translate(-285.061 -325.787)" fill="#ff9e3d"/>
            <path id="Trazado_1075019" data-name="Trazado 1075019" d="M381.294,353.712c-11.881,6.178-22.408,15.182-34.323,21.511-2.852,1.515-6.406,2.869-9.173,1.2-2.733-1.659-3.224-5.391-3.08-8.581a45.37,45.37,0,0,1,4.976-18.643c15.418-.846,34.366.364,39.638,3.317C379.991,352.892,380.642,353.289,381.294,353.712Z" transform="translate(-292.693 -325.787)" fill="#de662a"/>
            <g id="Grupo_1201214" data-name="Grupo 1201214" transform="translate(43.937)">
              <path id="Trazado_1075020" data-name="Trazado 1075020" d="M376.8,346.942s-32.318,23.635-36.93,19.015c-4.248-4.24.364-15.368,1.134-17.128.068-.152.1-.237.1-.237l-4.13-14.191L362.2,321.58l.254.135L371.3,326.4Z" transform="translate(-336.981 -321.58)" fill="#ffa382"/>
              <path id="Trazado_1075021" data-name="Trazado 1075021" d="M362.453,321.715a32.992,32.992,0,0,1-21.444,27.113c.068-.152.1-.237.1-.237l-4.13-14.191L362.2,321.58Z" transform="translate(-336.981 -321.58)" fill="#eb7563"/>
            </g>
            <g id="Grupo_1201215" data-name="Grupo 1201215" transform="translate(20.161 37.247)">
              <path id="Trazado_1075022" data-name="Trazado 1075022" d="M319.242,365.6q.9,21.672,3.848,43.193A64.759,64.759,0,0,1,319.242,365.6Z" transform="translate(-310.159 -365.595)" fill="#de662a"/>
              <path id="Trazado_1075023" data-name="Trazado 1075023" d="M309.389,375.366a50.418,50.418,0,0,0,11.747,29.374C312.2,399.2,307.226,387.9,309.389,375.366Z" transform="translate(-308.886 -367.097)" fill="#de662a"/>
            </g>
          </g>
          <g id="Grupo_1201224" data-name="Grupo 1201224" transform="translate(32.873)">
            <path id="Trazado_1075024" data-name="Trazado 1075024" d="M323.295,256.415a24.683,24.683,0,0,1,12.391-42.072,17.412,17.412,0,0,0-14.176,3.966c4.516-8.961,14.288-14.6,24.273-15.6s20.059,2.167,28.674,7.314,15.935,12.182,24.44,19.793A53.991,53.991,0,0,1,415.2,303.776a32.08,32.08,0,0,0-.611-16.641,33.972,33.972,0,0,1-20.2,29.084q1.429-6.6,2.858-13.209a50.8,50.8,0,0,1-27.9,14.881c-4.108-12.7-8.269-25.532-15.092-37.009S337.631,259.223,323.295,256.415Z" transform="translate(-303.592 -202.524)" fill="#4f2b36"/>
            <path id="Trazado_1075025" data-name="Trazado 1075025" d="M351.846,224.538a39.012,39.012,0,0,0-24.969,26.417,11.066,11.066,0,0,1,1.69-12.656,32.287,32.287,0,0,0-5.932,5.8,17.631,17.631,0,0,0-3.866,10.646,31.985,31.985,0,0,1-1.617,10.507c-1.849,5.065-6.21,9.6-11.691,9.775a6.286,6.286,0,0,0-1.72.227c-3.311,1.054-2.588,4.34-1.1,8.179a24.087,24.087,0,0,0-.345,6.412,85.987,85.987,0,0,0,16.552-2.539,18.143,18.143,0,0,1-3.175,11.664,20.125,20.125,0,0,1-10.116,7.348,68.136,68.136,0,0,0,4.224,13.079,9.713,9.713,0,0,0,9.023,5.721c14.4-.228,29.45-2.021,38.93-16.143a6.933,6.933,0,0,0,5.114,4.51,15.738,15.738,0,0,0,7.079-.217c6.019-1.277,12.336-4.371,14.477-10.14a11.867,11.867,0,0,0-4.453-13.613,11.249,11.249,0,0,0-14.565,2.237,60.134,60.134,0,0,1,5.73-30.894,34.492,34.492,0,0,0-6.774,15.446,27.12,27.12,0,0,1-5.262-18.6,27.586,27.586,0,0,1,8.69-17.471,28.988,28.988,0,0,0-12.02,21.745,19.711,19.711,0,0,1-15.6-16.724C339.241,237.131,344.158,228.7,351.846,224.538Z" transform="translate(-301.387 -205.909)" fill="#ffa382"/>
            <g id="Grupo_1201223" data-name="Grupo 1201223" transform="translate(17.915 36.746)">
              <path id="Trazado_1075026" data-name="Trazado 1075026" d="M328.34,249.641a11.836,11.836,0,0,1,19.619,12.578C344.391,255.451,336.946,250.911,328.34,249.641Z" transform="translate(-323.446 -245.947)" fill="#4f2b36"/>
              <g id="Grupo_1201219" data-name="Grupo 1201219" transform="translate(0 14.821)">
                <path id="Trazado_1075027" data-name="Trazado 1075027" d="M333.63,264.32c-4.22-.731-7.718,4.03-9.6,9.326-1.458,4.11-.542,9.732.645,12.378,4.961.175,13.575-.883,17.631-3.537C342.89,276.078,340.445,265.5,333.63,264.32Z" transform="translate(-322.669 -263.581)" fill="#fff"/>
                <g id="Grupo_1201217" data-name="Grupo 1201217" transform="translate(0 4.721)">
                  <path id="Trazado_1075028" data-name="Trazado 1075028" d="M323.205,275.723c1.344-4.354,4.334-7.3,6.678-6.574s3.156,4.84,1.813,9.194-4.334,7.3-6.678,6.574S321.862,280.077,323.205,275.723Z" transform="translate(-322.557 -269.039)" fill="#4f2b36"/>
                  <path id="Trazado_1075029" data-name="Trazado 1075029" d="M325.892,273.392c1.026-1.562,2.572-2.36,3.45-1.783s.759,2.312-.268,3.874-2.572,2.36-3.45,1.783S324.866,274.954,325.892,273.392Z" transform="translate(-322.938 -269.405)" fill="#fff"/>
                </g>
                <g id="Grupo_1201218" data-name="Grupo 1201218" transform="translate(4.044)">
                  <path id="Trazado_1075030" data-name="Trazado 1075030" d="M327.336,265.724c4.276-4.158,11.9-2.186,14.988,2.662a14.326,14.326,0,0,1,1.711,12.155,17.055,17.055,0,0,1-1.546,3.693,50.413,50.413,0,0,0-.473-7.554c-1.065-7.246-7.052-12.848-14.68-10.956Z" transform="translate(-327.336 -263.46)" fill="#4f2b36"/>
                </g>
              </g>
              <g id="Grupo_1201221" data-name="Grupo 1201221" transform="translate(1.53 35.549)">
                <ellipse id="Elipse_13502" data-name="Elipse 13502" cx="13.962" cy="11.002" rx="13.962" ry="11.002" transform="translate(0 6.247) rotate(-12.926)" fill="#eb6563"/>
                <g id="Grupo_1201220" data-name="Grupo 1201220" transform="translate(7.653 8.584)">
                  <path id="Trazado_1075031" data-name="Trazado 1075031" d="M335.627,302.172q-1.109,2.518-2.218,5.039" transform="translate(-333.409 -298.725)" fill="none" stroke="#c43945" stroke-linecap="round" stroke-linejoin="round" stroke-miterlimit="10" stroke-width="2"/>
                  <path id="Trazado_1075032" data-name="Trazado 1075032" d="M344.231,298.1q-.58,5.242-1.159,10.486" transform="translate(-334.895 -298.099)" fill="none" stroke="#c43945" stroke-linecap="round" stroke-linejoin="round" stroke-miterlimit="10" stroke-width="2"/>
                  <path id="Trazado_1075033" data-name="Trazado 1075033" d="M350.96,302.9q-.559,1.863-1.116,3.726" transform="translate(-335.936 -298.837)" fill="none" stroke="#c43945" stroke-linecap="round" stroke-linejoin="round" stroke-miterlimit="10" stroke-width="2"/>
                </g>
              </g>
              <g id="Grupo_1201222" data-name="Grupo 1201222" transform="translate(43.208 51.301)">
                <path id="Trazado_1075034" data-name="Trazado 1075034" d="M391.162,311.038a9.829,9.829,0,0,0-17,2.2,6.189,6.189,0,0,0-.443,3.552,5.618,5.618,0,0,0,3.814,3.927,10.367,10.367,0,0,0,5.656.009,12.08,12.08,0,0,0,6.013-3.219C390.785,315.834,392.621,313,391.162,311.038Z" transform="translate(-373.616 -306.649)" fill="#eb7563"/>
                <path id="Trazado_1075035" data-name="Trazado 1075035" d="M391.259,310.842a9.51,9.51,0,0,0-9.754-4.059,10.824,10.824,0,0,0-7.594,8.078" transform="translate(-373.662 -306.57)" fill="none" stroke="#c43945" stroke-linecap="round" stroke-linejoin="round" stroke-miterlimit="10" stroke-width="2"/>
              </g>
            </g>
          </g>
          <g id="Grupo_1201226" data-name="Grupo 1201226" transform="translate(88.077 123.24)">
            <path id="Trazado_1075036" data-name="Trazado 1075036" d="M421.845,383.392s15.641,26.527,14.924,40.049l-28.131-5.8-5.905-17.931Z" transform="translate(-372.174 -353.574)" fill="#eb7563"/>
            <path id="Trazado_1075037" data-name="Trazado 1075037" d="M366.707,369.128s5.11-20.056,20.646-20.957c16.046-.931,42.16,45.436,42.16,45.436S409.77,404.6,394.04,410.344C394.04,410.344,373.7,388.16,366.707,369.128Z" transform="translate(-366.634 -348.157)" fill="#ff9e3d"/>
            <g id="Grupo_1201225" data-name="Grupo 1201225" transform="translate(0 26.937)">
              <path id="Trazado_1075038" data-name="Trazado 1075038" d="M371.276,379.988c3.053,14.725,12.253,27.311,21.215,39.386C381.315,410.476,373.734,397.187,371.276,379.988Z" transform="translate(-367.337 -379.988)" fill="#de662a"/>
              <path id="Trazado_1075039" data-name="Trazado 1075039" d="M366.64,388.22a51.752,51.752,0,0,0,19.071,25.853A25.055,25.055,0,0,1,371.54,404.6,26.314,26.314,0,0,1,366.64,388.22Z" transform="translate(-366.621 -381.254)" fill="#de662a"/>
            </g>
          </g>
        </g>
        <rect id="Rect치ngulo_416180" data-name="Rect치ngulo 416180" width="423.119" height="44.279" transform="translate(0 356.106)" fill="#d49950"/>
        <g id="Grupo_1201240" data-name="Grupo 1201240" transform="translate(126.861 297.621)">
          <g id="Grupo_1201230" data-name="Grupo 1201230" transform="translate(0 55.272)">
            <path id="Trazado_1075040" data-name="Trazado 1075040" d="M181.619,457.5l-31.707,6.63v4.059l39.514,4.8v1.378l7.591.738.39-1.43,53.118,5.558,50.256-16.159-.656-5.256Z" transform="translate(-149.912 -445.479)" fill="#74a847"/>
            <g id="Grupo_1201229" data-name="Grupo 1201229">
              <path id="Trazado_1075041" data-name="Trazado 1075041" d="M171.148,457.348l-20.789,1.879.667,5.152s31.644,2.612,39.639,5.273l.433,1.593,4.288.594.542-1.679s43.569,2.2,54.252,5.352l50.391-15.073.8-3.964Z" transform="translate(-149.981 -445.321)" fill="#ebe0d8"/>
              <g id="Grupo_1201228" data-name="Grupo 1201228">
                <path id="Trazado_1075042" data-name="Trazado 1075042" d="M200.18,464.115A539.073,539.073,0,0,1,260.8,449.88s19.882-3.142,48.238,5.494l-50.856,14.679A163.782,163.782,0,0,0,200.18,464.115Z" transform="translate(-157.641 -444.221)" fill="#fff"/>
                <path id="Trazado_1075043" data-name="Trazado 1075043" d="M211.924,460.07l-19.474,3.118s-21.747-7.866-42.539-5.78l62.43-13.259a75.021,75.021,0,0,1,43.85,6.607Z" transform="translate(-149.912 -443.294)" fill="#fff"/>
              </g>
              <path id="Trazado_1075044" data-name="Trazado 1075044" d="M199.639,464.511A417.206,417.206,0,0,1,259.675,450.1" transform="translate(-157.558 -444.341)" fill="none" stroke="#ebe0d8" stroke-linecap="round" stroke-linejoin="round" stroke-miterlimit="10" stroke-width="1"/>
            </g>
          </g>
          <g id="Grupo_1201232" data-name="Grupo 1201232" transform="translate(121.743 28.298)">
            <g id="Grupo_1201231" data-name="Grupo 1201231" transform="translate(0 7.068)">
              <path id="Trazado_1075045" data-name="Trazado 1075045" d="M349.792,432.721c-8.206-7.427-24.216-12.95-29.753-12.95-7.316,0-23.209,10.542-25.842,17.2A4.653,4.653,0,0,0,294,440.3a2.814,2.814,0,0,0,2.582,1.7,3.724,3.724,0,0,0,4.706,5.718c-1.2.961-.467,3.1.938,3.731s3.035.223,4.5-.235A76.9,76.9,0,0,0,317.4,447a13.56,13.56,0,0,0-5.935,5.212,2.7,2.7,0,0,0-.531,2.063c.431,1.546,2.672,1.367,4.183.824,6.344-2.275,12.564-4.9,18.8-7.323a28.432,28.432,0,0,0,19.757.162C352.324,442.492,350.975,437.051,349.792,432.721Z" transform="translate(-293.776 -419.771)" fill="#ffa382"/>
              <path id="Trazado_1075046" data-name="Trazado 1075046" d="M298.167,443.276A79.73,79.73,0,0,1,317.695,431.4" transform="translate(-294.451 -421.559)" fill="none" stroke="#c43945" stroke-linecap="round" stroke-linejoin="round" stroke-miterlimit="10" stroke-width="2"/>
              <path id="Trazado_1075047" data-name="Trazado 1075047" d="M302.889,450.46a58.883,58.883,0,0,1,19.02-10.1" transform="translate(-295.177 -422.937)" fill="none" stroke="#c43945" stroke-linecap="round" stroke-linejoin="round" stroke-miterlimit="10" stroke-width="2"/>
              <path id="Trazado_1075048" data-name="Trazado 1075048" d="M320.817,452.377a45.972,45.972,0,0,1,10.239-4.665" transform="translate(-297.934 -424.067)" fill="none" stroke="#c43945" stroke-linecap="round" stroke-linejoin="round" stroke-miterlimit="10" stroke-width="2"/>
            </g>
            <path id="Trazado_1075049" data-name="Trazado 1075049" d="M354.85,431.277c16.723-6.255,33.446-12.508,50.887-18.778a17.778,17.778,0,0,1,20.206,5.768,18.091,18.091,0,0,1,2.677,5,18.656,18.656,0,0,1,.437,10.34,14.613,14.613,0,0,1-12.6,10.959,350.763,350.763,0,0,1-56.57,2.037C357.786,442.18,355.688,437.754,354.85,431.277Z" transform="translate(-303.167 -411.419)" fill="#ffa382"/>
          </g>
          <g id="Grupo_1201239" data-name="Grupo 1201239" transform="translate(38.863)">
            <g id="Grupo_1201238" data-name="Grupo 1201238">
              <g id="Grupo_1201234" data-name="Grupo 1201234" transform="translate(0 27.183)">
                <path id="Trazado_1075050" data-name="Trazado 1075050" d="M238.928,423.788c-5.222-4.483-14.851-9.758-24.113-13.036a11.617,11.617,0,0,0-12.183,2.926,37.862,37.862,0,0,0-6.287,8.623,3.941,3.941,0,0,0,.386,4.456,3.352,3.352,0,0,0,1.01.783,28.589,28.589,0,0,0,.321,6.668,8.94,8.94,0,0,0,3.971,5.914c.043.029.087.058.129.087.045.674.121,1.345.228,2.006a7.246,7.246,0,0,0,5.368,5.767q2.165.567,4.348,1.082c5.067,1.2,10.955-1.193,12.76-5.8a4.211,4.211,0,0,0,.107-2.7c4.528.735,9.5-.508,12.661-3.829S242.506,426.859,238.928,423.788Z" transform="translate(-195.836 -410.102)" fill="#ffa382"/>
                <g id="Grupo_1201233" data-name="Grupo 1201233" transform="translate(6.99 25.955)">
                  <path id="Trazado_1075051" data-name="Trazado 1075051" d="M204.1,445.745l15.932,2.367c1.778.264,3.942.378,5-1.076.939-1.291.384-3.221-.786-4.307a9.963,9.963,0,0,0-4.319-1.956" transform="translate(-204.096 -440.773)" fill="none" stroke="#c43945" stroke-linecap="round" stroke-linejoin="round" stroke-miterlimit="10" stroke-width="2"/>
                  <path id="Trazado_1075052" data-name="Trazado 1075052" d="M212.6,454.135l9.512-1.9a8.471,8.471,0,0,0,3.575-1.3,2.9,2.9,0,0,0,1.086-3.376" transform="translate(-205.403 -441.815)" fill="none" stroke="#c43945" stroke-linecap="round" stroke-linejoin="round" stroke-miterlimit="10" stroke-width="2"/>
                </g>
              </g>
              <g id="Grupo_1201236" data-name="Grupo 1201236" transform="translate(3.316)">
                <path id="Trazado_1075053" data-name="Trazado 1075053" d="M213.742,439.5l-13.987-60.146,6.807-1.373,13.987,60.146Z" transform="translate(-199.755 -377.979)" fill="#ffca75"/>
                <g id="Grupo_1201235" data-name="Grupo 1201235" transform="translate(13.996 60.144)">
                  <path id="Trazado_1075054" data-name="Trazado 1075054" d="M223.1,449.051l-.219,4.769-.367,8.049-3.578-6.588-2.643-4.856Z" transform="translate(-216.294 -449.051)" fill="#ffca75"/>
                  <path id="Trazado_1075055" data-name="Trazado 1075055" d="M223.362,454.686l-.367,8.049-3.579-6.588A8.334,8.334,0,0,1,223.362,454.686Z" transform="translate(-216.774 -449.917)" fill="#4f2b36"/>
                </g>
              </g>
              <g id="Grupo_1201237" data-name="Grupo 1201237" transform="translate(2.687 32.966)">
                <path id="Trazado_1075056" data-name="Trazado 1075056" d="M199.012,430.1a75.5,75.5,0,0,1,5.941,5.816c1.526,1.9,2.909,6.066,4.815,6.066s3.239-1.354,2-7.13-5.941-9.881-5.941-9.881" transform="translate(-199.012 -418.17)" fill="#ffa382" stroke="#c43945" stroke-linecap="round" stroke-linejoin="round" stroke-miterlimit="10" stroke-width="2"/>
                <path id="Trazado_1075057" data-name="Trazado 1075057" d="M225.233,416.935s-5.218,1.944-6.6,3.484-1.838,5.774-3.633,9.86c-1.327,3.022-3.813,4.9-3.114,6.821.911,2.495,7.15,3.439,12.723-5.936,0,0,3.041,4.2,8.076,4.368" transform="translate(-200.973 -416.935)" fill="#ffa382" stroke="#c43945" stroke-linecap="round" stroke-linejoin="round" stroke-miterlimit="10" stroke-width="2"/>
              </g>
            </g>
            <path id="Trazado_1075058" data-name="Trazado 1075058" d="M234.705,420.2c14.473-2.452,16.389-8.781,26.328-8.781,11.3,0,12.614,16.662,8.883,21.392s-32.479,7.315-32.479,7.315S229.748,421.04,234.705,420.2Z" transform="translate(-201.557 -383.121)" fill="#ffa382"/>
          </g>
        </g>
      </g>
    </g>
  </g>
</svg>
