<svg xmlns="http://www.w3.org/2000/svg" xmlns:xlink="http://www.w3.org/1999/xlink" width="400" height="321" viewBox="0 0 400 321">
  <defs>
    <clipPath id="clip-path">
      <rect id="Rectángulo_416196" data-name="Rectángulo 416196" width="400" height="321" transform="translate(1008.54 239.894)" fill="#fff" stroke="#707070" stroke-width="1"/>
    </clipPath>
  </defs>
  <g id="Enmascarar_grupo_1098858" data-name="Enmascarar grupo 1098858" transform="translate(-1008.54 -239.894)" clip-path="url(#clip-path)">
    <g id="Grupo_1201452" data-name="Grupo 1201452" transform="translate(1057.927 247.103)">
      <ellipse id="Elipse_13508" data-name="Elipse 13508" cx="153" cy="132" rx="153" ry="132" transform="translate(17.614 6.791)" fill="#ebe9f0" opacity="0.64"/>
      <g id="Grupo_1201451" data-name="Grupo 1201451" transform="translate(0)">
        <g id="OBJECTS" transform="translate(0 0)">
          <g id="Grupo_1201433" data-name="Grupo 1201433" transform="translate(0 12.076)">
            <path id="Trazado_1075299" data-name="Trazado 1075299" d="M339.276,405.294c0-12.657-47.557-22.917-106.221-22.917-45.411,0-84.159,6.149-99.352,14.8-.586,0-1.172,0-1.76,0-64.23,0-116.3,10.26-116.3,22.917s52.068,22.917,116.3,22.917c49.829,0,92.331-6.176,108.889-14.855C295.865,427.291,339.276,417.387,339.276,405.294Z" transform="translate(-15.644 -151.237)" fill="#ebe9f0" opacity="0.6"/>
            <g id="Grupo_1201432" data-name="Grupo 1201432" transform="translate(19.504)">
              <g id="Grupo_1201371" data-name="Grupo 1201371" transform="translate(121.826 91.864)">
                <g id="Grupo_1201365" data-name="Grupo 1201365" transform="translate(0 14.78)">
                  <path id="Trazado_1075300" data-name="Trazado 1075300" d="M294.252,213.656c-10.836-12.577-10.255-11.8-18.962-11.416s-26.121,6.965-39.085,29.8-23.413,95-8.707,107.386,45.405,13.673,72.494,9.029,5.16-24.509,5.16-24.509-52.113,9.029-58.82-2.322-6.45-86.425,25.8-105.774l8.771,11.61Z" transform="translate(-220.331 -202.071)" fill="#dd334d"/>
                  <path id="Trazado_1075301" data-name="Trazado 1075301" d="M246.333,325.417c-6.708-11.351-6.45-86.425,25.8-105.774l-3.793-5.3a106.694,106.694,0,0,0-14.545.681,68.224,68.224,0,0,0-17.586,20.806c-11.824,20.824-21.551,82.683-12.014,102.8l52.514.466-.312-8.159C263.1,331.61,249.537,330.839,246.333,325.417Z" transform="translate(-220.332 -205.866)" fill="#dd334d" opacity="0.61"/>
                  <path id="Trazado_1075302" data-name="Trazado 1075302" d="M287.821,211.376c2.419,3.773,13.97,18.962,13.97,18.962" transform="translate(-241.221 -204.951)" fill="none" stroke="#282425" stroke-linecap="round" stroke-linejoin="round" stroke-miterlimit="10" stroke-width="0.75"/>
                </g>
                <path id="Trazado_1075303" data-name="Trazado 1075303" d="M359.527,193.781c-17.672-2.321-22.7,4.387-22.7,4.387L339.662,209,358.5,207.2S362.972,194.233,359.527,193.781Z" transform="translate(-256.389 -184.574)" fill="#dd334d"/>
                <g id="Grupo_1201367" data-name="Grupo 1201367" transform="translate(41.188 0)">
                  <path id="Trazado_1075304" data-name="Trazado 1075304" d="M359.217,209.35c-18.679-6.526-34.312-5.16-51.339,3.354s-20.123,21.67-24.509,48.5-4.643,71.978,0,83.845,37.666,16.253,70.43,14.7,50.307-8.772,51.081-22.7-9.546-74.042-20.381-95.712S365.781,211.643,359.217,209.35Z" transform="translate(-279.982 -188.274)" fill="#6fb4a8"/>
                  <path id="Trazado_1075305" data-name="Trazado 1075305" d="M403.057,331.148c-1.075-7.619-2.566-16.37-4.352-25.262a120.355,120.355,0,0,1-52.409-2.172c-36.2-10.009-43.89-46.775-43.89-46.775s-9.369,1.619-14.842-1.641c-1.58,5.984-2.823,13.025-4.192,21.4-2.877,17.6-3.977,43.07-3.084,61.868l36.547,4.477Z" transform="translate(-279.983 -203.766)" fill="#6fb4a8"/>
                  <path id="Trazado_1075306" data-name="Trazado 1075306" d="M319.951,187.165c-4.929,4.739,4.643,16.9,8,19.22l3.225-1.29s-5.936-10.822-4.515-13.157c1.806-2.967,16.64-4.386,21.413-4s1.677,13.931,1.677,13.931H354.4s7.607-15.351,1.415-19.22S326.658,180.715,319.951,187.165Z" transform="translate(-291.925 -180.665)" fill="#6468b0"/>
                  <path id="Trazado_1075307" data-name="Trazado 1075307" d="M393.1,245.04a150.945,150.945,0,0,0-10.787-18.688h0c-18.209-14.505-51.388-9.658-61.966,0s-13.415,35.2-12.384,62.546,19.865,30.184,19.865,30.184L411,314.9C407.384,291.32,400.358,259.557,393.1,245.04Z" transform="translate(-288.582 -191.974)" fill="#6468b0"/>
                  <g id="Grupo_1201366" data-name="Grupo 1201366" transform="translate(75.365 35.523)">
                    <path id="Trazado_1075308" data-name="Trazado 1075308" d="M389.133,232.113c3.1,15.479,11.351,60.11,10.836,78.685h3.612c-.967-18.575-4.139-43.675-11.351-78.685h-3.1Z" transform="translate(-389.133 -232.113)" fill="#fff"/>
                    <path id="Trazado_1075309" data-name="Trazado 1075309" d="M392.772,234.358c-.842.476,3.1,11.706,7.353,9.965S394.782,233.22,392.772,234.358Z" transform="translate(-390.224 -232.778)" fill="#3b2b32"/>
                  </g>
                  <path id="Trazado_1075310" data-name="Trazado 1075310" d="M411,327.428c-.055-.362-.109-.719-.166-1.085-.032-.2-.064-.408-.1-.614-.292-1.855-.6-3.755-.936-5.689q-.065-.384-.133-.771-.194-1.124-.4-2.26c-.044-.247-.087-.492-.132-.74q-.261-1.456-.535-2.929c-.028-.149-.057-.3-.085-.449q-.235-1.256-.478-2.522-.087-.45-.175-.9-.225-1.155-.456-2.314c-.035-.177-.07-.353-.106-.53a120.353,120.353,0,0,1-52.409-2.172c-36.154-10-43.869-46.674-43.89-46.773-2.9,12-3.651,27.559-3.04,43.748,1.032,27.346,19.865,30.184,19.865,30.184Z" transform="translate(-288.582 -204.503)" fill="#6468b0" opacity="0.41"/>
                  <path id="Trazado_1075311" data-name="Trazado 1075311" d="M348.708,217.319c-11.985.569-23.036,4.208-28.36,9.07-10.577,9.658-13.415,35.2-12.384,62.546s19.865,30.184,19.865,30.184l21.206-1.067C346.081,304.423,338.516,261.56,348.708,217.319Z" transform="translate(-288.582 -192.01)" fill="#f8bd57"/>
                  <path id="Trazado_1075312" data-name="Trazado 1075312" d="M348.826,329.554c-.014-.07-.029-.138-.044-.209q-.109-.519-.224-1.082l-.033-.163q-.247-1.214-.514-2.62c-.008-.042-.016-.084-.024-.126-.09-.479-.182-.973-.276-1.484l-.01-.058q-.289-1.589-.588-3.375c0-.006,0-.01,0-.016-.906-5.425-1.841-12.159-2.525-19.853v0c-27.351-13.3-33.56-42.8-33.579-42.887-.17.7-.331,1.42-.487,2.147-.038.177-.074.358-.11.537q-.174.839-.336,1.7c-.041.221-.082.444-.122.666q-.149.827-.288,1.67c-.037.225-.075.45-.11.677-.1.6-.185,1.212-.272,1.827-.026.183-.053.364-.079.548q-.332,2.43-.583,4.973c-.017.175-.032.354-.049.53q-.094.992-.178,2c-.021.26-.041.523-.061.784q-.069.9-.131,1.816-.028.424-.055.85-.056.917-.1,1.844c-.014.271-.029.542-.041.815q-.05,1.067-.088,2.147c-.006.174-.014.346-.02.52q-.046,1.358-.074,2.733c0,.16,0,.322-.008.482q-.021,1.114-.031,2.238c0,.307,0,.616,0,.924q0,.921,0,1.846,0,.511.006,1.023.006.9.019,1.8c0,.342.009.684.015,1.027.011.64.026,1.282.042,1.925.008.3.013.591.021.887q.039,1.4.092,2.816c1.032,27.346,19.865,30.184,19.865,30.184l21.206-1.067C348.969,330.231,348.9,329.9,348.826,329.554Z" transform="translate(-288.584 -204.503)" fill="#f8bd57" opacity="0.42"/>
                  <path id="Trazado_1075313" data-name="Trazado 1075313" d="M308.469,239.42c3.315-14.594,11.633-21.612,30.349-24.731s36.439,1.926,39.795,5.465" transform="translate(-288.8 -190.894)" fill="none" stroke="#6468b0" stroke-linecap="round" stroke-linejoin="round" stroke-miterlimit="10" stroke-width="0.75"/>
                </g>
                <g id="Grupo_1201370" data-name="Grupo 1201370" transform="translate(60.104 106.003)">
                  <g id="Grupo_1201369" data-name="Grupo 1201369">
                    <g id="Grupo_1201368" data-name="Grupo 1201368">
                      <path id="Trazado_1075314" data-name="Trazado 1075314" d="M312.143,396.439c23.389,14.058,88.318,1.679,98.737-2.707s8.672-17.543,6.093-34.312-8.83-24.214-8.83-24.214-72.822,15.121-99.162-1.018C306.282,356.282,306.773,377.234,312.143,396.439Z" transform="translate(-307.378 -334.188)" fill="#6468b0"/>
                      <path id="Trazado_1075315" data-name="Trazado 1075315" d="M401.315,340.87c7.061,19.337,8.4,45.1,8.526,59.876,14.382-2.084,26.165-4.894,30.115-6.557,10.419-4.386,8.672-17.543,6.093-34.312s-8.831-24.214-8.831-24.214S421.115,339.005,401.315,340.87Z" transform="translate(-336.454 -334.644)" fill="#dd334d"/>
                    </g>
                    <path id="Trazado_1075316" data-name="Trazado 1075316" d="M350.917,354.675c38.436,2.47,72.238-6.679,72.238-6.679" transform="translate(-320.855 -338.462)" fill="none" stroke="#6468b0" stroke-linecap="round" stroke-linejoin="round" stroke-miterlimit="10" stroke-width="0.75"/>
                  </g>
                  <path id="Trazado_1075317" data-name="Trazado 1075317" d="M380.438,405.561c-15.874.489-28.718-.379-28.718-.379s20.947-28.536-11.134-54.115l-32.884,2.65c-.957,16.855.249,32.936,4.447,47.946C326.6,410.352,356.923,408.941,380.438,405.561Z" transform="translate(-307.383 -339.413)" fill="#6468b0" opacity="0.41"/>
                </g>
              </g>
              <g id="Grupo_1201431" data-name="Grupo 1201431">
                <g id="Grupo_1201393" data-name="Grupo 1201393" transform="translate(30.047)">
                  <g id="Grupo_1201372" data-name="Grupo 1201372" transform="translate(56.417 78.436)">
                    <path id="Trazado_1075318" data-name="Trazado 1075318" d="M169.116,171.279c6.894,11.032,2.011,26.255,2.011,26.255s0,12.352,12.065,15.8,27.288-17.305,27.288-17.305-9.479-7.885-4.021-26.887S169.116,171.279,169.116,171.279Z" transform="translate(-169.116 -161.216)" fill="#db8c68"/>
                    <path id="Trazado_1075319" data-name="Trazado 1075319" d="M205.728,182.9a37.352,37.352,0,0,1,1.428-13.209,9,9,0,0,1-.095-5.933c.022-.076.036-.146.057-.22-4.294-6.932-28.32,3.606-35.271,6.845a31.277,31.277,0,0,1,1.544,11.087c.033.265.066.531.092.795C184.336,190.712,196.038,188.793,205.728,182.9Z" transform="translate(-169.961 -161.218)" fill="#db8c68" opacity="0.62"/>
                  </g>
                  <g id="Grupo_1201373" data-name="Grupo 1201373" transform="translate(24.394 7.898)">
                    <path id="Trazado_1075320" data-name="Trazado 1075320" d="M131.063,89c-5.386,10.987-10.557,17.666-7.325,24.344a9.642,9.642,0,0,0,9.91,5.6s-2.37,10.556,4.739,16.158,16.373,0,16.373,0l41.363-4.309s10.556,5.816,14.65-6.678,2.154-17.019,2.154-17.019,7.971-3.231,3.447-11.849S211.2,72.2,201.294,64.874s-15.3,0-15.3,0c-3.033-6.569-8.107-7.09-14.65-3.256,0,0-6.894-6.439-20.035,1.1S131.063,89,131.063,89Z" transform="translate(-122.738 -59.057)" fill="#3b2b32"/>
                    <path id="Trazado_1075321" data-name="Trazado 1075321" d="M216.374,100.888c-3.374-6.426-4.593-16.085-9.1-23.619a20.126,20.126,0,0,1-3.255,3.3c-.207.164-.416.316-.624.468A21.2,21.2,0,0,1,195.959,93.3,19.414,19.414,0,0,1,184.7,97.391a21.493,21.493,0,0,1-5.122,6.049c-4.683,3.7-9.537,4.218-15.257,4.218a13.891,13.891,0,0,1-6.948-2.125c-4.8-.441-9.383-4.05-12.388-7.53-3.076-3.563-4.3-8.288-4.311-12.913-1.449-.272-2.872-.606-4.264-1.014a70.341,70.341,0,0,0-5.353,10.564c-5.386,10.987-10.556,17.666-7.325,24.344a9.641,9.641,0,0,0,9.91,5.6s-2.37,10.556,4.739,16.158,16.373,0,16.373,0l41.363-4.309s10.556,5.817,14.65-6.678,2.154-17.019,2.154-17.019S220.9,109.5,216.374,100.888Z" transform="translate(-122.738 -64.694)" fill="#3b2b32"/>
                  </g>
                  <g id="Grupo_1201376" data-name="Grupo 1201376" transform="translate(23.153 53.069)">
                    <g id="Grupo_1201374" data-name="Grupo 1201374" transform="translate(0 2.244)">
                      <path id="Trazado_1075322" data-name="Trazado 1075322" d="M137.257,132.017c-12.6-10.33-20.394-.285-14.075,11.993s17.332,7.761,17.858-1.111S137.257,132.017,137.257,132.017Z" transform="translate(-120.941 -127.728)" fill="#db8c68"/>
                      <path id="Trazado_1075323" data-name="Trazado 1075323" d="M138.233,132.017c-6.305-5.168-11.406-5.236-14.138-2.476A24.586,24.586,0,0,1,132.477,136c3.528,4.086,4.621,9.7,4.239,14.94a9.092,9.092,0,0,0,5.3-8.039C142.542,134.028,138.233,132.017,138.233,132.017Z" transform="translate(-121.917 -127.728)" fill="#db8c68" opacity="0.62"/>
                      <path id="Trazado_1075324" data-name="Trazado 1075324" d="M126.37,134.029c7-1.4,11.334,7.5,11.334,7.5s-6.771-3.963-8.945-.669,4.505,10.908,9.783,5.054" transform="translate(-122.622 -129.632)" fill="none" stroke="#282425" stroke-linecap="round" stroke-linejoin="round" stroke-miterlimit="10" stroke-width="0.75"/>
                    </g>
                    <g id="Grupo_1201375" data-name="Grupo 1201375" transform="translate(83.683)">
                      <path id="Trazado_1075325" data-name="Trazado 1075325" d="M245.965,128.767c12.6-10.33,20.394-.285,14.075,11.993s-17.332,7.761-17.858-1.111S245.965,128.767,245.965,128.767Z" transform="translate(-242.139 -124.478)" fill="#db8c68"/>
                      <path id="Trazado_1075326" data-name="Trazado 1075326" d="M248.045,142.07c.419-4.962,3.735-10.321,7.575-13.357a18.126,18.126,0,0,1,4.329-2.561c-2.767-2.609-7.791-2.458-13.982,2.616,0,0-4.309,2.011-3.782,10.883a8.964,8.964,0,0,0,6.024,8.3A25.724,25.724,0,0,1,248.045,142.07Z" transform="translate(-242.139 -124.48)" fill="#db8c68" opacity="0.62"/>
                      <path id="Trazado_1075327" data-name="Trazado 1075327" d="M260.425,130.779c-7-1.4-11.334,7.5-11.334,7.5s6.771-3.963,8.945-.669-4.505,10.907-9.783,5.054" transform="translate(-244.031 -126.382)" fill="none" stroke="#282425" stroke-linecap="round" stroke-linejoin="round" stroke-miterlimit="10" stroke-width="0.75"/>
                    </g>
                  </g>
                  <path id="Trazado_1075328" data-name="Trazado 1075328" d="M202.33,100.989c-8.043-.977-13.644-6.778-13.644-6.778s-2.011,4.6-6.176,4.739-7.181-4.739-7.181-4.739a10.471,10.471,0,0,1-7.755,4.452c-5.457.574-6.606-2.872-6.606-2.872s-3.416,12.574-17.183,11.944c-1.926,8.931-1.585,20.545,5.765,32.815,10.535,17.586,21.219,20.159,29.73,20.159s19.2-2.572,29.73-20.159a44.688,44.688,0,0,0,6.53-28C215.3,109.2,210.35,101.964,202.33,100.989Z" transform="translate(-104.55 -62.041)" fill="#db8c68"/>
                  <g id="Grupo_1201382" data-name="Grupo 1201382" transform="translate(44.782 42.799)">
                    <path id="Trazado_1075329" data-name="Trazado 1075329" d="M198.579,109.6c-3.878,7.755-1.58,23.841-1.58,23.841h3.16s.431,6.176-5.458,4.739" transform="translate(-165.401 -109.604)" fill="none" stroke="#282425" stroke-linecap="round" stroke-linejoin="round" stroke-miterlimit="10" stroke-width="0.75"/>
                    <g id="Grupo_1201378" data-name="Grupo 1201378" transform="translate(18.959 31.238)">
                      <g id="Grupo_1201377" data-name="Grupo 1201377">
                        <path id="Trazado_1075330" data-name="Trazado 1075330" d="M179.724,156.353l22.261-1.508s-.862,12.855-11.13,13.285S179.724,156.353,179.724,156.353Z" transform="translate(-179.724 -154.845)" fill="#3b2b32"/>
                        <path id="Trazado_1075331" data-name="Trazado 1075331" d="M201.9,154.925l-19.822,1.343C187.8,161.431,198.357,160.068,201.9,154.925Z" transform="translate(-180.452 -154.87)" fill="#fff"/>
                        <path id="Trazado_1075332" data-name="Trazado 1075332" d="M200.849,165.8c-6.294-1.6-13.766-.748-17.017,1.584a9.237,9.237,0,0,0,8.294,3.884A10.207,10.207,0,0,0,200.849,165.8Z" transform="translate(-180.996 -157.982)" fill="#f4a39d"/>
                      </g>
                      <path id="Trazado_1075333" data-name="Trazado 1075333" d="M201.986,154.845s-.862,12.855-11.13,13.285-11.13-11.777-11.13-11.777" transform="translate(-179.724 -154.845)" fill="none" stroke="#282425" stroke-linecap="round" stroke-linejoin="round" stroke-miterlimit="10" stroke-width="0.75"/>
                    </g>
                    <g id="Grupo_1201381" data-name="Grupo 1201381" transform="translate(0 7.025)">
                      <g id="Grupo_1201379" data-name="Grupo 1201379" transform="translate(41.076)">
                        <path id="Trazado_1075334" data-name="Trazado 1075334" d="M230.571,125.822l-3.3,1.329c-4.021-8.581-11.346-10.521-15.511-1.257" transform="translate(-211.756 -119.778)" fill="none" stroke="#282425" stroke-linecap="round" stroke-linejoin="round" stroke-miterlimit="10" stroke-width="1"/>
                        <line id="Línea_810" data-name="Línea 810" x1="2.771" y2="2.155" transform="translate(14.456 3.245)" fill="none" stroke="#282425" stroke-linecap="round" stroke-linejoin="round" stroke-miterlimit="10" stroke-width="1"/>
                      </g>
                      <g id="Grupo_1201380" data-name="Grupo 1201380">
                        <path id="Trazado_1075335" data-name="Trazado 1075335" d="M152.266,125.822l3.3,1.329c4.021-8.581,11.346-10.521,15.511-1.257" transform="translate(-152.266 -119.778)" fill="none" stroke="#282425" stroke-linecap="round" stroke-linejoin="round" stroke-miterlimit="10" stroke-width="1"/>
                        <line id="Línea_811" data-name="Línea 811" x2="2.771" y2="2.155" transform="translate(1.587 3.245)" fill="none" stroke="#282425" stroke-linecap="round" stroke-linejoin="round" stroke-miterlimit="10" stroke-width="1"/>
                      </g>
                    </g>
                  </g>
                  <g id="Grupo_1201386" data-name="Grupo 1201386" transform="translate(37.449 38.716)">
                    <g id="Grupo_1201385" data-name="Grupo 1201385">
                      <g id="Grupo_1201383" data-name="Grupo 1201383">
                        <path id="Trazado_1075336" data-name="Trazado 1075336" d="M157.273,103.691c-8.631,0-15.627,7.652-15.627,17.092s7,17.091,15.627,17.091,15.628-7.652,15.628-17.091S165.9,103.691,157.273,103.691Zm0,31.117c-7.083,0-12.825-6.28-12.825-14.026s5.742-14.026,12.825-14.026,12.825,6.28,12.825,14.026S164.357,134.808,157.273,134.808Z" transform="translate(-141.646 -103.691)" fill="#b92b40"/>
                        <path id="Trazado_1075337" data-name="Trazado 1075337" d="M218.374,103.691c-8.631,0-15.628,7.652-15.628,17.092s7,17.091,15.628,17.091S234,130.222,234,120.783,227.005,103.691,218.374,103.691Zm0,31.117c-7.083,0-12.825-6.28-12.825-14.026s5.742-14.026,12.825-14.026,12.825,6.28,12.825,14.026S225.457,134.808,218.374,134.808Z" transform="translate(-160.558 -103.691)" fill="#b92b40"/>
                      </g>
                      <g id="Grupo_1201384" data-name="Grupo 1201384" transform="translate(0 1.39)">
                        <path id="Trazado_1075338" data-name="Trazado 1075338" d="M157.273,105.7c-8.631,0-15.627,7.652-15.627,17.092s7,17.091,15.627,17.091S172.9,132.235,172.9,122.8,165.9,105.7,157.273,105.7Zm0,31.117c-7.083,0-12.825-6.28-12.825-14.026s5.742-14.026,12.825-14.026S170.1,115.049,170.1,122.8,164.357,136.821,157.273,136.821Z" transform="translate(-141.646 -105.704)" fill="#dd334d"/>
                        <path id="Trazado_1075339" data-name="Trazado 1075339" d="M218.374,105.7c-8.631,0-15.628,7.652-15.628,17.092s7,17.091,15.628,17.091S234,132.235,234,122.8,227.005,105.7,218.374,105.7Zm0,31.117c-7.083,0-12.825-6.28-12.825-14.026s5.742-14.026,12.825-14.026S231.2,115.049,231.2,122.8,225.457,136.821,218.374,136.821Z" transform="translate(-160.558 -105.704)" fill="#dd334d"/>
                      </g>
                    </g>
                    <path id="Trazado_1075340" data-name="Trazado 1075340" d="M198.539,125.356c-7.54-6.07-13.68,1.471-13.68,1.471l-.377-3.022c3.878-3.55,9.788-5.2,15.017-.812Z" transform="translate(-154.905 -108.848)" fill="#dd334d"/>
                  </g>
                  <g id="Grupo_1201391" data-name="Grupo 1201391">
                    <g id="Grupo_1201389" data-name="Grupo 1201389" transform="translate(3.818 2.324)">
                      <g id="Grupo_1201387" data-name="Grupo 1201387">
                        <path id="Trazado_1075341" data-name="Trazado 1075341" d="M132.826,74.44c7.922-15.007-5.17-29.73-24.775-20.682S90.6,81.119,99.434,89.306s20.251,6.247,23.913,1.723,3.016-11.2,3.016-11.2S131.156,77.6,132.826,74.44Z" transform="translate(-92.938 -50.985)" fill="#3b2b32"/>
                        <path id="Trazado_1075342" data-name="Trazado 1075342" d="M111.394,86.893C116.78,74.4,131,77.2,132.076,88.4" transform="translate(-98.65 -59.56)" fill="none" stroke="#4c3b42" stroke-linecap="round" stroke-linejoin="round" stroke-miterlimit="10" stroke-width="1"/>
                      </g>
                      <g id="Grupo_1201388" data-name="Grupo 1201388" transform="translate(95.362 1.114)">
                        <path id="Trazado_1075343" data-name="Trazado 1075343" d="M246.022,52.75c-15.081,1.077-18.958,16.373-10.771,22.405,0,0-3.878,12.28,9.479,15.727s26.929-12.5,19.82-26.5S246.022,52.75,246.022,52.75Z" transform="translate(-231.05 -52.599)" fill="#3b2b32"/>
                        <path id="Trazado_1075344" data-name="Trazado 1075344" d="M254.584,74.1c-11.848-5.17-17.45,7.325-17.45,7.325" transform="translate(-232.933 -58.865)" fill="none" stroke="#4c3b42" stroke-linecap="round" stroke-linejoin="round" stroke-miterlimit="10" stroke-width="1"/>
                      </g>
                    </g>
                    <g id="Grupo_1201390" data-name="Grupo 1201390">
                      <path id="Trazado_1075345" data-name="Trazado 1075345" d="M245.515,47.619a16.854,16.854,0,0,0-14.465,7.9" transform="translate(-131.87 -47.619)" fill="none" stroke="#3b2b32" stroke-linecap="round" stroke-linejoin="round" stroke-miterlimit="10" stroke-width="1"/>
                      <path id="Trazado_1075346" data-name="Trazado 1075346" d="M88.621,76.679c-2.4,6.823-1.342,14.931,4.077,20.04" transform="translate(-87.408 -56.614)" fill="none" stroke="#3b2b32" stroke-linecap="round" stroke-linejoin="round" stroke-miterlimit="10" stroke-width="1"/>
                      <path id="Trazado_1075347" data-name="Trazado 1075347" d="M278.058,95.813c-3.258,6.674-7.742,9.02-10.341,9.894" transform="translate(-143.219 -62.536)" fill="none" stroke="#3b2b32" stroke-linecap="round" stroke-linejoin="round" stroke-miterlimit="10" stroke-width="1"/>
                    </g>
                  </g>
                  <g id="Grupo_1201392" data-name="Grupo 1201392" transform="translate(41.697 28.936)">
                    <path id="Trazado_1075348" data-name="Trazado 1075348" d="M166.973,92.773c.552-6.069-20.272-2.937-19.13,4.241S166.327,99.883,166.973,92.773Z" transform="translate(-147.797 -89.536)" fill="#4c3b42"/>
                    <path id="Trazado_1075349" data-name="Trazado 1075349" d="M218.047,91.832c-2.847,4.273,12.569,13.016,17.309,6.615S221.851,86.123,218.047,91.832Z" transform="translate(-169.434 -89.527)" fill="#4c3b42"/>
                  </g>
                </g>
                <g id="Grupo_1201397" data-name="Grupo 1201397" transform="translate(48.623 101.222)">
                  <path id="Trazado_1075350" data-name="Trazado 1075350" d="M154.651,205.93c9.854,13.6,26.465,10.314,35.538-4.346,0,0,16.329-13.544,24.968-3.9s18.487,44.536,14.51,63.782-78.3,36.48-94.855,33.033-22.872-22.568-19.712-49.918,15.222-46.047,25.42-46.9S154.651,205.93,154.651,205.93Z" transform="translate(-114.312 -194.218)" fill="#6468b0"/>
                  <path id="Trazado_1075351" data-name="Trazado 1075351" d="M155.228,254.263c-2.488,13.535-3.247,26.117,0,36.487,0,0,61.716,2.051,63.724-6.372s-4.382-29.356-4.382-29.356-3.24,26.464-20.691,28.956S160.746,277.409,155.228,254.263Z" transform="translate(-126.308 -212.804)" fill="#6468b0" opacity="0.41"/>
                  <g id="Grupo_1201394" data-name="Grupo 1201394" transform="translate(26.663 7.499)">
                    <path id="Trazado_1075352" data-name="Trazado 1075352" d="M168.076,207.664c2.154,14.937,33.464,19.676,40.645-2.585" transform="translate(-157.617 -205.079)" fill="none" stroke="#6468b0" stroke-linecap="round" stroke-linejoin="round" stroke-miterlimit="10" stroke-width="0.75"/>
                    <path id="Trazado_1075353" data-name="Trazado 1075353" d="M157.355,237.2c-6.463,28.293-5.314,40.5,0,50.268s59.624,4.308,61.553-7.325-4.526-35.012-9.849-47.4" transform="translate(-152.928 -213.642)" fill="none" stroke="#6468b0" stroke-linecap="round" stroke-linejoin="round" stroke-miterlimit="10" stroke-width="0.75"/>
                  </g>
                  <g id="Grupo_1201396" data-name="Grupo 1201396" transform="translate(41.61 39.168)">
                    <ellipse id="Elipse_13509" data-name="Elipse 13509" cx="16.912" cy="13.573" rx="16.912" ry="13.573" fill="#f8bd57"/>
                    <g id="Grupo_1201395" data-name="Grupo 1201395" transform="translate(5.134 4.648)">
                      <path id="Trazado_1075354" data-name="Trazado 1075354" d="M203.437,257.7a27.739,27.739,0,0,1,1.929,9.479" transform="translate(-188.644 -257.684)" fill="none" stroke="#282425" stroke-linecap="round" stroke-linejoin="round" stroke-miterlimit="10" stroke-width="0.75"/>
                      <path id="Trazado_1075355" data-name="Trazado 1075355" d="M193.341,257.675a32.248,32.248,0,0,1,.521,9.518" transform="translate(-185.519 -257.675)" fill="none" stroke="#282425" stroke-linecap="round" stroke-linejoin="round" stroke-miterlimit="10" stroke-width="0.75"/>
                      <path id="Trazado_1075356" data-name="Trazado 1075356" d="M182.012,270.248c10.772,11.059,22.344,4.121,23.554-.788" transform="translate(-182.012 -261.323)" fill="none" stroke="#282425" stroke-linecap="round" stroke-linejoin="round" stroke-miterlimit="10" stroke-width="0.75"/>
                    </g>
                  </g>
                </g>
                <g id="Grupo_1201402" data-name="Grupo 1201402" transform="translate(6.035 190.929)">
                  <g id="Grupo_1201399" data-name="Grupo 1201399">
                    <g id="Grupo_1201398" data-name="Grupo 1201398">
                      <path id="Trazado_1075357" data-name="Trazado 1075357" d="M90.548,324.765c-32.746-3.267-37.916,7.316-37.916,7.316v12.464l54.234,2.745Z" transform="translate(-52.632 -324.139)" fill="#b1bfcf"/>
                      <path id="Trazado_1075358" data-name="Trazado 1075358" d="M250.928,329.1c23.267.251,32.746,6.6,32.746,6.6a12.487,12.487,0,0,1-1.436,12.032c-4.309,5.745-9.461,3.716-36.193,15.364-28.525,12.429-96.466,31.969-96.478,25.884C133.738,352.937,184.972,338.634,250.928,329.1Z" transform="translate(-81.74 -325.676)" fill="#b1bfcf"/>
                    </g>
                    <path id="Trazado_1075359" data-name="Trazado 1075359" d="M330.113,341.526l10.274,6.705a12.8,12.8,0,0,0,.066-9.689C335.068,337.146,330.113,341.526,330.113,341.526Z" transform="translate(-138.521 -328.512)" fill="#b1bfcf"/>
                  </g>
                  <g id="Grupo_1201401" data-name="Grupo 1201401" transform="translate(64.932 11.897)">
                    <g id="Grupo_1201400" data-name="Grupo 1201400">
                      <path id="Trazado_1075360" data-name="Trazado 1075360" d="M251.64,351.689c-13.337.208-26.794.878-39.389-4.427a20.124,20.124,0,0,1-7.887-5.894c-41.094,9.736-66.6,24.525-54.8,51.413.013,6.086,67.953-13.454,96.478-25.884,26.241-11.433,31.686-9.694,35.953-15.06C271.892,351.948,261.767,351.722,251.64,351.689Z" transform="translate(-146.672 -341.369)" fill="#b1bfcf"/>
                    </g>
                  </g>
                </g>
                <g id="Grupo_1201413" data-name="Grupo 1201413" transform="translate(28.512 154.555)">
                  <g id="Grupo_1201407" data-name="Grupo 1201407">
                    <g id="Grupo_1201403" data-name="Grupo 1201403" transform="translate(4.811)">
                      <path id="Trazado_1075361" data-name="Trazado 1075361" d="M92.727,284.438c21.974,10.125,27,9.12,48.831,6.535s33.177,5.457,33.177,5.457,3.088-5.96,17.738-9.623,33.177-7.646,44.379-15.348l5.817,5.322s-42.871,28.379-68.292,30.19-82.224-11.545-82.224-11.545Z" transform="translate(-92.153 -271.459)" fill="#fff"/>
                      <path id="Trazado_1075362" data-name="Trazado 1075362" d="M219.066,315.071c-10.325-1.935-14.233,4.012-14.233,4.012l10.3.456Z" transform="translate(-127.031 -284.839)" fill="#fbe4d2"/>
                    </g>
                    <g id="Grupo_1201406" data-name="Grupo 1201406" transform="translate(0 2.338)">
                      <path id="Trazado_1075363" data-name="Trazado 1075363" d="M85.185,292.381l81.65,13.165c4.883,1.106,10.344-.221,16.23-3.335l59.173-27.366s6.894,25.722,3.447,43.388c0,0-40.717,34.685-57.306,38.132a28.572,28.572,0,0,1-15.511,2.154s-36.193,1.077-59.46-17.235C102.446,327.781,93.279,311.048,85.185,292.381Z" transform="translate(-85.185 -274.845)" fill="#dd334d"/>
                      <g id="Grupo_1201404" data-name="Grupo 1201404" transform="translate(6.026 10.871)" opacity="0.58">
                        <path id="Trazado_1075364" data-name="Trazado 1075364" d="M249.247,324.576l-59.721,29.687-15.867,1.217S150.688,357.87,93.913,319.2c6.574,13.423,13.866,25.555,22.2,35.816,23.267,18.312,59.46,17.235,59.46,17.235a28.573,28.573,0,0,0,15.511-2.154c16.589-3.447,57.306-38.132,57.306-38.132A53.37,53.37,0,0,0,249.247,324.576Z" transform="translate(-93.913 -299.444)" fill="#dd334d"/>
                        <path id="Trazado_1075365" data-name="Trazado 1075365" d="M174.779,314.688l-16.239-2.618v19.909C165.546,339.341,175.212,330.2,174.779,314.688Z" transform="translate(-113.917 -297.239)" fill="#dd334d"/>
                        <path id="Trazado_1075366" data-name="Trazado 1075366" d="M272.322,290.59l-13.992,6.471,1.933,18.366C262.047,319.123,269.579,320.44,272.322,290.59Z" transform="translate(-144.805 -290.59)" fill="#dd334d"/>
                      </g>
                      <path id="Trazado_1075367" data-name="Trazado 1075367" d="M252.835,318.143l31.142-13.377-.189,16.8-29.481,11.717Z" transform="translate(-137.078 -284.106)" fill="#6468b0"/>
                      <path id="Trazado_1075368" data-name="Trazado 1075368" d="M260.526,318.955l.416,3.953c1.349,2.8,5.985,4.225,9.351-8.149Z" transform="translate(-139.458 -287.2)" fill="#6468b0" opacity="0.5"/>
                      <g id="Grupo_1201405" data-name="Grupo 1201405" transform="translate(81.65 27.366)">
                        <line id="Línea_812" data-name="Línea 812" x2="5.315" y2="54.154" transform="translate(16.229)" fill="none" stroke="#dd334d" stroke-linecap="round" stroke-linejoin="round" stroke-miterlimit="10" stroke-width="0.75"/>
                        <line id="Línea_813" data-name="Línea 813" x2="6.032" y2="52.973" transform="translate(0 3.335)" fill="none" stroke="#dd334d" stroke-linecap="round" stroke-linejoin="round" stroke-miterlimit="10" stroke-width="0.75"/>
                      </g>
                    </g>
                  </g>
                  <g id="Grupo_1201412" data-name="Grupo 1201412" transform="translate(31.757 7.408)">
                    <g id="Grupo_1201409" data-name="Grupo 1201409" transform="translate(0 10.009)">
                      <path id="Trazado_1075369" data-name="Trazado 1075369" d="M131.729,300.464c11.533-4.77,26.007-5.9,29.414,1.8,4.362,9.859.646,25.852-3.069,23.407-.2,3.343-1.706,4.492-4.041,2.984-1.652,1.641-4,1.116-7.178-2,0,0-3.917,2.645-10.918-7.049S131.729,300.464,131.729,300.464Z" transform="translate(-131.179 -296.684)" fill="#db8c68"/>
                      <g id="Grupo_1201408" data-name="Grupo 1201408" transform="translate(4.759 5.58)">
                        <path id="Trazado_1075370" data-name="Trazado 1075370" d="M168.272,328.173c.161-6.172-2.209-16.513-4.148-23.407" transform="translate(-146.135 -304.766)" fill="none" stroke="#282425" stroke-linecap="round" stroke-linejoin="round" stroke-miterlimit="10" stroke-width="0.75"/>
                        <path id="Trazado_1075371" data-name="Trazado 1075371" d="M160.126,331.881c-1.831-5.6-9.263-24.775-9.263-24.775" transform="translate(-142.031 -305.49)" fill="none" stroke="#282425" stroke-linecap="round" stroke-linejoin="round" stroke-miterlimit="10" stroke-width="0.75"/>
                        <path id="Trazado_1075372" data-name="Trazado 1075372" d="M138.071,307.73c2.37,10.448,10.918,22.345,10.918,22.345" transform="translate(-138.071 -305.683)" fill="none" stroke="#282425" stroke-linecap="round" stroke-linejoin="round" stroke-miterlimit="10" stroke-width="0.75"/>
                      </g>
                    </g>
                    <g id="Grupo_1201411" data-name="Grupo 1201411" transform="translate(70.81)">
                      <path id="Trazado_1075373" data-name="Trazado 1075373" d="M263.056,282.922c-10.6-2.846-26.862,3.193-28.7,7.725-3,7.409,5.6,32.895,9.156,23.934,1.373,4.676,4.093,4.515,6.14.539,1.356,2.55,4.416.215,5.386-5.639,0,0,2.441,3.63,4.524-2.763C260.747,303.086,263.056,282.922,263.056,282.922Z" transform="translate(-233.732 -282.188)" fill="#db8c68"/>
                      <g id="Grupo_1201410" data-name="Grupo 1201410" transform="translate(7.871 4.71)">
                        <path id="Trazado_1075374" data-name="Trazado 1075374" d="M245.21,294.781c-.539,10.125,1.831,23.7,1.831,23.7" transform="translate(-245.131 -290.796)" fill="none" stroke="#282425" stroke-linecap="round" stroke-linejoin="round" stroke-miterlimit="10" stroke-width="0.75"/>
                        <path id="Trazado_1075375" data-name="Trazado 1075375" d="M258.514,291.973c0,12.172-.969,22.405-1.723,26.175" transform="translate(-248.74 -289.926)" fill="none" stroke="#282425" stroke-linecap="round" stroke-linejoin="round" stroke-miterlimit="10" stroke-width="0.75"/>
                        <path id="Trazado_1075376" data-name="Trazado 1075376" d="M266.638,289.009a141.275,141.275,0,0,1-2.047,22.583" transform="translate(-251.154 -289.009)" fill="none" stroke="#282425" stroke-linecap="round" stroke-linejoin="round" stroke-miterlimit="10" stroke-width="0.75"/>
                      </g>
                    </g>
                  </g>
                </g>
                <g id="Grupo_1201430" data-name="Grupo 1201430" transform="translate(0 197.689)">
                  <g id="Grupo_1201422" data-name="Grupo 1201422" transform="translate(41.069 6.254)">
                    <g id="Grupo_1201419" data-name="Grupo 1201419" transform="translate(49.165)">
                      <g id="Grupo_1201415" data-name="Grupo 1201415">
                        <path id="Trazado_1075377" data-name="Trazado 1075377" d="M281.97,342.987c22.692,3.878,31.711,14.219,27.633,28.581s-32.059,28.319-72.874,37.629c-8.879,2.025-28.329,3.247-36.337,2.585-21.877-1.807-25.816-24.416-25.816-24.416,34.945-13.014,68.691-24.8,95.042-29.012C271.613,353.107,275.62,347.977,281.97,342.987Z" transform="translate(-174.576 -342.987)" fill="#db8c68"/>
                        <g id="Grupo_1201414" data-name="Grupo 1201414" transform="translate(71.071)" opacity="0.62">
                          <path id="Trazado_1075378" data-name="Trazado 1075378" d="M277.507,423.139c29.256-7.519,50.752-17.492,59.771-28.113-13.524,8.132-40.743,15.435-54.763,16.048C282.515,411.074,279.826,417.32,277.507,423.139Z" transform="translate(-277.507 -359.095)" fill="#db8c68"/>
                          <path id="Trazado_1075379" data-name="Trazado 1075379" d="M324.576,342.987c-6.35,4.99-10.356,10.12-12.352,15.368,10.517-6.094,21.8-8.686,29.857-9.788C337.613,346.107,331.788,344.219,324.576,342.987Z" transform="translate(-288.253 -342.987)" fill="#db8c68"/>
                        </g>
                      </g>
                      <g id="Grupo_1201418" data-name="Grupo 1201418" transform="translate(0 25.98)">
                        <g id="Grupo_1201417" data-name="Grupo 1201417" transform="translate(0)">
                          <path id="Trazado_1075380" data-name="Trazado 1075380" d="M227.211,380.613c-16.642,5.209-34.475,11.637-52.635,18.4,0,0,3.939,22.609,25.816,24.416,8.007.661,27.457-.56,36.337-2.585q8.392-1.914,16.022-4.083C252.736,416.587,250.02,386.073,227.211,380.613Z" transform="translate(-174.576 -380.613)" fill="#fff"/>
                          <g id="Grupo_1201416" data-name="Grupo 1201416" transform="translate(43.626 2.897)">
                            <path id="Trazado_1075381" data-name="Trazado 1075381" d="M237.759,384.809c18.311,7.747,22.439,30.943,22.206,36.472" transform="translate(-237.759 -384.809)" fill="none" stroke="#b1bfcf" stroke-linecap="round" stroke-linejoin="round" stroke-miterlimit="10" stroke-width="0.75"/>
                            <line id="Línea_814" data-name="Línea 814" x1="11.963" y2="2.856" transform="translate(21.146 25.483)" fill="none" stroke="#b1bfcf" stroke-linecap="round" stroke-linejoin="round" stroke-miterlimit="10" stroke-width="0.75"/>
                            <line id="Línea_815" data-name="Línea 815" x1="11.812" y2="2.972" transform="translate(18.305 16.673)" fill="none" stroke="#b1bfcf" stroke-linecap="round" stroke-linejoin="round" stroke-miterlimit="10" stroke-width="0.75"/>
                            <line id="Línea_816" data-name="Línea 816" y1="3.681" x2="11.166" transform="translate(13.774 7.747)" fill="none" stroke="#b1bfcf" stroke-linecap="round" stroke-linejoin="round" stroke-miterlimit="10" stroke-width="0.75"/>
                            <line id="Línea_817" data-name="Línea 817" x1="9.488" y2="4.204" transform="translate(7.773 0.595)" fill="none" stroke="#b1bfcf" stroke-linecap="round" stroke-linejoin="round" stroke-miterlimit="10" stroke-width="0.75"/>
                          </g>
                        </g>
                        <path id="Trazado_1075382" data-name="Trazado 1075382" d="M190.688,398.681q-7.993,2.9-16.112,5.924s3.939,22.609,25.816,24.416c8.007.661,27.457-.56,36.337-2.585q8.392-1.914,16.022-4.083a56.735,56.735,0,0,0-2.1-10.149C235.308,412.248,209.331,410.35,190.688,398.681Z" transform="translate(-174.576 -386.206)" fill="#b1bfcf" opacity="0.53"/>
                      </g>
                    </g>
                    <g id="Grupo_1201421" data-name="Grupo 1201421" transform="translate(0 43.079)">
                      <g id="Grupo_1201420" data-name="Grupo 1201420" transform="translate(0)">
                        <path id="Trazado_1075383" data-name="Trazado 1075383" d="M145.319,409.263c-11.72-5.088-34.394-8.33-41.076,11.2-2.631,7.692,1.012,20.107,6.682,20.969s29.439-8.543,34.5-10.16S145.319,409.263,145.319,409.263Z" transform="translate(-103.372 -405.378)" fill="#f8bd57"/>
                        <path id="Trazado_1075384" data-name="Trazado 1075384" d="M136.282,446.773c-3.734-6.7,9.1-12.979,9.1-12.979" transform="translate(-113.347 -414.174)" fill="none" stroke="#fff" stroke-linecap="round" stroke-linejoin="round" stroke-miterlimit="10" stroke-width="0.75"/>
                        <path id="Trazado_1075385" data-name="Trazado 1075385" d="M145.319,409.263c-11.72-5.088-34.394-8.33-41.076,11.2-2.631,7.692,1.012,20.107,6.682,20.969a13.613,13.613,0,0,0,4.1-.33c-7.023-5.5-7.333-22.937,13.346-28.51h17.7C145.656,410.593,145.319,409.263,145.319,409.263Z" transform="translate(-103.372 -405.378)" fill="#fff"/>
                      </g>
                      <path id="Trazado_1075386" data-name="Trazado 1075386" d="M145.426,431.278c5.063-1.617-.108-22.011-.108-22.011-6.475-2.811-16.291-5.05-24.909-3.205l-10.63,5.437a22.148,22.148,0,0,0-5.536,8.971,21.208,21.208,0,0,0-.391,10.588,112.328,112.328,0,0,1,15.325,9.076C128.477,437.628,141.787,432.44,145.426,431.278Z" transform="translate(-103.371 -405.381)" fill="#f8bd57" opacity="0.42"/>
                    </g>
                  </g>
                  <g id="Grupo_1201429" data-name="Grupo 1201429">
                    <g id="Grupo_1201423" data-name="Grupo 1201423">
                      <path id="Trazado_1075387" data-name="Trazado 1075387" d="M73.768,335.111c-22.98-6.354-40.214,14.12-22.692,32.791s59.963,37.416,75.94,41.256,30.053-17.534,30.053-17.534-11.489-3-27.432-16.954S96.46,341.386,73.768,335.111Z" transform="translate(-43.892 -333.93)" fill="#db8c68"/>
                      <path id="Trazado_1075388" data-name="Trazado 1075388" d="M131.065,411.723c-6.986-.313-61.585-26.368-87.154-52.508-.215,5.152,1.91,10.914,7.166,16.514,17.522,18.671,59.963,37.416,75.94,41.256a17.243,17.243,0,0,0,7.895,0A11.675,11.675,0,0,1,131.065,411.723Z" transform="translate(-43.893 -341.757)" fill="#db8c68" opacity="0.62"/>
                    </g>
                    <g id="Grupo_1201426" data-name="Grupo 1201426" transform="translate(19.971 17.426)">
                      <g id="Grupo_1201425" data-name="Grupo 1201425">
                        <path id="Trazado_1075389" data-name="Trazado 1075389" d="M166.022,399.438s-11.489-3-27.432-16.954c-7.981-6.984-16.288-15.318-25.44-22.687-27.066-3.6-40.447,8.685-40.335,26.785,20.354,14.575,50.3,27.3,63.153,30.39C151.946,420.812,166.022,399.438,166.022,399.438Z" transform="translate(-72.815 -359.168)" fill="#fff"/>
                        <g id="Grupo_1201424" data-name="Grupo 1201424" transform="translate(1.422 0.057)">
                          <path id="Trazado_1075390" data-name="Trazado 1075390" d="M127.9,371.174c-23.383-6.573-43.617,9.363-36.624,27.14" transform="translate(-79.517 -362.473)" fill="none" stroke="#b1bfcf" stroke-linecap="round" stroke-linejoin="round" stroke-miterlimit="10" stroke-width="0.75"/>
                          <line id="Línea_818" data-name="Línea 818" x2="10.669" y2="7.759" transform="translate(0 17.636)" fill="none" stroke="#b1bfcf" stroke-linecap="round" stroke-linejoin="round" stroke-miterlimit="10" stroke-width="0.75"/>
                          <line id="Línea_819" data-name="Línea 819" x2="10.221" y2="7.34" transform="translate(5.335 8.628)" fill="none" stroke="#b1bfcf" stroke-linecap="round" stroke-linejoin="round" stroke-miterlimit="10" stroke-width="0.75"/>
                          <line id="Línea_820" data-name="Línea 820" x2="9.154" y2="7.524" transform="translate(15.556 2.174)" fill="none" stroke="#b1bfcf" stroke-linecap="round" stroke-linejoin="round" stroke-miterlimit="10" stroke-width="0.75"/>
                          <line id="Línea_821" data-name="Línea 821" x2="6.436" y2="7.412" transform="translate(27.229)" fill="none" stroke="#b1bfcf" stroke-linecap="round" stroke-linejoin="round" stroke-miterlimit="10" stroke-width="0.75"/>
                        </g>
                      </g>
                      <path id="Trazado_1075391" data-name="Trazado 1075391" d="M140.016,419.676c-5.377-.241-38.951-15.727-65.792-34.764a30.543,30.543,0,0,0-1.409,9.638c20.354,14.574,50.3,27.3,63.153,30.39a17.243,17.243,0,0,0,7.895,0A11.677,11.677,0,0,1,140.016,419.676Z" transform="translate(-72.815 -367.136)" fill="#b1bfcf" opacity="0.53"/>
                    </g>
                    <g id="Grupo_1201428" data-name="Grupo 1201428" transform="translate(75.946 50.255)">
                      <g id="Grupo_1201427" data-name="Grupo 1201427" transform="translate(0.001)">
                        <path id="Trazado_1075392" data-name="Trazado 1075392" d="M211.8,417.217c-5.386-4.309-29.35-6.795-29.35-6.795s-11.151-5.484-16.321-3.115,3.016,16.54,3.016,16.54a26.683,26.683,0,0,1-15.257,5.715A44.8,44.8,0,0,0,180.128,441.9C198.666,443.95,211.921,422.075,211.8,417.217Z" transform="translate(-153.884 -406.714)" fill="#f8bd57"/>
                        <path id="Trazado_1075393" data-name="Trazado 1075393" d="M175.98,425.51c19.6,3.28,26.283-2.275,24.128-5.984s-10.823-7.441-10.823-7.441" transform="translate(-160.723 -408.376)" fill="none" stroke="#fff" stroke-linecap="round" stroke-linejoin="round" stroke-miterlimit="10" stroke-width="0.75"/>
                        <path id="Trazado_1075394" data-name="Trazado 1075394" d="M218.636,420.763a18.782,18.782,0,0,0-5.877-2.594c-4.369,10.116-16.795,26.438-36.778,24.617a44.456,44.456,0,0,0,10.986,2.664C205.506,447.5,218.761,425.621,218.636,420.763Z" transform="translate(-160.724 -410.259)" fill="#fff"/>
                      </g>
                      <path id="Trazado_1075395" data-name="Trazado 1075395" d="M165.109,435.261a25,25,0,0,1-11.226,3.138,44.8,44.8,0,0,0,26.244,12.341,24.43,24.43,0,0,0,15.844-4.01C168.437,448.066,165.11,435.262,165.109,435.261Z" transform="translate(-153.883 -415.55)" fill="#f8bd57" opacity="0.42"/>
                    </g>
                  </g>
                </g>
              </g>
            </g>
          </g>
          <g id="Grupo_1201442" data-name="Grupo 1201442" transform="translate(6.642 15.388)">
            <g id="Grupo_1201439" data-name="Grupo 1201439">
              <g id="Grupo_1201434" data-name="Grupo 1201434" transform="translate(267.014 75.618)">
                <path id="Trazado_1075396" data-name="Trazado 1075396" d="M440.437,161.982c-17.634-.914-27.671,11.219-28.46,16.818C424.908,178.85,435.619,175.255,440.437,161.982Z" transform="translate(-411.977 -161.933)" fill="#dd334d"/>
                <path id="Trazado_1075397" data-name="Trazado 1075397" d="M440.437,162c-14.3,4.862-28.46,16.818-28.46,16.818" transform="translate(-411.977 -161.955)" fill="none" stroke="#fbe4d2" stroke-linecap="round" stroke-linejoin="round" stroke-miterlimit="10" stroke-width="1"/>
              </g>
              <g id="Grupo_1201435" data-name="Grupo 1201435" transform="translate(6.331)">
                <path id="Trazado_1075398" data-name="Trazado 1075398" d="M52.176,52.416c-16,7.47-19.168,22.895-17.237,28.208C46.38,74.6,54.151,66.4,52.176,52.416Z" transform="translate(-34.434 -52.416)" fill="#dd334d"/>
                <path id="Trazado_1075399" data-name="Trazado 1075399" d="M52.4,52.416C42.053,63.422,35.165,80.624,35.165,80.624" transform="translate(-34.66 -52.416)" fill="none" stroke="#fbe4d2" stroke-linecap="round" stroke-linejoin="round" stroke-miterlimit="10" stroke-width="1"/>
              </g>
              <g id="Grupo_1201436" data-name="Grupo 1201436" transform="translate(275.755 96.157)">
                <path id="Trazado_1075400" data-name="Trazado 1075400" d="M455.442,201.2c-7.88-13.406-24.534-10.255-30.806-5.069C435.164,202.066,445.52,205.19,455.442,201.2Z" transform="translate(-424.636 -191.679)" fill="#6fb4a8"/>
                <path id="Trazado_1075401" data-name="Trazado 1075401" d="M455.442,202.741a41.481,41.481,0,0,0-30.806-5.069" transform="translate(-424.636 -193.216)" fill="none" stroke="#fbe4d2" stroke-linecap="round" stroke-linejoin="round" stroke-miterlimit="10" stroke-width="1"/>
              </g>
              <g id="Grupo_1201437" data-name="Grupo 1201437" transform="translate(22.692 117.473)">
                <path id="Trazado_1075402" data-name="Trazado 1075402" d="M58.129,222.551c4.021,22.98,26.139,31.022,26.139,31.022Q81.827,231.169,58.129,222.551Z" transform="translate(-58.129 -222.551)" fill="#f8bd57"/>
                <path id="Trazado_1075403" data-name="Trazado 1075403" d="M58.129,222.551a175.852,175.852,0,0,1,26.139,31.022" transform="translate(-58.129 -222.551)" fill="none" stroke="#fbe4d2" stroke-linecap="round" stroke-linejoin="round" stroke-miterlimit="10" stroke-width="1"/>
              </g>
              <g id="Grupo_1201438" data-name="Grupo 1201438" transform="translate(0 144.323)">
                <path id="Trazado_1075404" data-name="Trazado 1075404" d="M25.264,265.61c24.128-12.639,39.64,7.468,39.64,7.468C49.835,275.552,36.4,273.652,25.264,265.61Z" transform="translate(-25.264 -261.437)" fill="#6fb4a8"/>
                <path id="Trazado_1075405" data-name="Trazado 1075405" d="M25.264,267.48c18.958,0,39.64,7.468,39.64,7.468" transform="translate(-25.264 -263.308)" fill="none" stroke="#fbe4d2" stroke-linecap="round" stroke-linejoin="round" stroke-miterlimit="10" stroke-width="1"/>
              </g>
            </g>
            <g id="Grupo_1201441" data-name="Grupo 1201441" transform="translate(18.334 50.442)">
              <path id="Trazado_1075406" data-name="Trazado 1075406" d="M80.072,168.666c-18.117-1.7-36.143-17.865-24.635-33.627s27.289-9.172,30.419-.71-.791,19.748,2.383,27.338Z" transform="translate(-51.817 -125.471)" fill="#f8bd57"/>
              <path id="Trazado_1075407" data-name="Trazado 1075407" d="M86.009,169.566C73.979,151.38,63.646,145.374,62.261,149.75s14.047,10.269,18.262,2.474-2.979-17.536-5.2-15.712,8.589,26.355,12.208,30.937" transform="translate(-55.022 -128.82)" fill="none" stroke="#fff" stroke-linecap="round" stroke-linejoin="round" stroke-miterlimit="10" stroke-width="0.75"/>
              <path id="Trazado_1075408" data-name="Trazado 1075408" d="M87.844,183.39,98.662,174.6s7.035,9.443,6.662,11.251-8.714,8.538-11.257,6.514C92.507,191.125,87.844,183.39,87.844,183.39Z" transform="translate(-62.968 -140.679)" fill="#6468b0"/>
              <g id="Grupo_1201440" data-name="Grupo 1201440" transform="translate(24.455 38.11)">
                <line id="Línea_822" data-name="Línea 822" y1="5.698" x2="14.855" transform="translate(3.979 5.726)" fill="none" stroke="#282425" stroke-linecap="round" stroke-linejoin="round" stroke-miterlimit="10" stroke-width="0.75"/>
                <line id="Línea_823" data-name="Línea 823" x1="15.496" y2="6.138" transform="translate(1.955 2.739)" fill="none" stroke="#282425" stroke-linecap="round" stroke-linejoin="round" stroke-miterlimit="10" stroke-width="0.75"/>
                <line id="Línea_824" data-name="Línea 824" y1="5.982" x2="15.799" fill="none" stroke="#282425" stroke-linecap="round" stroke-linejoin="round" stroke-miterlimit="10" stroke-width="0.75"/>
              </g>
            </g>
          </g>
          <g id="Grupo_1201450" data-name="Grupo 1201450" transform="translate(12.974 0)">
            <g id="Grupo_1201443" data-name="Grupo 1201443" transform="translate(292.588 144.5)">
              <line id="Línea_825" data-name="Línea 825" y2="8.708" transform="translate(4.354)" fill="none" stroke="#282425" stroke-linecap="round" stroke-linejoin="round" stroke-miterlimit="10" stroke-width="0.75"/>
              <line id="Línea_826" data-name="Línea 826" x2="8.708" transform="translate(0 4.354)" fill="none" stroke="#282425" stroke-linecap="round" stroke-linejoin="round" stroke-miterlimit="10" stroke-width="0.75"/>
            </g>
            <g id="Grupo_1201444" data-name="Grupo 1201444" transform="translate(123.745 4.426)">
              <line id="Línea_827" data-name="Línea 827" y2="8.708" transform="translate(4.354)" fill="none" stroke="#282425" stroke-linecap="round" stroke-linejoin="round" stroke-miterlimit="10" stroke-width="0.75"/>
              <line id="Línea_828" data-name="Línea 828" x2="8.708" transform="translate(0 4.354)" fill="none" stroke="#282425" stroke-linecap="round" stroke-linejoin="round" stroke-miterlimit="10" stroke-width="0.75"/>
            </g>
            <g id="Grupo_1201445" data-name="Grupo 1201445" transform="translate(0 115.996)">
              <line id="Línea_829" data-name="Línea 829" y2="5.157" transform="translate(2.578)" fill="none" stroke="#282425" stroke-linecap="round" stroke-linejoin="round" stroke-miterlimit="10" stroke-width="0.75"/>
              <line id="Línea_830" data-name="Línea 830" x2="5.157" transform="translate(0 2.579)" fill="none" stroke="#282425" stroke-linecap="round" stroke-linejoin="round" stroke-miterlimit="10" stroke-width="0.75"/>
            </g>
            <g id="Grupo_1201446" data-name="Grupo 1201446" transform="translate(286.564 159.488)">
              <line id="Línea_831" data-name="Línea 831" y2="5.158" transform="translate(2.579)" fill="none" stroke="#282425" stroke-linecap="round" stroke-linejoin="round" stroke-miterlimit="10" stroke-width="0.75"/>
              <line id="Línea_832" data-name="Línea 832" x2="5.158" transform="translate(0 2.579)" fill="none" stroke="#282425" stroke-linecap="round" stroke-linejoin="round" stroke-miterlimit="10" stroke-width="0.75"/>
            </g>
            <g id="Grupo_1201447" data-name="Grupo 1201447" transform="translate(212.89 303.854)">
              <line id="Línea_833" data-name="Línea 833" y2="5.158" transform="translate(2.579)" fill="none" stroke="#282425" stroke-linecap="round" stroke-linejoin="round" stroke-miterlimit="10" stroke-width="0.75"/>
              <line id="Línea_834" data-name="Línea 834" x2="5.158" transform="translate(0 2.579)" fill="none" stroke="#282425" stroke-linecap="round" stroke-linejoin="round" stroke-miterlimit="10" stroke-width="0.75"/>
            </g>
            <g id="Grupo_1201448" data-name="Grupo 1201448" transform="translate(4.353 185.686)">
              <line id="Línea_835" data-name="Línea 835" y2="8.708" transform="translate(4.354)" fill="none" stroke="#282425" stroke-linecap="round" stroke-linejoin="round" stroke-miterlimit="10" stroke-width="0.75"/>
              <line id="Línea_836" data-name="Línea 836" x2="8.708" transform="translate(0 4.354)" fill="none" stroke="#282425" stroke-linecap="round" stroke-linejoin="round" stroke-miterlimit="10" stroke-width="0.75"/>
            </g>
            <g id="Grupo_1201449" data-name="Grupo 1201449" transform="translate(184.588 94.83)">
              <line id="Línea_837" data-name="Línea 837" y2="6.787" transform="translate(3.394)" fill="none" stroke="#282425" stroke-linecap="round" stroke-linejoin="round" stroke-miterlimit="10" stroke-width="0.75"/>
              <line id="Línea_838" data-name="Línea 838" x2="6.787" transform="translate(0 3.393)" fill="none" stroke="#282425" stroke-linecap="round" stroke-linejoin="round" stroke-miterlimit="10" stroke-width="0.75"/>
            </g>
            <rect id="Rectángulo_416192" data-name="Rectángulo 416192" width="6.368" height="6.368" transform="translate(200.366 84.766) rotate(45)" fill="none" stroke="#282425" stroke-linecap="round" stroke-linejoin="round" stroke-miterlimit="10" stroke-width="0.75"/>
            <rect id="Rectángulo_416193" data-name="Rectángulo 416193" width="6.368" height="6.368" transform="translate(52.256 131.546) rotate(45)" fill="none" stroke="#282425" stroke-linecap="round" stroke-linejoin="round" stroke-miterlimit="10" stroke-width="0.75"/>
            <rect id="Rectángulo_416194" data-name="Rectángulo 416194" width="6.368" height="6.368" transform="translate(249.992 292.514) rotate(45)" fill="none" stroke="#282425" stroke-linecap="round" stroke-linejoin="round" stroke-miterlimit="10" stroke-width="0.75"/>
            <rect id="Rectángulo_416195" data-name="Rectángulo 416195" width="6.368" height="6.368" transform="translate(40.925 0) rotate(45)" fill="none" stroke="#282425" stroke-linecap="round" stroke-linejoin="round" stroke-miterlimit="10" stroke-width="0.75"/>
          </g>
        </g>
      </g>
    </g>
  </g>
</svg>
