<svg xmlns="http://www.w3.org/2000/svg" xmlns:xlink="http://www.w3.org/1999/xlink" width="103" height="103" viewBox="0 0 103 103">
  <defs>
    <filter id="Trazado_978624" x="0" y="0" width="103" height="103" filterUnits="userSpaceOnUse">
      <feOffset dy="3" input="SourceAlpha"/>
      <feGaussianBlur stdDeviation="3" result="blur"/>
      <feFlood flood-opacity="0.161"/>
      <feComposite operator="in" in2="blur"/>
      <feComposite in="SourceGraphic"/>
    </filter>
  </defs>
  <g id="Grupo_1201244" data-name="Grupo 1201244" transform="translate(-171 -2903)">
    <g id="Grupo_1183755" data-name="Grupo 1183755" transform="translate(180 2909)">
      <g id="Grupo_1174730" data-name="Grupo 1174730">
        <g id="Grupo_1173798" data-name="Grupo 1173798">
          <g id="Grupo_1171925" data-name="Grupo 1171925">
            <g id="Grupo_1164524" data-name="Grupo 1164524">
              <g id="Grupo_1144123" data-name="Grupo 1144123">
                <g transform="matrix(1, 0, 0, 1, -9, -6)" filter="url(#Trazado_978624)">
                  <g id="Trazado_978624-2" data-name="Trazado 978624" transform="translate(9 6)" fill="#ebe9f0">
                    <path d="M 42.5 83.5 C 36.96437835693359 83.5 31.59512901306152 82.41617584228516 26.54141235351562 80.27863311767578 C 21.65934181213379 78.21369171142578 17.27447128295898 75.25723266601562 13.50862312316895 71.49137878417969 C 9.742764472961426 67.72553253173828 6.786305904388428 63.34066009521484 4.721364498138428 58.45858764648438 C 2.583823442459106 53.40486907958984 1.5 48.03562164306641 1.5 42.5 C 1.5 36.96437835693359 2.583823442459106 31.59512901306152 4.721364498138428 26.54141235351562 C 6.786305904388428 21.65934181213379 9.742764472961426 17.27447128295898 13.50862312316895 13.50862312316895 C 17.27447128295898 9.742764472961426 21.65934181213379 6.786305904388428 26.54141235351562 4.721364498138428 C 31.59512901306152 2.583823442459106 36.96437835693359 1.5 42.5 1.5 C 48.03562164306641 1.5 53.40486907958984 2.583823442459106 58.45858764648438 4.721364498138428 C 63.34066009521484 6.786305904388428 67.72553253173828 9.742764472961426 71.49137878417969 13.50862312316895 C 75.25723266601562 17.27447128295898 78.21369171142578 21.65934181213379 80.27863311767578 26.54141235351562 C 82.41617584228516 31.59512901306152 83.5 36.96437835693359 83.5 42.5 C 83.5 48.03562164306641 82.41617584228516 53.40486907958984 80.27863311767578 58.45858764648438 C 78.21369171142578 63.34066009521484 75.25723266601562 67.72553253173828 71.49137878417969 71.49137878417969 C 67.72553253173828 75.25723266601562 63.34066009521484 78.21369171142578 58.45858764648438 80.27863311767578 C 53.40486907958984 82.41617584228516 48.03562164306641 83.5 42.5 83.5 Z" stroke="none"/>
                    <path d="M 42.5 3 C 37.16621398925781 3 31.99356079101562 4.043960571289062 27.125732421875 6.102882385253906 C 22.42246627807617 8.092185974121094 18.19785308837891 10.94070434570312 14.56928253173828 14.56928253173828 C 10.94070434570312 18.19785308837891 8.092185974121094 22.42246627807617 6.102882385253906 27.125732421875 C 4.043960571289062 31.99356079101562 3 37.16621398925781 3 42.5 C 3 47.83378601074219 4.043960571289062 53.00643920898438 6.102882385253906 57.87425231933594 C 8.092185974121094 62.57753372192383 10.94070434570312 66.80213165283203 14.56928253173828 70.43071746826172 C 18.19786834716797 74.05929565429688 22.42246627807617 76.90781402587891 27.125732421875 78.89711761474609 C 31.99356079101562 80.95603942871094 37.16621398925781 82 42.5 82 C 47.83378601074219 82 53.00642395019531 80.95603942871094 57.87425231933594 78.89711761474609 C 62.57753372192383 76.90781402587891 66.80213165283203 74.05929565429688 70.43071746826172 70.43071746826172 C 74.05929565429688 66.80213165283203 76.90781402587891 62.57753372192383 78.89711761474609 57.87425231933594 C 80.95603942871094 53.00642395019531 82 47.83378601074219 82 42.5 C 82 37.16621398925781 80.95603942871094 31.99356079101562 78.89711761474609 27.125732421875 C 76.90781402587891 22.42246627807617 74.05929565429688 18.19786834716797 70.43071746826172 14.56928253173828 C 66.80213165283203 10.94070434570312 62.57753372192383 8.092185974121094 57.87425231933594 6.102882385253906 C 53.00643920898438 4.043960571289062 47.83378601074219 3 42.5 3 M 42.5 0 C 65.97209167480469 0 85 19.02789306640625 85 42.5 C 85 65.97209167480469 65.97209167480469 85 42.5 85 C 19.02789306640625 85 0 65.97209167480469 0 42.5 C 0 19.02789306640625 19.02789306640625 0 42.5 0 Z" stroke="none" fill="#c6c0d6"/>
                  </g>
                </g>
              </g>
            </g>
          </g>
        </g>
      </g>
    </g>
    <g id="impresion-de-la-mano_3_" data-name="impresion-de-la-mano (3)" transform="translate(194.687 2922.475)">
      <path id="Trazado_1075059" data-name="Trazado 1075059" d="M43.364,237.612c-5.468,4.079-13.062,3.045-19.277-3.17-5.113-5.113-7.894-9.619-7.042-14.19.707-3.791,3.937-4.928,6.788-5.894,3.636-1.233,3.364-4.992,7.371-6.1,3.99-1.1,8.546.992,13.311,5.757C53.718,223.218,49.454,233.07,43.364,237.612Z" transform="translate(-15.057 -184.162)" fill="#00ce8e"/>
      <path id="Trazado_1075060" data-name="Trazado 1075060" d="M43.365,238.615a16.711,16.711,0,0,0,1.461-1.228c-17.253.508-17.121-19.849-12.884-28.293q-.372.066-.737.166c-4.008,1.108-3.735,4.867-7.371,6.1-2.851.967-6.081,2.1-6.788,5.894-.852,4.571,1.93,9.077,7.042,14.19C30.3,241.66,37.9,242.693,43.365,238.615Z" transform="translate(-15.058 -185.165)" fill="#00c172"/>
      <path id="Trazado_1075061" data-name="Trazado 1075061" d="M182.965,18.938l4.655-8.062a4.011,4.011,0,0,1,6.947,4.011l-4.655,8.063a4.011,4.011,0,0,1-6.947-4.011Z" transform="translate(-162.608 -6.693)" fill="#ffbbd5"/>
      <path id="Trazado_1075062" data-name="Trazado 1075062" d="M356.758,218.376a4.011,4.011,0,0,1,1.468-5.479l8.087-4.669a4.011,4.011,0,1,1,4.011,6.947l-8.087,4.669A4.011,4.011,0,0,1,356.758,218.376Z" transform="translate(-317.519 -183.914)" fill="#827cd1"/>
      <path id="Trazado_1075063" data-name="Trazado 1075063" d="M363.9,225.483l-5.671,3.274a4.011,4.011,0,0,0,4.011,6.947l4.378-2.528C363.159,231.946,363.391,227.555,363.9,225.483Z" transform="translate(-317.519 -199.774)" fill="#625ac4"/>
      <path id="Trazado_1075064" data-name="Trazado 1075064" d="M369.2,372.4a4.011,4.011,0,0,1,3.646-4.345l5.635-.493a4.011,4.011,0,1,1,.7,7.991l-5.635.493A4.011,4.011,0,0,1,369.2,372.4Z" transform="translate(-329.075 -326.398)" fill="#ffb25a"/>
      <path id="Trazado_1075065" data-name="Trazado 1075065" d="M283.579,89.686a4.011,4.011,0,0,1,0-5.672l8.385-8.385a4.011,4.011,0,0,1,5.672,5.672l-8.385,8.385A4.011,4.011,0,0,1,283.579,89.686Z" transform="translate(-251.723 -65.153)" fill="#ff6e80"/>
      <path id="Trazado_1075066" data-name="Trazado 1075066" d="M7.5,89.89V83.945a4.011,4.011,0,1,1,8.021,0V89.89a4.011,4.011,0,0,1-8.021,0Z" transform="translate(-6.685 -70.037)" fill="#59d5ff"/>
      <g id="Grupo_1201243" data-name="Grupo 1201243" transform="translate(8.446 31.642)">
        <g id="Grupo_1201242" data-name="Grupo 1201242" transform="translate(0)">
          <ellipse id="Elipse_13503" data-name="Elipse 13503" cx="2.502" cy="3.142" rx="2.502" ry="3.142" transform="translate(0 3.538) rotate(-45)" fill="#fff"/>
          <ellipse id="Elipse_13504" data-name="Elipse 13504" cx="2.502" cy="3.142" rx="2.502" ry="3.142" transform="translate(12.04 15.58) rotate(-45)" fill="#fff"/>
        </g>
      </g>
      <path id="Trazado_1075067" data-name="Trazado 1075067" d="M187.456,29.957l-4.49,7.777a4.011,4.011,0,0,0,6.947,4.011l2.041-3.536C188.1,37.109,186.684,32.792,187.456,29.957Z" transform="translate(-162.608 -25.49)" fill="#ff96c0"/>
      <path id="Trazado_1075068" data-name="Trazado 1075068" d="M11.511,104.113a4.011,4.011,0,0,0,4.011-4.011V97.877a6.537,6.537,0,0,1-6.914-6.486A4,4,0,0,0,7.5,94.157V100.1a4.01,4.01,0,0,0,4.011,4.011Z" transform="translate(-6.685 -80.25)" fill="#00c4fc"/>
      <path id="Trazado_1075069" data-name="Trazado 1075069" d="M290.108,102.348l-6.529,6.529a4.011,4.011,0,1,0,5.672,5.672l3.878-3.878C289.742,109.734,289.182,105.022,290.108,102.348Z" transform="translate(-251.723 -90.016)" fill="#f8475e"/>
      <path id="Trazado_1075070" data-name="Trazado 1075070" d="M377.733,377.914a5.669,5.669,0,0,1-2.194-7.86l-2.693.236a4.011,4.011,0,0,0,.7,7.991Z" transform="translate(-329.075 -328.638)" fill="#ff8b43"/>
      <path id="Trazado_1075071" data-name="Trazado 1075071" d="M31.28,25.109a4.823,4.823,0,0,0,6.824,0l8.385-8.385a4.826,4.826,0,0,0-3.368-8.238h-.008a.815.815,0,0,0-.007,1.63,3.2,3.2,0,0,1,2.23,5.456l-8.385,8.385a3.2,3.2,0,0,1-4.52-4.52l7.811-7.811a.815.815,0,0,0-1.152-1.152L31.28,18.285a4.831,4.831,0,0,0,0,6.824Zm-9.862-6.68a4.822,4.822,0,0,0,6.592-1.766L32.664,8.6a4.825,4.825,0,1,0-8.358-4.825l-4.655,8.062a4.823,4.823,0,0,0,1.766,6.592Zm-.355-5.777,4.655-8.062a3.2,3.2,0,1,1,5.535,3.2L26.6,15.848a3.2,3.2,0,0,1-5.535-3.2ZM4.825,24.678h0a4.831,4.831,0,0,0,4.825-4.825V13.907A4.822,4.822,0,0,0,4.826,9.082h0A4.831,4.831,0,0,0,0,13.907v5.945a4.823,4.823,0,0,0,4.825,4.826Zm-3.2-4.825V13.907a3.2,3.2,0,0,1,6.392,0v5.945a3.2,3.2,0,0,1-6.392,0ZM49.335,40.347,43.7,40.84a4.826,4.826,0,1,0,.841,9.614l5.635-.493a4.826,4.826,0,0,0-.841-9.615Zm.7,7.991-5.635.493a3.2,3.2,0,1,1-.557-6.367l5.635-.493a3.2,3.2,0,0,1,.557,6.368ZM16.142,34.523a.68.68,0,0,1,0,.962.815.815,0,0,0,1.152,1.152,2.31,2.31,0,0,0-3.267-3.267.815.815,0,1,0,1.152,1.152.68.68,0,0,1,.962,0Zm38.836-9.148a4.823,4.823,0,0,0-6.592-1.766L40.3,28.278a4.831,4.831,0,0,0-1.766,6.592h0a4.823,4.823,0,0,0,6.592,1.766l8.087-4.669a4.823,4.823,0,0,0,1.766-6.592ZM52.4,30.555,44.31,35.224a3.194,3.194,0,0,1-4.366-1.17h0a3.194,3.194,0,0,1,1.17-4.366L49.2,25.02a3.2,3.2,0,1,1,3.2,5.535Zm-26.8,15.535a.815.815,0,0,0,1.152,0,2.31,2.31,0,0,0-3.267-3.267.815.815,0,0,0,1.152,1.152.681.681,0,1,1,.962.963A.815.815,0,0,0,25.595,46.091Zm-7.509-7.059a.816.816,0,0,0-.869.757A2.917,2.917,0,0,0,20.329,42.9a.815.815,0,0,0-.112-1.626A1.287,1.287,0,0,1,18.843,39.9a.815.815,0,0,0-.757-.869ZM15.929,23.309a7.616,7.616,0,0,0-4.372,3.456,6.041,6.041,0,0,1-3.043,2.657c-2.754.934-6.525,2.213-7.327,6.517C.355,40.4,2.6,45,8.453,50.856a23.335,23.335,0,0,0,3.338,2.783.815.815,0,1,0,.918-1.347,21.682,21.682,0,0,1-3.1-2.589c-5.437-5.437-7.54-9.59-6.818-13.465.627-3.365,3.614-4.378,6.249-5.272a7.623,7.623,0,0,0,3.843-3.25,6.026,6.026,0,0,1,3.483-2.836c4.5-1.245,9.206,2.236,12.518,5.548,3.606,3.606,5.356,7.664,5.061,11.735A14.972,14.972,0,0,1,27.82,52.8a11.785,11.785,0,0,1-11.881,1.242.815.815,0,0,0-.613,1.51A13.538,13.538,0,0,0,28.794,54.1a16.62,16.62,0,0,0,6.774-11.822c.33-4.558-1.584-9.055-5.534-13.005-3.793-3.792-8.94-7.4-14.1-5.966Z" transform="translate(0)"/>
    </g>
  </g>
</svg>
