<svg xmlns="http://www.w3.org/2000/svg" xmlns:xlink="http://www.w3.org/1999/xlink" width="103" height="103" viewBox="0 0 103 103">
  <defs>
    <filter id="Trazado_978624" x="0" y="0" width="103" height="103" filterUnits="userSpaceOnUse">
      <feOffset dy="3" input="SourceAlpha"/>
      <feGaussianBlur stdDeviation="3" result="blur"/>
      <feFlood flood-opacity="0.161"/>
      <feComposite operator="in" in2="blur"/>
      <feComposite in="SourceGraphic"/>
    </filter>
  </defs>
  <g id="Grupo_1201494" data-name="Grupo 1201494" transform="translate(-192 -3711.231)">
    <g id="Grupo_1183756" data-name="Grupo 1183756" transform="translate(201 3717.231)">
      <g id="Grupo_1179494" data-name="Grupo 1179494" transform="translate(0)">
        <g id="Grupo_1144531" data-name="Grupo 1144531">
          <g transform="matrix(1, 0, 0, 1, -9, -6)" filter="url(#Trazado_978624)">
            <g id="Trazado_978624-2" data-name="Trazado 978624" transform="translate(9 6)" fill="#edf3fc">
              <path d="M 42.5 83.5 C 36.96437835693359 83.5 31.59512901306152 82.41617584228516 26.54141235351562 80.27863311767578 C 21.65934181213379 78.21369171142578 17.27447128295898 75.25723266601562 13.50862312316895 71.49137878417969 C 9.742764472961426 67.72553253173828 6.786305904388428 63.34066009521484 4.721364498138428 58.45858764648438 C 2.583823442459106 53.40486907958984 1.5 48.03562164306641 1.5 42.5 C 1.5 36.96437835693359 2.583823442459106 31.59512901306152 4.721364498138428 26.54141235351562 C 6.786305904388428 21.65934181213379 9.742764472961426 17.27447128295898 13.50862312316895 13.50862312316895 C 17.27447128295898 9.742764472961426 21.65934181213379 6.786305904388428 26.54141235351562 4.721364498138428 C 31.59512901306152 2.583823442459106 36.96437835693359 1.5 42.5 1.5 C 48.03562164306641 1.5 53.40486907958984 2.583823442459106 58.45858764648438 4.721364498138428 C 63.34066009521484 6.786305904388428 67.72553253173828 9.742764472961426 71.49137878417969 13.50862312316895 C 75.25723266601562 17.27447128295898 78.21369171142578 21.65934181213379 80.27863311767578 26.54141235351562 C 82.41617584228516 31.59512901306152 83.5 36.96437835693359 83.5 42.5 C 83.5 48.03562164306641 82.41617584228516 53.40486907958984 80.27863311767578 58.45858764648438 C 78.21369171142578 63.34066009521484 75.25723266601562 67.72553253173828 71.49137878417969 71.49137878417969 C 67.72553253173828 75.25723266601562 63.34066009521484 78.21369171142578 58.45858764648438 80.27863311767578 C 53.40486907958984 82.41617584228516 48.03562164306641 83.5 42.5 83.5 Z" stroke="none"/>
              <path d="M 42.5 3 C 37.16621398925781 3 31.99356079101562 4.043960571289062 27.125732421875 6.102882385253906 C 22.42246627807617 8.092185974121094 18.19785308837891 10.94070434570312 14.56928253173828 14.56928253173828 C 10.94070434570312 18.19785308837891 8.092185974121094 22.42246627807617 6.102882385253906 27.125732421875 C 4.043960571289062 31.99356079101562 3 37.16621398925781 3 42.5 C 3 47.83378601074219 4.043960571289062 53.00643920898438 6.102882385253906 57.87425231933594 C 8.092185974121094 62.57753372192383 10.94070434570312 66.80213165283203 14.56928253173828 70.43071746826172 C 18.19786834716797 74.05929565429688 22.42246627807617 76.90781402587891 27.125732421875 78.89711761474609 C 31.99356079101562 80.95603942871094 37.16621398925781 82 42.5 82 C 47.83378601074219 82 53.00642395019531 80.95603942871094 57.87425231933594 78.89711761474609 C 62.57753372192383 76.90781402587891 66.80213165283203 74.05929565429688 70.43071746826172 70.43071746826172 C 74.05929565429688 66.80213165283203 76.90781402587891 62.57753372192383 78.89711761474609 57.87425231933594 C 80.95603942871094 53.00642395019531 82 47.83378601074219 82 42.5 C 82 37.16621398925781 80.95603942871094 31.99356079101562 78.89711761474609 27.125732421875 C 76.90781402587891 22.42246627807617 74.05929565429688 18.19786834716797 70.43071746826172 14.56928253173828 C 66.80213165283203 10.94070434570312 62.57753372192383 8.092185974121094 57.87425231933594 6.102882385253906 C 53.00643920898438 4.043960571289062 47.83378601074219 3 42.5 3 M 42.5 0 C 65.97209167480469 0 85 19.02789306640625 85 42.5 C 85 65.97209167480469 65.97209167480469 85 42.5 85 C 19.02789306640625 85 0 65.97209167480469 0 42.5 C 0 19.02789306640625 19.02789306640625 0 42.5 0 Z" stroke="none" fill="#5692e8"/>
            </g>
          </g>
        </g>
      </g>
    </g>
    <g id="ley_1_" data-name="ley (1)" transform="translate(216.797 3718.679)">
      <g id="Grupo_1201485" data-name="Grupo 1201485" transform="translate(11.601 44.646)">
        <g id="Grupo_1201480" data-name="Grupo 1201480" transform="translate(0 2.844)">
          <path id="Trazado_1075639" data-name="Trazado 1075639" d="M144.229,356.548a9.055,9.055,0,0,0,2.174,5.963H113.637a1.037,1.037,0,0,1-.846-.433,10.555,10.555,0,0,1,0-11.06,1.037,1.037,0,0,1,.846-.433H146.4A9.056,9.056,0,0,0,144.229,356.548Z" transform="translate(-111.226 -350.585)" fill="#fb3a82"/>
          <path id="Trazado_1075640" data-name="Trazado 1075640" d="M121.226,350.587l-9.24,10.008a10.471,10.471,0,0,1-.756-4.045,9.463,9.463,0,0,1,1.565-5.53,1.035,1.035,0,0,1,.846-.433Z" transform="translate(-111.23 -350.587)" fill="#fb1466"/>
          <path id="Trazado_1075641" data-name="Trazado 1075641" d="M178.794,356.548a9.055,9.055,0,0,0,2.174,5.963H147.7a10.254,10.254,0,0,1,0-11.926h33.264A9.056,9.056,0,0,0,178.794,356.548Z" transform="translate(-142.186 -350.585)" fill="#e0d3ce"/>
          <g id="Grupo_1201479" data-name="Grupo 1201479" transform="translate(3.605 0)">
            <path id="Trazado_1075642" data-name="Trazado 1075642" d="M152.181,350.587l-6.357,6.885c-.022-.294-.034-.6-.034-.922a8.738,8.738,0,0,1,1.912-5.963Z" transform="translate(-145.79 -350.587)" fill="#cdbfbb"/>
            <path id="Trazado_1075643" data-name="Trazado 1075643" d="M428.341,356.555a9.053,9.053,0,0,0,2.174,5.963h-3.941a9.265,9.265,0,0,1,0-11.925h3.941A9.051,9.051,0,0,0,428.341,356.555Z" transform="translate(-395.338 -350.591)" fill="#cdbfbb"/>
          </g>
        </g>
        <g id="Grupo_1201484" data-name="Grupo 1201484" transform="translate(4.489 0)">
          <g id="Grupo_1201482" data-name="Grupo 1201482" transform="translate(0)">
            <path id="Trazado_1075644" data-name="Trazado 1075644" d="M190.792,325.049a1.731,1.731,0,0,1-1.73,1.73H155.99a1.731,1.731,0,0,1,0-3.462h33.071a1.731,1.731,0,0,1,1.73,1.732Z" transform="translate(-154.26 -323.317)" fill="#fb3a82"/>
            <g id="Grupo_1201481" data-name="Grupo 1201481">
              <path id="Trazado_1075645" data-name="Trazado 1075645" d="M162.393,323.317l-3.195,3.462H155.99a1.731,1.731,0,0,1,0-3.462Z" transform="translate(-154.26 -323.317)" fill="#fb1466"/>
              <path id="Trazado_1075646" data-name="Trazado 1075646" d="M460.8,325.051a1.733,1.733,0,0,1-1.732,1.732h-3.357a1.731,1.731,0,0,0,0-3.462h3.357A1.731,1.731,0,0,1,460.8,325.051Z" transform="translate(-424.269 -323.321)" fill="#fb1466"/>
            </g>
          </g>
          <g id="Grupo_1201483" data-name="Grupo 1201483" transform="translate(0 14.153)">
            <path id="Trazado_1075647" data-name="Trazado 1075647" d="M189.059,462.458H155.988a1.731,1.731,0,1,1,0-3.462h33.071a1.731,1.731,0,0,1,0,3.462Z" transform="translate(-154.257 -458.996)" fill="#fb3a82"/>
            <path id="Trazado_1075648" data-name="Trazado 1075648" d="M460.8,460.73a1.73,1.73,0,0,1-1.732,1.73h-3.357a1.73,1.73,0,1,0,0-3.461h3.357A1.731,1.731,0,0,1,460.8,460.73Z" transform="translate(-424.268 -459)" fill="#fb1466"/>
          </g>
        </g>
      </g>
      <g id="Grupo_1201493" data-name="Grupo 1201493" transform="translate(-0.001 12.193)">
        <g id="Grupo_1201488" data-name="Grupo 1201488" transform="translate(0.782 20.673)">
          <g id="Grupo_1201486" data-name="Grupo 1201486" transform="translate(0 6.621)">
            <path id="Trazado_1075649" data-name="Trazado 1075649" d="M30.286,276.651l-2.794-2.794L8.469,291.417a3.012,3.012,0,1,0,4.256,4.256Z" transform="translate(-7.5 -273.857)" fill="#873f30"/>
            <path id="Trazado_1075650" data-name="Trazado 1075650" d="M13.911,303.141a3.013,3.013,0,0,1-4.259,0,2.983,2.983,0,0,1-.735-1.2,3.008,3.008,0,0,0,3.057-.732c.029-.029.058-.06.086-.089L29.621,282.1l1.935,1.935L14,303.053C13.967,303.083,13.939,303.113,13.911,303.141Z" transform="translate(-8.77 -281.237)" fill="#6c3328"/>
          </g>
          <path id="Trazado_1075651" data-name="Trazado 1075651" d="M197.071,210.382l-6.435,7.675,2.629,2.628,7.675-6.434Z" transform="translate(-171.533 -210.382)" fill="#873f30"/>
          <path id="Trazado_1075652" data-name="Trazado 1075652" d="M205.961,210.382l-2.079,2.48.624.624a1.176,1.176,0,0,1,0,1.663l-3.944,3.944,1.593,1.593,7.675-6.434Z" transform="translate(-180.424 -210.382)" fill="#6c3328"/>
          <g id="Grupo_1201487" data-name="Grupo 1201487" transform="translate(16.973 6.104)">
            <path id="Trazado_1075653" data-name="Trazado 1075653" d="M173.327,274.675l-2.552-2.552a1.889,1.889,0,0,1,2.671-2.671L176,272a1.889,1.889,0,0,1-2.671,2.671Z" transform="translate(-170.222 -268.899)" fill="#ba5d4f"/>
            <path id="Trazado_1075654" data-name="Trazado 1075654" d="M186.046,284.728a1.889,1.889,0,0,1-2.671,0l-1.934-1.934a1.889,1.889,0,0,0,2.671-2.671l1.934,1.934A1.888,1.888,0,0,1,186.046,284.728Z" transform="translate(-180.271 -278.952)" fill="#a34f41"/>
          </g>
        </g>
        <g id="Grupo_1201489" data-name="Grupo 1201489" transform="translate(20.759 3.13)">
          <path id="Trazado_1075655" data-name="Trazado 1075655" d="M0,0H8.014V12.581H0Z" transform="translate(8.895 0) rotate(45)" fill="#ba5d4f"/>
          <path id="Trazado_1075656" data-name="Trazado 1075656" d="M0,0H8.014V12.581H0Z" transform="translate(18.076 26.978) rotate(-135)" fill="#a34f41"/>
        </g>
        <g id="Grupo_1201492" data-name="Grupo 1201492" transform="translate(0 0)">
          <path id="Trazado_1075657" data-name="Trazado 1075657" d="M177.236,32.889l-.2-.2a1.911,1.911,0,0,1,0-2.7l9.736-9.736a1.911,1.911,0,0,1,2.7,0l.2.2a1.911,1.911,0,0,1,0,2.7l-9.736,9.736a1.911,1.911,0,0,1-2.7,0Z" transform="translate(-158.071 -18.911)" fill="#873f30"/>
          <path id="Trazado_1075658" data-name="Trazado 1075658" d="M348.8,204.455l.2.2a1.911,1.911,0,0,0,2.7,0l9.736-9.736a1.911,1.911,0,0,0,0-2.7l-.2-.2a1.911,1.911,0,0,0-2.7,0l-9.736,9.736A1.911,1.911,0,0,0,348.8,204.455Z" transform="translate(-311.919 -172.758)" fill="#6c3328"/>
          <g id="Grupo_1201491" data-name="Grupo 1201491">
            <path id="Trazado_1075659" data-name="Trazado 1075659" d="M0,0H9V19H0Z" transform="translate(37.778 6.714) rotate(45)" fill="#fcc16d"/>
            <path id="Trazado_1075660" data-name="Trazado 1075660" d="M0,0H19V4.555H0Z" transform="translate(27.482 23.298) rotate(-45)" fill="#fca62f"/>
            <path id="Trazado_1075661" data-name="Trazado 1075661" d="M238.132,67.61l-1.559-.637a1.433,1.433,0,0,0-1.556.313L224.072,78.231a1.433,1.433,0,0,0-.313,1.556l.637,1.559a.955.955,0,0,0,1.56.314l12.49-12.49A.956.956,0,0,0,238.132,67.61Z" transform="translate(-200.323 -61.163)" fill="#873f30"/>
            <path id="Trazado_1075662" data-name="Trazado 1075662" d="M302.751,132.229l.637,1.559a1.433,1.433,0,0,1-.313,1.556l-10.945,10.945a1.433,1.433,0,0,1-1.556.313l-1.559-.637a.955.955,0,0,1-.314-1.56l12.49-12.49A.956.956,0,0,1,302.751,132.229Z" transform="translate(-258.335 -119.176)" fill="#6c3328"/>
            <g id="Grupo_1201490" data-name="Grupo 1201490">
              <path id="Trazado_1075663" data-name="Trazado 1075663" d="M50.892,58.016H50.31a8.09,8.09,0,0,1-.674-1.284.782.782,0,0,0-1.446.6c.1.234.2.462.319.686H17.821a2.5,2.5,0,0,0-.682.095,9.094,9.094,0,0,1-1.15-4.658c0-.341.015-.677.045-1.007H31.022a.782.782,0,1,0,0-1.565H16.693l1.838-1.991H48.5a9.765,9.765,0,0,0-.753,1.991H37.469a.782.782,0,1,0,0,1.565H47.478c-.031.318-.048.639-.05.963a.782.782,0,0,0,.779.786h0a.782.782,0,0,0,.782-.779,8.371,8.371,0,0,1,1.316-4.525h.584a2.513,2.513,0,0,0,0-5.026H41.112l8.96-8.96a2.693,2.693,0,0,0,0-3.809l-.2-.2a2.692,2.692,0,0,0-3.67-.128L44.82,29.385l.471-.471a2.21,2.21,0,0,0,.484-2.405l-.637-1.559a1.734,1.734,0,0,0-1.259-1.044l-1.088-1.088a.782.782,0,1,0-1.106,1.106l.535.535L29.892,36.788l-3.626-3.626L38.6,20.833l.48.48a.782.782,0,1,0,1.106-1.106l-1.033-1.033A1.734,1.734,0,0,0,38.1,17.916h0l-1.559-.637a2.211,2.211,0,0,0-2.405.484l-.471.471-1.385-1.385a2.692,2.692,0,0,0-.128-3.67l-.2-.2a2.693,2.693,0,0,0-3.809,0l-9.736,9.736a2.693,2.693,0,0,0,0,3.809l.2.2a2.692,2.692,0,0,0,3.671.128l1.385,1.385-.472.472a2.211,2.211,0,0,0-.484,2.405l.637,1.559a1.733,1.733,0,0,0,1.241,1.04l-3.923,4.679a2.673,2.673,0,0,0-3.531,3.389l-1.779,1.642a.782.782,0,0,0,1.061,1.15l1.644-1.517L20,44.992,5.432,60.773a2.23,2.23,0,1,1-3.151-3.151L13.708,47.073a.782.782,0,1,0-1.061-1.15L1.22,56.472a3.794,3.794,0,0,0,2.571,6.583H3.87a3.762,3.762,0,0,0,2.712-1.22l4.689-5.079a9.016,9.016,0,0,0,1.258,2.682,1.822,1.822,0,0,0,1.484.762H15.33a2.509,2.509,0,0,0,2.491,2.844H50.892a2.513,2.513,0,0,0,0-5.026Zm.948-11.639a.95.95,0,0,1-.949.949H19.975l1.3-1.409a2.674,2.674,0,0,0,2.669-.488H50.892a.95.95,0,0,1,.948.949Zm-23.6-9.029-4.53,3.8-1.8-1.8,3.8-4.53Zm-3.413,6.515a2.686,2.686,0,0,0-.163-1.476l4.679-3.923a1.734,1.734,0,0,0,1.04,1.241l1.559.637a2.211,2.211,0,0,0,2.405-.484l.472-.472L36.2,40.773a2.7,2.7,0,0,0-.311,3.091H24.826Zm23.145-12.19a1.121,1.121,0,0,1,.8.33l.2.2a1.128,1.128,0,0,1,0,1.6L39.23,43.533a1.128,1.128,0,0,1-1.6,0l-.2-.2a1.13,1.13,0,0,1,0-1.6L47.173,32A1.121,1.121,0,0,1,47.971,31.674Zm-2.878.2-7.79,7.79-1.38-1.38,7.79-7.79Zm-14.176,6.1,12.49-12.49a.165.165,0,0,1,.12-.051.191.191,0,0,1,.037,0,.166.166,0,0,1,.126.1l.637,1.559a.649.649,0,0,1-.142.706L33.24,38.753a.649.649,0,0,1-.706.142l-1.559-.637a.173.173,0,0,1-.057-.283Zm-10.4-12.028a1.121,1.121,0,0,1-.8-.331l-.2-.2a1.129,1.129,0,0,1,0-1.6l9.736-9.736a1.129,1.129,0,0,1,1.6,0l.2.2a1.129,1.129,0,0,1,0,1.6l-9.736,9.736a1.122,1.122,0,0,1-.8.33Zm2.877-.2,7.79-7.79,1.38,1.38-7.79,7.79Zm.908,4.064L35.247,18.869a.649.649,0,0,1,.707-.142l1.559.637a.173.173,0,0,1,.057.283l-12.49,12.49a.173.173,0,0,1-.283-.057l-.637-1.559a.65.65,0,0,1,.142-.706ZM18.537,40.859a1.107,1.107,0,0,1,1.889-.782l2.551,2.552a1.107,1.107,0,0,1-1.565,1.565l-2.551-2.551a1.1,1.1,0,0,1-.324-.783ZM13.8,58.53a7.892,7.892,0,0,1-1.253-3.161l1.875-2.031c0,.039,0,.077,0,.116a10.854,10.854,0,0,0,1.213,5.181H14.012A.255.255,0,0,1,13.8,58.53Zm37.088,2.948H17.821a.949.949,0,1,1,0-1.9H50.892a.949.949,0,0,1,0,1.9Z" transform="translate(0.001 -12.193)"/>
              <path id="Trazado_1075664" data-name="Trazado 1075664" d="M203.109,417.166a.782.782,0,1,0,0,1.565h18.226a.782.782,0,1,0,0-1.565Z" transform="translate(-181.222 -374.924)"/>
            </g>
          </g>
        </g>
      </g>
    </g>
  </g>
</svg>
