<svg xmlns="http://www.w3.org/2000/svg" xmlns:xlink="http://www.w3.org/1999/xlink" width="295" height="221" viewBox="0 0 295 221">
  <defs>
    <clipPath id="clip-path">
      <rect id="Rectángulo_416198" data-name="Rectángulo 416198" width="295" height="221" transform="translate(285.302 3864)" fill="#fff" stroke="#707070" stroke-width="1" opacity="0.88"/>
    </clipPath>
    <clipPath id="clip-path-2">
      <rect id="Rectángulo_416159" data-name="Rectángulo 416159" width="24.249" height="4.253" fill="none"/>
    </clipPath>
    <clipPath id="clip-path-3">
      <rect id="Rectángulo_416160" data-name="Rectángulo 416160" width="23.702" height="24.219" fill="none"/>
    </clipPath>
    <clipPath id="clip-path-4">
      <rect id="Rectángulo_416161" data-name="Rectángulo 416161" width="10.685" height="8.383" fill="none"/>
    </clipPath>
    <clipPath id="clip-path-5">
      <rect id="Rectángulo_416162" data-name="Rectángulo 416162" width="19.099" height="24.216" fill="none"/>
    </clipPath>
  </defs>
  <g id="Enmascarar_grupo_1098860" data-name="Enmascarar grupo 1098860" transform="translate(-285.302 -3864)" clip-path="url(#clip-path)">
    <g id="Grupo_1201466" data-name="Grupo 1201466" transform="translate(2.66 14.936)">
      <circle id="Elipse_13511" data-name="Elipse 13511" cx="108.5" cy="108.5" r="108.5" transform="translate(327.642 3929.064)" fill="#effbfe"/>
      <g id="Grupo_1201465" data-name="Grupo 1201465" transform="translate(329.163 3862.536)">
        <path id="Trazado_1075437" data-name="Trazado 1075437" d="M208.725,160.91a11.893,11.893,0,0,1,10.53-4.33.456.456,0,0,1,.056.892,40.272,40.272,0,0,0-5.156,1.675,43.339,43.339,0,0,0-4.842,2.436.459.459,0,0,1-.589-.673" transform="translate(-85.504 -154.332)" fill="#e5b798"/>
        <path id="Trazado_1075441" data-name="Trazado 1075441" d="M159.878,183.1c.836.113,1.661.235,2.5.366a22.932,22.932,0,0,0-1.146,2.2l-.085-.038a2.827,2.827,0,0,1-2.066-2.395c0-1.183,9.411-23.036,36.382-28,17.494-3.23,29.017,1.38,39.414,9.532,9.925,7.766,19.626,26.389,19.476,37.939-1.484-.554-2.882-1.042-4.151-1.484A347.758,347.758,0,0,0,159.878,183.1" transform="translate(-82.486 -154.191)" fill="#3979b8"/>
        <path id="Trazado_1075442" data-name="Trazado 1075442" d="M192.477,181.547c1.2-4.913,4.049-9.642,8.516-12.016s10.635-1.8,13.854,2.107a12.452,12.452,0,0,1,2.549,6.823,36.523,36.523,0,0,1-.317,7.374,1.462,1.462,0,0,1-2.012,1.563,153.208,153.208,0,0,1-17.688-3.3c-1.933-.48-4.021-1.111-4.9-2.547" transform="translate(-84.521 -155.04)" fill="#1f3862"/>
        <path id="Trazado_1075443" data-name="Trazado 1075443" d="M215.5,176.451c-1.928-2.707-8-3.405-10.616-5.8-.561-.513-1.566-.916-3.335-4.31-.579-1.112-.5-2.479-1.064-3.6a2.86,2.86,0,0,0-3-1.764,3.148,3.148,0,0,0-1.788,1.617,8.254,8.254,0,0,0-.659,6.6,5.764,5.764,0,0,0-1.856-2.158,1.978,1.978,0,0,0-2.583.375,2.6,2.6,0,0,0-.3,1.509,13.208,13.208,0,0,0,1.238,5.278,3.405,3.405,0,0,0-2.179-1.046,2.066,2.066,0,0,0-2,1.18,3.053,3.053,0,0,0,.724,2.776c2.2,3.059,3.418,4.692,8.38,6.4,6.112,2.1,18.338,4.314,19.779,3.235.417-.313,2.477-5.762-.744-10.286" transform="translate(-84.201 -154.601)" fill="#633d24"/>
        <path id="Trazado_1075444" data-name="Trazado 1075444" d="M162.527,185.343a22.277,22.277,0,0,0-3.448-.366,2.206,2.206,0,0,0,.921,1.892,2.126,2.126,0,0,0,1.912.717Z" transform="translate(-82.486 -156.065)" fill="#1d2c4d"/>
        <path id="Trazado_1075445" data-name="Trazado 1075445" d="M291.2,235.493a3.912,3.912,0,0,1-.629.31,10.83,10.83,0,0,1-4.432.46,118.743,118.743,0,0,1-30.06-5.08c1.662-5.907,4-16.547,3.306-21.055a139.765,139.765,0,0,1,23.092,10.724c3.9,2.348,7.748,5.109,9.983,9.062a5,5,0,0,1,.8,2.592,3.776,3.776,0,0,1-2.057,2.986" transform="translate(-88.394 -157.598)" fill="#1d2c4d"/>
        <path id="Trazado_1075446" data-name="Trazado 1075446" d="M252.543,235.074c11.156,6.705,5.54,18.876.422,23.393-9.56,8.461-19.194,2.827-20.19.517-2.649,3.371-13.232,13.514-30.239,16.96a58.534,58.534,0,0,1-11.749,1.174,42.178,42.178,0,0,1-12.02-2.038c-14.312-4.386-31.235-15.9-35.348-34.484-1.128-5.062-.207-10.847,3.324-14.641.667-.714,3.192-4.639,3.719-5.466a9.8,9.8,0,0,0,1.08-2.855c2.836-10.678,5.522-23.2,8.705-30.07a22.511,22.511,0,0,1,1.146-2.2,452.234,452.234,0,0,1,77.222,18.369c-5.71,11.617-4.151,24.623,1.127,34.127a10.379,10.379,0,0,1,8.075-4.113,9,9,0,0,1,4.725,1.324" transform="translate(-81.505 -156.09)" fill="#ffe1d9"/>
        <path id="Trazado_1075447" data-name="Trazado 1075447" d="M255.159,230.866a23.884,23.884,0,0,1-1.371,4.057v.019a10.379,10.379,0,0,0-8.076,4.113c-5.278-9.5-6.837-22.51-1.127-34.127q4.395,1.465,8.752,3.015,2.578.916,5.127,1.869c.695,4.508-1.643,15.148-3.306,21.055" transform="translate(-87.474 -157.281)" fill="#633d24"/>
        <path id="Trazado_1075448" data-name="Trazado 1075448" d="M247.757,383.768c.356,1.418.722,2.77,1.079,4.047-36.86,5.184-99.966,2.968-113.846-2.968.563-5.193,1.324-10.565,2.281-16.04a559.016,559.016,0,0,0,107.17,1.23c1.146,4.968,2.244,9.616,3.316,13.73" transform="translate(-81.019 -167.262)" fill="#2ca0d9"/>
        <path id="Trazado_1075449" data-name="Trazado 1075449" d="M243.452,364.83c.385,1.681.761,3.324,1.136,4.949a559.012,559.012,0,0,1-107.17-1.23c.235-1.324.479-2.658.732-3.991,32.85,3.184,68.235,2.442,105.3.272" transform="translate(-81.167 -167.003)" fill="#3b6daf"/>
        <path id="Trazado_1075450" data-name="Trazado 1075450" d="M240.543,350.162c1.024,4.357,2.01,8.677,2.957,12.837-37.066,2.169-72.45,2.911-105.3-.272,1.662-8.762,3.785-17.768,6.329-26.774a518.214,518.214,0,0,1,92.867,1.362c1.09,4.235,2.133,8.565,3.147,12.847" transform="translate(-81.215 -165.172)" fill="#f7c147"/>
        <path id="Trazado_1075451" data-name="Trazado 1075451" d="M250.137,363.185c-.948-4.16-1.935-8.48-2.958-12.837l.216-.047c9.466-2.845,16.312-6.94,21.186-12.753a245.334,245.334,0,0,1,13.157,38.437c-4.282,3.672-14.622,7.982-27.149,5.879-1.071-4.113-2.169-8.762-3.315-13.73-.376-1.625-.751-3.268-1.136-4.949" transform="translate(-87.852 -165.358)" fill="#ffe1d9"/>
        <path id="Trazado_1075452" data-name="Trazado 1075452" d="M236.784,333.15c.347,1.287.685,2.573,1.023,3.878a518.217,518.217,0,0,0-92.867-1.362q.692-2.465,1.428-4.93a517.476,517.476,0,0,1,90.416,2.413" transform="translate(-81.625 -164.885)" fill="#3979b8"/>
        <path id="Trazado_1075453" data-name="Trazado 1075453" d="M126.323,270.486a75.568,75.568,0,0,1,8.188-10.058,182.737,182.737,0,0,0,42.118,21.261h.01c-.217,1.549-.424,3.146-.611,4.846a19.824,19.824,0,0,0,20.6,5.24,6.285,6.285,0,0,0,3.673-2.639,8.067,8.067,0,0,0,.581-4.263c-.019-.517-.047-1.033-.065-1.549l.1-.009c11.476-2.122,24.576,1.8,34.831,7.71a95.506,95.506,0,0,1,12.63,9.241c5.955,4.883,11.513,14.744,17.467,19.627a2.37,2.37,0,0,1,.809.967,2.318,2.318,0,0,1-.207,1.531,37.049,37.049,0,0,1-6.067,10.462c-4.873,5.813-11.719,9.907-21.185,12.753l-.216.047c-1.014-4.282-2.057-8.612-3.147-12.847-.338-1.305-.676-2.592-1.023-3.878a517.479,517.479,0,0,0-90.416-2.414q.773-2.578,1.6-5.156c-8.866-2.7-24.671-11.063-31.6-17.214a4.935,4.935,0,0,1-1.643-2.16,3.754,3.754,0,0,1,.01-1.766c.066-.319.159-.639.244-.948a101.942,101.942,0,0,1,13.316-28.783" transform="translate(-79.659 -160.661)" fill="#2ca0d9"/>
        <path id="Trazado_1075454" data-name="Trazado 1075454" d="M205,286.119a8.067,8.067,0,0,1-.582,4.263,6.282,6.282,0,0,1-3.672,2.639,19.824,19.824,0,0,1-20.6-5.24c.188-1.7.394-3.3.61-4.846.085-.685.188-1.362.282-2.028V280.9a42.184,42.184,0,0,0,12.02,2.038,58.526,58.526,0,0,0,11.748-1.174c.047.939.085,1.869.131,2.808.019.516.047,1.033.066,1.549" transform="translate(-83.769 -161.908)" fill="#ffe1d9"/>
        <g id="Grupo_1201461" data-name="Grupo 1201461" transform="translate(96.805 118.99)" opacity="0.21" style="mix-blend-mode: multiply;isolation: isolate">
          <g id="Grupo_1201111" data-name="Grupo 1201111" transform="translate(0 0)">
            <g id="Grupo_1201110" data-name="Grupo 1201110" clip-path="url(#clip-path-2)">
              <path id="Trazado_1074787" data-name="Trazado 1074787" d="M204.851,282.262c-.008-.167-.015-.333-.023-.5a58.458,58.458,0,0,1-11.748,1.174,42.184,42.184,0,0,1-12.02-2.038v.01c-.094.667-.2,1.342-.282,2.027-.06.434-.117.882-.177,1.323,8.486,1.407,16.915,1.434,24.25-2" transform="translate(-180.602 -280.898)" fill="#8a4a85"/>
            </g>
          </g>
        </g>
        <path id="Trazado_1075455" data-name="Trazado 1075455" d="M239.65,203.713a452.225,452.225,0,0,0-77.223-18.369c-.836-.131-1.661-.254-2.5-.366a347.768,347.768,0,0,1,90.321,18.115c1.269.441,2.667.93,4.151,1.484,13.139,4.865,33.31,14.011,33.695,24.078.076,2.132-.919,4.508-2.752,5.306a3.776,3.776,0,0,0,2.057-2.986,4.99,4.99,0,0,0-.8-2.592c-2.235-3.954-6.085-6.715-9.983-9.062A139.73,139.73,0,0,0,253.529,208.6q-2.55-.958-5.127-1.869-4.353-1.55-8.751-3.015" transform="translate(-82.538 -156.066)" fill="#1f3862"/>
        <path id="Trazado_1075456" data-name="Trazado 1075456" d="M139.205,182.776a3.558,3.558,0,0,1,.676,5.362C135.4,193.97,132.265,194.787,127,203.8a14.016,14.016,0,0,0-5.616-4.977,9.02,9.02,0,0,0-3.822-.986l.075-2.536c4.874-4,7.128-5.935,12.678-10.49a12.535,12.535,0,0,1,4.2-2.357,5.991,5.991,0,0,1,4.7.319" transform="translate(-79.958 -155.893)" fill="#ffe1d9"/>
        <path id="Trazado_1075457" data-name="Trazado 1075457" d="M111.91,199.61a4.1,4.1,0,0,1,.93-.657,4.958,4.958,0,0,1,2.282-.526,9.027,9.027,0,0,1,3.822.986,14.014,14.014,0,0,1,5.615,4.977,10.592,10.592,0,0,1,1.691,7.8c-.6,3.024-2.621,5.578-4.875,7.672s-4.827,3.869-6.986,6.076a24.5,24.5,0,0,0-5.372,24.98c2.845,7.766,7.954,12.377,15.166,15.382a101.942,101.942,0,0,0-13.316,28.783c-.085.31-.178.629-.244.949-7.71-3.963-17.392-9.973-22.7-16.077A42.059,42.059,0,0,1,77.67,256.3a52.9,52.9,0,0,1,.892-14.077,81.6,81.6,0,0,1,10.789-27.76,11.681,11.681,0,0,1-.676-9.457,22,22,0,0,1,5.26-8.133c2.517-2.629,5.681-5.034,9.324-5.1a5.746,5.746,0,0,1,2.489.592,12.805,12.805,0,0,1,6.161,7.24" transform="translate(-77.519 -156.48)" fill="#ffe1d9"/>
        <path id="Trazado_1075458" data-name="Trazado 1075458" d="M125.685,175.063c1.728.366,3.212,2.78.967,6.386-2.01,3.24-6.189,7.9-9.626,13.42l-.075,2.536a4.961,4.961,0,0,0-2.282.526,4.146,4.146,0,0,0-.93.657,12.807,12.807,0,0,0-6.16-7.24l.1-.225c3.127-5.644,12.434-17.232,18-16.059" transform="translate(-79.35 -155.457)" fill="#ffe1d9"/>
        <path id="Trazado_1075459" data-name="Trazado 1075459" d="M155.67,301.766c-9.359,25.573-16.558,52.006-20.265,79.011a.448.448,0,0,1-.89-.1C136.227,360.207,141,340.058,147.5,320.6c2.209-6.476,4.611-12.89,7.339-19.165a.448.448,0,0,1,.832.332" transform="translate(-80.99 -163.143)" fill="#115b7b"/>
        <path id="Trazado_1075460" data-name="Trazado 1075460" d="M237.322,314.218c7.578,19.658,11.374,40.852,16.137,61.314l.955,4.423,1.033,4.4a.448.448,0,0,1-.863.24c-1.809-5.785-3.178-11.665-4.716-17.514-2.057-8.474-4.213-17.893-6.283-26.411-1.352-5.692-2.912-11.894-4.512-17.5-.8-2.9-1.679-5.78-2.594-8.648a.448.448,0,0,1,.842-.3" transform="translate(-87.199 -163.92)" fill="#115b7b"/>
        <path id="Trazado_1075461" data-name="Trazado 1075461" d="M247,252.614a11.026,11.026,0,0,1,4.947-5.777c2.395-1.226,5.78-1.119,7.565,1.075a.454.454,0,0,1-.611.654,6.239,6.239,0,0,0-6.1-.058,17.7,17.7,0,0,0-5.034,4.572.455.455,0,0,1-.765-.466" transform="translate(-87.839 -159.786)" fill="#af7371"/>
        <g id="Grupo_1201462" data-name="Grupo 1201462" transform="translate(128.024 78.726)" opacity="0.4" style="mix-blend-mode: multiply;isolation: isolate">
          <g id="Grupo_1201114" data-name="Grupo 1201114" transform="translate(0 0)">
            <g id="Grupo_1201113" data-name="Grupo 1201113" clip-path="url(#clip-path-3)">
              <path id="Trazado_1074795" data-name="Trazado 1074795" d="M213.869,249.41a11.852,11.852,0,1,1,11.089,12.809,11.981,11.981,0,0,1-11.089-12.809" transform="translate(-213.846 -238.023)" fill="#d67188"/>
            </g>
          </g>
        </g>
        <path id="Trazado_1075462" data-name="Trazado 1075462" d="M180.357,201.105a3.067,3.067,0,0,0-1.677-1.576c-2.632-1.226-5.774-.614-8.423.575a5.576,5.576,0,0,0-2.376,1.706,2.308,2.308,0,0,0-.057,2.749c.71.827,1.977.8,3.063.7a41.217,41.217,0,0,0,6.8-1.03,5.082,5.082,0,0,0,2.044-.927,1.942,1.942,0,0,0,.626-2.2" transform="translate(-82.993 -156.911)" fill="#633d24"/>
        <path id="Trazado_1075463" data-name="Trazado 1075463" d="M220.942,211.97a9.927,9.927,0,0,0-5.3-5.583,6.138,6.138,0,0,0-4.241-.589,2.958,2.958,0,0,0-2.2,3.272,4.552,4.552,0,0,0,2.216,2.392c1.548,1.007,5.735,3.75,6.239,4.1,1.276.886,4.369-.472,3.291-3.592" transform="translate(-85.535 -157.324)" fill="#633d24"/>
        <path id="Trazado_1075464" data-name="Trazado 1075464" d="M205.162,225.931a4.114,4.114,0,1,1,3.5,4.913,4.273,4.273,0,0,1-3.5-4.913" transform="translate(-85.291 -158.323)" fill="#231409"/>
        <path id="Trazado_1075465" data-name="Trazado 1075465" d="M212.973,228.34a8.165,8.165,0,0,0,.067-7.526,4.927,4.927,0,0,0-3.745-2.577c-.922-.113-1.32.391-1.307.71.03.7.817.368,2.08,1.314.709.531,1.333,1.7.965,2.443a29.03,29.03,0,0,1,1.616,4.28c.048.224.229,1.512.324,1.355" transform="translate(-85.465 -158.091)" fill="#231409"/>
        <path id="Trazado_1075466" data-name="Trazado 1075466" d="M168.017,219.316a4.114,4.114,0,1,1,3.5,4.914,4.273,4.273,0,0,1-3.5-4.914" transform="translate(-83.028 -157.92)" fill="#231409"/>
        <path id="Trazado_1075467" data-name="Trazado 1075467" d="M175.828,221.726a8.163,8.163,0,0,0,.067-7.525,4.925,4.925,0,0,0-3.745-2.578c-.922-.112-1.32.391-1.307.71.03.7.817.368,2.079,1.314.709.531,1.334,1.7.966,2.444a29.022,29.022,0,0,1,1.616,4.28c.048.225.229,1.512.324,1.355" transform="translate(-83.203 -157.688)" fill="#231409"/>
        <g id="Grupo_1201463" data-name="Grupo 1201463" transform="translate(99.25 63.321)" opacity="0.59" style="mix-blend-mode: multiply;isolation: isolate">
          <g id="Grupo_1201117" data-name="Grupo 1201117" transform="translate(0 0)">
            <g id="Grupo_1201116" data-name="Grupo 1201116" clip-path="url(#clip-path-4)">
              <path id="Trazado_1074802" data-name="Trazado 1074802" d="M193.8,226.622a3.615,3.615,0,0,0-1-3.233,5.67,5.67,0,0,0-3.03-1.586,6.346,6.346,0,0,0-4.528.533,3.908,3.908,0,0,0-1.981,3.906,4.426,4.426,0,0,0,2.146,2.8,6.155,6.155,0,0,0,4.649.8c1.567-.392,3.109-.957,3.746-3.219" transform="translate(-183.206 -221.619)" fill="#d67188"/>
            </g>
          </g>
        </g>
        <path id="Trazado_1075468" data-name="Trazado 1075468" d="M185.965,222.26c-1.67.959-3.171,2.814-2.177,4.759a4.737,4.737,0,0,0,1.22,1.573.227.227,0,0,1-.239.378c-3.494-1.765-2.572-6.171,1.012-7.119a.227.227,0,0,1,.184.409" transform="translate(-83.917 -158.311)" fill="#9e605a"/>
        <path id="Trazado_1075469" data-name="Trazado 1075469" d="M191.171,230.019a2.664,2.664,0,0,1,1.109-1.283.969.969,0,0,1,.566-.166.437.437,0,0,1,.409.369.5.5,0,0,1-.064.252,1.6,1.6,0,0,1-.438.5,1.959,1.959,0,0,1-1.056.485.67.67,0,0,1-.527-.156" transform="translate(-84.441 -158.721)" fill="#512f2b"/>
        <path id="Trazado_1075470" data-name="Trazado 1075470" d="M186.941,251.006a20.844,20.844,0,0,1,11.907,6.339,28.864,28.864,0,0,1-5.165,1.719,26.676,26.676,0,0,1-20.763-3.907,17.241,17.241,0,0,1,14.022-4.151" transform="translate(-83.329 -160.077)" fill="#de9286"/>
        <path id="Trazado_1075471" data-name="Trazado 1075471" d="M197.868,236.61a12.2,12.2,0,0,1,6.61,3.728,12.534,12.534,0,0,1-7.193,4.677,28.019,28.019,0,0,1-9.936.338c-5.09-.526-10.311-1.578-14.434-4.6a8.446,8.446,0,0,1-2.075-2.047,5.731,5.731,0,0,1-.394-5.484,7.533,7.533,0,0,1,5.55-.385c2.479.855,4.246,3.005,6.359,4.545a3.98,3.98,0,0,0,1.783.826,4.736,4.736,0,0,0,1.992-.357c3.785-1.221,7.841-2.038,11.739-1.24" transform="translate(-83.147 -158.959)" fill="#fff"/>
        <path id="Trazado_1075472" data-name="Trazado 1075472" d="M206.158,244.049c.714,2.752.15,8.621-7.794,12.227a20.846,20.846,0,0,0-11.908-6.339,17.239,17.239,0,0,0-14.021,4.151,17.44,17.44,0,0,1-7.306-10.95,9.449,9.449,0,0,1,2.545-8.1,8.371,8.371,0,0,1,2.47-1.765,5.729,5.729,0,0,0,.394,5.484,8.429,8.429,0,0,0,2.075,2.047c4.123,3.024,9.344,4.076,14.434,4.6a28.019,28.019,0,0,0,9.936-.338,12.54,12.54,0,0,0,7.193-4.677,8.937,8.937,0,0,1,1.981,3.662" transform="translate(-82.846 -159.007)" fill="#231409"/>
        <path id="Trazado_1075473" data-name="Trazado 1075473" d="M89.707,214.6c-3.08-4.88-1.3-11.265,2.06-15.519,3.239-4.131,8.159-9.123,13.925-7.674a12.27,12.27,0,0,1,7.183,8.07.336.336,0,0,1-.645.188c-1.179-3.064-3.763-6.055-6.9-7.08-6.109-1.373-12.921,6.725-15.117,11.746a11.8,11.8,0,0,0,.072,9.93.337.337,0,0,1-.579.339" transform="translate(-78.164 -156.442)" fill="#af7371"/>
        <path id="Trazado_1075474" data-name="Trazado 1075474" d="M123.228,220.01c2.752-2.724,5.166-6.282,4.6-10.3a12.591,12.591,0,0,0-6.585-9c-2.363-1.351-5.683-2.033-7.379.436-1.587,2.4-.895,5.655.888,7.793a26.3,26.3,0,0,0,4.331,4.119.337.337,0,0,1-.406.535c-2.491-1.753-5.21-3.761-6.4-6.751-1.261-3.068-.26-7.474,3.261-8.471a8.621,8.621,0,0,1,6.373,1.1c5.651,2.947,9.33,10.427,5.8,16.29a18.163,18.163,0,0,1-4.035,4.733.337.337,0,0,1-.456-.493" transform="translate(-79.605 -156.868)" fill="#af7371"/>
        <path id="Trazado_1075475" data-name="Trazado 1075475" d="M101.209,200.121c2.985,2.439,5.85,5.352,7.171,9.083,1.594,4.739-2.56,9.257-7.223,6.4-2.4-1.44-3.744-3.82-4.853-6.078a.336.336,0,0,1,.587-.327c1.827,2.859,4.369,6.53,8.034,5.855,6.226-3.139-1.072-11.357-4.157-14.425a.337.337,0,0,1,.441-.506" transform="translate(-78.661 -156.984)" fill="#af7371"/>
        <path id="Trazado_1075476" data-name="Trazado 1075476" d="M108.66,211.4a5.651,5.651,0,0,0,4.806-2.109.35.35,0,0,1,.6.295,3.785,3.785,0,0,1-2.177,2.649,3.745,3.745,0,0,1-3.424-.191.351.351,0,0,1,.192-.644" transform="translate(-79.394 -157.54)" fill="#af7371"/>
        <path id="Trazado_1075477" data-name="Trazado 1075477" d="M203.145,168.542a12.166,12.166,0,0,1,9.861.9c3.078,1.738,4.3,5.474,4.783,8.734.326,2.92.517,6.039-.556,8.84-.181.518-.929.7-1.362.717a38.26,38.26,0,0,1-9.974-.976,61.537,61.537,0,0,1-12.619-4.129.174.174,0,0,1,.14-.319,63.829,63.829,0,0,0,12.607,3.808c3.378.553,7.012,1.308,10.391.7a5.562,5.562,0,0,0,.6-2.035c.5-4.175.17-8.905-2.166-12.492-2.567-3.577-7.537-4.246-11.634-3.527-.133.047-.206-.177-.067-.215" transform="translate(-84.563 -155.026)" fill="#1d2c4d"/>
        <g id="Grupo_1201464" data-name="Grupo 1201464" transform="translate(61.461 65.788)" opacity="0.4" style="mix-blend-mode: multiply;isolation: isolate">
          <g id="Grupo_1201120" data-name="Grupo 1201120" transform="translate(0 0)">
            <g id="Grupo_1201119" data-name="Grupo 1201119" clip-path="url(#clip-path-5)">
              <path id="Trazado_1074813" data-name="Trazado 1074813" d="M162.042,237.076a11.985,11.985,0,0,1-12.575,11.363,11.521,11.521,0,0,1-4.9-1.418,35.922,35.922,0,0,1-1.146-4.057c-1.127-5.062-.207-10.847,3.324-14.641.47-.5,1.841-2.573,2.808-4.048a9.931,9.931,0,0,1,1.4-.009,11.985,11.985,0,0,1,11.091,12.809" transform="translate(-142.966 -224.246)" fill="#d67188"/>
            </g>
          </g>
        </g>
        <path id="Trazado_1075478" data-name="Trazado 1075478" d="M193.116,295.756q-.976,0-2.011-.06c-5.026-.3-8.814-1.848-11.258-4.615a10.969,10.969,0,0,1-2.738-7.41,1.878,1.878,0,0,1,3.75.227c-.036.769-.031,7.429,10.468,8.047,4.985.293,8.742-.632,10.863-2.68a6.408,6.408,0,0,0,1.995-4.436A1.887,1.887,0,0,1,206,282.9a1.865,1.865,0,0,1,1.939,1.783,10.215,10.215,0,0,1-3.061,7.209c-2.607,2.568-6.558,3.865-11.761,3.865" transform="translate(-83.584 -161.97)" fill="#3979b8"/>
      </g>
    </g>
  </g>
</svg>
