<svg xmlns="http://www.w3.org/2000/svg" xmlns:xlink="http://www.w3.org/1999/xlink" width="547" height="557" viewBox="0 0 547 557">
  <defs>
    <clipPath id="clip-path">
      <rect id="Rectángulo_416186" data-name="Rectángulo 416186" width="547" height="557" transform="translate(917 3454)" fill="#fff" stroke="#707070" stroke-width="1"/>
    </clipPath>
    <clipPath id="clip-path-2">
      <rect id="Rectángulo_416183" data-name="Rectángulo 416183" width="548" height="557" transform="translate(0 -57)"/>
    </clipPath>
    <clipPath id="clip-path-3">
      <rect id="Rectángulo_416184" data-name="Rectángulo 416184" width="500" height="500"/>
    </clipPath>
    <clipPath id="clip-path-5">
      <path id="Trazado_1075150" data-name="Trazado 1075150" d="M225,337.9a79.23,79.23,0,0,0,36.872-.93,44.036,44.036,0,0,1,8.841-1.906c3.023-.169,6.27.572,8.321,2.7,2.274,2.361,2.619,5.851,2.594,9.06a41.825,41.825,0,0,1-2.81,15.587A34.331,34.331,0,0,1,256,382.036a36.129,36.129,0,0,1-30.112-5.707,32.763,32.763,0,0,1-13.254-26.462c.06-3.19.671-6.511,2.69-9.052S220.989,337.039,225,337.9Z"/>
    </clipPath>
  </defs>
  <g id="Enmascarar_grupo_1098855" data-name="Enmascarar grupo 1098855" transform="translate(-917 -3454)" clip-path="url(#clip-path)">
    <g id="OBJECTS" transform="translate(915 3511.236)">
      <g id="Grupo_1201246" data-name="Grupo 1201246">
        <g id="Grupo_1201245" data-name="Grupo 1201245" clip-path="url(#clip-path-2)">
          <path id="Trazado_1075072" data-name="Trazado 1075072" d="M-20.91,128.6s-15.6,43.954-7.96,73.341C-25.781,213.826-9.977,220.723-1.2,225.12c12.664,6.344,26.96,8.542,40.444,12.912s27.089,11.81,33.191,24.53c8.385,17.479,0,37.878-7.257,55.849s-12.8,40.28-.4,55.215c19.26,23.194,61.79,8.106,73.736,35.806C150.187,436.5,181.184,464.6,241.175,464.6c32.136,0-9.821,4.525,20.032,1.93,114.514-9.953,103.366-64.948,135.067-106.672,14.736-19.394,46.289-17.272,63.5-34.533,15.889-15.93,13.792-41.695,10.741-63.917s-4.754-48.129,11.547-63.643c9.5-9.038,23.278-12.382,33.188-20.975,16.175-14.026,18.16-37.876,18.987-59.19l4.474-115.36c.246-6.347,0-13.767-5.142-17.537-3.114-2.282-7.233-2.543-11.1-2.719Q248.266-30.485-25.94-42.961c-4.423-.2-9.235-.293-12.8,2.313-4.741,3.461-5.365,10.139-5.537,15.982C-46.222,41.242-20.91,128.6-20.91,128.6Z" transform="translate(44.929 -38)" fill="#ebe9f0" opacity="0.52"/>
        </g>
      </g>
      <g id="Grupo_1201272" data-name="Grupo 1201272">
        <g id="Grupo_1201271" data-name="Grupo 1201271" opacity="0.8" clip-path="url(#clip-path-3)">
          <g id="Grupo_1201248" data-name="Grupo 1201248">
            <path id="Trazado_1075073" data-name="Trazado 1075073" d="M84.307,451.03c-5.131-1.676-10.485-3.49-14.3-7.5s-5.448-10.953-2.1-15.288c-4.5-1.925-9.053-4.582-11.441-9.043s-1.578-11.077,2.748-13.253c-3.959-3-8.3-6.683-8.663-11.776-.449-6.249,5.812-11.064,11.75-11.1s11.43,3.257,16.589,6.451c2.834-5.553,10.761-6.1,15.865-2.634s7.938,9.6,10.128,15.553c5.085-4.964,14.012-2.753,18.62,2.868s5.841,13.421,6.15,20.785c1.859-3.229,6.5-3.58,9.613-1.59s4.93,5.616,6.169,9.211c6.077,17.635,1.556,37.027-4.707,55.589A124.109,124.109,0,0,1,92.984,474c-4.354-2.448-8.773-5.368-11.179-9.91S79.83,452.989,84.307,451.03Z" fill="#74a847"/>
            <g id="Grupo_1201247" data-name="Grupo 1201247">
              <path id="Trazado_1075074" data-name="Trazado 1075074" d="M142.385,493.2c-12.74-37.1-39.436-70.385-73.785-92" fill="none" stroke="#d1cd5c" stroke-linecap="round" stroke-linejoin="round" stroke-miterlimit="10" stroke-width="2"/>
              <path id="Trazado_1075075" data-name="Trazado 1075075" d="M74.386,418.082a67.476,67.476,0,0,1,19.841,2.624,58.069,58.069,0,0,0-6.107-21.775" fill="none" stroke="#d1cd5c" stroke-linecap="round" stroke-linejoin="round" stroke-miterlimit="10" stroke-width="2"/>
              <path id="Trazado_1075076" data-name="Trazado 1075076" d="M90.765,442.527a114.462,114.462,0,0,1,28.7,6.994,70.631,70.631,0,0,0-1.857-29.09" fill="none" stroke="#d1cd5c" stroke-linecap="round" stroke-linejoin="round" stroke-miterlimit="10" stroke-width="2"/>
              <path id="Trazado_1075077" data-name="Trazado 1075077" d="M104.6,464.915a108.549,108.549,0,0,1,29.454,8.776,60.069,60.069,0,0,0,2.38-31.1" fill="none" stroke="#d1cd5c" stroke-linecap="round" stroke-linejoin="round" stroke-miterlimit="10" stroke-width="2"/>
            </g>
          </g>
          <g id="Grupo_1201258" data-name="Grupo 1201258">
            <g id="Grupo_1201249" data-name="Grupo 1201249">
              <path id="Trazado_1075078" data-name="Trazado 1075078" d="M42.1,480.585a42.726,42.726,0,0,1-16.825-16.358,15.805,15.805,0,0,1-2.313-6.615,7.186,7.186,0,0,1,2.591-6.244c2.473-1.86,6.241-1.589,8.968-.006a16.36,16.36,0,0,1,5.973,6.933C43.947,464.981,45.191,472.641,42.1,480.585Z" fill="#d1cd5c"/>
              <path id="Trazado_1075079" data-name="Trazado 1075079" d="M41.784,480.279a164.792,164.792,0,0,0-10.269-20.594" fill="none" stroke="#74a847" stroke-linecap="round" stroke-linejoin="round" stroke-miterlimit="10" stroke-width="2"/>
            </g>
            <g id="Grupo_1201250" data-name="Grupo 1201250">
              <path id="Trazado_1075080" data-name="Trazado 1075080" d="M61.057,485.954A47.41,47.41,0,0,1,48.6,459.987a13.393,13.393,0,0,1,.549-7.148,6.3,6.3,0,0,1,5.857-3.914c3.246.2,5.392,3.265,6.666,6.094A35.086,35.086,0,0,1,61.057,485.954Z" fill="#d1cd5c"/>
              <path id="Trazado_1075081" data-name="Trazado 1075081" d="M61.18,485.53A146.143,146.143,0,0,0,56.246,461.3" fill="none" stroke="#74a847" stroke-linecap="round" stroke-linejoin="round" stroke-miterlimit="10" stroke-width="2"/>
            </g>
            <g id="Grupo_1201251" data-name="Grupo 1201251">
              <path id="Trazado_1075082" data-name="Trazado 1075082" d="M77.534,493.963a25.692,25.692,0,0,1-6.164-13.041,62.42,62.42,0,0,1-.517-14.359,17.149,17.149,0,0,1,1.353-6.928,6.18,6.18,0,0,1,11.132-.746,13.8,13.8,0,0,1,1.913,5.868C86.5,473.747,84.572,483.061,77.534,493.963Z" fill="#d1cd5c"/>
              <path id="Trazado_1075083" data-name="Trazado 1075083" d="M77.346,493.2l-.24-24.952" fill="none" stroke="#74a847" stroke-linecap="round" stroke-linejoin="round" stroke-miterlimit="10" stroke-width="2"/>
            </g>
            <g id="Grupo_1201252" data-name="Grupo 1201252">
              <path id="Trazado_1075084" data-name="Trazado 1075084" d="M46.336,481.564A51.41,51.41,0,0,0,17.318,483.9a13.926,13.926,0,0,0-5.276,3.173,5.27,5.27,0,0,0-1.288,5.533c.942,2.16,3.569,3.219,6.014,3.583,5.565.829,11.257-.819,16.053-3.524S41.658,486.252,46.336,481.564Z" fill="#d1cd5c"/>
              <path id="Trazado_1075085" data-name="Trazado 1075085" d="M20.5,489.975l24.786-7.839" fill="none" stroke="#74a847" stroke-linecap="round" stroke-linejoin="round" stroke-miterlimit="10" stroke-width="2"/>
            </g>
            <g id="Grupo_1201253" data-name="Grupo 1201253">
              <path id="Trazado_1075086" data-name="Trazado 1075086" d="M70.042,489.071c-5.543-.8-11.154-1.541-16.727-1.1s-11.173,2.163-15.248,5.726c-2.452,2.144-4.353,5.434-3.165,8.415,1.009,2.533,4.027,4,6.89,4.05a17.762,17.762,0,0,0,8.109-2.288C56.449,500.62,62.275,496.109,70.042,489.071Z" fill="#d1cd5c"/>
              <path id="Trazado_1075087" data-name="Trazado 1075087" d="M43.666,499.018l24.523-8.872" fill="none" stroke="#74a847" stroke-linecap="round" stroke-linejoin="round" stroke-miterlimit="10" stroke-width="2"/>
            </g>
            <g id="Grupo_1201254" data-name="Grupo 1201254">
              <path id="Trazado_1075088" data-name="Trazado 1075088" d="M85.568,497.254a39.627,39.627,0,0,0-27.057,6.818,14.3,14.3,0,0,0-4.263,4.269,6.166,6.166,0,0,0-.459,5.707c1.036,2.133,3.579,3.372,6.057,3.516a15.841,15.841,0,0,0,7.14-1.613C74.545,512.657,80.869,506.96,85.568,497.254Z" fill="#d1cd5c"/>
              <path id="Trazado_1075089" data-name="Trazado 1075089" d="M63.342,510.206a123.953,123.953,0,0,0,22.028-12.15" fill="none" stroke="#74a847" stroke-linecap="round" stroke-linejoin="round" stroke-miterlimit="10" stroke-width="2"/>
            </g>
            <g id="Grupo_1201255" data-name="Grupo 1201255">
              <path id="Trazado_1075090" data-name="Trazado 1075090" d="M91.712,499.273a52.054,52.054,0,0,1-2.125-24.559c.475-3.046,1.378-6.291,3.937-8.188a7.284,7.284,0,0,1,7.5-.631,7.723,7.723,0,0,1,3.7,5.068,15.3,15.3,0,0,1-.061,6.256A36.737,36.737,0,0,1,91.712,499.273Z" fill="#d1cd5c"/>
              <path id="Trazado_1075091" data-name="Trazado 1075091" d="M92.062,500.989q2.513-13.225,5.026-26.45" fill="none" stroke="#74a847" stroke-linecap="round" stroke-linejoin="round" stroke-miterlimit="10" stroke-width="2"/>
            </g>
            <g id="Grupo_1201256" data-name="Grupo 1201256">
              <path id="Trazado_1075092" data-name="Trazado 1075092" d="M101.825,507.057a30.846,30.846,0,0,0-23.58,5.784,12.747,12.747,0,0,0-3.86,4.374,5.9,5.9,0,0,0,.064,5.56c1.393,2.283,4.585,3.163,7.314,2.685a17.082,17.082,0,0,0,7.223-3.683A45.47,45.47,0,0,0,101.825,507.057Z" fill="#d1cd5c"/>
              <path id="Trazado_1075093" data-name="Trazado 1075093" d="M101.552,507.492a101.646,101.646,0,0,0-19.765,11.149" fill="none" stroke="#74a847" stroke-linecap="round" stroke-linejoin="round" stroke-miterlimit="10" stroke-width="2"/>
            </g>
            <g id="Grupo_1201257" data-name="Grupo 1201257">
              <path id="Trazado_1075094" data-name="Trazado 1075094" d="M32.5,477.969c-9.646-9.682-24.6-14.406-38.368-12.124a15.4,15.4,0,0,0-6.669,2.4c-1.89,1.391-3.166,3.708-2.658,5.935.68,2.984,4.073,4.656,7.185,5.523C3.231,482.84,15.208,480.93,32.5,477.969Z" fill="#d1cd5c"/>
              <path id="Trazado_1075095" data-name="Trazado 1075095" d="M116.011,519.2C86.7,493.028,45.852,476.6,3.1,473.794" fill="none" stroke="#74a847" stroke-linecap="round" stroke-linejoin="round" stroke-miterlimit="10" stroke-width="2"/>
            </g>
          </g>
          <g id="Grupo_1201260" data-name="Grupo 1201260">
            <path id="Trazado_1075096" data-name="Trazado 1075096" d="M450.658,518c5.8.962,11.885,1.9,17.456.019s10.321-7.6,9-13.333c5.29.413,10.974.169,15.342-2.843s6.573-9.632,3.31-13.817c5.253-.866,11.183-2.179,13.853-6.786,3.275-5.652-.693-13.274-6.511-16.245s-12.708-2.59-19.225-2.139c-.266-6.622-7.807-11.056-14.394-10.321s-12.152,5.1-17,9.612c-2.746-7.181-12.52-9.517-19.6-6.512s-11.825,9.728-15.469,16.5c-.363-3.954-4.768-6.581-8.725-6.248s-7.39,2.841-10.238,5.609c-13.968,13.573-18.32,34.037-20.583,54.583a139.814,139.814,0,0,0,53.848,9.228c5.388-.148,11.055-.708,15.478-3.788S454.169,522.055,450.658,518Z" fill="#d1cd5c"/>
            <g id="Grupo_1201259" data-name="Grupo 1201259">
              <path id="Trazado_1075097" data-name="Trazado 1075097" d="M374.468,528.924c29.342-28.573,70.666-46.663,114.221-50" fill="none" stroke="#74a847" stroke-linecap="round" stroke-linejoin="round" stroke-miterlimit="10" stroke-width="2"/>
              <path id="Trazado_1075098" data-name="Trazado 1075098" d="M475.348,491.934a77.522,77.522,0,0,0-20.685-7.345,57.444,57.444,0,0,1,15.876-17.449" fill="none" stroke="#74a847" stroke-linecap="round" stroke-linejoin="round" stroke-miterlimit="10" stroke-width="2"/>
              <path id="Trazado_1075099" data-name="Trazado 1075099" d="M448.169,506.813a130.142,130.142,0,0,0-31.376-7.62,69.85,69.85,0,0,1,15.016-26.427" fill="none" stroke="#74a847" stroke-linecap="round" stroke-linejoin="round" stroke-miterlimit="10" stroke-width="2"/>
              <path id="Trazado_1075100" data-name="Trazado 1075100" d="M424.424,521.019A122.6,122.6,0,0,0,391.5,514.7a59.907,59.907,0,0,1,11.765-30.415" fill="none" stroke="#74a847" stroke-linecap="round" stroke-linejoin="round" stroke-miterlimit="10" stroke-width="2"/>
            </g>
          </g>
          <g id="Grupo_1201270" data-name="Grupo 1201270">
            <g id="Grupo_1201261" data-name="Grupo 1201261">
              <path id="Trazado_1075101" data-name="Trazado 1075101" d="M403.448,413.624a44.105,44.105,0,0,0,4.064-24.183,17.642,17.642,0,0,0-2.148-7.208,8.13,8.13,0,0,0-6.058-4.07c-3.241-.239-6.254,2.16-7.575,5.13s-1.243,6.374-.745,9.586C392.214,400.8,395.912,408.329,403.448,413.624Z" fill="#74a847"/>
              <path id="Trazado_1075102" data-name="Trazado 1075102" d="M403.524,413.172a180.624,180.624,0,0,1-4.1-24.2" fill="none" stroke="#d1cd5c" stroke-linecap="round" stroke-linejoin="round" stroke-miterlimit="10" stroke-width="2"/>
            </g>
            <g id="Grupo_1201262" data-name="Grupo 1201262">
              <path id="Trazado_1075103" data-name="Trazado 1075103" d="M390.771,429.255a52.062,52.062,0,0,0-5.583-30.226,15.41,15.41,0,0,0-4.895-6.043c-2.2-1.422-5.3-1.739-7.371-.128-2.616,2.038-2.528,5.991-1.851,9.237A40.2,40.2,0,0,0,390.771,429.255Z" fill="#74a847"/>
              <path id="Trazado_1075104" data-name="Trazado 1075104" d="M390.4,428.948a166.224,166.224,0,0,1-10.854-24.373" fill="none" stroke="#d1cd5c" stroke-linecap="round" stroke-linejoin="round" stroke-miterlimit="10" stroke-width="2"/>
            </g>
            <g id="Grupo_1201263" data-name="Grupo 1201263">
              <path id="Trazado_1075105" data-name="Trazado 1075105" d="M381.825,445.813a28.24,28.24,0,0,0-2.88-15.128,71.725,71.725,0,0,0-8.465-13.067,19.738,19.738,0,0,0-5.437-5.387c-2.225-1.283-5.187-1.62-7.3-.158a6.747,6.747,0,0,0-2.561,5.868,15.485,15.485,0,0,0,2.022,6.315C361.725,432.964,369.124,440.147,381.825,445.813Z" fill="#74a847"/>
              <path id="Trazado_1075106" data-name="Trazado 1075106" d="M381.512,445.029,366.246,422.7" fill="none" stroke="#d1cd5c" stroke-linecap="round" stroke-linejoin="round" stroke-miterlimit="10" stroke-width="2"/>
            </g>
            <g id="Grupo_1201264" data-name="Grupo 1201264">
              <path id="Trazado_1075107" data-name="Trazado 1075107" d="M400.478,416.922a49.693,49.693,0,0,1,25.949-14.536,14.312,14.312,0,0,1,6.422-.2,6.015,6.015,0,0,1,4.518,4.184c.543,2.461-1.018,4.906-2.856,6.63-4.184,3.924-10.011,5.717-15.738,6.057S407.333,418.412,400.478,416.922Z" fill="#74a847"/>
              <path id="Trazado_1075108" data-name="Trazado 1075108" d="M427.5,409.611l-25.785,7.22" fill="none" stroke="#d1cd5c" stroke-linecap="round" stroke-linejoin="round" stroke-miterlimit="10" stroke-width="2"/>
            </g>
            <g id="Grupo_1201265" data-name="Grupo 1201265">
              <path id="Trazado_1075109" data-name="Trazado 1075109" d="M385.117,437.172c4.182-3.889,8.462-7.757,13.44-10.556s10.774-4.474,16.423-3.638c3.4.5,7.043,2.341,7.889,5.672.718,2.831-.923,5.86-3.306,7.548s-5.362,2.281-8.265,2.609C403.753,439.66,396.037,438.984,385.117,437.172Z" fill="#74a847"/>
              <path id="Trazado_1075110" data-name="Trazado 1075110" d="M413.552,430.915l-26.2,6.151" fill="none" stroke="#d1cd5c" stroke-linecap="round" stroke-linejoin="round" stroke-miterlimit="10" stroke-width="2"/>
            </g>
            <g id="Grupo_1201266" data-name="Grupo 1201266">
              <path id="Trazado_1075111" data-name="Trazado 1075111" d="M377.082,453.339a38.976,38.976,0,0,1,27.07-9.429,15.4,15.4,0,0,1,6.246,1.356,6.416,6.416,0,0,1,.991,11.408,15.5,15.5,0,0,1-7.028,2.653C395.937,460.727,387.066,459.282,377.082,453.339Z" fill="#74a847"/>
              <path id="Trazado_1075112" data-name="Trazado 1075112" d="M403.875,452.133a126.518,126.518,0,0,1-26.13,1.807" fill="none" stroke="#d1cd5c" stroke-linecap="round" stroke-linejoin="round" stroke-miterlimit="10" stroke-width="2"/>
            </g>
            <g id="Grupo_1201267" data-name="Grupo 1201267">
              <path id="Trazado_1075113" data-name="Trazado 1075113" d="M373.147,458.654A59.631,59.631,0,0,0,359.716,435.6c-2.289-2.438-5.063-4.806-8.4-5.029a7.087,7.087,0,0,0-6.727,3.736,8.22,8.22,0,0,0,.017,6.627,17.615,17.615,0,0,0,3.93,5.529A41.019,41.019,0,0,0,373.147,458.654Z" fill="#74a847"/>
              <path id="Trazado_1075114" data-name="Trazado 1075114" d="M373.915,460.38l-20.64-20.646" fill="none" stroke="#d1cd5c" stroke-linecap="round" stroke-linejoin="round" stroke-miterlimit="10" stroke-width="2"/>
            </g>
            <g id="Grupo_1201268" data-name="Grupo 1201268">
              <path id="Trazado_1075115" data-name="Trazado 1075115" d="M369.434,471.367a30.338,30.338,0,0,1,23.493-8.357,13.852,13.852,0,0,1,5.971,1.68,6.744,6.744,0,0,1,3.393,4.981c.239,2.828-1.91,5.439-4.511,6.576s-5.553,1.093-8.381.86A49.383,49.383,0,0,1,369.434,471.367Z" fill="#74a847"/>
              <path id="Trazado_1075116" data-name="Trazado 1075116" d="M369.934,471.6a103.931,103.931,0,0,1,23.6-1.4" fill="none" stroke="#d1cd5c" stroke-linecap="round" stroke-linejoin="round" stroke-miterlimit="10" stroke-width="2"/>
            </g>
            <g id="Grupo_1201269" data-name="Grupo 1201269">
              <path id="Trazado_1075117" data-name="Trazado 1075117" d="M409.929,405.8A43.767,43.767,0,0,1,434.8,373.049a15.323,15.323,0,0,1,7.12-1.682,6.806,6.806,0,0,1,5.923,3.757c1.275,3.043-.552,6.473-2.642,9.026C437.661,393.374,426.364,398.534,409.929,405.8Z" fill="#74a847"/>
              <path id="Trazado_1075118" data-name="Trazado 1075118" d="M364.986,490.292c8.517-40.06,32.823-78.063,67.18-105.039" fill="none" stroke="#d1cd5c" stroke-linecap="round" stroke-linejoin="round" stroke-miterlimit="10" stroke-width="2"/>
            </g>
          </g>
        </g>
      </g>
      <g id="Grupo_1201304" data-name="Grupo 1201304">
        <g id="Grupo_1201303" data-name="Grupo 1201303" clip-path="url(#clip-path-3)">
          <g id="Grupo_1201292" data-name="Grupo 1201292">
            <g id="Grupo_1201274" data-name="Grupo 1201274">
              <path id="Trazado_1075119" data-name="Trazado 1075119" d="M130.121,493.678s11.487-88.2,115.751-88.2c116.5,0,127.611,82.727,127.611,82.727Z" fill="#49c9a1"/>
              <g id="Grupo_1201273" data-name="Grupo 1201273">
                <path id="Trazado_1075120" data-name="Trazado 1075120" d="M278.085,407.819s-3.88,27.21-28.2,27.21c-23.5,0-31.02-27.36-31.02-27.36.27-.11.52-.22.77-.35,9.63-4.74,6.9-20.76,6.9-20.76l43.86,4.9a30.089,30.089,0,0,0,.52,8.12C272.715,407.659,278.085,407.819,278.085,407.819Z" fill="#ffa382"/>
                <path id="Trazado_1075121" data-name="Trazado 1075121" d="M270.915,399.579c-12.9,5.78-36.01,14.09-51.28,7.74,9.63-4.74,6.9-20.76,6.9-20.76l43.86,4.9A30.088,30.088,0,0,0,270.915,399.579Z" fill="#eb7563"/>
              </g>
            </g>
            <g id="Grupo_1201291" data-name="Grupo 1201291">
              <g id="Grupo_1201275" data-name="Grupo 1201275">
                <path id="Trazado_1075122" data-name="Trazado 1075122" d="M196.9,381.768c-8.974,1.672-18.351,2.158-27.143-.3s-16.959-8.161-20.892-16.4S146,346.042,152.566,339.7s18.56-6.519,26.015,1.306C185.14,354.74,191.7,368.47,196.9,381.768Z" fill="#ffa382"/>
                <path id="Trazado_1075123" data-name="Trazado 1075123" d="M178.9,347.3c-3.258-5.237-11.537-6.143-16.5-2.39s-6.387,10.951-4.14,16.672,7.6,9.929,13.534,11.933,12.394,2.019,18.616,1.214C187.006,366.358,185.08,357.243,178.9,347.3Z" fill="#eb7563"/>
                <path id="Trazado_1075124" data-name="Trazado 1075124" d="M157.324,358.91A13.634,13.634,0,0,1,178.1,344.543" fill="none" stroke="#c43945" stroke-linecap="round" stroke-linejoin="round" stroke-miterlimit="10" stroke-width="2"/>
              </g>
              <g id="Grupo_1201276" data-name="Grupo 1201276">
                <path id="Trazado_1075125" data-name="Trazado 1075125" d="M301.778,381.768c8.974,1.672,18.351,2.158,27.143-.3s16.959-8.161,20.892-16.4,2.864-19.03-3.707-25.367-18.56-6.519-26.015,1.306C313.533,354.74,306.974,368.47,301.778,381.768Z" fill="#ffa382"/>
                <path id="Trazado_1075126" data-name="Trazado 1075126" d="M319.777,347.3c3.258-5.237,11.537-6.143,16.5-2.39s6.387,10.951,4.14,16.672-7.6,9.929-13.534,11.933-12.394,2.019-18.616,1.214C311.667,366.358,313.594,357.243,319.777,347.3Z" fill="#eb7563"/>
                <path id="Trazado_1075127" data-name="Trazado 1075127" d="M341.349,358.91a13.634,13.634,0,0,0-20.775-14.367" fill="none" stroke="#c43945" stroke-linecap="round" stroke-linejoin="round" stroke-miterlimit="10" stroke-width="2"/>
              </g>
              <path id="Trazado_1075128" data-name="Trazado 1075128" d="M176.213,346.691c-7.066-7.848-13.4-17.025-15.181-27.815-9.55-1.193-16.8-7.14-19.62-15.143a25.016,25.016,0,0,1,4.348-23.92c-7.364-5.46-12.669-15.492-12.917-25.61a37.29,37.29,0,0,1,11.114-26.867,43.029,43.029,0,0,1,25.343-11.75c-5.065-5.032-4.228-14.147.057-19.63s10.982-7.995,17.5-9.324a70.48,70.48,0,0,1,47.376,7.145,16.924,16.924,0,0,1,6.019-15.1c4.391-3.322,10.268-3.752,15.415-2.143s9.652,5.048,13.621,8.944c6.132,6.021,11.229,13.273,15.878,20.5,7.292-3.643,15.086-6.481,23.115-6.653s16.354,2.586,21.968,8.8a24.762,24.762,0,0,1,4.459,25.107,40.188,40.188,0,0,1,16.2,16.653c7.941,15.8,1.719,40.458-11.367,48.188-3.826,20.687-8.912,32.573-23.722,56.6C271.192,360.645,224.481,360.664,176.213,346.691Z" fill="#4f2b36"/>
              <path id="Trazado_1075129" data-name="Trazado 1075129" d="M328.255,310.849a219.1,219.1,0,0,1-2.61,24.93c-2.39,13.43-7.28,29.11-17.97,41.84-11.75,14.01-30.5,24.45-60.65,24.45-28.6,0-46.94-10.55-58.7-24.4-10.92-12.85-16.17-28.54-18.68-41.26a111.822,111.822,0,0,1-2.26-23.58c5.27-34.78,31.033-64.13,31.762-64.86-.48.91-11.44,21.52-1.9,21.52,8.39,0,29.193-11.448,37.35-19.04-8.467,12.735-4.08,18.5,8.78,16.8,15.465-2.044,42.72-18.96,42.72-18.96s.634,26.787,11.71,27.97c6.151.657,10.91-6.35,10.91-6.35C318.527,282.749,328.255,310.849,328.255,310.849Z" fill="#ffa382"/>
              <g id="Grupo_1201290" data-name="Grupo 1201290">
                <g id="Grupo_1201278" data-name="Grupo 1201278">
                  <path id="Trazado_1075130" data-name="Trazado 1075130" d="M325.645,335.779c-2.39,13.43-7.28,29.11-17.97,41.84a26.966,26.966,0,0,1-15.19-17.44c-2.45-9.6,1.72-20.72,10.27-25.73A21.38,21.38,0,0,1,325.645,335.779Z" fill="#eb6563"/>
                  <g id="Grupo_1201277" data-name="Grupo 1201277">
                    <path id="Trazado_1075131" data-name="Trazado 1075131" d="M301.262,346.687q-1.52,3.567-3.038,7.134" fill="none" stroke="#c43945" stroke-linecap="round" stroke-linejoin="round" stroke-miterlimit="10" stroke-width="2"/>
                    <path id="Trazado_1075132" data-name="Trazado 1075132" d="M311.481,343.266q-2.385,8.254-4.771,16.509" fill="none" stroke="#c43945" stroke-linecap="round" stroke-linejoin="round" stroke-miterlimit="10" stroke-width="2"/>
                    <path id="Trazado_1075133" data-name="Trazado 1075133" d="M317.908,348.14q-1.256,2.84-2.51,5.681" fill="none" stroke="#c43945" stroke-linecap="round" stroke-linejoin="round" stroke-miterlimit="10" stroke-width="2"/>
                  </g>
                </g>
                <g id="Grupo_1201280" data-name="Grupo 1201280">
                  <path id="Trazado_1075134" data-name="Trazado 1075134" d="M203.6,360.179c-1.98,7.78-7.94,14.23-15.28,17.49-10.92-12.85-16.17-28.54-18.68-41.26a21.326,21.326,0,0,1,23.69-1.96C201.885,339.459,206.055,350.579,203.6,360.179Z" fill="#eb6563"/>
                  <g id="Grupo_1201279" data-name="Grupo 1201279">
                    <path id="Trazado_1075135" data-name="Trazado 1075135" d="M179.815,350.316l-1.287,7.72" fill="none" stroke="#c43945" stroke-linecap="round" stroke-linejoin="round" stroke-miterlimit="10" stroke-width="2"/>
                    <path id="Trazado_1075136" data-name="Trazado 1075136" d="M187.188,343.882,185.9,363.5" fill="none" stroke="#c43945" stroke-linecap="round" stroke-linejoin="round" stroke-miterlimit="10" stroke-width="2"/>
                    <path id="Trazado_1075137" data-name="Trazado 1075137" d="M196.219,350.96q-.885,3.3-1.769,6.594" fill="none" stroke="#c43945" stroke-linecap="round" stroke-linejoin="round" stroke-miterlimit="10" stroke-width="2"/>
                  </g>
                </g>
                <g id="Grupo_1201283" data-name="Grupo 1201283">
                  <path id="Trazado_1075138" data-name="Trazado 1075138" d="M185.215,305.883c1.357-10.545,9.066-19.25,20.25-19.25s19.026,4.6,16.987,24.188c-.667,6.4-4.553,10.828-12.826,11.122C198.449,322.34,183.485,319.322,185.215,305.883Z" fill="#fff"/>
                  <g id="Grupo_1201281" data-name="Grupo 1201281">
                    <path id="Trazado_1075139" data-name="Trazado 1075139" d="M220.773,291.287a20.272,20.272,0,0,0-13.291-2.681c-8.995.894-16.694,6.117-19.9,14.693a27.062,27.062,0,0,0-1.6,13.692,19.83,19.83,0,0,1-2.17-14.822,22.309,22.309,0,0,1,8.546-13.163c8.279-5.844,22.135-6.533,28.41,2.281Z" fill="#4f2b36"/>
                  </g>
                  <g id="Grupo_1201282" data-name="Grupo 1201282">
                    <ellipse id="Elipse_13505" data-name="Elipse 13505" cx="12" cy="14.145" rx="12" ry="14.145" transform="translate(199.267 290.847)" fill="#4f2b36"/>
                    <path id="Trazado_1075140" data-name="Trazado 1075140" d="M203.792,296.989c2.184-3.239,6.181-4.362,8.928-2.51s3.205,5.98,1.021,9.218-6.181,4.362-8.928,2.51S201.608,300.227,203.792,296.989Z" fill="#fff"/>
                  </g>
                </g>
                <g id="Grupo_1201286" data-name="Grupo 1201286">
                  <path id="Trazado_1075141" data-name="Trazado 1075141" d="M310.092,305.883c-1.357-10.545-9.066-19.25-20.25-19.25s-19.027,4.6-16.987,24.188c.667,6.4,2.912,10.862,11.185,11.155C295.217,322.373,311.822,319.322,310.092,305.883Z" fill="#fff"/>
                  <g id="Grupo_1201284" data-name="Grupo 1201284">
                    <path id="Trazado_1075142" data-name="Trazado 1075142" d="M274.534,291.287c6.277-8.815,20.129-8.125,28.409-2.282a22.309,22.309,0,0,1,8.546,13.163,19.829,19.829,0,0,1-2.17,14.822,27.051,27.051,0,0,0-1.6-13.692c-3.2-8.576-10.9-13.8-19.9-14.693a20.277,20.277,0,0,0-13.29,2.682Z" fill="#4f2b36"/>
                  </g>
                  <g id="Grupo_1201285" data-name="Grupo 1201285">
                    <ellipse id="Elipse_13506" data-name="Elipse 13506" cx="12" cy="14.145" rx="12" ry="14.145" transform="translate(272.04 290.847)" fill="#4f2b36"/>
                    <path id="Trazado_1075143" data-name="Trazado 1075143" d="M276.565,296.989c2.184-3.239,6.181-4.362,8.928-2.51s3.2,5.98,1.021,9.218-6.181,4.362-8.928,2.51S274.382,300.227,276.565,296.989Z" fill="#fff"/>
                  </g>
                </g>
                <path id="Trazado_1075144" data-name="Trazado 1075144" d="M273.468,271.188a21.837,21.837,0,0,1,22.186-7.82c8.041,2.027,14.747,9.144,16.573,17.589C298.256,269.181,283.972,269.058,273.468,271.188Z" fill="#4f2b36"/>
                <path id="Trazado_1075145" data-name="Trazado 1075145" d="M220.407,271.4a21.835,21.835,0,0,0-22.1-8.067c-8.063,1.937-14.848,8.979-16.768,17.4C191.018,270.525,208.492,267.306,220.407,271.4Z" fill="#4f2b36"/>
                <path id="Trazado_1075146" data-name="Trazado 1075146" d="M243.131,315.519s-.694,7.534.495,9.5" fill="none" stroke="#c43945" stroke-linecap="round" stroke-linejoin="round" stroke-miterlimit="10" stroke-width="2"/>
                <g id="Grupo_1201289" data-name="Grupo 1201289">
                  <path id="Trazado_1075147" data-name="Trazado 1075147" d="M225,337.9a79.23,79.23,0,0,0,36.872-.93,44.036,44.036,0,0,1,8.841-1.906c3.023-.169,6.27.572,8.321,2.7,2.274,2.361,2.619,5.851,2.594,9.06a41.825,41.825,0,0,1-2.81,15.587A34.331,34.331,0,0,1,256,382.036a36.129,36.129,0,0,1-30.112-5.707,32.763,32.763,0,0,1-13.254-26.462c.06-3.19.671-6.511,2.69-9.052S220.989,337.039,225,337.9Z" fill="#c43945"/>
                  <g id="Grupo_1201288" data-name="Grupo 1201288">
                    <g id="Grupo_1201287" data-name="Grupo 1201287" clip-path="url(#clip-path-5)">
                      <path id="Trazado_1075148" data-name="Trazado 1075148" d="M212.495,341.271a35.018,35.018,0,0,0,5.618,12.939c1.353,1.923,3.426,3.9,5.715,3.361a4.443,4.443,0,0,0,3.033-3.986c.183-1.772-.367-3.529,0-4.986,14.193-5.434,30.138-6.174,44.532-1.16a12.4,12.4,0,0,0-1.99,4.224,4.214,4.214,0,0,0,1.4,4.22,4.081,4.081,0,0,0,3.944.181,9.838,9.838,0,0,0,3.185-2.579,38.889,38.889,0,0,0,7.081-11.535c-.83-4.549-4.7-8.068-9.007-9.761s-9.03-1.876-13.653-2.021C245.353,329.636,227.229,329.631,212.495,341.271Z" fill="#fff"/>
                      <path id="Trazado_1075149" data-name="Trazado 1075149" d="M221.15,376.952a36.538,36.538,0,0,1,59.124-1.514,48.658,48.658,0,0,1-30.075,11.72C239.234,387.49,228.189,383.938,221.15,376.952Z" fill="#eb6563"/>
                    </g>
                  </g>
                </g>
              </g>
            </g>
          </g>
          <g id="Grupo_1201302" data-name="Grupo 1201302">
            <g id="Grupo_1201297" data-name="Grupo 1201297">
              <g id="Grupo_1201293" data-name="Grupo 1201293">
                <path id="Trazado_1075151" data-name="Trazado 1075151" d="M245.05,488.35l140.195-45.6-10.092-20.309S289.169,405.678,244.809,454c-44.36-48.325-130.344-31.566-130.344-31.566l-10.092,20.309,140.195,45.6v.156l.241-.078.24.078v-.156Z" fill="#fff"/>
              </g>
              <g id="Grupo_1201296" data-name="Grupo 1201296">
                <g id="Grupo_1201294" data-name="Grupo 1201294">
                  <path id="Trazado_1075152" data-name="Trazado 1075152" d="M244.989,470.606v47.386L232.5,517.4l-109.214-5.122-9.233-26.254L97.988,440.341l-.6-1.711,1.867-2.078c47.03-9.588,101.448-11.6,132.9,25.109,0,0-2.033,3.344-1.422,6.366S244.989,470.606,244.989,470.606Z" fill="#ff9e3d"/>
                  <path id="Trazado_1075153" data-name="Trazado 1075153" d="M232.5,517.4l-109.214-5.122-9.233-26.254c19.861-16.063,60-32.9,115.47-24.154l-2.276,5.878Z" fill="#de662a" opacity="0.302"/>
                  <path id="Trazado_1075154" data-name="Trazado 1075154" d="M244.989,470.606v2.333c-5.657.593-15.21-.7-16.932-2.722-2.189-2.567.733-8.544.733-8.544-32.6-32.6-80.1-31.576-131.4-23.043l1.867-2.078c47.03-9.588,101.448-11.6,132.9,25.109,0,0-2.033,3.344-1.422,6.366S244.989,470.606,244.989,470.606Z" fill="#ffca75"/>
                </g>
                <g id="Grupo_1201295" data-name="Grupo 1201295">
                  <path id="Trazado_1075155" data-name="Trazado 1075155" d="M244.63,470.606v47.386l12.488-.589,109.215-5.122,9.233-26.254,16.065-45.686.6-1.711-1.867-2.078c-47.03-9.588-101.448-11.6-132.9,25.109,0,0,2.033,3.344,1.422,6.366S244.63,470.606,244.63,470.606Z" fill="#ff9e3d"/>
                  <path id="Trazado_1075156" data-name="Trazado 1075156" d="M257.118,517.4l109.215-5.122,9.233-26.254c-19.861-16.063-60-32.9-115.47-24.154l2.276,5.878Z" fill="#de662a" opacity="0.302"/>
                  <path id="Trazado_1075157" data-name="Trazado 1075157" d="M244.63,470.606v2.333c5.657.593,15.21-.7,16.932-2.722,2.189-2.567-.733-8.544-.733-8.544,32.6-32.6,80.1-31.576,131.4-23.043l-1.867-2.078c-47.03-9.588-101.448-11.6-132.9,25.109,0,0,2.033,3.344,1.422,6.366S244.63,470.606,244.63,470.606Z" fill="#ffca75"/>
                </g>
              </g>
            </g>
            <g id="Grupo_1201299" data-name="Grupo 1201299">
              <path id="Trazado_1075158" data-name="Trazado 1075158" d="M111.393,519.419c-7.9-7.9-21.717-26.176-21.387-33.65s8.237-17.9,15.882-22.962,27.8-11.342,29.259-4.714-13.321,13.8-15.047,15.988,20.334-13.167,25.795-6.046-11.017,18.675-11.017,18.675,16.659-12.2,19.615-2.418-6.986,13.838-6.986,13.838,8.334-4.065,9.4,2.553S136.587,527.15,126.28,527.15C118.536,527.089,113.656,521.682,111.393,519.419Z" fill="#ffa382"/>
              <g id="Grupo_1201298" data-name="Grupo 1201298">
                <path id="Trazado_1075159" data-name="Trazado 1075159" d="M106,483.162a43.586,43.586,0,0,1,15.007-8.547" fill="none" stroke="#c43945" stroke-linecap="round" stroke-linejoin="round" stroke-miterlimit="10" stroke-width="2"/>
                <path id="Trazado_1075160" data-name="Trazado 1075160" d="M116.6,499.586,134.7,488" fill="none" stroke="#c43945" stroke-linecap="round" stroke-linejoin="round" stroke-miterlimit="10" stroke-width="2"/>
                <path id="Trazado_1075161" data-name="Trazado 1075161" d="M124.958,513.747A142.5,142.5,0,0,0,148.3,498.16" fill="none" stroke="#c43945" stroke-linecap="round" stroke-linejoin="round" stroke-miterlimit="10" stroke-width="2"/>
              </g>
            </g>
            <g id="Grupo_1201301" data-name="Grupo 1201301">
              <path id="Trazado_1075162" data-name="Trazado 1075162" d="M388.607,519.419c7.9-7.9,21.717-26.176,21.387-33.65s-8.237-17.9-15.882-22.962-27.8-11.342-29.259-4.714,13.321,13.8,15.047,15.988-20.334-13.167-25.8-6.046,11.017,18.675,11.017,18.675-16.659-12.2-19.615-2.418,6.986,13.838,6.986,13.838-8.333-4.065-9.4,2.553,20.325,26.467,30.632,26.467C381.464,527.089,386.344,521.682,388.607,519.419Z" fill="#ffa382"/>
              <g id="Grupo_1201300" data-name="Grupo 1201300">
                <path id="Trazado_1075163" data-name="Trazado 1075163" d="M394,483.162A43.586,43.586,0,0,0,379,474.615" fill="none" stroke="#c43945" stroke-linecap="round" stroke-linejoin="round" stroke-miterlimit="10" stroke-width="2"/>
                <path id="Trazado_1075164" data-name="Trazado 1075164" d="M383.4,499.586,365.3,488" fill="none" stroke="#c43945" stroke-linecap="round" stroke-linejoin="round" stroke-miterlimit="10" stroke-width="2"/>
                <path id="Trazado_1075165" data-name="Trazado 1075165" d="M375.042,513.747A142.548,142.548,0,0,1,351.7,498.16" fill="none" stroke="#c43945" stroke-linecap="round" stroke-linejoin="round" stroke-miterlimit="10" stroke-width="2"/>
              </g>
            </g>
          </g>
        </g>
      </g>
    </g>
    <g id="TEXTS" transform="translate(954.648 3511.236)">
      <text id="A" transform="translate(44.585 205.224) rotate(-13.202)" fill="#ff6e70" font-size="109" font-family="SegoeUI, Segoe UI"><tspan x="0" y="0">A</tspan></text>
      <text id="I" transform="translate(123.998 116.254) rotate(-10.766)" fill="#ff6e70" font-size="109" font-family="SegoeUI, Segoe UI"><tspan x="0" y="0">I</tspan></text>
      <text id="U" transform="matrix(0.999, 0.049, -0.049, 0.999, 191.516, 154.415)" fill="#ff6e70" font-size="109" font-family="SegoeUI, Segoe UI"><tspan x="0" y="0">U</tspan></text>
      <text id="E" transform="matrix(0.999, -0.047, 0.047, 0.999, 310.287, 113.769)" fill="#ff6e70" font-size="109" font-family="SegoeUI, Segoe UI"><tspan x="0" y="0">E</tspan></text>
      <text id="O" transform="matrix(0.999, 0.049, -0.049, 0.999, 363.363, 213.926)" fill="#ff6e70" font-size="109" font-family="SegoeUI, Segoe UI"><tspan x="0" y="0">O</tspan></text>
    </g>
  </g>
</svg>
