<svg xmlns="http://www.w3.org/2000/svg" xmlns:xlink="http://www.w3.org/1999/xlink" width="295" height="210" viewBox="0 0 295 210">
  <defs>
    <clipPath id="clip-path">
      <rect id="Rectángulo_416199" data-name="Rectángulo 416199" width="295" height="210" transform="translate(1020.302 4085)" fill="#fff" stroke="#707070" stroke-width="1"/>
    </clipPath>
    <clipPath id="clip-path-2">
      <rect id="Rectángulo_416155" data-name="Rectángulo 416155" width="24.715" height="5.108" fill="none"/>
    </clipPath>
    <clipPath id="clip-path-3">
      <rect id="Rectángulo_416156" data-name="Rectángulo 416156" width="10.666" height="8.608" fill="none"/>
    </clipPath>
    <clipPath id="clip-path-4">
      <rect id="Rectángulo_416157" data-name="Rectángulo 416157" width="22.18" height="28.325" fill="none"/>
    </clipPath>
    <clipPath id="clip-path-5">
      <rect id="Rectángulo_416158" data-name="Rectángulo 416158" width="23.149" height="28.317" fill="none"/>
    </clipPath>
  </defs>
  <g id="Enmascarar_grupo_1098861" data-name="Enmascarar grupo 1098861" transform="translate(-1020.302 -4085)" clip-path="url(#clip-path)">
    <g id="Grupo_1201467" data-name="Grupo 1201467" transform="translate(3.61 1)">
      <circle id="Elipse_13507" data-name="Elipse 13507" cx="123.5" cy="123.5" r="123.5" transform="translate(1041 4142)" fill="#fff"/>
      <g id="Grupo_1201363" data-name="Grupo 1201363" transform="translate(420.131 3753.021)">
        <path id="Trazado_1075258" data-name="Trazado 1075258" d="M263.168,200.85a204.232,204.232,0,0,1-27.075-32.432c-2.122-3.137-4.244-6.6-4.082-10.387.113-2.627,1.331-5.284.566-7.8a2.569,2.569,0,0,0-1.321-1.7,2.706,2.706,0,0,0-2.084.187c-1.814.791-3.727,5.489-4.227,7.355-1.019-4.438-1.953-11.831-3.77-16.006-.574-1.317-1.452-2.809-2.887-2.885a2.692,2.692,0,0,0-2.335,1.449,7.178,7.178,0,0,0-.751,2.771,50.373,50.373,0,0,0-.2,10.156,44.172,44.172,0,0,0-3.4-11.7,3.218,3.218,0,0,0-1.092-1.509,2.18,2.18,0,0,0-2.451.316,4.937,4.937,0,0,0-1.369,2.218c-1.458,4.075-1.01,8.552-.543,12.856a25.381,25.381,0,0,0-3.973-8.2,3.025,3.025,0,0,0-1.649-1.339,2.155,2.155,0,0,0-2.258,1.423,5.721,5.721,0,0,0-.173,2.859,36.126,36.126,0,0,0,3.822,12.445c-1.415,4.591.268,9.972,4.3,13.771a173.743,173.743,0,0,0,25.994,51.867,48.837,48.837,0,0,0,9.16,10.05,3.445,3.445,0,0,0,1.379.745,3.543,3.543,0,0,0,2.532-.826c8.077-5.381,13.853-13.692,17.744-22.582a20.419,20.419,0,0,0,1.906-6.456c.181-2.248,0-4.939-1.763-6.645" transform="translate(422.255 252.191)" fill="#f9cbb2"/>
        <path id="Trazado_1075259" data-name="Trazado 1075259" d="M208.72,160.707a11.345,11.345,0,0,1,10.045-4.131.435.435,0,0,1,.054.851,38.417,38.417,0,0,0-4.918,1.6,41.343,41.343,0,0,0-4.619,2.324.438.438,0,0,1-.562-.642" transform="translate(421.147 250.177)" fill="#e5b798"/>
        <path id="Trazado_1075260" data-name="Trazado 1075260" d="M400.01,185.53a186.254,186.254,0,0,0,21.941-27.584c3.873-5.955,8.387-12.8,8.6-16.855.125-2.366-.627-7.278.159-9.527a3.577,3.577,0,0,1,1.362-1.942c1.676-1.044,3.957.33,4.905,2s1.232,3.668,2.457,5.17a65.1,65.1,0,0,1,4.9-11.657c.8-1.455,2.292-3.482,3.521-4.115s3.085-.437,3.661.769a5.491,5.491,0,0,1,.034,3.463c-.8,3.548-2.462,6.791-3.351,10.726a71.9,71.9,0,0,1,5.477-7.948c3.646-4.577,5.617-4.106,6.357-3.554,1.4,1.043,1.013,3.154.578,4.561a46.522,46.522,0,0,1-5.256,10.9c2.016-2.029,8.022-7.98,10.452-6.495,2.645,1.615-1.51,6.742-3.757,8.988-.412.412-.973.679-1.269,1.165a4.4,4.4,0,0,0-.356,2.331c-.011,4.19-2.472,8.3-5.876,10.868-.827,5.859-3,11.462-5.17,17.005-5.152,13.161-10.394,26.349-17.5,38.675a3.3,3.3,0,0,1-1.506,1.595,3.346,3.346,0,0,1-2.581-.4,29.175,29.175,0,0,1-6.9-4.952,121.8,121.8,0,0,1-9.458-10.107c-3.914-4.517-7.829-9.032-11.426-13.073" transform="translate(401.207 253.911)" fill="#f9cbb2"/>
        <path id="Trazado_1075261" data-name="Trazado 1075261" d="M320.247,220.471c-.027.314-.063.654-.107.985a11.182,11.182,0,0,0-2.517,1.684l-.1-.116c-4.891-.188-16.85-3.431-16.814-3q.027.3.054.618a30.205,30.205,0,0,1-5.733-2.275q-.793-4.985-1.406-10.356c8.707,7.785,17.092,11.233,26.623,12.461" transform="translate(412.292 244.81)" fill="#ffaf6d"/>
        <path id="Trazado_1075262" data-name="Trazado 1075262" d="M291.4,206.383c.116.752.242,1.5.367,2.24a152.012,152.012,0,0,1-22.332-11.977c-.367-.242-.744-.484-1.111-.735a36.6,36.6,0,0,1-7.623-6.4,7.674,7.674,0,0,1-1.765-2.983,9.18,9.18,0,0,1-.143-2.759q.511-10.669,1.344-21.32c.878-11.117,2.051-22.359,6.074-32.751s11.233-19.985,21.374-24.608c2.867-1.308,6-2.2,8.869-1.711,4.013-6.074,11.61-8.68,18.821-9.711a68.2,68.2,0,0,1,41.234,7.184,34.968,34.968,0,0,1,9.7,7.113c3.261,3.6,5.178,8.179,7.014,12.685,5.151,12.649,8.663,43.922,8.663,60.664l.152.143c-5.5,5.8-15.059,17.979-20.863,22.915l-.188.081c-.1-.251-.2-.367-.3-.34-1.469.4-8.922,3.646-14.216,4.067a12.656,12.656,0,0,0-5.778-1.3c-.063-.376-.134-.744-.188-1.075A45.15,45.15,0,0,0,356.5,195.23c7.274-7.516,11.878-18.346,9.522-28.532a31.774,31.774,0,0,0-3.252-8.161,16.993,16.993,0,0,1-1.908-4.192,14.245,14.245,0,0,1-.242-3.386q.04-5.6.072-11.216a99.121,99.121,0,0,1-13.446.358,89.833,89.833,0,0,0-4.291-19.385l1.962,18.651a1.159,1.159,0,0,1-.116.8,1.145,1.145,0,0,1-.752.349,68.907,68.907,0,0,1-16.734.95,1.507,1.507,0,0,1-1.684-1.577c-1.4-7.668-1.138-15.954-5.169-22.619,1.048,7.623,2.1,15.372,1.039,23a1.521,1.521,0,0,1-1.541,1.648,49.347,49.347,0,0,1-14.3.314,1.958,1.958,0,0,1-1.272-.484,2,2,0,0,1-.385-1.218q-.927-10.279-1.845-20.568-.618,10.427-1.227,20.854a2.033,2.033,0,0,1-.394,1.317,1.888,1.888,0,0,1-1.272.448,30.537,30.537,0,0,1-6.647-.1,2.655,2.655,0,0,1-1.863-.788,2.792,2.792,0,0,1-.385-1.577c-.224-6-.95-15.238-1.182-21.249a407.669,407.669,0,0,0,.806,77.165q.6,5.361,1.406,10.356" transform="translate(415.925 256.793)" fill="#ffaf6d"/>
        <path id="Trazado_1075263" data-name="Trazado 1075263" d="M314.916,224.081a9.649,9.649,0,0,0-2.678,4.354,7.524,7.524,0,0,0,.2,5.921c.967,10.257-.027,14.584,1.738,16.572,2.876,3.243,10.8,3.9,18.257,3.547,6.539-.3,12.712-1.362,14.772-2.114a8.014,8.014,0,0,0,4.246-2.929,9.106,9.106,0,0,0,1.066-4.112c.475-5.393-.761-12.918-1-14.3a6.153,6.153,0,0,0,.779-3.35,7.731,7.731,0,0,0-3.261-5.572,10.134,10.134,0,0,0-1.63-.994c5.294-.421,12.747-3.664,14.216-4.067.1-.027.2.09.3.34.761,1.827,1.639,10.839,3.628,23.094,1.084,6.736,2.777,16.77,6.28,22.619,2.705,4.515,13.643,9.066,16.779,10.418.233.1.493.681.77,1.684v.009c2.687,9.657,7.382,58.281,10.436,96.971-10.266,5.034-35.582,4.2-48.956,1.541a3.354,3.354,0,0,1-2.141-1.012,3.424,3.424,0,0,1-.475-2.016q-.2-8.936-.4-17.88a261.569,261.569,0,0,1-27.546.179q-.551,10.951-1.1,21.912a1.679,1.679,0,0,1-1.98,1.917c-16.34,1.111-36.37,1.666-49.556-1.908,2.284-32.894,1.926-76.117,4.085-89.868.027-.009.045-.027.072-.036,4.2-2.114,14.2-9.066,19.018-20.362,6.029-14.145,7.928-33.4,7.238-43.062q-.027-.323-.054-.618c-.036-.43,11.923,2.813,16.814,3Z" transform="translate(414.999 243.87)" fill="#f27979"/>
        <path id="Trazado_1075264" data-name="Trazado 1075264" d="M319.985,211.31c-9.531-1.227-17.916-4.676-26.623-12.461a407.672,407.672,0,0,1-.806-77.165c.233,6.011.959,15.247,1.182,21.249a2.792,2.792,0,0,0,.385,1.577,2.655,2.655,0,0,0,1.863.788,30.537,30.537,0,0,0,6.647.1,1.888,1.888,0,0,0,1.272-.448,2.033,2.033,0,0,0,.394-1.317q.618-10.427,1.227-20.854.914,10.279,1.845,20.568a2,2,0,0,0,.385,1.218,1.958,1.958,0,0,0,1.272.484,49.346,49.346,0,0,0,14.3-.314,1.521,1.521,0,0,0,1.541-1.648c1.057-7.623.009-15.372-1.039-23,4.031,6.665,3.771,14.951,5.169,22.619a1.507,1.507,0,0,0,1.684,1.577,68.906,68.906,0,0,0,16.734-.95,1.145,1.145,0,0,0,.752-.349,1.159,1.159,0,0,0,.116-.8l-1.962-18.651a89.837,89.837,0,0,1,4.291,19.385,99.116,99.116,0,0,0,13.446-.358q-.027,5.617-.072,11.216a14.248,14.248,0,0,0,.242,3.386,16.99,16.99,0,0,0,1.908,4.192,31.776,31.776,0,0,1,3.252,8.161c2.356,10.185-2.249,21.016-9.522,28.531a45.884,45.884,0,0,1-34.8,13.706c-1.738-.09-3.422-.233-5.079-.448" transform="translate(412.554 253.971)" fill="#f9cbb2"/>
        <path id="Trazado_1075265" data-name="Trazado 1075265" d="M354.866,221.429a10.136,10.136,0,0,1,1.63.994A7.731,7.731,0,0,1,359.757,228a6.153,6.153,0,0,1-.779,3.35,7.2,7.2,0,0,1-4.784,3.637,12.873,12.873,0,0,1-6.5-.735,24.1,24.1,0,0,1-5.572-2.481,14.041,14.041,0,0,1-2.616-2.105l-.179-1.451a25.342,25.342,0,0,0,10.4-3.4c.215-.134-.26-2.625-.636-4.676a12.656,12.656,0,0,1,5.778,1.3" transform="translate(407.53 243.547)" fill="#ffb6c1"/>
        <path id="Trazado_1075266" data-name="Trazado 1075266" d="M322.561,223.02c-.116,1.156-.251,2.347-.233,3.028,2.392,2.177,8.483,3.216,14.655,2.463l.179,1.451a27.425,27.425,0,0,1-3.592,3.691,18.574,18.574,0,0,1-3.153,2.168,13.808,13.808,0,0,1-8.671,1.666,6.965,6.965,0,0,1-2.911-1.093,4.347,4.347,0,0,1-1.272-1.415,7.524,7.524,0,0,1-.2-5.921,9.65,9.65,0,0,1,2.678-4.354,11.182,11.182,0,0,1,2.517-1.684" transform="translate(409.871 243.246)" fill="#ffb6c1"/>
        <path id="Trazado_1075267" data-name="Trazado 1075267" d="M341.713,232.875c.224,6.853.4,10.875.394,17.737a3.282,3.282,0,0,1-.815,2.661,2.819,2.819,0,0,1-1.478.484c-.143.018-.287.018-.43.027a9.01,9.01,0,0,1-1.9-.1,2.112,2.112,0,0,1-1.29-.573,2.288,2.288,0,0,1-.394-1.5c-.206-6.638-.52-10.508-.3-17.146a27.426,27.426,0,0,0,3.592-3.691,14.042,14.042,0,0,0,2.616,2.105" transform="translate(407.936 242.439)" fill="#f495a3"/>
        <path id="Trazado_1075268" data-name="Trazado 1075268" d="M337.638,256.336c-7.453.349-15.381-.3-18.257-3.547-1.765-1.989-.77-6.315-1.738-16.572a4.348,4.348,0,0,0,1.272,1.415,6.966,6.966,0,0,0,2.911,1.093,13.808,13.808,0,0,0,8.671-1.666,18.576,18.576,0,0,0,3.153-2.168c-.224,6.638.09,10.508.3,17.146a2.287,2.287,0,0,0,.394,1.5,2.112,2.112,0,0,0,1.29.573,9.01,9.01,0,0,0,1.9.1Z" transform="translate(409.789 242.01)" fill="#ffa5af"/>
        <path id="Trazado_1075269" data-name="Trazado 1075269" d="M340.274,253.952a2.818,2.818,0,0,0,1.478-.484,3.282,3.282,0,0,0,.815-2.661c.009-6.862-.17-10.884-.394-17.737a24.1,24.1,0,0,0,5.572,2.481,12.873,12.873,0,0,0,6.5.735,7.2,7.2,0,0,0,4.784-3.637c.242,1.38,1.478,8.9,1,14.3a9.106,9.106,0,0,1-1.066,4.112,8.014,8.014,0,0,1-4.246,2.929c-2.06.752-8.232,1.818-14.772,2.114l-.108-2.123c.143-.009.287-.009.43-.027" transform="translate(407.476 242.243)" fill="#ffa5af"/>
        <path id="Trazado_1075270" data-name="Trazado 1075270" d="M397.849,188.229c25.056,4.452,36.415,27.519,35.77,29.114-4.533,11.144-17,26.91-34.381,42.363-.206,2.661.645,7.525,1.093,12.488-.278-1-.537-1.586-.77-1.684-3.135-1.353-14.073-5.9-16.779-10.418-3.5-5.85-5.2-15.883-6.28-22.619-1.989-12.255-2.867-21.267-3.628-23.094l.188-.081c5.8-4.936,15.363-17.119,20.863-22.915,1.908-2.016,3.323-3.261,3.924-3.153" transform="translate(404.035 246.872)" fill="#ffa5af"/>
        <path id="Trazado_1075271" data-name="Trazado 1075271" d="M295.153,220.627c.69,9.657-1.209,28.917-7.238,43.062-4.819,11.3-14.817,18.248-19.018,20.362q-.067-3.937-.143-7.874a6.312,6.312,0,0,0-.4-2.589,6.546,6.546,0,0,0-2.338-2.356A194.777,194.777,0,0,1,240.893,249.9a3.462,3.462,0,0,1-1.066-1.559,3.515,3.515,0,0,1,.511-2.311c6.763-13.867,16.393-26.086,26.005-38.153.367.251.743.493,1.111.735a152.013,152.013,0,0,0,22.333,11.977c-.125-.735-.251-1.487-.367-2.24a30.206,30.206,0,0,0,5.733,2.275" transform="translate(417.903 244.824)" fill="#ffa5af"/>
        <path id="Trazado_1075272" data-name="Trazado 1075272" d="M323.2,222.594c.045-.331.081-.672.107-.985,1.657.215,3.341.358,5.079.448A45.171,45.171,0,0,0,347.2,218.93c.054.331.125.7.188,1.075.376,2.051.851,4.542.636,4.676a25.342,25.342,0,0,1-10.4,3.4c-6.172.753-12.264-.287-14.655-2.463-.018-.681.116-1.872.233-3.028" transform="translate(409.235 243.673)" fill="#f9cbb2"/>
        <path id="Trazado_1075273" data-name="Trazado 1075273" d="M323.181,223.2c-.112,1.105-.234,2.222-.217,2.871,2.392,2.177,8.483,3.216,14.655,2.463a25.342,25.342,0,0,0,10.4-3.4,4.444,4.444,0,0,0-.124-1.788,63.626,63.626,0,0,1-24.715-.142" transform="translate(409.235 243.228)" fill="#f9cbb2"/>
        <g id="Grupo_1201359" data-name="Grupo 1201359" transform="translate(732.416 462.602)" opacity="0.21" style="mix-blend-mode: multiply;isolation: isolate">
          <g id="Grupo_1201099" data-name="Grupo 1201099" transform="translate(0 0)">
            <g id="Grupo_1201098" data-name="Grupo 1201098" clip-path="url(#clip-path-2)">
              <path id="Trazado_1074743" data-name="Trazado 1074743" d="M347.921,222.893c-.139-.867-.336-1.924-.512-2.887-.063-.376-.134-.744-.188-1.075a45.171,45.171,0,0,1-18.812,3.126c-1.738-.09-3.422-.233-5.079-.448-.027.314-.063.654-.107.985l-.016.156a63.591,63.591,0,0,0,24.715.142" transform="translate(-323.206 -218.93)" fill="#8a4a85"/>
            </g>
          </g>
        </g>
        <path id="Trazado_1075274" data-name="Trazado 1075274" d="M292.8,121.866c-1.833,28.007-1.582,56.232,1.794,84.113l.783,5.56a.32.32,0,1,1-.632.108l-.953-5.553c-3.139-20.426-3.813-41.177-3.179-61.812.261-7.506.762-15,1.549-22.474a.32.32,0,0,1,.351-.286.323.323,0,0,1,.287.343" transform="translate(412.628 253.822)" fill="#b27a4f"/>
        <path id="Trazado_1075275" data-name="Trazado 1075275" d="M307.331,123.069a103.183,103.183,0,0,1-.3,16.243,34.859,34.859,0,0,1-1.014,5.362.322.322,0,0,1-.628-.128c.212-1.776.365-3.555.471-5.339.174-3.1.315-7.6.443-10.755.089-1.8.181-3.6.387-5.4a.322.322,0,0,1,.64.021" transform="translate(411.066 253.691)" fill="#b27a4f"/>
        <path id="Trazado_1075276" data-name="Trazado 1075276" d="M327.913,120.011c1.54,7.965,2.557,16.375.553,24.35a.322.322,0,0,1-.627-.129c1.054-8.033.01-16.1-.562-24.134a.323.323,0,0,1,.636-.087" transform="translate(408.785 254.005)" fill="#b27a4f"/>
        <path id="Trazado_1075277" data-name="Trazado 1075277" d="M351.437,119.943c2.948,7.232,3.6,15.269,3.272,23.011a.322.322,0,0,1-.641,0c-.608-7.647-1.243-15.357-3.231-22.786a.322.322,0,0,1,.6-.225" transform="translate(406.332 254.005)" fill="#b27a4f"/>
        <path id="Trazado_1075278" data-name="Trazado 1075278" d="M352.572,103.637c13.073,1.743,21.281,12.041,23.493,24.567.659,4.037,1.163,8.1.342,12.175a.571.571,0,0,1-.474.419,93.326,93.326,0,0,1-18.971.727.321.321,0,0,1,.026-.64c3.141.071,6.281-.023,9.408-.241s6.245-.556,9.336-1.056l-.494.422c1.4-11.016-2.663-24.643-12.013-31.252a27.928,27.928,0,0,0-10.761-4.489.321.321,0,0,1,.108-.632" transform="translate(406.188 255.686)" fill="#b27a4f"/>
        <g id="Grupo_1201360" data-name="Grupo 1201360" transform="translate(738.128 415.122)" opacity="0.59" style="mix-blend-mode: multiply;isolation: isolate">
          <g id="Grupo_1201102" data-name="Grupo 1201102" transform="translate(0 0)">
            <g id="Grupo_1201101" data-name="Grupo 1201101" clip-path="url(#clip-path-3)">
              <path id="Trazado_1074749" data-name="Trazado 1074749" d="M340.015,168.827a4.723,4.723,0,0,0-2.971-2.636,6.612,6.612,0,0,0-4.034.116,4.9,4.9,0,0,0-3.358,3.564c-.271,1.512.278,2.386,1.44,3.391a5.871,5.871,0,0,0,4.306,1.251,5.669,5.669,0,0,0,3.714-1.65,3.935,3.935,0,0,0,.9-4.035" transform="translate(-329.583 -165.927)" fill="#e5919a"/>
            </g>
          </g>
        </g>
        <path id="Trazado_1075279" data-name="Trazado 1075279" d="M336.1,165.593c5.421-.885,7.746,7.423,2.268,8.853a.324.324,0,0,1-.168-.618c3.645-1.906,1.867-7.336-2.07-7.595a.324.324,0,0,1-.03-.641" transform="translate(407.893 249.237)" fill="#a46d5c"/>
        <path id="Trazado_1075280" data-name="Trazado 1075280" d="M332.245,174.616a1.725,1.725,0,0,0-.7-1.052.946.946,0,0,0-.52-.191.371.371,0,0,0-.219.059.334.334,0,0,0-.112.16.76.76,0,0,0,.206.7,1.946,1.946,0,0,0,.573.469.866.866,0,0,0,.37.116.425.425,0,0,0,.4-.264" transform="translate(408.432 248.419)" fill="#512f2b"/>
        <path id="Trazado_1075281" data-name="Trazado 1075281" d="M319.931,180.856a18.033,18.033,0,0,0,23.98,1.7,15.419,15.419,0,0,0,2.682-2.678.429.429,0,0,1,.711.473c-5.006,8.571-17.751,10.235-25.257,4.016a14.453,14.453,0,0,1-2.784-2.977.428.428,0,0,1,.114-.595.434.434,0,0,1,.555.063" transform="translate(409.628 247.759)" fill="#331f10"/>
        <path id="Trazado_1075282" data-name="Trazado 1075282" d="M349.986,165.323a4.187,4.187,0,1,1,4.509,4.321,4.431,4.431,0,0,1-4.509-4.321" transform="translate(406.421 249.776)" fill="#231409"/>
        <path id="Trazado_1075283" data-name="Trazado 1075283" d="M359.6,156.8a3.038,3.038,0,0,1-1.409,2.109,3.991,3.991,0,0,1-2.544.5c-2.7-.373-3.54,2.189-3.986,3.4a6.359,6.359,0,0,1-1.695,1.786,7.418,7.418,0,0,1,1.991-5.956c1.822-1.625,3.951-.845,5.2-1.108a2.891,2.891,0,0,0,1.669-1.106c.152-.143.262-.356.462-.293a.535.535,0,0,1,.314.668" transform="translate(406.426 250.217)" fill="#231409"/>
        <path id="Trazado_1075284" data-name="Trazado 1075284" d="M308.551,168.743a4.188,4.188,0,1,1,4.509,4.321,4.431,4.431,0,0,1-4.509-4.321" transform="translate(410.738 249.42)" fill="#231409"/>
        <path id="Trazado_1075285" data-name="Trazado 1075285" d="M318.169,160.22a3.04,3.04,0,0,1-1.408,2.109,4,4,0,0,1-2.545.5c-2.7-.373-3.54,2.189-3.986,3.4a6.36,6.36,0,0,1-1.695,1.786,7.418,7.418,0,0,1,1.991-5.956c1.822-1.625,3.951-.845,5.2-1.108a2.891,2.891,0,0,0,1.669-1.106c.152-.143.262-.356.462-.293a.535.535,0,0,1,.314.668" transform="translate(410.743 249.86)" fill="#231409"/>
        <path id="Trazado_1075286" data-name="Trazado 1075286" d="M316.891,152.007a2.99,2.99,0,0,0-2.854-1.336,6.716,6.716,0,0,0-4.814,2.255,2.938,2.938,0,0,0-.847,2.7,1.888,1.888,0,0,0,1.818,1.273,5.676,5.676,0,0,0,2.132-.869c1-.484,2.131-.646,3.116-1.156s2.041-1.651,1.449-2.87" transform="translate(410.764 250.785)" fill="#8f6b49"/>
        <path id="Trazado_1075287" data-name="Trazado 1075287" d="M352.7,149.272a2.988,2.988,0,0,1,2.8-1.449,6.717,6.717,0,0,1,4.9,2.059,2.941,2.941,0,0,1,.954,2.668,1.89,1.89,0,0,1-1.767,1.345,5.671,5.671,0,0,1-2.165-.783c-1.017-.443-2.155-.56-3.16-1.03s-2.1-1.568-1.562-2.81" transform="translate(406.152 251.081)" fill="#8f6b49"/>
        <path id="Trazado_1075288" data-name="Trazado 1075288" d="M337.413,238.049a1.677,1.677,0,1,1,1.677,1.677,1.677,1.677,0,0,1-1.677-1.677" transform="translate(407.729 241.855)" fill="#d87783"/>
        <path id="Trazado_1075289" data-name="Trazado 1075289" d="M337.413,244.882a1.677,1.677,0,1,1,1.677,1.677,1.677,1.677,0,0,1-1.677-1.677" transform="translate(407.729 241.143)" fill="#d87783"/>
        <path id="Trazado_1075290" data-name="Trazado 1075290" d="M337.413,251.715a1.677,1.677,0,1,1,1.677,1.677,1.677,1.677,0,0,1-1.677-1.677" transform="translate(407.729 240.431)" fill="#d87783"/>
        <path id="Trazado_1075291" data-name="Trazado 1075291" d="M360.008,264.815c-11.121,1.965-30.1,2.138-42.932,1.131-1.091,5.326-3.918,17.424,4.456,26.986,7.61,8.691,20.305,8.234,26.238,5.36,5.5-2.664,9.923-7.01,11.749-12.753a36.3,36.3,0,0,0,.489-20.725" transform="translate(409.989 238.892)" fill="#e26464"/>
        <path id="Trazado_1075292" data-name="Trazado 1075292" d="M295.475,100.9a33.977,33.977,0,0,0-3-3.718c-.779-.838-2.041-1.682-2.955-.994a1.615,1.615,0,0,0-.322,1.977,3.767,3.767,0,0,0,1.571,1.457,8.551,8.551,0,0,0,4.707,1.279" transform="translate(412.773 256.487)" fill="#ffaf6d"/>
        <path id="Trazado_1075293" data-name="Trazado 1075293" d="M298.574,100.431a12.909,12.909,0,0,1-2.269-5.675,4.476,4.476,0,0,1,.1-2.116,1.968,1.968,0,0,1,1.515-1.35c1.34-.161,2.2,1.408,2.412,2.741.4,2.473-.081,5.077-1.759,6.4" transform="translate(412.02 256.973)" fill="#ffaf6d"/>
        <path id="Trazado_1075294" data-name="Trazado 1075294" d="M340.429,293.792a45.393,45.393,0,0,1-.228-6.583c.051-.928.03-1.859.063-2.789-.022-.38.147-.787.028-1.151a.567.567,0,0,0-1.085.219,35.374,35.374,0,0,0-.049,5.58c.026,1.776.222,4.7.672,5.492a.357.357,0,0,0,.555-.072c.092-.164.039-.351.045-.7" transform="translate(407.557 237.004)" fill="#527747"/>
        <path id="Trazado_1075295" data-name="Trazado 1075295" d="M346.119,276.848a1.947,1.947,0,0,0-2.451-1.514,4.372,4.372,0,0,0-1.2.537,3.231,3.231,0,0,0-1.131-3.692,2.321,2.321,0,0,0-3.187.753,4.316,4.316,0,0,0-.679,2.766,4.4,4.4,0,0,0-1.648-.342,2.3,2.3,0,0,0-1.337.5,1.514,1.514,0,0,0-.872,1.924c.016.041.038.08.056.12a1.96,1.96,0,0,0,.209.557,3.309,3.309,0,0,0,1.463,1.458,3.444,3.444,0,0,0-1.379,1.39,2.108,2.108,0,0,0,1.8,3.124,3.815,3.815,0,0,0,2.846-1.276c.15-.153.3-.313.452-.477a3.568,3.568,0,0,0,2.209,2.548,2.024,2.024,0,0,0,2.261-.456,1.338,1.338,0,0,0,.842-.959,1.646,1.646,0,0,0,.056-.443,3.044,3.044,0,0,0-.512-2.511,4.6,4.6,0,0,0-.28-.471,4.6,4.6,0,0,0,.938-.709,2.845,2.845,0,0,0,1.55-2.829" transform="translate(408.135 238.162)" fill="#fff"/>
        <path id="Trazado_1075296" data-name="Trazado 1075296" d="M341.921,278.31a1.979,1.979,0,0,0-2.456-.226,1.629,1.629,0,0,0-.28.213,1.759,1.759,0,0,0-.3,2.627,1.7,1.7,0,0,0,.889.648,1.6,1.6,0,0,0,.322.043,1.933,1.933,0,0,0,2.131-1.552,2,2,0,0,0-.3-1.752" transform="translate(407.623 237.543)" fill="#f5e687"/>
        <path id="Trazado_1075297" data-name="Trazado 1075297" d="M339.51,294.08l-.023-.032a.68.68,0,0,0,0-.087,9.528,9.528,0,0,0-2.666-4.4,4.569,4.569,0,0,0-2.928-1.518,1.014,1.014,0,0,0-1.009,1.262,1.832,1.832,0,0,0,.107.529c.888,1.889,2.977,3.217,4.9,4.483a3.05,3.05,0,0,0,1.409.621c.437-.065.435-.563.206-.854" transform="translate(408.203 236.472)" fill="#527747"/>
        <path id="Trazado_1075298" data-name="Trazado 1075298" d="M346.047,288.264c-.7-.88-1.891-.177-2.532.429a12.679,12.679,0,0,0-2.722,3.647c-.15.3-.281.6-.4.913-.519.785-.945,1.684-.023,1.833a4.534,4.534,0,0,0,1.547-.864,18.267,18.267,0,0,0,3.231-2.763c.727-.85,1.581-2.083.9-3.194" transform="translate(407.478 236.492)" fill="#527747"/>
        <g id="Grupo_1201361" data-name="Grupo 1201361" transform="translate(703.945 423.581)" opacity="0.4" style="mix-blend-mode: multiply;isolation: isolate">
          <g id="Grupo_1201105" data-name="Grupo 1201105" transform="translate(0 0)">
            <g id="Grupo_1201104" data-name="Grupo 1201104" clip-path="url(#clip-path-4)">
              <path id="Trazado_1074771" data-name="Trazado 1074771" d="M313.6,189.533A14.287,14.287,0,0,1,299.2,203.7a14.478,14.478,0,0,1-6.047-1.308c-.851-7.919-1.424-16.313-1.729-24.778a14.513,14.513,0,0,1,7.776-2.24,14.287,14.287,0,0,1,14.4,14.163" transform="translate(-291.424 -175.37)" fill="#d67188"/>
            </g>
          </g>
        </g>
        <g id="Grupo_1201362" data-name="Grupo 1201362" transform="translate(759.413 419.066)" opacity="0.4" style="mix-blend-mode: multiply;isolation: isolate">
          <g id="Grupo_1201108" data-name="Grupo 1201108">
            <g id="Grupo_1201107" data-name="Grupo 1201107" clip-path="url(#clip-path-5)">
              <path id="Trazado_1074772" data-name="Trazado 1074772" d="M370.355,198.414a14.6,14.6,0,0,1-2.6.233,14.161,14.161,0,1,1,0-28.316,14.553,14.553,0,0,1,7.444,2.034q.39,1.182.672,2.392c1.881,8.152-.69,16.716-5.518,23.658" transform="translate(-353.344 -170.33)" fill="#d67188"/>
            </g>
          </g>
        </g>
      </g>
    </g>
  </g>
</svg>
