<svg xmlns="http://www.w3.org/2000/svg" xmlns:xlink="http://www.w3.org/1999/xlink" width="103" height="103" viewBox="0 0 103 103">
  <defs>
    <filter id="Trazado_978624" x="0" y="0" width="103" height="103" filterUnits="userSpaceOnUse">
      <feOffset dy="3" input="SourceAlpha"/>
      <feGaussianBlur stdDeviation="3" result="blur"/>
      <feFlood flood-opacity="0.161"/>
      <feComposite operator="in" in2="blur"/>
      <feComposite in="SourceGraphic"/>
    </filter>
  </defs>
  <g id="Grupo_1201496" data-name="Grupo 1201496" transform="translate(-171 -4469.503)">
    <g id="Grupo_1183949" data-name="Grupo 1183949" transform="translate(180 4475.503)">
      <g id="Grupo_1174730" data-name="Grupo 1174730">
        <g id="Grupo_1173798" data-name="Grupo 1173798">
          <g id="Grupo_1171925" data-name="Grupo 1171925">
            <g id="Grupo_1164524" data-name="Grupo 1164524">
              <g id="Grupo_1144123" data-name="Grupo 1144123">
                <g transform="matrix(1, 0, 0, 1, -9, -6)" filter="url(#Trazado_978624)">
                  <g id="Trazado_978624-2" data-name="Trazado 978624" transform="translate(9 6)" fill="#ebe9f0">
                    <path d="M 42.5 83.5 C 36.96437835693359 83.5 31.59512901306152 82.41617584228516 26.54141235351562 80.27863311767578 C 21.65934181213379 78.21369171142578 17.27447128295898 75.25723266601562 13.50862312316895 71.49137878417969 C 9.742764472961426 67.72553253173828 6.786305904388428 63.34066009521484 4.721364498138428 58.45858764648438 C 2.583823442459106 53.40486907958984 1.5 48.03562164306641 1.5 42.5 C 1.5 36.96437835693359 2.583823442459106 31.59512901306152 4.721364498138428 26.54141235351562 C 6.786305904388428 21.65934181213379 9.742764472961426 17.27447128295898 13.50862312316895 13.50862312316895 C 17.27447128295898 9.742764472961426 21.65934181213379 6.786305904388428 26.54141235351562 4.721364498138428 C 31.59512901306152 2.583823442459106 36.96437835693359 1.5 42.5 1.5 C 48.03562164306641 1.5 53.40486907958984 2.583823442459106 58.45858764648438 4.721364498138428 C 63.34066009521484 6.786305904388428 67.72553253173828 9.742764472961426 71.49137878417969 13.50862312316895 C 75.25723266601562 17.27447128295898 78.21369171142578 21.65934181213379 80.27863311767578 26.54141235351562 C 82.41617584228516 31.59512901306152 83.5 36.96437835693359 83.5 42.5 C 83.5 48.03562164306641 82.41617584228516 53.40486907958984 80.27863311767578 58.45858764648438 C 78.21369171142578 63.34066009521484 75.25723266601562 67.72553253173828 71.49137878417969 71.49137878417969 C 67.72553253173828 75.25723266601562 63.34066009521484 78.21369171142578 58.45858764648438 80.27863311767578 C 53.40486907958984 82.41617584228516 48.03562164306641 83.5 42.5 83.5 Z" stroke="none"/>
                    <path d="M 42.5 3 C 37.16621398925781 3 31.99356079101562 4.043960571289062 27.125732421875 6.102882385253906 C 22.42246627807617 8.092185974121094 18.19785308837891 10.94070434570312 14.56928253173828 14.56928253173828 C 10.94070434570312 18.19785308837891 8.092185974121094 22.42246627807617 6.102882385253906 27.125732421875 C 4.043960571289062 31.99356079101562 3 37.16621398925781 3 42.5 C 3 47.83378601074219 4.043960571289062 53.00643920898438 6.102882385253906 57.87425231933594 C 8.092185974121094 62.57753372192383 10.94070434570312 66.80213165283203 14.56928253173828 70.43071746826172 C 18.19786834716797 74.05929565429688 22.42246627807617 76.90781402587891 27.125732421875 78.89711761474609 C 31.99356079101562 80.95603942871094 37.16621398925781 82 42.5 82 C 47.83378601074219 82 53.00642395019531 80.95603942871094 57.87425231933594 78.89711761474609 C 62.57753372192383 76.90781402587891 66.80213165283203 74.05929565429688 70.43071746826172 70.43071746826172 C 74.05929565429688 66.80213165283203 76.90781402587891 62.57753372192383 78.89711761474609 57.87425231933594 C 80.95603942871094 53.00642395019531 82 47.83378601074219 82 42.5 C 82 37.16621398925781 80.95603942871094 31.99356079101562 78.89711761474609 27.125732421875 C 76.90781402587891 22.42246627807617 74.05929565429688 18.19786834716797 70.43071746826172 14.56928253173828 C 66.80213165283203 10.94070434570312 62.57753372192383 8.092185974121094 57.87425231933594 6.102882385253906 C 53.00643920898438 4.043960571289062 47.83378601074219 3 42.5 3 M 42.5 0 C 65.97209167480469 0 85 19.02789306640625 85 42.5 C 85 65.97209167480469 65.97209167480469 85 42.5 85 C 19.02789306640625 85 0 65.97209167480469 0 42.5 C 0 19.02789306640625 19.02789306640625 0 42.5 0 Z" stroke="none" fill="#c6c0d6"/>
                  </g>
                </g>
              </g>
            </g>
          </g>
        </g>
      </g>
    </g>
    <g id="educacion" transform="translate(197.194 4488.209)">
      <g id="Grupo_1201495" data-name="Grupo 1201495" transform="translate(0.867 5.604)">
        <path id="Trazado_1075665" data-name="Trazado 1075665" d="M93.2,233.352a9.959,9.959,0,0,0-.059,7.375l.812,1.591H58.885s-6.528-3.668,0-10.2l34.762-.716Z" transform="translate(-51.317 -209.646)" fill="#f1f2f2"/>
        <path id="Trazado_1075666" data-name="Trazado 1075666" d="M93.953,242.318H58.888s-6.528-3.668,0-10.2L93.65,231.4l-.451,1.946a9.549,9.549,0,0,0-.5,1.582H60.886a2.235,2.235,0,1,0,0,4.469h31.83a8.585,8.585,0,0,0,.424,1.325Z" transform="translate(-51.319 -209.645)" fill="#dee1e1"/>
        <path id="Trazado_1075667" data-name="Trazado 1075667" d="M77.074,232.954,45.022,232.9c-3.84,0-7.138-2.45-7.138-6.289a8.748,8.748,0,0,1,.13-2.712,6.955,6.955,0,0,1,6.523-4.541H77.42a1.568,1.568,0,0,1,0,3.137H52.534l-2.43.57-2.114-.57H44.538a3.816,3.816,0,1,0,0,7.632H77.42a1.569,1.569,0,0,1,1.557,1.753c-.091.779-1.1,1.07-1.9,1.07Z" transform="translate(-34.971 -198.793)" fill="#b7e546"/>
        <path id="Trazado_1075668" data-name="Trazado 1075668" d="M76.6,269.618A1.568,1.568,0,0,1,75.043,271l-16.245.974L42.161,271a6.956,6.956,0,0,1-6.36-9.766v1.429a6.953,6.953,0,0,0,6.953,6.953Z" transform="translate(-32.594 -236.526)" fill="#abd641"/>
        <path id="Trazado_1075669" data-name="Trazado 1075669" d="M146.181,255.664v-4.572h-3.259l-1.157.116.069,4.258a.2.2,0,0,0,.27.184l.818-.2.915-.358a.2.2,0,0,1,.144,0l1.93.756A.2.2,0,0,0,146.181,255.664Z" transform="translate(-128.618 -227.386)" fill="#ef5227"/>
        <path id="Trazado_1075670" data-name="Trazado 1075670" d="M141.755,251.1v4.358l-1.015.4a.2.2,0,0,1-.27-.184V251.1Z" transform="translate(-127.451 -227.389)" fill="#d83724"/>
        <path id="Trazado_1075671" data-name="Trazado 1075671" d="M131.361,173.083v2.229l-.1.989a.692.692,0,0,1-.692.692l-26.345-.1a.691.691,0,0,1-.692-.692l-.2-3.119,13.524-.646Z" transform="translate(-93.988 -156.506)" fill="#fdcd08"/>
        <path id="Trazado_1075672" data-name="Trazado 1075672" d="M437.647,197.8c-.619,1.525-1.242,3.03-1.86,4.556a1.385,1.385,0,0,0,1.271,1.911l1.144.1h2.784a1.385,1.385,0,0,0,1.271-1.911l-1.291-3.181-.812-1.473h-2.507Z" transform="translate(-393.482 -179.36)" fill="#fdcd08"/>
        <path id="Trazado_1075673" data-name="Trazado 1075673" d="M437.746,197.457a3.758,3.758,0,0,0,2.322-.562l-.694-1.734-1.147.343h0l-1.495-.2c-.189.466-.463,1.127-.652,1.592h0l-1.29,3.18a1.384,1.384,0,0,0,1.27,1.911h1.582a1.384,1.384,0,0,1-1.27-1.911l.964-2.375A.4.4,0,0,1,437.746,197.457Z" transform="translate(-392.584 -176.984)" fill="#faab18"/>
        <path id="Trazado_1075674" data-name="Trazado 1075674" d="M451.874,160.14a2.3,2.3,0,0,0-1.541-2.179c-.232-.081-.57.063-.83.063a1.941,1.941,0,0,0-2.036,2.116,2.011,2.011,0,0,0,2.2,2.035c.259,0,.43.224.662.144A2.3,2.3,0,0,0,451.874,160.14Z" transform="translate(-404.102 -143.439)" fill="#fdcd08"/>
        <path id="Trazado_1075675" data-name="Trazado 1075675" d="M448.9,161.408a2.248,2.248,0,0,1-.741.125,2.3,2.3,0,0,1,0-4.607,2.249,2.249,0,0,1,.741.125,2.312,2.312,0,0,0,0,4.358Z" transform="translate(-402.667 -142.528)" fill="#faab18"/>
        <path id="Trazado_1075676" data-name="Trazado 1075676" d="M58.908,20.371l-6.52,2.257-1.779-.182-12.656,5.18a4.148,4.148,0,0,1-2.714,0L22.584,22.648,20.8,22.628l-6.521-2.257a.83.83,0,0,1,0-1.568l21.2-7.34a3.392,3.392,0,0,1,2.219,0l21.2,7.34A.83.83,0,0,1,58.908,20.371Z" transform="translate(-13.235 -11.277)" fill="#868491"/>
        <path id="Trazado_1075677" data-name="Trazado 1075677" d="M116.92,82.371v.669l-14.435,5a4.148,4.148,0,0,1-2.714,0l-14.434-5v-.669a2.908,2.908,0,0,1,2.4-2.865,75.92,75.92,0,0,1,26.792,0,2.91,2.91,0,0,1,2.4,2.865Z" transform="translate(-77.767 -71.688)" fill="#77777f"/>
        <path id="Trazado_1075678" data-name="Trazado 1075678" d="M133.164,98.592v5.894H105.435l-.1-5.7a1.131,1.131,0,0,1,.931-1.113c.282-.051.367-.3.65-.345a74.119,74.119,0,0,1,25.315.147,1.132,1.132,0,0,1,.931,1.113Z" transform="translate(-95.79 -87.909)" fill="#868491"/>
        <path id="Trazado_1075679" data-name="Trazado 1075679" d="M131.361,175.312V176.4a.692.692,0,0,1-.692.692H104.028a.692.692,0,0,1-.692-.692v-3.316l.89-.646.89.646v1.735a.494.494,0,0,0,.494.494Z" transform="translate(-93.988 -156.506)" fill="#faab18"/>
        <path id="Trazado_1075680" data-name="Trazado 1075680" d="M105.115,106.6v7.154h-1.779v-5.894a1.131,1.131,0,0,1,.931-1.113C104.55,106.7,104.833,106.651,105.115,106.6Z" transform="translate(-93.988 -97.182)" fill="#77777f"/>
        <path id="Trazado_1075681" data-name="Trazado 1075681" d="M75.452,389.066a9.3,9.3,0,0,1,0-7.119l.3-1.336H35.332s-4.55,4.947.3,9.793l40.389.3Z" transform="translate(-30.96 -344.102)" fill="#f1f2f2"/>
        <path id="Trazado_1075682" data-name="Trazado 1075682" d="M76.016,390.71l-40.388-.3c-4.847-4.846-.3-9.792-.3-9.792l40.615.075-.495,1.26a9.263,9.263,0,0,0-.442,1.348h-37.1a2.235,2.235,0,1,0,0,4.469h37.11a9.378,9.378,0,0,0,.43,1.3Z" transform="translate(-30.959 -344.106)" fill="#dee1e1"/>
        <path id="Trazado_1075683" data-name="Trazado 1075683" d="M57.988,373.592l-36.545-.067c-3.84,0-7.218-2.167-7.218-6.007,0-1.219-.3-2.9.253-3.893a6.951,6.951,0,0,1,6.088-3.593H58.674a1.568,1.568,0,1,1,0,3.137H49.232l-2.467.546-2.077-.546H20.565a3.816,3.816,0,0,0,0,7.632H58.674a1.57,1.57,0,0,1,1.543,1.852c-.133.731-1.46.939-2.23.939Z" transform="translate(-13.612 -325.558)" fill="#ef5227"/>
        <path id="Trazado_1075684" data-name="Trazado 1075684" d="M55.373,401.988a1.57,1.57,0,0,1-1.543,1.285H15.721a6.954,6.954,0,0,1-5.866-10.688v2.449a6.953,6.953,0,0,0,6.953,6.953Z" transform="translate(-8.768 -354.892)" fill="#d83724"/>
        <path id="Trazado_1075685" data-name="Trazado 1075685" d="M328.823,396.358v-4.609h-3.061l-1.358.083.073,4.329a.2.2,0,0,0,.27.184l1.015-.277.717-.281a.2.2,0,0,1,.144,0l1.93.756A.2.2,0,0,0,328.823,396.358Z" transform="translate(-293.203 -354.139)" fill="#fdcd08"/>
        <path id="Trazado_1075686" data-name="Trazado 1075686" d="M324.623,391.745v4.319l-1.213.474a.2.2,0,0,1-.27-.184v-4.609Z" transform="translate(-292.064 -354.135)" fill="#faab18"/>
      </g>
      <path id="Trazado_1075687" data-name="Trazado 1075687" d="M50.455,28.1,48.81,24.04a3.012,3.012,0,0,0-1.529-4.86c0-.2,0-5.08,0-5.288a1.538,1.538,0,0,0-1.048-1.471L25.39,5.2a4.093,4.093,0,0,0-2.667,0L17.534,7a.741.741,0,1,0,.485,1.4l5.19-1.8a2.6,2.6,0,0,1,1.7,0l20.843,7.216a.074.074,0,0,1,0,.14l-7.175,2.484v-.222A1.851,1.851,0,0,0,37.047,14.4a73.349,73.349,0,0,0-25.981,0A1.851,1.851,0,0,0,9.54,16.224v.222L2.365,13.962a.074.074,0,0,1,0-.14L14.689,9.555a.741.741,0,1,0-.485-1.4L1.88,12.421a1.557,1.557,0,0,0,0,2.943l7.66,2.652v7.337A7.692,7.692,0,0,0,6.033,39.4,7.693,7.693,0,0,0,7.694,54.607H45.8a2.309,2.309,0,0,0,.047-4.618,8.493,8.493,0,0,1-.018-6.151,2.309,2.309,0,0,0-.029-4.619h-.458a2.308,2.308,0,0,0-2.156-3.137h-.02a8.488,8.488,0,0,1-.14-5.76,2.082,2.082,0,0,0,1.531.671h3.958a2.085,2.085,0,0,0,1.731-.924,2.11,2.11,0,0,0,.205-1.975Zm-2.414-6a1.5,1.5,0,1,1-1.5-1.523A1.514,1.514,0,0,1,48.042,22.091ZM45.8,15.514V19.18a3.012,3.012,0,0,0-1.529,4.86l-.517,1.274h-5.18v-7.3Zm-34.471.346a71.885,71.885,0,0,1,25.458,0,.37.37,0,0,1,.3.364v5.053H32.522a.741.741,0,0,0,0,1.483H37.09v2.554H11.023V22.76H29.062a.741.741,0,1,0,0-1.483H11.023V16.224a.37.37,0,0,1,.3-.364Zm35.3,25.669a.828.828,0,0,1-.827.827H7.694a4.557,4.557,0,1,0,0,9.115H36.97a.741.741,0,1,0,0-1.483H7.694a3.075,3.075,0,1,1,0-6.149H31.076v4.156a.741.741,0,0,0,1.012.69l2-.784,2,.784a.741.741,0,0,0,1.012-.69V43.839h7.157a9.95,9.95,0,0,0,.015,6.15H40.43a.741.741,0,1,0,0,1.483H45.8a.827.827,0,1,1,0,1.654H7.694a6.211,6.211,0,1,1,0-12.423H45.8a.828.828,0,0,1,.827.827Zm-14.072,2.31H35.62v3.069l-1.26-.493a.741.741,0,0,0-.541,0l-1.26.493ZM19.869,37.565H43.19a.827.827,0,1,1,0,1.654H10.308a6.211,6.211,0,0,1,0-12.423H43.151c-.183.492-.522,1.189-.636,1.654H10.308a4.557,4.557,0,1,0,0,9.115h6.1a.741.741,0,0,0,0-1.483h-6.1a3.075,3.075,0,1,1,0-6.149h2.711v4.12a.741.741,0,0,0,1.012.69l2-.784,2,.784a.741.741,0,0,0,1.012-.69v-4.12h22.55a9.951,9.951,0,0,0,0,6.15H19.869a.741.741,0,0,0,0,1.483ZM14.5,29.933h3.061v3.034l-1.26-.493a.741.741,0,0,0-.541,0l-1.26.493Zm34.519-.691a.6.6,0,0,1-.5.269H44.56a.6.6,0,0,1-.5-.269A.622.622,0,0,1,44,28.653l1.517-3.739a2.968,2.968,0,0,0,2.05,0l1.517,3.739A.621.621,0,0,1,49.02,29.243Z" transform="translate(0 0)"/>
    </g>
  </g>
</svg>
