<svg xmlns="http://www.w3.org/2000/svg" xmlns:xlink="http://www.w3.org/1999/xlink" width="505" height="486" viewBox="0 0 505 486">
  <defs>
    <clipPath id="clip-path">
      <rect id="Rect치ngulo_416190" data-name="Rect치ngulo 416190" width="505" height="486" transform="translate(915 5043)" fill="#fff" stroke="#707070" stroke-width="1"/>
    </clipPath>
    <clipPath id="clip-path-2">
      <rect id="Rect치ngulo_416188" data-name="Rect치ngulo 416188" width="505" height="505" transform="translate(0 0)"/>
    </clipPath>
  </defs>
  <g id="Enmascarar_grupo_1098856" data-name="Enmascarar grupo 1098856" transform="translate(-915 -5043)" clip-path="url(#clip-path)">
    <g id="OBJECTS" transform="translate(914.999 5024)">
      <path id="Trazado_1075166" data-name="Trazado 1075166" d="M124.973,50.57C75.781,81.023,55.329,139.828,59.14,192.686,61.1,219.835,71.672,246.61,91.433,266.7,113.972,289.616,147,302.545,180.8,307.765s68.638,3.342,103.045.546c38.671-3.142,79.269-8.106,110.994-29.014,35.994-23.721,54.277-64.722,56.933-104.363,1.219-18.191-.57-36.863-8.989-53.166s-24.215-29.981-43.819-33.732c-25.4-4.86-54.347,6.827-77.279-3.866-19.627-9.153-26.717-31.027-41.972-45.374-16.922-15.915-43.476-21.494-68.168-18.6A211.781,211.781,0,0,0,124.973,50.57Z" transform="translate(0.587 0.195)" fill="#fffaeb"/>
      <g id="Grupo_1201334" data-name="Grupo 1201334" transform="translate(0.001)">
        <g id="Grupo_1201333" data-name="Grupo 1201333" opacity="0.8" clip-path="url(#clip-path-2)">
          <g id="Grupo_1201314" data-name="Grupo 1201314" transform="translate(58.29 197.57)">
            <g id="Grupo_1201305" data-name="Grupo 1201305" transform="translate(60.123)">
              <path id="Trazado_1075167" data-name="Trazado 1075167" d="M125.595,262.717a68.746,68.746,0,0,1,.792-67.1A54.578,54.578,0,0,1,136.634,228.3C136.425,239.91,132.354,251.422,125.595,262.717Z" transform="translate(-117.242 -195.614)" fill="#d1cd5c"/>
              <path id="Trazado_1075168" data-name="Trazado 1075168" d="M125.8,261.8a222.867,222.867,0,0,0,.243-38.8" transform="translate(-117.156 -195.34)" fill="none" stroke="#74a847" stroke-linecap="round" stroke-linejoin="round" stroke-miterlimit="10" stroke-width="1"/>
            </g>
            <g id="Grupo_1201306" data-name="Grupo 1201306" transform="translate(83.622 23.221)">
              <path id="Trazado_1075169" data-name="Trazado 1075169" d="M148.243,291.9c-12.295-22.849-9.73-52.865,6.262-73.3C165.733,240.857,163.154,269.4,148.243,291.9Z" transform="translate(-140.508 -218.605)" fill="#d1cd5c"/>
              <path id="Trazado_1075170" data-name="Trazado 1075170" d="M148.2,292.214a288.958,288.958,0,0,0,3.051-44.945" transform="translate(-140.431 -218.318)" fill="none" stroke="#74a847" stroke-linecap="round" stroke-linejoin="round" stroke-miterlimit="10" stroke-width="1"/>
            </g>
            <g id="Grupo_1201307" data-name="Grupo 1201307" transform="translate(104.828 59.881)">
              <path id="Trazado_1075171" data-name="Trazado 1075171" d="M162.174,315.481c-3.413-22.635,6.434-46.784,24.7-60.579,1.211,11.88,1.1,24.115-2.615,35.464S172.848,312.143,162.174,315.481Z" transform="translate(-161.504 -254.902)" fill="#d1cd5c"/>
              <path id="Trazado_1075172" data-name="Trazado 1075172" d="M162.772,314.847a215.182,215.182,0,0,0,14.079-35.466" transform="translate(-161.491 -254.657)" fill="none" stroke="#74a847" stroke-linecap="round" stroke-linejoin="round" stroke-miterlimit="10" stroke-width="1"/>
            </g>
            <g id="Grupo_1201308" data-name="Grupo 1201308" transform="translate(120.418 100.871)">
              <path id="Trazado_1075173" data-name="Trazado 1075173" d="M177.783,346.924a43.576,43.576,0,0,1,34.444-51.438C209.525,315.52,198.867,334.371,177.783,346.924Z" transform="translate(-176.94 -295.486)" fill="#d1cd5c"/>
              <path id="Trazado_1075174" data-name="Trazado 1075174" d="M178.432,346.492a101.884,101.884,0,0,1,20.68-35.2" transform="translate(-176.925 -295.328)" fill="none" stroke="#74a847" stroke-linecap="round" stroke-linejoin="round" stroke-miterlimit="10" stroke-width="1"/>
            </g>
            <g id="Grupo_1201309" data-name="Grupo 1201309" transform="translate(58.955 144.574)">
              <path id="Trazado_1075175" data-name="Trazado 1075175" d="M181.33,354.126a52.355,52.355,0,0,0-65.245-7.146C134.549,359.486,159.432,361.888,181.33,354.126Z" transform="translate(-116.085 -338.757)" fill="#d1cd5c"/>
              <path id="Trazado_1075176" data-name="Trazado 1075176" d="M180.883,354.389a339.664,339.664,0,0,0-44.641-7.848" transform="translate(-115.883 -338.679)" fill="none" stroke="#74a847" stroke-linecap="round" stroke-linejoin="round" stroke-miterlimit="10" stroke-width="1"/>
            </g>
            <g id="Grupo_1201310" data-name="Grupo 1201310" transform="translate(45.54 112.338)">
              <path id="Trazado_1075177" data-name="Trazado 1075177" d="M166.481,321.133A51.846,51.846,0,0,0,102.8,315C119.131,327.425,142.092,330.525,166.481,321.133Z" transform="translate(-102.803 -306.84)" fill="#d1cd5c"/>
              <path id="Trazado_1075178" data-name="Trazado 1075178" d="M166.347,321.737a107.455,107.455,0,0,0-44.063-5.66" transform="translate(-102.608 -306.751)" fill="none" stroke="#74a847" stroke-linecap="round" stroke-linejoin="round" stroke-miterlimit="10" stroke-width="1"/>
            </g>
            <g id="Grupo_1201311" data-name="Grupo 1201311" transform="translate(32.206 84.972)">
              <path id="Trazado_1075179" data-name="Trazado 1075179" d="M149.841,292.223a64.865,64.865,0,0,0-60.24-8.616C104.292,298.713,128.763,303.261,149.841,292.223Z" transform="translate(-89.601 -279.745)" fill="#d1cd5c"/>
              <path id="Trazado_1075180" data-name="Trazado 1075180" d="M148.986,292.378a219.206,219.206,0,0,0-41.635-3.671" transform="translate(-89.424 -279.655)" fill="none" stroke="#74a847" stroke-linecap="round" stroke-linejoin="round" stroke-miterlimit="10" stroke-width="1"/>
            </g>
            <g id="Grupo_1201312" data-name="Grupo 1201312" transform="translate(12.842 51.298)">
              <path id="Trazado_1075181" data-name="Trazado 1075181" d="M126.382,261.6c-13.874-14.821-37.509-19.455-55.953-10.971A53.058,53.058,0,0,0,126.382,261.6Z" transform="translate(-70.429 -246.405)" fill="#d1cd5c"/>
              <path id="Trazado_1075182" data-name="Trazado 1075182" d="M125.945,262.106a168.628,168.628,0,0,0-36.519-7.449" transform="translate(-70.239 -246.322)" fill="none" stroke="#74a847" stroke-linecap="round" stroke-linejoin="round" stroke-miterlimit="10" stroke-width="1"/>
            </g>
            <g id="Grupo_1201313" data-name="Grupo 1201313" transform="translate(0 2.892)">
              <path id="Trazado_1075183" data-name="Trazado 1075183" d="M107.162,240.177c1.018-11.869-6.207-23.326-15.965-30.16s-21.7-9.75-33.483-11.54C64.349,218.34,82.243,234,107.162,240.177Z" transform="translate(-57.714 -198.477)" fill="#d1cd5c"/>
              <path id="Trazado_1075184" data-name="Trazado 1075184" d="M194.05,391.538A360.241,360.241,0,0,0,78.223,213.233" transform="translate(-57.509 -198.329)" fill="none" stroke="#74a847" stroke-linecap="round" stroke-linejoin="round" stroke-miterlimit="10" stroke-width="1"/>
            </g>
          </g>
          <g id="Grupo_1201316" data-name="Grupo 1201316" transform="translate(311.997 172.083)">
            <path id="Trazado_1075185" data-name="Trazado 1075185" d="M310.71,367.035c-1.671-73.569,33.191-147.63,92.571-196.656,4.5,39.406-5.878,80.349-28.9,113.975C352.149,316.842,318.148,343.594,310.71,367.035Z" transform="translate(-308.892 -170.379)" fill="#d1cd5c"/>
            <g id="Grupo_1201315" data-name="Grupo 1201315" transform="translate(0 55.219)">
              <path id="Trazado_1075186" data-name="Trazado 1075186" d="M377.905,225.051a437.013,437.013,0,0,0-69,139.351" transform="translate(-308.909 -225.051)" fill="none" stroke="#74a847" stroke-linecap="round" stroke-linejoin="round" stroke-miterlimit="10" stroke-width="1"/>
              <path id="Trazado_1075187" data-name="Trazado 1075187" d="M350.737,251.964c-22.835,32.617-36.084,70.773-37.927,109.212" transform="translate(-308.87 -224.782)" fill="none" stroke="#74a847" stroke-linecap="round" stroke-linejoin="round" stroke-miterlimit="10" stroke-width="1"/>
              <path id="Trazado_1075188" data-name="Trazado 1075188" d="M358.98,272.929l-50.012,90.45" transform="translate(-308.908 -224.572)" fill="none" stroke="#74a847" stroke-linecap="round" stroke-linejoin="round" stroke-miterlimit="10" stroke-width="1"/>
            </g>
          </g>
          <g id="Grupo_1201318" data-name="Grupo 1201318" transform="translate(330.045 262.439)">
            <path id="Trazado_1075189" data-name="Trazado 1075189" d="M329.469,386.757c15.7-30.935,31.692-62.29,54.325-86.968s53.156-42.264,85.133-39.7C440.765,318.01,392.467,362.37,329.469,386.757Z" transform="translate(-326.751 -259.84)" fill="#d1cd5c"/>
            <g id="Grupo_1201317" data-name="Grupo 1201317" transform="translate(0 35.974)">
              <path id="Trazado_1075190" data-name="Trazado 1075190" d="M424.025,295.458a450.737,450.737,0,0,0-97.247,95.428" transform="translate(-326.778 -295.458)" fill="none" stroke="#74a847" stroke-linecap="round" stroke-linejoin="round" stroke-miterlimit="10" stroke-width="1"/>
              <path id="Trazado_1075191" data-name="Trazado 1075191" d="M415.7,313.018l-86.329,74.493" transform="translate(-326.752 -295.282)" fill="none" stroke="#74a847" stroke-linecap="round" stroke-linejoin="round" stroke-miterlimit="10" stroke-width="1"/>
              <path id="Trazado_1075192" data-name="Trazado 1075192" d="M386.947,311.209a270.558,270.558,0,0,0-56.692,77.884" transform="translate(-326.743 -295.301)" fill="none" stroke="#74a847" stroke-linecap="round" stroke-linejoin="round" stroke-miterlimit="10" stroke-width="1"/>
            </g>
          </g>
          <g id="Grupo_1201320" data-name="Grupo 1201320" transform="translate(19.469 436.783)">
            <path id="Trazado_1075193" data-name="Trazado 1075193" d="M189.533,518.694c-24.018-25.035-48.429-50.388-77.259-67.421s-63.146-24.987-93-13.239C63.058,485.268,122.167,513.673,189.533,518.694Z" transform="translate(-19.277 -432.458)" fill="#d1cd5c"/>
            <g id="Grupo_1201319" data-name="Grupo 1201319" transform="translate(53.373 26.698)">
              <path id="Trazado_1075194" data-name="Trazado 1075194" d="M72.122,458.892A450.752,450.752,0,0,1,192.909,521.93" transform="translate(-72.122 -458.892)" fill="none" stroke="#74a847" stroke-linecap="round" stroke-linejoin="round" stroke-miterlimit="10" stroke-width="1"/>
              <path id="Trazado_1075195" data-name="Trazado 1075195" d="M85.086,473.306,189.34,519.487" transform="translate(-71.992 -458.748)" fill="none" stroke="#74a847" stroke-linecap="round" stroke-linejoin="round" stroke-miterlimit="10" stroke-width="1"/>
              <path id="Trazado_1075196" data-name="Trazado 1075196" d="M111.792,463.3a270.563,270.563,0,0,1,76.884,58.042" transform="translate(-71.725 -458.848)" fill="none" stroke="#74a847" stroke-linecap="round" stroke-linejoin="round" stroke-miterlimit="10" stroke-width="1"/>
            </g>
          </g>
          <g id="Grupo_1201330" data-name="Grupo 1201330" transform="translate(319.375 366.277)">
            <g id="Grupo_1201321" data-name="Grupo 1201321" transform="translate(98.379)">
              <path id="Trazado_1075197" data-name="Trazado 1075197" d="M414.442,426.727c16.233-16.3,25.04-41.6,22.307-64.076a63.116,63.116,0,0,0-19.47,28.271C413.478,402.032,412.835,414.112,414.442,426.727Z" transform="translate(-413.619 -362.651)" fill="#d1cd5c"/>
              <path id="Trazado_1075198" data-name="Trazado 1075198" d="M414.417,425.776a266.267,266.267,0,0,1,13.072-36.993" transform="translate(-413.611 -362.39)" fill="none" stroke="#74a847" stroke-linecap="round" stroke-linejoin="round" stroke-miterlimit="10" stroke-width="1"/>
            </g>
            <g id="Grupo_1201322" data-name="Grupo 1201322" transform="translate(69.415 14.267)">
              <path id="Trazado_1075199" data-name="Trazado 1075199" d="M386.151,448.26c17.765-18.349,25.954-47.621,20-71.483C389.452,394.853,381.778,422.727,386.151,448.26Z" transform="translate(-384.942 -376.777)" fill="#d1cd5c"/>
              <path id="Trazado_1075200" data-name="Trazado 1075200" d="M385.909,448.538a343.982,343.982,0,0,1,12.9-43.614" transform="translate(-384.932 -376.496)" fill="none" stroke="#74a847" stroke-linecap="round" stroke-linejoin="round" stroke-miterlimit="10" stroke-width="1"/>
            </g>
            <g id="Grupo_1201323" data-name="Grupo 1201323" transform="translate(41.546 40.157)">
              <path id="Trazado_1075201" data-name="Trazado 1075201" d="M366.8,466.881c10.5-20.6,10.792-46.3.724-64.471-5.043,10.971-9.137,22.645-10.011,34.471S359.3,460.757,366.8,466.881Z" transform="translate(-357.349 -402.41)" fill="#d1cd5c"/>
              <path id="Trazado_1075202" data-name="Trazado 1075202" d="M366.348,466.082a238.954,238.954,0,0,1,.733-37.64" transform="translate(-357.263 -402.15)" fill="none" stroke="#74a847" stroke-linecap="round" stroke-linejoin="round" stroke-miterlimit="10" stroke-width="1"/>
            </g>
            <g id="Grupo_1201324" data-name="Grupo 1201324" transform="translate(14.801 72.12)">
              <path id="Trazado_1075203" data-name="Trazado 1075203" d="M343.408,492.52a50.976,50.976,0,0,0,5.989-33.1c-1.907-10.836-7.9-20.178-16.277-25.36C328.458,453.869,330.637,474.751,343.408,492.52Z" transform="translate(-330.868 -434.057)" fill="#d1cd5c"/>
              <path id="Trazado_1075204" data-name="Trazado 1075204" d="M342.893,491.889a106.445,106.445,0,0,0-4.7-39.21" transform="translate(-330.795 -433.871)" fill="none" stroke="#74a847" stroke-linecap="round" stroke-linejoin="round" stroke-miterlimit="10" stroke-width="1"/>
            </g>
            <g id="Grupo_1201325" data-name="Grupo 1201325" transform="translate(22.352 130.599)">
              <path id="Trazado_1075205" data-name="Trazado 1075205" d="M338.345,498.395c9.621-5.659,20.585-7.7,30.537-5.676A39.31,39.31,0,0,1,393.6,509.613,55.161,55.161,0,0,1,338.345,498.395Z" transform="translate(-338.345 -491.957)" fill="#d1cd5c"/>
              <path id="Trazado_1075206" data-name="Trazado 1075206" d="M338.427,498.719a252.438,252.438,0,0,1,38.814,4.861" transform="translate(-338.344 -491.89)" fill="none" stroke="#74a847" stroke-linecap="round" stroke-linejoin="round" stroke-miterlimit="10" stroke-width="1"/>
            </g>
            <g id="Grupo_1201326" data-name="Grupo 1201326" transform="translate(45.584 103.72)">
              <path id="Trazado_1075207" data-name="Trazado 1075207" d="M361.63,471.1c9.445-5.242,20.087-6.989,29.72-4.879a38.952,38.952,0,0,1,23.917,16.627C397.8,490.162,378.158,486.77,361.63,471.1Z" transform="translate(-361.344 -465.345)" fill="#d1cd5c"/>
              <path id="Trazado_1075208" data-name="Trazado 1075208" d="M361.347,471.678a79.352,79.352,0,0,1,37.6,6.783" transform="translate(-361.347 -465.283)" fill="none" stroke="#74a847" stroke-linecap="round" stroke-linejoin="round" stroke-miterlimit="10" stroke-width="1"/>
            </g>
            <g id="Grupo_1201327" data-name="Grupo 1201327" transform="translate(69.424 82.473)">
              <path id="Trazado_1075209" data-name="Trazado 1075209" d="M384.951,448.17c18.048-7.339,38.182-4.053,51.7,8.438C419.6,466.925,398.237,464.5,384.951,448.17Z" transform="translate(-384.951 -444.308)" fill="#d1cd5c"/>
              <path id="Trazado_1075210" data-name="Trazado 1075210" d="M385.411,448.548a160.292,160.292,0,0,1,34.954,8" transform="translate(-384.946 -444.265)" fill="none" stroke="#74a847" stroke-linecap="round" stroke-linejoin="round" stroke-miterlimit="10" stroke-width="1"/>
            </g>
            <g id="Grupo_1201328" data-name="Grupo 1201328" transform="translate(99.152 56.918)">
              <path id="Trazado_1075211" data-name="Trazado 1075211" d="M414.387,425.491c16.3-10.272,37.012-8.155,49.039,5.013C447.459,439.518,428.263,438.525,414.387,425.491Z" transform="translate(-414.384 -419.005)" fill="#d1cd5c"/>
              <path id="Trazado_1075212" data-name="Trazado 1075212" d="M414.384,426.055a126.459,126.459,0,0,1,32.1,3" transform="translate(-414.384 -418.935)" fill="none" stroke="#74a847" stroke-linecap="round" stroke-linejoin="round" stroke-miterlimit="10" stroke-width="1"/>
            </g>
            <g id="Grupo_1201329" data-name="Grupo 1201329" transform="translate(0 20.714)">
              <path id="Trazado_1075213" data-name="Trazado 1075213" d="M437.306,410.354c3.235-11.577,13-20.484,23.235-24.292s20.9-3.284,31.045-1.735C479.425,401.4,459.586,411.359,437.306,410.354Z" transform="translate(-315.003 -383.16)" fill="#d1cd5c"/>
              <path id="Trazado_1075214" data-name="Trazado 1075214" d="M316.214,530.387c39.464-60.539,94.19-109.243,154.722-137.693" transform="translate(-316.214 -383.065)" fill="none" stroke="#74a847" stroke-linecap="round" stroke-linejoin="round" stroke-miterlimit="10" stroke-width="1"/>
            </g>
          </g>
          <g id="Grupo_1201332" data-name="Grupo 1201332" transform="translate(56.47 289.071)">
            <path id="Trazado_1075215" data-name="Trazado 1075215" d="M213.216,509.358c-17.314-95.206-76.555-179.244-157.3-223.149,5.148,52.16,27.723,101.492,62.845,137.327C152.688,458.156,198.581,481.6,213.216,509.358Z" transform="translate(-55.912 -286.209)" fill="#d1cd5c"/>
            <g id="Grupo_1201331" data-name="Grupo 1201331" transform="translate(43.483 62.852)">
              <path id="Trazado_1075216" data-name="Trazado 1075216" d="M98.964,348.439A552.261,552.261,0,0,1,214.321,505.465" transform="translate(-98.964 -348.439)" fill="none" stroke="#74a847" stroke-linecap="round" stroke-linejoin="round" stroke-miterlimit="10" stroke-width="1"/>
              <path id="Trazado_1075217" data-name="Trazado 1075217" d="M136.729,374.393c34.65,34.6,59.78,79.411,71.932,128.28" transform="translate(-98.586 -348.179)" fill="none" stroke="#74a847" stroke-linecap="round" stroke-linejoin="round" stroke-miterlimit="10" stroke-width="1"/>
              <path id="Trazado_1075218" data-name="Trazado 1075218" d="M132.914,403.993l80.858,100.232" transform="translate(-98.624 -347.883)" fill="none" stroke="#74a847" stroke-linecap="round" stroke-linejoin="round" stroke-miterlimit="10" stroke-width="1"/>
            </g>
          </g>
        </g>
      </g>
      <g id="Grupo_1201358" data-name="Grupo 1201358" transform="translate(0.001)">
        <g id="Grupo_1201357" data-name="Grupo 1201357" clip-path="url(#clip-path-2)">
          <g id="Grupo_1201349" data-name="Grupo 1201349" transform="translate(117.274 77.972)">
            <path id="Trazado_1075219" data-name="Trazado 1075219" d="M172.909,504.028,160.314,573.3l175.534-5.51L326.4,500.88Z" transform="translate(-115.672 -72.963)" fill="#b84453"/>
            <g id="Grupo_1201335" data-name="Grupo 1201335" transform="translate(0 215.553)">
              <path id="Trazado_1075220" data-name="Trazado 1075220" d="M244.272,290.843s-36.878-3.158-64.527,14.227c-30.853,19.4-63.631,54.047-63.631,54.047s25.348,33.153,53.063,48.567L164.2,522.623s92.834,12.219,171.924-2.109l-15.773-115.3s35.673-23.258,49.4-43.969c0,0-35.437-41.957-61.8-56.04C280.588,290.584,244.272,290.843,244.272,290.843Z" transform="translate(-116.114 -290.619)" fill="#49c9a1"/>
              <path id="Trazado_1075221" data-name="Trazado 1075221" d="M176.622,326.251a193.806,193.806,0,0,0-8.4,75.688C160.324,378.214,162.66,351.27,176.622,326.251Z" transform="translate(-115.638 -290.263)" fill="#32a69c"/>
              <path id="Trazado_1075222" data-name="Trazado 1075222" d="M304.264,325.4A485.785,485.785,0,0,1,317.9,402.921c3.923-12.812,3.3-26.671.355-39.742S310.143,337.659,304.264,325.4Z" transform="translate(-114.233 -290.271)" fill="#32a69c"/>
            </g>
            <g id="Grupo_1201336" data-name="Grupo 1201336" transform="translate(98.274 192.024)">
              <path id="Trazado_1075223" data-name="Trazado 1075223" d="M277.507,296.728s-10.919,28.578-33.031,26.543-31.061-28.73-31.061-28.73a13.116,13.116,0,0,0,3.756-1.644c10.027-6.435,10.952-25.573,10.952-25.573l38.845,6.576c-.708,6.9.337,11.758,2.014,15.165C272.128,295.487,277.507,296.728,277.507,296.728Z" transform="translate(-213.415 -267.323)" fill="#ffa382"/>
              <path id="Trazado_1075224" data-name="Trazado 1075224" d="M268.945,289.064c-9.3,3.451-33.8,11.115-51.811,3.832,10.027-6.435,10.952-25.573,10.952-25.573l38.845,6.576C266.223,280.8,267.268,285.657,268.945,289.064Z" transform="translate(-213.378 -267.323)" fill="#eb7563"/>
            </g>
            <g id="Grupo_1201348" data-name="Grupo 1201348" transform="translate(34.385)">
              <g id="Grupo_1201337" data-name="Grupo 1201337" transform="translate(149.223 153.354)">
                <path id="Trazado_1075225" data-name="Trazado 1075225" d="M297.9,270.211c8.531,2.521,17.575,3.956,26.35,2.534s17.275-6,21.927-13.416,4.714-17.789-1.013-24.494-17.334-8.122-25.359-1.459C312.053,245.744,304.3,258.112,297.9,270.211Z" transform="translate(-297.905 -229.035)" fill="#ffa382"/>
                <path id="Trazado_1075226" data-name="Trazado 1075226" d="M318.8,239.257c3.692-4.639,11.812-4.641,16.241-.559s5.079,11.071,2.318,16.274-8.382,8.648-14.337,9.936-12.223.632-18.174-.779C308.993,256.525,311.788,248.062,318.8,239.257Z" transform="translate(-297.836 -228.969)" fill="#eb7563"/>
                <path id="Trazado_1075227" data-name="Trazado 1075227" d="M338.384,252.532a13.234,13.234,0,0,0-3.943-14.046,13.863,13.863,0,0,0-14.739-1.764" transform="translate(-297.687 -228.972)" fill="none" stroke="#c43945" stroke-linecap="round" stroke-linejoin="round" stroke-miterlimit="10" stroke-width="2"/>
              </g>
              <g id="Grupo_1201338" data-name="Grupo 1201338" transform="translate(6.667 127.909)">
                <path id="Trazado_1075228" data-name="Trazado 1075228" d="M199.592,254.733c-8.889-.346-17.915-1.886-25.772-6.045s-14.442-11.216-16.47-19.736,1.237-18.361,8.81-22.876,19.023-2.138,24.488,6.746C194.032,227.021,197.416,241.223,199.592,254.733Z" transform="translate(-156.76 -203.843)" fill="#ffa382"/>
                <path id="Trazado_1075229" data-name="Trazado 1075229" d="M189.539,218.675c-2.01-5.578-9.7-8.182-15.2-5.735s-8.36,8.859-7.412,14.673,5.168,10.878,10.4,14.008,11.376,4.517,17.465,5.087C193.289,238.175,193.353,229.262,189.539,218.675Z" transform="translate(-156.66 -203.761)" fill="#eb7563"/>
                <path id="Trazado_1075230" data-name="Trazado 1075230" d="M166.591,224.92a13.232,13.232,0,0,1,8.238-12.041,13.861,13.861,0,0,1,14.527,3.053" transform="translate(-156.662 -203.761)" fill="none" stroke="#c43945" stroke-linecap="round" stroke-linejoin="round" stroke-miterlimit="10" stroke-width="2"/>
              </g>
              <path id="Trazado_1075231" data-name="Trazado 1075231" d="M356.521,152.963a71.685,71.685,0,0,1,.751,46.705C352.3,214.736,337.295,239.493,323.5,248.1c-42.437-3.419-80.052-6.326-129.479-11.932-8.176-10.158-14.915-26.216-17.887-41.578a22.467,22.467,0,0,0-18.944.087,35.839,35.839,0,0,1,19.738-36.744,30.85,30.85,0,0,0-26.771-8.317,40.1,40.1,0,0,1,29.961-32.411A35.81,35.81,0,0,1,184.245,77.2c5.139,7.969,15.112,11.638,24.582,11.954s18.791-2.166,28.1-3.941c20.108-3.832,41.414-4.278,60.564,2.972s35.764,23.2,38.931,42.176c12.934-6.979,30.646-3.288,39.705,8.274C367.952,140.074,360.321,144.461,356.521,152.963Z" transform="translate(-150.159 -77.2)" fill="#b84453"/>
              <path id="Trazado_1075232" data-name="Trazado 1075232" d="M334.761,217.7a101.287,101.287,0,0,1-7,20.185c-4.725,10.277-12.292,22.612-23.919,32.28-13.3,11.039-31.92,18.616-57.711,15.645-29.188-3.353-44.343-19.074-51.768-37.81-5.041-12.672-6.532-26.728-6.467-39.269a166.973,166.973,0,0,1,4.376-36.8c11.2-2.558,31.583-17.408,32.225-17.876a136.158,136.158,0,0,1-6.891,13c32.89,7.262,76.4-13.63,76.4-13.63a64.8,64.8,0,0,1-12.563,17.67c25.628,6.543,46.553-9.668,46.553-9.668C328,183.25,334.761,217.7,334.761,217.7Z" transform="translate(-149.782 -76.438)" fill="#ffa382"/>
              <g id="Grupo_1201347" data-name="Grupo 1201347" transform="translate(38.112 86.131)">
                <g id="Grupo_1201339" data-name="Grupo 1201339" transform="translate(10.298 29.065)">
                  <path id="Trazado_1075233" data-name="Trazado 1075233" d="M240.336,214.077c-3.791-7.99-9.433-14.144-17.912-16.157a32.108,32.108,0,0,0-24.334,3.885c2.171-4.335,6.485-7.391,11.015-9.028,14.953-5.528,32.439,4.562,31.231,21.3Z" transform="translate(-198.09 -191.256)" fill="#4f2b36"/>
                </g>
                <g id="Grupo_1201340" data-name="Grupo 1201340" transform="translate(86.652 44.067)">
                  <path id="Trazado_1075234" data-name="Trazado 1075234" d="M273.688,219.639c5.881-15.727,25.975-17.605,37.265-6.355,3.437,3.374,6.086,7.952,6.253,12.8a31.632,31.632,0,0,0-9.259-9.1c-11.672-7.488-23.666-6.484-34.259,2.657Z" transform="translate(-273.688 -206.109)" fill="#4f2b36"/>
                </g>
                <path id="Trazado_1075235" data-name="Trazado 1075235" d="M288.48,186.7a26.864,26.864,0,0,1,15.8-6.353,20.916,20.916,0,0,1,15.743,6.111,18.719,18.719,0,0,1,4.944,16.476,30.1,30.1,0,0,0-15.757-14.974C302.422,185.241,294.67,185.3,288.48,186.7Z" transform="translate(-186.888 -162.3)" fill="#b84453"/>
                <path id="Trazado_1075236" data-name="Trazado 1075236" d="M241.094,178.471a26.869,26.869,0,0,0-10.941-13.045,20.92,20.92,0,0,0-16.766-2.026,18.718,18.718,0,0,0-12.123,12.2,30.1,30.1,0,0,1,20.953-5.786C229.481,170.622,236.289,174.329,241.094,178.471Z" transform="translate(-187.76 -162.479)" fill="#b84453"/>
                <g id="Grupo_1201342" data-name="Grupo 1201342" transform="translate(28.548 62.046)">
                  <path id="Trazado_1075237" data-name="Trazado 1075237" d="M287.045,247.509a15.231,15.231,0,0,1-1.437,4.659,19.8,19.8,0,0,1-6.151,7.164,35.435,35.435,0,0,1-13.271,5.465c-12.194,2.722-25.769,1.3-36.058-5.825-6.085-4.214-11.561-11.377-13.347-18.518-1.241-4.921-.729-9.82,2.515-13.739a7.622,7.622,0,0,1,1.372-1.285c3.386-2.449,8.306-1.513,11.659-.153,3.854,1.556,7.055,4.344,10.647,6.424a31.766,31.766,0,0,0,19.782,3.952c6.249-.816,12.966-3.419,18.518-.435a11.282,11.282,0,0,1,5.28,6.718A13.067,13.067,0,0,1,287.045,247.509Z" transform="translate(-216.159 -223.91)" fill="#fff"/>
                  <g id="Grupo_1201341" data-name="Grupo 1201341" transform="translate(0 1.52)">
                    <path id="Trazado_1075238" data-name="Trazado 1075238" d="M286.4,247.33a15.231,15.231,0,0,1-1.437,4.659,7.37,7.37,0,0,0-4.8-2.961,18.024,18.024,0,0,0,5.748-7.273A13.1,13.1,0,0,1,286.4,247.33Z" transform="translate(-215.519 -225.252)" fill="#c43945"/>
                    <path id="Trazado_1075239" data-name="Trazado 1075239" d="M222.289,237.238a8.008,8.008,0,0,0-5.509,3.2c-1.241-4.921-.729-9.82,2.515-13.739a7.622,7.622,0,0,1,1.372-1.285A10.523,10.523,0,0,0,222.289,237.238Z" transform="translate(-216.159 -225.415)" fill="#c43945"/>
                  </g>
                </g>
                <g id="Grupo_1201344" data-name="Grupo 1201344" transform="translate(0 42.294)">
                  <path id="Trazado_1075240" data-name="Trazado 1075240" d="M208.462,240.475a30.771,30.771,0,0,1-14.1,7.011c-5.041-12.672-6.532-26.728-6.467-39.269a19.094,19.094,0,0,1,12.912-3.777c7.708.806,14.131,7.545,15.449,15.176S214.211,235.281,208.462,240.475Z" transform="translate(-187.894 -204.354)" fill="#eb6563"/>
                  <g id="Grupo_1201343" data-name="Grupo 1201343" transform="translate(5.016 11.789)">
                    <path id="Trazado_1075241" data-name="Trazado 1075241" d="M194.683,220.654q-.912,3.1-1.823,6.208" transform="translate(-192.86 -215.98)" fill="none" stroke="#c43945" stroke-linecap="round" stroke-linejoin="round" stroke-miterlimit="10" stroke-width="2"/>
                    <path id="Trazado_1075242" data-name="Trazado 1075242" d="M203.164,216.026q-2.033,8.432-4.067,16.865" transform="translate(-192.798 -216.026)" fill="none" stroke="#c43945" stroke-linecap="round" stroke-linejoin="round" stroke-miterlimit="10" stroke-width="2"/>
                    <path id="Trazado_1075243" data-name="Trazado 1075243" d="M208.681,223.1l-2.423,5.438" transform="translate(-192.726 -215.955)" fill="none" stroke="#c43945" stroke-linecap="round" stroke-linejoin="round" stroke-miterlimit="10" stroke-width="2"/>
                  </g>
                </g>
                <g id="Grupo_1201346" data-name="Grupo 1201346" transform="translate(101.602 66.627)">
                  <path id="Trazado_1075244" data-name="Trazado 1075244" d="M326.755,237.131c-4.725,10.277-12.292,22.612-23.919,32.28-7.217-2.645-12.88-8.938-14.1-16.352-1.7-10.365,5.542-21.436,15.732-24.028C312.613,226.962,321.682,230.545,326.755,237.131Z" transform="translate(-288.49 -228.446)" fill="#eb6563"/>
                  <g id="Grupo_1201345" data-name="Grupo 1201345" transform="translate(6.944 11.895)">
                    <path id="Trazado_1075245" data-name="Trazado 1075245" d="M298.65,243.165l-3.285,5.142" transform="translate(-295.365 -240.194)" fill="none" stroke="#c43945" stroke-linecap="round" stroke-linejoin="round" stroke-miterlimit="10" stroke-width="2"/>
                    <path id="Trazado_1075246" data-name="Trazado 1075246" d="M308.025,240.223l-3.946,13.424" transform="translate(-295.278 -240.223)" fill="none" stroke="#c43945" stroke-linecap="round" stroke-linejoin="round" stroke-miterlimit="10" stroke-width="2"/>
                    <path id="Trazado_1075247" data-name="Trazado 1075247" d="M316.385,246.267l-3.793,5.266" transform="translate(-295.193 -240.163)" fill="none" stroke="#c43945" stroke-linecap="round" stroke-linejoin="round" stroke-miterlimit="10" stroke-width="2"/>
                  </g>
                </g>
                <path id="Trazado_1075248" data-name="Trazado 1075248" d="M252.146,214.8a14.916,14.916,0,0,0-1.217,12.01" transform="translate(-187.271 -161.955)" fill="none" stroke="#c43945" stroke-linecap="round" stroke-linejoin="round" stroke-miterlimit="10" stroke-width="2"/>
              </g>
            </g>
          </g>
          <g id="Grupo_1201356" data-name="Grupo 1201356" transform="translate(32.293 302.287)">
            <g id="Grupo_1201351" data-name="Grupo 1201351" transform="translate(27.923)">
              <path id="Trazado_1075249" data-name="Trazado 1075249" d="M65.355,461.447,59.621,316.774l379.091-15.711,5.733,144.673Z" transform="translate(-59.621 -299.276)" fill="#fff"/>
              <g id="Grupo_1201350" data-name="Grupo 1201350" transform="translate(25.613)">
                <text id="O" transform="translate(252.087 113.335) rotate(-2.537)" fill="#ff6e70" font-size="102" font-family="SegoeUI, Segoe UI"><tspan x="0" y="0">O</tspan></text>
                <text id="A" transform="translate(4.914 123.106) rotate(-2.537)" fill="#ff6e70" font-size="103" font-family="SegoeUI, Segoe UI"><tspan x="0" y="0">A</tspan></text>
                <text id="I" transform="translate(88.635 122.615) rotate(-6.191)" fill="#ff6e70" font-size="103" font-family="SegoeUI, Segoe UI"><tspan x="0" y="0">I</tspan></text>
                <text id="E" transform="translate(192.92 121.219) rotate(-5.215)" fill="#ff6e70" font-size="103" font-family="SegoeUI, Segoe UI"><tspan x="0" y="0">E</tspan></text>
                <text id="U" transform="matrix(1, 0.005, -0.005, 1, 113.325, 120.176)" fill="#ff6e70" font-size="102" font-family="SegoeUI, Segoe UI"><tspan x="0" y="0">U</tspan></text>
              </g>
            </g>
            <g id="Grupo_1201353" data-name="Grupo 1201353" transform="translate(385.415 94.047)">
              <path id="Trazado_1075250" data-name="Trazado 1075250" d="M468.114,444.047c2.758-10.806,5.377-33.549,1.406-39.827s-15.8-11.278-24.745-11.775-29.051,4.267-27.007,10.722,18.057,5.169,20.593,6.182-23.657-1.078-24.744,7.823,18.522,10.536,18.522,10.536-20.082-2.1-17.739,7.828,12.732,8.4,12.732,8.4-9.038.706-6.67,6.954,30.223,12.552,38.916,7.343C465.881,454.272,467.324,447.142,468.114,444.047Z" transform="translate(-413.573 -392.41)" fill="#ffa382"/>
              <g id="Grupo_1201352" data-name="Grupo 1201352" transform="translate(12.907 16.884)">
                <path id="Trazado_1075251" data-name="Trazado 1075251" d="M454.5,409.887a41.685,41.685,0,0,0-16.881.214" transform="translate(-426.239 -409.127)" fill="none" stroke="#c43945" stroke-linecap="round" stroke-linejoin="round" stroke-miterlimit="10" stroke-width="2"/>
                <path id="Trazado_1075252" data-name="Trazado 1075252" d="M453.725,429.217l-20.989-.848" transform="translate(-426.288 -408.934)" fill="none" stroke="#c43945" stroke-linecap="round" stroke-linejoin="round" stroke-miterlimit="10" stroke-width="2"/>
                <path id="Trazado_1075253" data-name="Trazado 1075253" d="M453.741,445.5a136.273,136.273,0,0,1-27.389-1.645" transform="translate(-426.352 -408.779)" fill="none" stroke="#c43945" stroke-linecap="round" stroke-linejoin="round" stroke-miterlimit="10" stroke-width="2"/>
              </g>
            </g>
            <g id="Grupo_1201355" data-name="Grupo 1201355" transform="translate(0 32.876)">
              <path id="Trazado_1075254" data-name="Trazado 1075254" d="M40.046,387.176c-4.319-10.258-10.259-32.338-7.257-39.156s13.955-13.582,22.728-15.451,29.348-.256,28.278,6.441-17.089,7.891-19.448,9.283,23.229-4.71,25.614,3.923S73.2,365.485,73.2,365.485s19.542-5.171,18.689,5.007-11.348,10.268-11.348,10.268,9.038-.694,7.618,5.848-28.03,17.064-37.391,13.253C43.76,396.94,41.283,390.114,40.046,387.176Z" transform="translate(-31.974 -331.845)" fill="#ffa382"/>
              <g id="Grupo_1201354" data-name="Grupo 1201354" transform="translate(16.283 17.196)">
                <path id="Trazado_1075255" data-name="Trazado 1075255" d="M48.1,351.34a41.744,41.744,0,0,1,16.721-2.389" transform="translate(-48.096 -348.871)" fill="none" stroke="#c43945" stroke-linecap="round" stroke-linejoin="round" stroke-miterlimit="10" stroke-width="2"/>
                <path id="Trazado_1075256" data-name="Trazado 1075256" d="M51.753,370.339l20.625-4.071" transform="translate(-48.059 -348.697)" fill="none" stroke="#c43945" stroke-linecap="round" stroke-linejoin="round" stroke-miterlimit="10" stroke-width="2"/>
                <path id="Trazado_1075257" data-name="Trazado 1075257" d="M54.2,386.436a136.657,136.657,0,0,0,26.835-5.845" transform="translate(-48.035 -348.554)" fill="none" stroke="#c43945" stroke-linecap="round" stroke-linejoin="round" stroke-miterlimit="10" stroke-width="2"/>
              </g>
            </g>
          </g>
        </g>
      </g>
    </g>
  </g>
</svg>
