<svg xmlns="http://www.w3.org/2000/svg" xmlns:xlink="http://www.w3.org/1999/xlink" width="108" height="108" viewBox="0 0 108 108">
  <defs>
    <filter id="Trazado_978624" x="0" y="0" width="108" height="108" filterUnits="userSpaceOnUse">
      <feOffset dy="3" input="SourceAlpha"/>
      <feGaussianBlur stdDeviation="3" result="blur"/>
      <feFlood flood-opacity="0.161"/>
      <feComposite operator="in" in2="blur"/>
      <feComposite in="SourceGraphic"/>
    </filter>
  </defs>
  <g id="Grupo_1200660" data-name="Grupo 1200660" transform="translate(-616 -486)">
    <g id="Grupo_1181203" data-name="Grupo 1181203" transform="translate(625 492)">
      <g id="Grupo_1172348" data-name="Grupo 1172348" transform="translate(0)">
        <g id="Grupo_1171897" data-name="Grupo 1171897">
          <g id="Grupo_1171052" data-name="Grupo 1171052">
            <g id="Grupo_1164581" data-name="Grupo 1164581">
              <g id="Grupo_1144123" data-name="Grupo 1144123">
                <g transform="matrix(1, 0, 0, 1, -9, -6)" filter="url(#Trazado_978624)">
                  <g id="Trazado_978624-2" data-name="Trazado 978624" transform="translate(9 6)" fill="#fdfbec">
                    <path d="M 45 88.5 C 39.12687683105469 88.5 33.43022537231445 87.35007476806641 28.06830024719238 85.08217620849609 C 22.88852500915527 82.89131164550781 18.23629951477051 79.75458526611328 14.2408504486084 75.75914764404297 C 10.24541282653809 71.76370239257812 7.108687400817871 67.11147308349609 4.917825222015381 61.93170166015625 C 2.649924993515015 56.56977462768555 1.5 50.87312316894531 1.5 45 C 1.5 39.12687683105469 2.649924993515015 33.43022537231445 4.917825222015381 28.06830024719238 C 7.108687400817871 22.88852500915527 10.24541282653809 18.23629951477051 14.2408504486084 14.2408504486084 C 18.23629951477051 10.24541282653809 22.88852500915527 7.108687400817871 28.06830024719238 4.917825222015381 C 33.43022537231445 2.649924993515015 39.12687683105469 1.5 45 1.5 C 50.87312316894531 1.5 56.56977462768555 2.649924993515015 61.93170166015625 4.917825222015381 C 67.11147308349609 7.108687400817871 71.76370239257812 10.24541282653809 75.75914764404297 14.2408504486084 C 79.75458526611328 18.23629951477051 82.89131164550781 22.88852500915527 85.08217620849609 28.06830024719238 C 87.35007476806641 33.43022537231445 88.5 39.12687683105469 88.5 45 C 88.5 50.87312316894531 87.35007476806641 56.56977462768555 85.08217620849609 61.93170166015625 C 82.89131164550781 67.11147308349609 79.75458526611328 71.76370239257812 75.75914764404297 75.75914764404297 C 71.76370239257812 79.75458526611328 67.11147308349609 82.89131164550781 61.93170166015625 85.08217620849609 C 56.56977462768555 87.35007476806641 50.87312316894531 88.5 45 88.5 Z" stroke="none"/>
                    <path d="M 45 3 C 39.32871246337891 3 33.82865524291992 4.110054016113281 28.65262985229492 6.299339294433594 C 23.65165710449219 8.414573669433594 19.15968322753906 11.44334411621094 15.301513671875 15.301513671875 C 11.44334411621094 19.15968322753906 8.414573669433594 23.65165710449219 6.299339294433594 28.65262985229492 C 4.110054016113281 33.82865524291992 3 39.32871246337891 3 45 C 3 50.67128753662109 4.110054016113281 56.17134475708008 6.299339294433594 61.34737396240234 C 8.414573669433594 66.34834289550781 11.44334411621094 70.84031677246094 15.301513671875 74.698486328125 C 19.15968322753906 78.55665588378906 23.65165710449219 81.58542633056641 28.65262985229492 83.70066070556641 C 33.82865524291992 85.88994598388672 39.32871246337891 87 45 87 C 50.67128753662109 87 56.17134475708008 85.88994598388672 61.34737396240234 83.70066070556641 C 66.34834289550781 81.58542633056641 70.84031677246094 78.55665588378906 74.698486328125 74.698486328125 C 78.55665588378906 70.84031677246094 81.58542633056641 66.34834289550781 83.70066070556641 61.34737396240234 C 85.88994598388672 56.17134475708008 87 50.67128753662109 87 45 C 87 39.32871246337891 85.88994598388672 33.82865524291992 83.70066070556641 28.65262985229492 C 81.58542633056641 23.65165710449219 78.55665588378906 19.15968322753906 74.698486328125 15.301513671875 C 70.84031677246094 11.44334411621094 66.34834289550781 8.414573669433594 61.34737396240234 6.299339294433594 C 56.17134475708008 4.110054016113281 50.67128753662109 3 45 3 M 45 0 C 69.85281372070312 0 90 20.14718627929688 90 45 C 90 69.85281372070312 69.85281372070312 90 45 90 C 20.14718627929688 90 0 69.85281372070312 0 45 C 0 20.14718627929688 20.14718627929688 0 45 0 Z" stroke="none" fill="#84792b"/>
                  </g>
                </g>
              </g>
            </g>
          </g>
        </g>
      </g>
    </g>
    <g id="familia" transform="translate(641 482.123)">
      <g id="Grupo_1200658" data-name="Grupo 1200658" transform="translate(0.845 29.722)">
        <path id="Trazado_1045801" data-name="Trazado 1045801" d="M401.531,166.7c0,10.577-4.626,16.351-4.626,16.351l-7.883-8.176,7.112-8.253Z" transform="translate(-345.996 -151.93)" fill="#ed9b83"/>
        <path id="Trazado_1045802" data-name="Trazado 1045802" d="M35.395,256.114l5.224,11.964-5.224,12.79H7.5v-9.635a17.9,17.9,0,0,1,4.426-11.847,13.248,13.248,0,0,1,4.048-3.273H35.395Z" transform="translate(-7.501 -231.334)" fill="#a19cdd"/>
        <path id="Trazado_1045803" data-name="Trazado 1045803" d="M15.31,259.387a13.247,13.247,0,0,1,4.048-3.273H15.976a13.247,13.247,0,0,0-4.048,3.273A17.9,17.9,0,0,0,7.5,271.233v9.635h3.383v-9.635A17.9,17.9,0,0,1,15.31,259.387Z" transform="translate(-7.501 -231.334)" fill="#817cd0"/>
        <path id="Trazado_1045804" data-name="Trazado 1045804" d="M283,271.233v9.635H254.851V256.114H274.53a13.262,13.262,0,0,1,4.049,3.273A17.9,17.9,0,0,1,283,271.233Z" transform="translate(-226.957 -231.334)" fill="#f9f097"/>
        <path id="Trazado_1045805" data-name="Trazado 1045805" d="M267.611,51.14a14.766,14.766,0,0,0-29.531,0Z" transform="translate(-212.077 -36.374)" fill="#ed9b83"/>
        <path id="Trazado_1045806" data-name="Trazado 1045806" d="M254.537,36.471A14.764,14.764,0,0,0,238.08,51.14h3.383A14.786,14.786,0,0,1,254.537,36.471Z" transform="translate(-212.077 -36.374)" fill="#e27858"/>
        <circle id="Elipse_13450" data-name="Elipse 13450" cx="3.066" cy="3.066" r="3.066" transform="translate(49.916 12.764)" fill="#ffd3bc"/>
        <path id="Trazado_1045807" data-name="Trazado 1045807" d="M272.295,94.167s-1.865,3.528-11.793,6.182a12.188,12.188,0,0,0-.176,2.066c0,1.3-.381,2.682,0,3.858,1.574,4.859,6.723,8.248,12.107,8.248a12.112,12.112,0,0,0,11.943-14.1C274.194,97.763,272.295,94.167,272.295,94.167Z" transform="translate(-231.664 -87.649)" fill="#ffdcce"/>
        <path id="Trazado_1045808" data-name="Trazado 1045808" d="M41.58,51.14a14.766,14.766,0,1,0-29.531,0Z" transform="translate(-11.536 -36.374)" fill="#5c586f"/>
        <path id="Trazado_1045809" data-name="Trazado 1045809" d="M28.507,36.47A14.764,14.764,0,0,0,12.05,51.139h3.383A14.786,14.786,0,0,1,28.507,36.47Z" transform="translate(-11.537 -36.373)" fill="#423e4f"/>
        <circle id="Elipse_13451" data-name="Elipse 13451" cx="3.066" cy="3.066" r="3.066" transform="translate(24.426 12.764)" fill="#ffd3bc"/>
        <path id="Trazado_1045810" data-name="Trazado 1045810" d="M59.676,101.993a12.03,12.03,0,0,0-.322-1.414c-.767-2.262-3.315-6.224-11.621-3.979-8.306-2.244-10.854,1.717-11.621,3.979a12.035,12.035,0,0,0-.322,1.414,12.107,12.107,0,1,0,23.886,0Z" transform="translate(-32.454 -89.217)" fill="#ffdcce"/>
        <path id="Trazado_1045811" data-name="Trazado 1045811" d="M14.053,103.99a12.19,12.19,0,0,1,.164-1.99,12.041,12.041,0,0,1,.322-1.414,6.576,6.576,0,0,1,5.53-4.527c-6.174-.784-8.237,2.532-8.913,4.527A12.036,12.036,0,0,0,10.834,102c-.089-.008-.179-.013-.27-.013a3.066,3.066,0,1,0,.792,6.027,12.115,12.115,0,0,0,13.112,7.964A12.109,12.109,0,0,1,14.053,103.99Z" transform="translate(-7.498 -89.224)" fill="#ffd3bc"/>
        <path id="Trazado_1045812" data-name="Trazado 1045812" d="M161.256,214.706a13.8,13.8,0,0,0-27.592,0Z" transform="translate(-119.436 -182.355)" fill="#5c586f"/>
        <path id="Trazado_1045813" data-name="Trazado 1045813" d="M149.151,201.013A13.8,13.8,0,0,0,133.664,214.7h3.383a13.816,13.816,0,0,1,12.1-13.692Z" transform="translate(-119.436 -182.354)" fill="#423e4f"/>
        <path id="Trazado_1045814" data-name="Trazado 1045814" d="M179.6,408.78c0-6.149-3.882-8.5-3.882-8.5H161.227s-3.882,2.348-3.882,8.5Z" transform="translate(-140.447 -359.244)" fill="#ff995d"/>
        <path id="Trazado_1045815" data-name="Trazado 1045815" d="M164.61,400.283h-3.383s-3.882,2.348-3.882,8.5h3.383C160.728,402.631,164.61,400.283,164.61,400.283Z" transform="translate(-140.447 -359.244)" fill="#ff7e27"/>
        <circle id="Elipse_13452" data-name="Elipse 13452" cx="2.864" cy="2.864" r="2.864" transform="translate(13.749 30.48)" fill="#ffd3bc"/>
        <circle id="Elipse_13453" data-name="Elipse 13453" cx="2.864" cy="2.864" r="2.864" transform="translate(36.571 30.48)" fill="#ffd3bc"/>
        <path id="Trazado_1045816" data-name="Trazado 1045816" d="M178.163,262.219a11.24,11.24,0,0,0-.3-1.321c-.717-2.114-3.1-5.815-10.858-3.718-7.76-2.1-10.141,1.6-10.858,3.718a11.215,11.215,0,0,0-.3,1.321,11.312,11.312,0,1,0,22.317,0Z" transform="translate(-138.981 -231.727)" fill="#ffdcce"/>
        <path id="Trazado_1045817" data-name="Trazado 1045817" d="M159.075,264.082a11.386,11.386,0,0,1,.153-1.859,11.248,11.248,0,0,1,.3-1.321,6.133,6.133,0,0,1,5.067-4.214c-5.864-.792-7.813,2.337-8.45,4.214a11.211,11.211,0,0,0-.3,1.321,11.319,11.319,0,0,0,12.85,13.044A11.314,11.314,0,0,1,159.075,264.082Z" transform="translate(-138.98 -231.731)" fill="#ffd3bc"/>
      </g>
      <g id="Grupo_1200659" data-name="Grupo 1200659" transform="translate(0 28.877)">
        <path id="Trazado_1045818" data-name="Trazado 1045818" d="M76,151.071a.846.846,0,0,0,.846-.846v-1.281a.846.846,0,0,0-1.692,0v1.281A.846.846,0,0,0,76,151.071Z" transform="translate(-66.677 -134.653)"/>
        <path id="Trazado_1045819" data-name="Trazado 1045819" d="M194.223,151.071a.846.846,0,0,0,.846-.846v-1.281a.846.846,0,0,0-1.692,0v1.281A.846.846,0,0,0,194.223,151.071Z" transform="translate(-171.57 -134.653)"/>
        <path id="Trazado_1045820" data-name="Trazado 1045820" d="M121.283,161.612a3.176,3.176,0,0,0,2.4-1.091.846.846,0,1,0-1.275-1.111,1.483,1.483,0,0,1-2.24,0,.846.846,0,1,0-1.275,1.111A3.177,3.177,0,0,0,121.283,161.612Z" transform="translate(-105.297 -144.432)"/>
        <path id="Trazado_1045821" data-name="Trazado 1045821" d="M302.026,151.071a.846.846,0,0,0,.846-.846v-1.281a.846.846,0,0,0-1.692,0v1.281A.846.846,0,0,0,302.026,151.071Z" transform="translate(-267.215 -134.653)"/>
        <path id="Trazado_1045822" data-name="Trazado 1045822" d="M420.251,151.071a.846.846,0,0,0,.846-.846v-1.281a.846.846,0,1,0-1.692,0v1.281A.846.846,0,0,0,420.251,151.071Z" transform="translate(-372.108 -134.653)"/>
        <path id="Trazado_1045823" data-name="Trazado 1045823" d="M347.312,161.612a3.176,3.176,0,0,0,2.4-1.091.846.846,0,0,0-1.275-1.111,1.483,1.483,0,0,1-2.24,0,.846.846,0,1,0-1.275,1.111A3.176,3.176,0,0,0,347.312,161.612Z" transform="translate(-305.836 -144.432)"/>
        <path id="Trazado_1045824" data-name="Trazado 1045824" d="M192.975,304.8a.846.846,0,0,0-.846.846v1.2a.846.846,0,0,0,1.692,0v-1.2A.846.846,0,0,0,192.975,304.8Z" transform="translate(-170.462 -273.685)"/>
        <path id="Trazado_1045825" data-name="Trazado 1045825" d="M303.435,307.688a.846.846,0,0,0,.846-.846v-1.2a.846.846,0,1,0-1.692,0v1.2A.846.846,0,0,0,303.435,307.688Z" transform="translate(-268.466 -273.684)"/>
        <path id="Trazado_1045826" data-name="Trazado 1045826" d="M237.484,315.305a.846.846,0,0,0-1.193.082,1.331,1.331,0,0,1-2.009,0,.846.846,0,1,0-1.275,1.111,3.022,3.022,0,0,0,4.559,0A.846.846,0,0,0,237.484,315.305Z" transform="translate(-206.545 -282.82)"/>
        <path id="Trazado_1045827" data-name="Trazado 1045827" d="M56.893,80.1a.846.846,0,0,0,.846-.846V69.621a19.217,19.217,0,0,0-.18-2.613.846.846,0,1,0-1.676.231,17.516,17.516,0,0,1,.164,2.383v8.79H40.814a10.949,10.949,0,0,0-3.4-7.7,12.2,12.2,0,0,0,2.666-3.94,3.713,3.713,0,0,0,3.4-5.572,14.566,14.566,0,0,0-.739-3.806,12.894,12.894,0,0,0,5.719-1.909,14.578,14.578,0,0,1,4.015,3.634,16.752,16.752,0,0,1,2.671,4.993.846.846,0,1,0,1.6-.537,18.459,18.459,0,0,0-2.616-5.065,30.349,30.349,0,0,0,2.942-10.786,3.9,3.9,0,0,0,.117-4.152,15.6,15.6,0,0,0-28.324-8.086,15.791,15.791,0,0,0-1.946-2.256,15.59,15.59,0,0,0-17.367-2.9.846.846,0,0,0,.714,1.534A13.929,13.929,0,0,1,29.8,41.926a3.989,3.989,0,0,0-1.038-.262,7.4,7.4,0,0,0-3.592-5c-2.259-1.266-5.3-1.413-9.051-.437C7.117,33.885,4.438,38.644,3.7,40.813c-.055.163-.186.7-.221.851a4.015,4.015,0,0,0-1.04.263,13.921,13.921,0,0,1,5.178-8.45A.846.846,0,0,0,6.585,32.14,15.591,15.591,0,0,0,.543,43.568a3.916,3.916,0,0,0,3.62,5.887,13.015,13.015,0,0,0,3.642,4.952,16.377,16.377,0,0,0-3.167,2.809A18.725,18.725,0,0,0,0,69.621v9.636a.846.846,0,0,0,.846.846ZM36.126,71.827a9.2,9.2,0,0,1,3,6.585H18.617a9.14,9.14,0,0,1,2.994-6.586A12.163,12.163,0,0,0,36.126,71.827ZM17.08,65.049a2.018,2.018,0,0,1-.335-3.871c-.021.288-.033.624-.033.894a12.347,12.347,0,0,0,.368,2.976ZM37.829,52.732a13.074,13.074,0,0,1,1.895,2.283,13.381,13.381,0,0,1,1.03,1.915,12.966,12.966,0,0,1,.827,2.661,3.8,3.8,0,0,0-.853-.208,6.944,6.944,0,0,0-3.374-4.666c-2.515-1.41-5.693-1.142-8.484-.417-8.317-2.16-10.886,2.142-11.625,4.224-.083.234-.181.631-.233.86a3.79,3.79,0,0,0-.853.208A12.957,12.957,0,0,1,37.829,52.732ZM29.5,47.446c-.28-.012-.524-.016-.757-.013a13.024,13.024,0,0,0,.3-3.987,2.221,2.221,0,0,1,.461,4Zm11.98-9.85c2.612,2.741,7.668,4.581,11.321,5.575A11.271,11.271,0,0,1,42.071,55.739a14.676,14.676,0,0,0-10.456-8.05,3.92,3.92,0,0,0,.093-4.124c-.015-.25-.042-.563-.071-.824,3.232-.988,7.5-2.691,9.839-5.147ZM55.62,44.245a2.221,2.221,0,0,1-1.468,3.5,13.04,13.04,0,0,0,.372-4.3A2.664,2.664,0,0,1,55.62,44.245ZM23.436,71.015a10.473,10.473,0,0,1-5.021-8.463c-.293-6.39,4.094-8.219,10.234-6.56a.844.844,0,0,0,.441,0c6.179-1.67,10.526.183,10.234,6.56a10.474,10.474,0,0,1-15.887,8.463Zm17.223-5.966a12.319,12.319,0,0,0,.368-2.976c0-.34-.018-.7-.033-.894a2.018,2.018,0,0,1-.335,3.871Zm12.3-7.994a16.507,16.507,0,0,0-3.02-2.646,13.166,13.166,0,0,0,3.641-4.954,3.976,3.976,0,0,0,1.626-.24,28.463,28.463,0,0,1-2.247,7.84ZM41.614,30.569A13.947,13.947,0,0,1,55.3,41.927a3.952,3.952,0,0,0-1.658-.282A35.346,35.346,0,0,1,45.83,38.69c-2.949-1.616-3.645-2.937-3.736-3.04a.822.822,0,0,0-1.148-.086.934.934,0,0,0-.222.287c-.126.2-1.353,1.975-5.69,3.858a36.775,36.775,0,0,1-3.678,1.35,15.471,15.471,0,0,0-1.5-4,13.993,13.993,0,0,1,11.762-6.485ZM3.587,47.748a2.219,2.219,0,0,1-.372-4.3,13.056,13.056,0,0,0,.372,4.3Zm1.724-6.408c1.71-5,7.369-4.289,10.594-3.417a.846.846,0,0,0,.441,0c4.439-1.2,9.093-.972,10.593,3.417a11.283,11.283,0,0,1,.019,6.217,14.67,14.67,0,0,0-11.29,8.183A11.274,11.274,0,0,1,5.311,41.339ZM1.692,69.621A17.035,17.035,0,0,1,5.907,58.335a13.934,13.934,0,0,1,3.368-2.852,12.894,12.894,0,0,0,5.719,1.909,14.6,14.6,0,0,0-.739,3.806,3.712,3.712,0,0,0,3.4,5.572,12.2,12.2,0,0,0,2.673,3.947,10.989,10.989,0,0,0-3.4,7.694H1.692Z" transform="translate(0 -28.877)"/>
      </g>
    </g>
  </g>
</svg>
