<svg xmlns="http://www.w3.org/2000/svg" xmlns:xlink="http://www.w3.org/1999/xlink" width="103" height="103" viewBox="0 0 103 103">
  <defs>
    <filter id="Trazado_978624" x="0" y="0" width="103" height="103" filterUnits="userSpaceOnUse">
      <feOffset dy="3" input="SourceAlpha"/>
      <feGaussianBlur stdDeviation="3" result="blur"/>
      <feFlood flood-opacity="0.161"/>
      <feComposite operator="in" in2="blur"/>
      <feComposite in="SourceGraphic"/>
    </filter>
  </defs>
  <g id="Grupo_1201070" data-name="Grupo 1201070" transform="translate(-215 -5193)">
    <g id="Grupo_1183381" data-name="Grupo 1183381" transform="translate(0 -1981)">
      <g id="Grupo_1174730" data-name="Grupo 1174730" transform="translate(224 7185)">
        <g id="Grupo_1173798" data-name="Grupo 1173798" transform="translate(0 -5)">
          <g id="Grupo_1171925" data-name="Grupo 1171925">
            <g id="Grupo_1164524" data-name="Grupo 1164524">
              <g id="Grupo_1144123" data-name="Grupo 1144123">
                <g transform="matrix(1, 0, 0, 1, -9, -6)" filter="url(#Trazado_978624)">
                  <g id="Trazado_978624-2" data-name="Trazado 978624" transform="translate(9 6)" fill="#ebe9f0">
                    <path d="M 42.5 83.5 C 36.96437835693359 83.5 31.59512901306152 82.41617584228516 26.54141235351562 80.27863311767578 C 21.65934181213379 78.21369171142578 17.27447128295898 75.25723266601562 13.50862312316895 71.49137878417969 C 9.742764472961426 67.72553253173828 6.786305904388428 63.34066009521484 4.721364498138428 58.45858764648438 C 2.583823442459106 53.40486907958984 1.5 48.03562164306641 1.5 42.5 C 1.5 36.96437835693359 2.583823442459106 31.59512901306152 4.721364498138428 26.54141235351562 C 6.786305904388428 21.65934181213379 9.742764472961426 17.27447128295898 13.50862312316895 13.50862312316895 C 17.27447128295898 9.742764472961426 21.65934181213379 6.786305904388428 26.54141235351562 4.721364498138428 C 31.59512901306152 2.583823442459106 36.96437835693359 1.5 42.5 1.5 C 48.03562164306641 1.5 53.40486907958984 2.583823442459106 58.45858764648438 4.721364498138428 C 63.34066009521484 6.786305904388428 67.72553253173828 9.742764472961426 71.49137878417969 13.50862312316895 C 75.25723266601562 17.27447128295898 78.21369171142578 21.65934181213379 80.27863311767578 26.54141235351562 C 82.41617584228516 31.59512901306152 83.5 36.96437835693359 83.5 42.5 C 83.5 48.03562164306641 82.41617584228516 53.40486907958984 80.27863311767578 58.45858764648438 C 78.21369171142578 63.34066009521484 75.25723266601562 67.72553253173828 71.49137878417969 71.49137878417969 C 67.72553253173828 75.25723266601562 63.34066009521484 78.21369171142578 58.45858764648438 80.27863311767578 C 53.40486907958984 82.41617584228516 48.03562164306641 83.5 42.5 83.5 Z" stroke="none"/>
                    <path d="M 42.5 3 C 37.16621398925781 3 31.99356079101562 4.043960571289062 27.125732421875 6.102882385253906 C 22.42246627807617 8.092185974121094 18.19785308837891 10.94070434570312 14.56928253173828 14.56928253173828 C 10.94070434570312 18.19785308837891 8.092185974121094 22.42246627807617 6.102882385253906 27.125732421875 C 4.043960571289062 31.99356079101562 3 37.16621398925781 3 42.5 C 3 47.83378601074219 4.043960571289062 53.00643920898438 6.102882385253906 57.87425231933594 C 8.092185974121094 62.57753372192383 10.94070434570312 66.80213165283203 14.56928253173828 70.43071746826172 C 18.19786834716797 74.05929565429688 22.42246627807617 76.90781402587891 27.125732421875 78.89711761474609 C 31.99356079101562 80.95603942871094 37.16621398925781 82 42.5 82 C 47.83378601074219 82 53.00642395019531 80.95603942871094 57.87425231933594 78.89711761474609 C 62.57753372192383 76.90781402587891 66.80213165283203 74.05929565429688 70.43071746826172 70.43071746826172 C 74.05929565429688 66.80213165283203 76.90781402587891 62.57753372192383 78.89711761474609 57.87425231933594 C 80.95603942871094 53.00642395019531 82 47.83378601074219 82 42.5 C 82 37.16621398925781 80.95603942871094 31.99356079101562 78.89711761474609 27.125732421875 C 76.90781402587891 22.42246627807617 74.05929565429688 18.19786834716797 70.43071746826172 14.56928253173828 C 66.80213165283203 10.94070434570312 62.57753372192383 8.092185974121094 57.87425231933594 6.102882385253906 C 53.00643920898438 4.043960571289062 47.83378601074219 3 42.5 3 M 42.5 0 C 65.97209167480469 0 85 19.02789306640625 85 42.5 C 85 65.97209167480469 65.97209167480469 85 42.5 85 C 19.02789306640625 85 0 65.97209167480469 0 42.5 C 0 19.02789306640625 19.02789306640625 0 42.5 0 Z" stroke="none" fill="#c6c0d6"/>
                  </g>
                </g>
              </g>
            </g>
          </g>
        </g>
      </g>
    </g>
    <g id="bloques_2_" data-name="bloques (2)" transform="translate(238.002 5186.662)">
      <g id="Grupo_1201068" data-name="Grupo 1201068" transform="translate(0.833 30.472)">
        <path id="Trazado_1074682" data-name="Trazado 1074682" d="M235.68,315.678H224.761v6.169H235.68a3.085,3.085,0,1,0,0-6.169Z" transform="translate(-200.574 -284.668)" fill="#ffcabd"/>
        <path id="Trazado_1074683" data-name="Trazado 1074683" d="M11.2,291.239a3.085,3.085,0,1,0-1.232,6.045l10.7,2.181L21.9,293.42Z" transform="translate(-7.5 -262.894)" fill="#ffdcce"/>
        <path id="Trazado_1074684" data-name="Trazado 1074684" d="M106.477,325.285c0-6.825-3.517-9.608-3.517-9.608H88.637s-3.517,2.783-3.517,9.608L95.8,328.557Z" transform="translate(-76.479 -284.668)" fill="#7de2ff"/>
        <path id="Trazado_1074685" data-name="Trazado 1074685" d="M233.125,396.921l-1.806,4.339,1.806,4.339h2.13a4.339,4.339,0,1,0,0-8.677h-2.13Z" transform="translate(-206.402 -356.867)" fill="#696eb1"/>
        <path id="Trazado_1074686" data-name="Trazado 1074686" d="M167.721,401.26a4.338,4.338,0,0,0,4.338,4.339h4.548v-8.677h-4.548A4.339,4.339,0,0,0,167.721,401.26Z" transform="translate(-149.884 -356.868)" fill="#ffdcce"/>
        <path id="Trazado_1074687" data-name="Trazado 1074687" d="M62.9,396.921,64.7,401.26,62.9,405.6h-2.13a4.339,4.339,0,1,1,0-8.677H62.9Z" transform="translate(-50.981 -356.867)" fill="#696eb1"/>
        <path id="Trazado_1074688" data-name="Trazado 1074688" d="M58.1,405.179a4.338,4.338,0,0,0,2.67,7.758H62.9l1.05-2.523C60.1,409.808,58.627,407.819,58.1,405.179Z" transform="translate(-50.982 -364.205)" fill="#4c5698"/>
        <path id="Trazado_1074689" data-name="Trazado 1074689" d="M123.422,401.26a4.338,4.338,0,0,1-4.338,4.339h-4.548v-8.677h4.548A4.339,4.339,0,0,1,123.422,401.26Z" transform="translate(-102.62 -356.868)" fill="#ffdcce"/>
        <path id="Trazado_1074690" data-name="Trazado 1074690" d="M19.239,55.6H15.225a18.461,18.461,0,0,1,18.46-18.461H44.623a4.447,4.447,0,0,1,4.447,4.447,6.731,6.731,0,0,1-3.448,5.875l-.629,1.386Z" transform="translate(-14.365 -37.135)" fill="#d5938c"/>
        <path id="Trazado_1074691" data-name="Trazado 1074691" d="M98.774,318.368a17.6,17.6,0,0,0,9.024,2.546h.135a17.675,17.675,0,0,0,9.164-2.535,8.653,8.653,0,0,0-2-2.7H100.771A8.642,8.642,0,0,0,98.774,318.368Z" transform="translate(-88.613 -284.668)" fill="#2ecffb"/>
        <path id="Trazado_1074692" data-name="Trazado 1074692" d="M35.066,37.136H33.685A18.461,18.461,0,0,0,15.225,55.6h4.014l4.224-1.107A19.148,19.148,0,0,1,35.066,37.136Z" transform="translate(-14.365 -37.136)" fill="#cd847b"/>
        <path id="Trazado_1074693" data-name="Trazado 1074693" d="M79.908,135.235a14.349,14.349,0,0,0-2.248-5.381,6.685,6.685,0,0,1-3.279.852H58.37a7.091,7.091,0,0,0-7.088,6.909q0,.09,0,.18a14.447,14.447,0,1,0,28.629-2.561Z" transform="translate(-46.404 -119.532)" fill="#ffdcce"/>
        <path id="Trazado_1074694" data-name="Trazado 1074694" d="M24.935,160.9a19.166,19.166,0,0,1-6.221-21.174,7.107,7.107,0,0,0-4.482,3.658,3.98,3.98,0,0,0-.874-.092,4.621,4.621,0,0,0,0,9.242,3.708,3.708,0,0,0,1.241-.2A14.544,14.544,0,0,0,24.935,160.9Z" transform="translate(-8.599 -128.3)" fill="#ffcabd"/>
        <g id="Grupo_1201067" data-name="Grupo 1201067" transform="translate(6.831 19.281)">
          <g id="Grupo_1201066" data-name="Grupo 1201066">
            <g id="Grupo_1201064" data-name="Grupo 1201064">
              <ellipse id="Elipse_13492" data-name="Elipse 13492" cx="3.366" cy="2.681" rx="3.366" ry="2.681" fill="#ff8d9d"/>
            </g>
            <g id="Grupo_1201065" data-name="Grupo 1201065" transform="translate(18.247)">
              <ellipse id="Elipse_13493" data-name="Elipse 13493" cx="3.366" cy="2.681" rx="3.366" ry="2.681" fill="#ff8d9d"/>
            </g>
          </g>
        </g>
        <path id="Trazado_1074695" data-name="Trazado 1074695" d="M404.89,210.714l-3.73-5.673-3.73,5.673a2.361,2.361,0,0,0-2.361,2.361v7.46a2.361,2.361,0,0,0,2.361,2.361l3.73,6.46,3.73-6.46a2.361,2.361,0,0,0,2.361-2.361v-7.46A2.361,2.361,0,0,0,404.89,210.714Z" transform="translate(-351.921 -186.348)" fill="#c8a9f1"/>
        <path id="Trazado_1074696" data-name="Trazado 1074696" d="M404.89,37.135h-7.46a2.361,2.361,0,0,0-2.361,2.361v7.46a2.361,2.361,0,0,0,2.361,2.361l3.73,6.51,3.73-6.51a2.361,2.361,0,0,0,2.361-2.361V39.5a2.361,2.361,0,0,0-2.361-2.361Z" transform="translate(-351.921 -37.135)" fill="#ff8d9d"/>
        <path id="Trazado_1074697" data-name="Trazado 1074697" d="M404.89,146.568h-7.46a2.361,2.361,0,0,0-2.361,2.361v7.46a2.361,2.361,0,0,0,2.361,2.361h7.46a2.361,2.361,0,0,0,2.361-2.361v-7.46A2.361,2.361,0,0,0,404.89,146.568Z" transform="translate(-351.921 -134.385)" fill="#71dbba"/>
        <path id="Trazado_1074698" data-name="Trazado 1074698" d="M404.89,365.432h-7.46a2.361,2.361,0,0,0-2.361,2.361v7.46a2.361,2.361,0,0,0,2.361,2.361h7.46a2.361,2.361,0,0,0,2.361-2.361v-7.46A2.361,2.361,0,0,0,404.89,365.432Z" transform="translate(-351.921 -328.883)" fill="#fce29f"/>
        <path id="Trazado_1074699" data-name="Trazado 1074699" d="M118.3,440.943a15.318,15.318,0,0,1-3.763-.406v2.736h4.548a4.338,4.338,0,0,0,4.32-3.958A8.789,8.789,0,0,1,118.3,440.943Z" transform="translate(-102.62 -394.542)" fill="#ffcabd"/>
        <path id="Trazado_1074700" data-name="Trazado 1074700" d="M398.278,370.069a8.851,8.851,0,0,1,1.3-4.636h-2.153a2.361,2.361,0,0,0-2.361,2.361v7.46a2.361,2.361,0,0,0,2.361,2.361h5.039A8.885,8.885,0,0,1,398.278,370.069Z" transform="translate(-351.92 -328.884)" fill="#ffcd71"/>
        <path id="Trazado_1074701" data-name="Trazado 1074701" d="M398.278,260.637a8.851,8.851,0,0,1,1.3-4.636h-2.153a2.361,2.361,0,0,0-2.361,2.361v7.46a2.361,2.361,0,0,0,2.361,2.361h5.039A8.885,8.885,0,0,1,398.278,260.637Z" transform="translate(-351.92 -231.635)" fill="#b18ae3"/>
        <path id="Trazado_1074702" data-name="Trazado 1074702" d="M398.278,151.2a8.851,8.851,0,0,1,1.3-4.636h-2.153a2.361,2.361,0,0,0-2.361,2.361v7.46a2.361,2.361,0,0,0,2.361,2.361h5.039A8.885,8.885,0,0,1,398.278,151.2Z" transform="translate(-351.92 -134.385)" fill="#30cc9b"/>
        <path id="Trazado_1074703" data-name="Trazado 1074703" d="M398.278,41.772a8.851,8.851,0,0,1,1.3-4.636h-2.153a2.361,2.361,0,0,0-2.361,2.361v7.46a2.361,2.361,0,0,0,2.361,2.361h5.039A8.885,8.885,0,0,1,398.278,41.772Z" transform="translate(-351.92 -37.136)" fill="#e95b70"/>
      </g>
      <g id="Grupo_1201069" data-name="Grupo 1201069" transform="translate(-0.002 29.637)">
        <path id="Trazado_1074704" data-name="Trazado 1074704" d="M109.218,192.2v1.376a.835.835,0,1,0,1.67,0V192.2a.835.835,0,1,0-1.67,0Z" transform="translate(-97.059 -173.357)"/>
        <path id="Trazado_1074705" data-name="Trazado 1074705" d="M237.873,192.2v1.376a.835.835,0,0,0,1.67,0V192.2a.835.835,0,0,0-1.67,0Z" transform="translate(-211.391 -173.357)"/>
        <path id="Trazado_1074706" data-name="Trazado 1074706" d="M160.567,203.64a1.667,1.667,0,0,1-2.517,0,.835.835,0,1,0-1.259,1.1,3.337,3.337,0,0,0,5.035,0,.835.835,0,1,0-1.259-1.1Z" transform="translate(-139.153 -184.014)"/>
        <path id="Trazado_1074707" data-name="Trazado 1074707" d="M398.224,29.637h-7.46a3.2,3.2,0,0,0-3.2,3.2v7.46a3.188,3.188,0,0,0,1.044,2.361,3.188,3.188,0,0,0-1.044,2.361v7.46a3.188,3.188,0,0,0,1.044,2.361,3.188,3.188,0,0,0-1.044,2.361v7.46a3.189,3.189,0,0,0,1.044,2.361,3.188,3.188,0,0,0-1.044,2.361v7.46a3.2,3.2,0,0,0,3.2,3.2h7.46a3.2,3.2,0,0,0,3.2-3.2v-7.46a3.188,3.188,0,0,0-1.044-2.361,3.189,3.189,0,0,0,1.044-2.361V57.2a3.188,3.188,0,0,0-1.044-2.361,3.188,3.188,0,0,0,1.044-2.361v-7.46a3.188,3.188,0,0,0-1.044-2.361,3.188,3.188,0,0,0,1.044-2.361v-7.46A3.2,3.2,0,0,0,398.224,29.637Zm1.526,39.745v7.46a1.528,1.528,0,0,1-1.526,1.526h-7.46a1.528,1.528,0,0,1-1.526-1.526v-7.46a1.528,1.528,0,0,1,1.526-1.526h7.46A1.528,1.528,0,0,1,399.751,69.382Zm0-12.183v7.46a1.528,1.528,0,0,1-1.526,1.526h-7.46a1.528,1.528,0,0,1-1.526-1.526V57.2a1.528,1.528,0,0,1,1.526-1.526h7.46a1.528,1.528,0,0,1,1.526,1.526Zm0-12.183v7.46A1.528,1.528,0,0,1,398.224,54h-7.46a1.528,1.528,0,0,1-1.526-1.526v-7.46a1.528,1.528,0,0,1,1.526-1.526h7.46A1.528,1.528,0,0,1,399.751,45.016Zm-8.987-3.2a1.528,1.528,0,0,1-1.526-1.526v-7.46a1.528,1.528,0,0,1,1.526-1.526h7.46a1.528,1.528,0,0,1,1.526,1.526v7.46a1.528,1.528,0,0,1-1.526,1.526h-7.46Z" transform="translate(-344.421 -29.637)"/>
        <path id="Trazado_1074708" data-name="Trazado 1074708" d="M8.668,70.075a5.173,5.173,0,0,0,1.951,9.964H17.3a5.141,5.141,0,0,0,2.854-.862,5.167,5.167,0,0,0,2.857.862h6.678a5.173,5.173,0,0,0,1.952-9.964c-.028-.558-.081-1.086-.151-1.589H35.94a3.92,3.92,0,0,0,0-7.839H29.973a15.512,15.512,0,0,0,2.259-2.352.835.835,0,1,0-1.319-1.024,13.581,13.581,0,0,1-17.478,3.487h0A13.64,13.64,0,0,1,6.577,49.9a7.163,7.163,0,0,1,.637-3.976h0A6.251,6.251,0,0,1,12.8,42.482H28.811a7.588,7.588,0,0,0,2.98-.611,13.423,13.423,0,0,1,1.726,4.462,13.776,13.776,0,0,1,.248,2.6A13.5,13.5,0,0,1,32.534,54.6a.835.835,0,1,0,1.518.7,15.157,15.157,0,0,0,1.383-6.359,15.457,15.457,0,0,0-.278-2.916,15.084,15.084,0,0,0-1.914-4.971,7.534,7.534,0,0,0,3.129-6.127,5.288,5.288,0,0,0-5.282-5.282H20.153a19.3,19.3,0,0,0-9.121,2.3.835.835,0,0,0,.792,1.47,17.619,17.619,0,0,1,8.329-2.1H31.091A3.616,3.616,0,0,1,34.7,34.92a5.891,5.891,0,0,1-5.892,5.892H12.8a7.9,7.9,0,0,0-6.786,3.829,5.467,5.467,0,0,0-3.117.694,17.446,17.446,0,0,1,1.062-3.358A17.775,17.775,0,0,1,9.114,35.2a.835.835,0,1,0-1.048-1.3,19.45,19.45,0,0,0-5.64,7.413A19.126,19.126,0,0,0,.933,47.244a5.453,5.453,0,0,0,5.419,8.239A15.313,15.313,0,0,0,8.48,58.769L4.7,58A3.92,3.92,0,0,0,3.136,65.68L9.117,66.9a17.315,17.315,0,0,0-.449,3.176Zm-1.553,4.79a3.509,3.509,0,0,1,3.5-3.5h1.295v7.007H10.62A3.508,3.508,0,0,1,7.116,74.865Zm6.469,3.5V71.362H17.3a3.5,3.5,0,0,1,0,7.007Zm7.836-.381a5.168,5.168,0,0,0,0-6.244,3.481,3.481,0,0,1,1.587-.382h3.713v7.007H23.008A3.5,3.5,0,0,1,21.421,77.988Zm11.77-3.123a3.508,3.508,0,0,1-3.5,3.5H28.392V71.362h1.295A3.508,3.508,0,0,1,33.191,74.865Zm-3.5-5.173H23.008a5.249,5.249,0,0,0-2.855.861,5.182,5.182,0,0,0-2.855-.861H10.585c-.073,0-.146,0-.22.005A12.28,12.28,0,0,1,13.136,62.5a15.155,15.155,0,0,0,6.9,1.71h0a15.254,15.254,0,0,0,7.141-1.7A12.22,12.22,0,0,1,29.941,69.7c-.072,0-.145,0-.217-.005h-.037Zm8.5-5.125a2.252,2.252,0,0,1-2.25,2.25H31.172a13.277,13.277,0,0,0-2.008-4.5H35.94a2.252,2.252,0,0,1,2.25,2.25Zm-32.6-10.7a3.785,3.785,0,0,1-.339-7.555,9.478,9.478,0,0,0-.346,3.641,15.162,15.162,0,0,0,.783,3.913ZM9.6,65.293,3.469,64.044a2.25,2.25,0,0,1,.9-4.409l6.34,1.293q.471.373.966.706A12.108,12.108,0,0,0,9.6,65.293Z" transform="translate(0.002 -29.638)"/>
      </g>
    </g>
  </g>
</svg>
