<svg xmlns="http://www.w3.org/2000/svg" xmlns:xlink="http://www.w3.org/1999/xlink" width="295" height="188" viewBox="0 0 295 188">
  <defs>
    <clipPath id="clip-path">
      <rect id="Rect치ngulo_416152" data-name="Rect치ngulo 416152" width="295" height="188" transform="translate(285 5399)" fill="#fff" stroke="#707070" stroke-width="1"/>
    </clipPath>
    <clipPath id="clip-path-2">
      <rect id="Rect치ngulo_416141" data-name="Rect치ngulo 416141" width="182.767" height="217.73"/>
    </clipPath>
  </defs>
  <g id="Enmascarar_grupo_1098851" data-name="Enmascarar grupo 1098851" transform="translate(-285 -5399)" clip-path="url(#clip-path)">
    <g id="Grupo_1201071" data-name="Grupo 1201071">
      <circle id="Elipse_13494" data-name="Elipse 13494" cx="118.5" cy="118.5" r="118.5" transform="translate(319 5465)" fill="#fdfbec"/>
      <g id="Grupo_1200626" data-name="Grupo 1200626" transform="translate(-31.643 5197.202)">
        <g id="Grupo_1200625" data-name="Grupo 1200625" transform="translate(390.568 171.971)" clip-path="url(#clip-path-2)">
          <path id="Trazado_1045730" data-name="Trazado 1045730" d="M476.539,237.557c-15.969-1.395-31.347,8.312-40.736,21.3s-13.782,28.87-17.234,44.523-6.2,31.656-12.915,46.213c-.648,1.405-1.346,2.977-.851,4.443a5.614,5.614,0,0,0,1.9,2.346A45.407,45.407,0,0,0,417,362.856l4.99-6.092c-1.72,1.816-1.654,4.817-.412,6.988a13.192,13.192,0,0,0,5.631,4.8,54.115,54.115,0,0,0,12.565,4.316,205,205,0,0,0,29.187,4.3c17.171,1.511,35,1.973,51.386-4.127q-.041-7.212-.082-14.425l2.595,12.688a1.546,1.546,0,0,0,1.888,1.58,99.971,99.971,0,0,0,15.754-.979,34.216,34.216,0,0,0,14.643-5.791c-6.847-20.6-13.749-41.46-15.339-63.11-.478-6.509-.475-13.08-1.691-19.492a55.75,55.75,0,0,0-23.632-35.225C502.441,240.182,487.445,236.778,476.539,237.557Z" transform="translate(-395.298 -193.979)" fill="#f1cb52"/>
          <path id="Trazado_1045731" data-name="Trazado 1045731" d="M502.733,409.79q-1.031,5.254-2.06,10.507a2.1,2.1,0,0,0-.007,1.16,2,2,0,0,0,.781.834,22.73,22.73,0,0,0,24.015,1.046,2.408,2.408,0,0,0,.948-.822,2.5,2.5,0,0,0,.228-1.149,70.171,70.171,0,0,0-.751-12.956C519.178,409.8,512.179,409.77,502.733,409.79Z" transform="translate(-427.561 -251.472)" fill="#f9d9c2"/>
          <path id="Trazado_1045732" data-name="Trazado 1045732" d="M503.379,409.79l-.872,4.449c6.855,2.99,17.584,2.99,24.432-2.676q-.167-1.581-.4-3.154C519.824,409.8,512.825,409.77,503.379,409.79Z" transform="translate(-428.207 -251.473)" fill="#753988" opacity="0.14"/>
          <path id="Trazado_1045733" data-name="Trazado 1045733" d="M431.057,305.539c-1.439,5.779-3.179,11.482-4.487,17.293-1.647,6.557-2.891,13.2-4.22,19.823-1.2,6.136-2.932,12.143-4.441,18.207-.813,3.279-1.6,6.565-2.555,9.806-.751,2.409-1.645,4.771-2.311,7.207-.06.376-.344.762-.235,1.134a.32.32,0,0,0,.583-.141c1.191-2.9,2.392-5.6,3.478-8.718,1.318-4,2.293-8.1,3.3-12.193,2.536-8.935,4.036-18.1,5.818-27.2,1.388-6.446,2.881-12.868,4.439-19.275.445-1.963.976-3.921,1.347-5.893A.367.367,0,0,0,431.057,305.539Z" transform="translate(-398.038 -216.796)" fill="#e8b638"/>
          <path id="Trazado_1045734" data-name="Trazado 1045734" d="M432.675,373.418a91.638,91.638,0,0,1-5.122,24.989c-.579,1.422-1.612,3.035-2.036,4.224a.3.3,0,0,0,.562.19c3-4.036,4.521-9.442,5.68-14.433a85.153,85.153,0,0,0,2.005-14.97A.545.545,0,0,0,432.675,373.418Z" transform="translate(-402.317 -239.529)" fill="#e8b638"/>
          <path id="Trazado_1045735" data-name="Trazado 1045735" d="M445.614,391.557c-1.23,3.074-1.765,6.377-2.595,9.573a89.6,89.6,0,0,0-1.869,9.188,21.806,21.806,0,0,0-.479,4.153.482.482,0,0,0,.782.155c.223-.324.1-.224.17-.544.744-5.8,2.226-12.718,3.693-18.912a24.674,24.674,0,0,1,1-3.319A.383.383,0,0,0,445.614,391.557Z" transform="translate(-407.411 -245.744)" fill="#e8b638"/>
          <path id="Trazado_1045736" data-name="Trazado 1045736" d="M456.056,401.441a.478.478,0,0,0-.867.113,213.423,213.423,0,0,0-4.487,22.123.4.4,0,1,0,.771.185c1.262-6.4,2.416-12.826,3.9-19.18.221-.964.485-1.918.729-2.876A.475.475,0,0,0,456.056,401.441Z" transform="translate(-410.782 -249.052)" fill="#e8b638"/>
          <path id="Trazado_1045737" data-name="Trazado 1045737" d="M469.458,406.982c-1.033,3.979-1.389,8.108-2.028,12.164-.384,2.729-.746,5.463-.95,8.212,0,.275-.123.6.1.824.959.577.779-.972.9-1.389.6-4.315,1.286-9.243,2.073-14.216.261-1.854.662-3.7,1.068-5.515A.6.6,0,0,0,469.458,406.982Z" transform="translate(-416.082 -250.849)" fill="#e8b638"/>
          <path id="Trazado_1045738" data-name="Trazado 1045738" d="M481.54,410.6a.342.342,0,0,0-.666-.045c-.869,6.109-1.288,12.287-1.739,18.442.036.485-.187,1.118.025,1.543a.307.307,0,0,0,.477-.061c.609-6.315.97-12.68,1.758-18.986A8.343,8.343,0,0,0,481.54,410.6Z" transform="translate(-420.326 -252.111)" fill="#e8b638"/>
          <g id="Grupo_1200614" data-name="Grupo 1200614" transform="translate(109.259 157.009)">
            <path id="Trazado_1045739" data-name="Trazado 1045739" d="M557.3,439.563s0-.009,0-.015,0,0,0,0C557.3,439.594,557.294,439.634,557.3,439.563Z" transform="translate(-555.89 -418.952)" fill="#e8b638"/>
            <path id="Trazado_1045740" data-name="Trazado 1045740" d="M557.31,439.537c0-.007,0-.011,0-.018S557.312,439.524,557.31,439.537Z" transform="translate(-555.894 -418.941)" fill="#e8b638"/>
            <path id="Trazado_1045741" data-name="Trazado 1045741" d="M556.591,411.461q-.065-1.159-.155-2.317a.63.63,0,0,0-1.26,0c.654,6.629.449,13.669.672,19.952a.372.372,0,0,0,.743.022c0-.018,0-.036.007-.048A122.2,122.2,0,0,0,556.591,411.461Z" transform="translate(-555.176 -408.518)" fill="#e8b638"/>
          </g>
          <path id="Trazado_1045742" data-name="Trazado 1045742" d="M565.56,410.245c-.2-1.772-.325-3.564-.528-5.329a.451.451,0,0,0-.864.174c.745,7.388,1.393,14.78,1.552,22.207-.076.423.542.548.564.089A104.311,104.311,0,0,0,565.56,410.245Z" transform="translate(-448.941 -250.208)" fill="#e8b638"/>
          <path id="Trazado_1045743" data-name="Trazado 1045743" d="M583.413,397.247c-.289-1.663-.415-3.4-.85-5.019a.459.459,0,0,0-.8.4c1.476,8.466,2.155,18.306,3.4,26.31a.326.326,0,1,0,.651-.041C585.3,411.657,584.286,404.451,583.413,397.247Z" transform="translate(-454.849 -245.972)" fill="#e8b638"/>
          <path id="Trazado_1045744" data-name="Trazado 1045744" d="M594.424,415.312c-.489-10.8-1.346-21.568-2.725-32.291-.067-.906-.147-1.813-.145-2.721a.6.6,0,1,0-1.2,0c.139,5.083,1.12,10.1,1.529,15.163.633,6.6.951,13.7,1.868,20.034C593.81,416.055,594.586,415.869,594.424,415.312Z" transform="translate(-457.746 -241.821)" fill="#e8b638"/>
          <path id="Trazado_1045745" data-name="Trazado 1045745" d="M606.9,411.474c-.782-7.8-2.824-16.735-3.6-24.342-.515-3.874-.526-7.869-1.541-11.648a.444.444,0,0,0-.776.386c.883,4.12.928,8.617,1.494,13.09q1.355,11.29,3.574,22.453C606.11,412.422,607.081,412.251,606.9,411.474Z" transform="translate(-461.315 -240.344)" fill="#e8b638"/>
          <path id="Trazado_1045746" data-name="Trazado 1045746" d="M617.286,407.776a54.172,54.172,0,0,1-3-12.16,106.32,106.32,0,0,0-3.144-15.963c-.347-1.241-.718-2.476-1.137-3.7a.545.545,0,0,0-1.05.29,98.276,98.276,0,0,1,3.83,15.837c.747,4.92,1.424,9.892,3.435,14.489a8.362,8.362,0,0,0,.692,1.555A.269.269,0,0,0,617.286,407.776Z" transform="translate(-463.993 -240.426)" fill="#e8b638"/>
          <path id="Trazado_1045747" data-name="Trazado 1045747" d="M538.691,332.551C530.975,345,517.624,353.569,503.253,356.4s-29.594.139-42.632-6.539c-7.2-3.688-13.964-8.751-18.036-15.741s-5.021-16.15-.936-23.134a33.079,33.079,0,0,0,2.291-3.965,17.883,17.883,0,0,0,.958-6.13c.37-9.214,1-18.582,4.267-27.205a47.073,47.073,0,0,1,23.229-25.4,48.262,48.262,0,0,1,34.015-2.848,49.043,49.043,0,0,1,24.173,15.209,42.468,42.468,0,0,1,5.832,8.641c5.38,10.72,4.665,24.575,4.5,36.568,1.462-1.954,5.6-5.205,10.481-3.582,9.781,3.255,7.67,15.923,4.044,21.439S544.939,332.182,538.691,332.551Z" transform="translate(-406.859 -196.05)" fill="#f9d9c2"/>
          <path id="Trazado_1045748" data-name="Trazado 1045748" d="M581.152,242.2a46.906,46.906,0,0,1,46.907-20.369c2.471.416,5.052,1.111,6.776,2.928a11.346,11.346,0,0,1,2.429,5,36.885,36.885,0,0,1,1.183,7.325,21.84,21.84,0,0,0-8.416-.585l6.6,2.6a2.772,2.772,0,0,1,1.375.9,2.67,2.67,0,0,1,.315,1.459,36.823,36.823,0,0,1-.457,6.393,39,39,0,0,0-7.708-1.045l5.039,3.1a1.291,1.291,0,0,1,.666,1.935l-1.7,4.644c-7.946-2.735-15.958-5.486-24.29-6.583s-17.11-.439-24.6,3.373a3.489,3.489,0,0,1-1.63.528,2.775,2.775,0,0,1-1.776-.951A8.367,8.367,0,0,1,581.152,242.2Z" transform="translate(-454.124 -188.52)" fill="#f1cb52"/>
          <path id="Trazado_1045749" data-name="Trazado 1045749" d="M576.065,254.869c-.138-2.4,2.3-4.36,4.707-4.432s4.632,1.264,6.437,2.851a12.364,12.364,0,0,1,3.681,5.039,6.647,6.647,0,0,1-.656,6.031,4.6,4.6,0,0,1-5.583,1.543,7.212,7.212,0,0,1-2.018-1.781C580.088,261.182,576.271,258.448,576.065,254.869Z" transform="translate(-452.939 -198.354)" fill="#9ed3d9"/>
          <path id="Trazado_1045750" data-name="Trazado 1045750" d="M431.5,506.842" transform="translate(-404.331 -284.57)" fill="none" stroke="#000" stroke-miterlimit="10" stroke-width="1"/>
          <path id="Trazado_1045751" data-name="Trazado 1045751" d="M420.513,477.3c0-3.953,6.533-30.841,12.283-39.056,10.056-14.365,25.623-16.552,41.317-16.552a49.635,49.635,0,0,0,15.341,3.2c4.078.191,8.645-.343,10.874-3.157,7.463.538,15.171,1.144,21.79,4.632a40.093,40.093,0,0,1,11.911,10.341c8.52,10.357,15.388,29.774,18.553,43.831-21.725,2.062-46.1-2.268-67.828-.206C472.09,481.542,420.516,481.173,420.513,477.3Z" transform="translate(-400.637 -255.94)" fill="#9ed3d9"/>
          <path id="Trazado_1045752" data-name="Trazado 1045752" d="M512.519,238.36c-.281-3.487-4.17-5.365-7.546-6.286-14.946-4.078-31.4-2.978-45.308,3.842s-25.024,19.478-29.179,34.4c-.416,1.5-.686,3.316.414,4.411a4.6,4.6,0,0,0,2.512,1.008q9.219,1.668,18.539,2.692l5.445-9.8q.214,4.506.427,9.012a4.337,4.337,0,0,0,.727,2.67,4.193,4.193,0,0,0,2.059,1.1,67.457,67.457,0,0,0,21.773,2.889,3.819,3.819,0,0,0,2.156-.517,3.932,3.932,0,0,0,1.148-1.748c1.538-3.637,3.076-7.274,4.729-10.959q-.217,4.953-.191,9.914a5.38,5.38,0,0,0,.5,2.726c.695,1.184,2.144,1.657,3.476,1.991A61.469,61.469,0,0,0,517.242,287a3.625,3.625,0,0,0,1.829-.6,3.666,3.666,0,0,0,1.041-2.234,78.266,78.266,0,0,0,1.537-17.451,54.221,54.221,0,0,1,3.781,21.222,2.4,2.4,0,0,0,.247,1.4,2.278,2.278,0,0,0,1.276.765,46.053,46.053,0,0,0,18.4,1.675c-.588-10.106-1.628-20.347-5.366-29.755s-10.519-18-19.859-21.907C517.006,238.812,513.53,238.05,512.519,238.36Z" transform="translate(-403.868 -191.381)" fill="#f1cb52"/>
          <ellipse id="Elipse_13438" data-name="Elipse 13438" cx="3.9" cy="3.568" rx="3.9" ry="3.568" transform="translate(78.137 106.919)" fill="#eaaca1"/>
          <g id="Grupo_1200615" data-name="Grupo 1200615" transform="translate(70.981 118.512)">
            <path id="Trazado_1045753" data-name="Trazado 1045753" d="M498.374,350.716a11.832,11.832,0,0,0,18.64.911.479.479,0,0,1,.775.55c-3.08,5.559-11.116,7.288-16.287,3.616a10.79,10.79,0,0,1-3.952-4.605.479.479,0,0,1,.824-.471Z" transform="translate(-497.507 -350.52)"/>
          </g>
          <g id="Grupo_1200616" data-name="Grupo 1200616" transform="translate(100.226 104.939)">
            <path id="Trazado_1045754" data-name="Trazado 1045754" d="M541.678,334.857a4.364,4.364,0,1,1,3.278,5.229A4.364,4.364,0,0,1,541.678,334.857Z" transform="translate(-541.566 -330.54)" fill="#3b2222"/>
            <path id="Trazado_1045755" data-name="Trazado 1045755" d="M550.281,332.753a1.044,1.044,0,0,1,.487-.8,4.965,4.965,0,0,1,.876-.425c.808-.356,1.516-.9,2.3-1.313.256-.133.615-.232.794-.007a.51.51,0,0,1,.088.328,2.05,2.05,0,0,1-.319.937,11.1,11.1,0,0,1-1.408,1.987,1.265,1.265,0,0,1-.565.423,1.032,1.032,0,0,1-.563-.033,2.237,2.237,0,0,1-1-.619A1.259,1.259,0,0,0,550.281,332.753Z" transform="translate(-544.497 -330.071)" fill="#3b2222"/>
          </g>
          <g id="Grupo_1200617" data-name="Grupo 1200617" transform="translate(55.723 100.107)">
            <path id="Trazado_1045756" data-name="Trazado 1045756" d="M484.725,328.651a4.293,4.293,0,1,0-3.7,4.816A4.294,4.294,0,0,0,484.725,328.651Z" transform="translate(-475.076 -323.505)" fill="#3b2222"/>
            <path id="Trazado_1045757" data-name="Trazado 1045757" d="M478.765,325.806a1.024,1.024,0,0,0-.4-.832,4.831,4.831,0,0,0-.818-.5c-.758-.425-1.4-1.027-2.129-1.5-.238-.155-.581-.285-.777-.08a.5.5,0,0,0-.117.313,2.025,2.025,0,0,0,.225.948,10.9,10.9,0,0,0,1.193,2.077,1.246,1.246,0,0,0,.514.467,1.013,1.013,0,0,0,.554.02,2.213,2.213,0,0,0,1.037-.513A1.232,1.232,0,0,1,478.765,325.806Z" transform="translate(-474.52 -322.791)" fill="#3b2222"/>
          </g>
          <path id="Trazado_1045758" data-name="Trazado 1045758" d="M604.472,344.115a.413.413,0,0,0-.058-.117l.009.009-.011-.012a.5.5,0,0,0-.114-.125,1.5,1.5,0,0,0-.19-.209c-.214-.18-.447-.335-.675-.5,0,0,.093.074.127.1a4.216,4.216,0,0,0-3.237-.653,8.457,8.457,0,0,0-5.126,2.481,6.253,6.253,0,0,0-1.7,3.5.669.669,0,0,0,1.3.089,6.709,6.709,0,0,1,6.162-4.212c1.9.068,2.526.158,3.024.2A.442.442,0,0,0,604.472,344.115Z" transform="translate(-458.802 -229.329)" fill="#d7ae94"/>
          <circle id="Elipse_13439" data-name="Elipse 13439" cx="13.026" cy="13.026" r="13.026" transform="translate(39.906 113.801)" fill="#db8482" opacity="0.329"/>
          <circle id="Elipse_13440" data-name="Elipse 13440" cx="13.026" cy="13.026" r="13.026" transform="translate(99.934 121.353)" fill="#db8482" opacity="0.329"/>
          <path id="Trazado_1045759" data-name="Trazado 1045759" d="M499.444,235.5c-22.127-3.877-39.035,7.425-51.219,25.06a57.735,57.735,0,0,0-4.832,8.964c-.388.88-.773,1.762-1.128,2.655a.5.5,0,0,0,.48.63c.4,0,.489-.388.608-.694.547-1.352.959-2.3,1.628-3.708a49.984,49.984,0,0,1,5.5-9.524c8.712-11.985,20.764-21.987,36.114-23.453a49.806,49.806,0,0,1,10.307.015c.887.09,1.638.223,2.522.329A.14.14,0,0,0,499.444,235.5Z" transform="translate(-407.945 -193.076)" fill="#e8b638"/>
          <path id="Trazado_1045760" data-name="Trazado 1045760" d="M503.108,243.825a40.6,40.6,0,0,0-19.218,4.86,56.759,56.759,0,0,0-20.208,19.937c-1.135,1.953-2.208,3.942-3.256,5.943a11.878,11.878,0,0,0-.49,1.15.338.338,0,0,0,.2.491c.365.086.44-.322.573-.566a96.477,96.477,0,0,1,5.043-8.529,58.905,58.905,0,0,1,10.106-11.419,44.17,44.17,0,0,1,13.791-8.842,40,40,0,0,1,10.465-2.376c1.023-.11,2.059-.128,3.078-.23A.219.219,0,0,0,503.108,243.825Z" transform="translate(-413.878 -196.131)" fill="#e8b638"/>
          <path id="Trazado_1045761" data-name="Trazado 1045761" d="M511.19,245.742a42.5,42.5,0,0,0-18.318,15.91,73.712,73.712,0,0,0-8.985,17.031,26.6,26.6,0,0,0-1.02,3.808c-.039.487-.325.885.244,1.146.806.151.674-1.177.892-1.681a29.089,29.089,0,0,1,1.2-3.944,69.457,69.457,0,0,1,6.987-13.531c3.2-5.124,6.651-9.639,11.531-13.4a50.15,50.15,0,0,1,5.264-3.353c.854-.457,1.73-.872,2.6-1.3a.4.4,0,1,0-.4-.686Z" transform="translate(-421.568 -196.757)" fill="#e8b638"/>
          <path id="Trazado_1045762" data-name="Trazado 1045762" d="M520.106,250.081a.281.281,0,0,0-.454-.09c-7.923,7.5-15.708,24.558-17.238,35.364-.068.469-.3,1.239.435,1.033.313-.277.224-.814.36-1.192A88.724,88.724,0,0,1,516.151,255a31.191,31.191,0,0,1,2.843-3.564c.36-.387.787-.727,1.112-1.138A.248.248,0,0,0,520.106,250.081Z" transform="translate(-428.145 -198.178)" fill="#e8b638"/>
          <path id="Trazado_1045763" data-name="Trazado 1045763" d="M536.641,253.631c-.209-.968-.484-1.918-.746-2.873a.474.474,0,1,0-.915.252c1.608,5.709,1.638,11.253,1.263,17.341-.236,3.19-.338,6.394-.781,9.565-.168,1.544-.827,5.011-1.159,7.188a5.382,5.382,0,0,0-.078,1.588.467.467,0,0,0,.854-.291,83.308,83.308,0,0,0,2.412-17.244A55.061,55.061,0,0,0,536.641,253.631Z" transform="translate(-438.855 -198.346)" fill="#e8b638"/>
          <path id="Trazado_1045764" data-name="Trazado 1045764" d="M550.329,270.458c-.117-6.066-.541-12.158-2.375-17.978-.256-.96-.481-1.929-.786-2.876a.436.436,0,0,0-.84.232,97.517,97.517,0,0,1,2.064,9.539,127.923,127.923,0,0,1-.347,29.585c-.005.553-.268,1.092-.115,1.546.441.538.887.056.948-.5A92.139,92.139,0,0,0,550.329,270.458Z" transform="translate(-442.936 -197.967)" fill="#e8b638"/>
          <g id="Grupo_1200618" data-name="Grupo 1200618" transform="translate(38.056 87.116)">
            <ellipse id="Elipse_13441" data-name="Elipse 13441" cx="19" cy="18.668" rx="19" ry="18.668" fill="none" stroke="#e06b76" stroke-linecap="round" stroke-linejoin="round" stroke-miterlimit="10" stroke-width="5"/>
            <ellipse id="Elipse_13442" data-name="Elipse 13442" cx="19" cy="18.668" rx="19" ry="18.668" transform="translate(50.898 5.476)" fill="none" stroke="#e06b76" stroke-linecap="round" stroke-linejoin="round" stroke-miterlimit="10" stroke-width="5"/>
            <path id="Trazado_1045765" data-name="Trazado 1045765" d="M504.725,330.6a9.625,9.625,0,0,1,7.482-1.794,7.448,7.448,0,0,1,5.641,5" transform="translate(-467.009 -311.766)" fill="none" stroke="#e06b76" stroke-linecap="round" stroke-linejoin="round" stroke-miterlimit="10" stroke-width="4"/>
          </g>
          <path id="Trazado_1045766" data-name="Trazado 1045766" d="M557.89,262.135c-.737-3.367-2.269-6.485-3.344-9.748-.169-.368-.131-.878-.445-1.151a.385.385,0,0,0-.56.43c.994,3.756,2.755,7.279,3.536,11.094,1.7,8.205,1.444,16.912,1.032,25.57.027.286-.121.629.08.866a.354.354,0,0,0,.595-.234c-.013.09.008-.058.012-.091A84.855,84.855,0,0,0,557.89,262.135Z" transform="translate(-445.361 -198.606)" fill="#e8b638"/>
          <path id="Trazado_1045767" data-name="Trazado 1045767" d="M576.572,293.251c.1-5.973-1.114-11.841-2.266-17.67-1.075-6.113-4.038-11.681-7.672-16.65a41.678,41.678,0,0,0-3.91-4.686.436.436,0,0,0-.476.706,49.925,49.925,0,0,1,9.469,15.068,68.636,68.636,0,0,1,2.453,10.134,63.63,63.63,0,0,1,1.438,11.856c.045.915,0,1.854.115,2.757a.436.436,0,0,0,.706.14C576.711,294.436,576.5,293.785,576.572,293.251Z" transform="translate(-448.252 -199.622)" fill="#e8b638"/>
          <path id="Trazado_1045768" data-name="Trazado 1045768" d="M584.7,274.137a27.23,27.23,0,0,0-1.828-3.843c-.263-.311-.451-.836-.88-.914a.384.384,0,0,0-.269.65,14.692,14.692,0,0,1,1.87,3.41,45.669,45.669,0,0,1,2.2,6.56,50.689,50.689,0,0,1,2.055,18.461c0,.576-.174.607-.046,1.085a.4.4,0,0,0,.623.08c.147-.147.119-.375.161-.564C589.431,290.607,587.686,282.034,584.7,274.137Z" transform="translate(-454.807 -204.724)" fill="#e8b638"/>
          <g id="Grupo_1200619" data-name="Grupo 1200619" transform="translate(134.374 38.925)">
            <path id="Trazado_1045769" data-name="Trazado 1045769" d="M593.112,242.783c9.518-9.16,23.332-13.308,36.37-11.9a52.945,52.945,0,0,1,7.153,1.323.317.317,0,0,1-.14.617,51.881,51.881,0,0,0-38.351,7.019,38.462,38.462,0,0,0-4.585,3.387c-.271.281-.752-.147-.447-.448Z" transform="translate(-593.014 -230.615)" fill="#e8b638"/>
          </g>
          <g id="Grupo_1200620" data-name="Grupo 1200620" transform="translate(139.341 48.044)">
            <path id="Trazado_1045770" data-name="Trazado 1045770" d="M600.644,250.623c11.385-6.979,26.7-8.8,38.582-2.017a.317.317,0,0,1-.291.562c-10.487-5.025-22.842-4.3-33.464-.031a42.627,42.627,0,0,0-4.512,2.032.316.316,0,0,1-.315-.547Z" transform="translate(-600.497 -244.354)" fill="#e8b638"/>
          </g>
          <g id="Grupo_1200621" data-name="Grupo 1200621" transform="translate(142.331 56.088)">
            <path id="Trazado_1045771" data-name="Trazado 1045771" d="M605.223,258.35c10.122-2.7,21.837-2.98,31.118,2.455a.317.317,0,0,1-.308.553c-7.082-3.373-15.13-3.941-22.876-3.364a73.837,73.837,0,0,0-7.775.969.317.317,0,0,1-.159-.613Z" transform="translate(-605.001 -256.472)" fill="#e8b638"/>
          </g>
          <g id="Grupo_1200622" data-name="Grupo 1200622" transform="translate(72.405 164.537)">
            <path id="Trazado_1045772" data-name="Trazado 1045772" d="M501.753,420.34c3.687,1.983,7.908,2.324,12.1,2.378a31.393,31.393,0,0,0,9.432-1.112,11.339,11.339,0,0,0,2.346-1.035c.084-.045.206-.146.228-.108a1.266,1.266,0,0,1,1.742-.416c1.915,1.274-1.374,4.214-2.506,4.989-6.129,4.069-16.393,4.031-22.485-.086a9.6,9.6,0,0,1-2.916-3.133.335.335,0,0,1,.128-.456c0-.005,1.928-1.018,1.93-1.022Z" transform="translate(-499.652 -419.859)" fill="#62b3b7"/>
          </g>
          <g id="Grupo_1200623" data-name="Grupo 1200623" transform="translate(46.919 200.565)">
            <path id="Trazado_1045773" data-name="Trazado 1045773" d="M465.142,474.6c-.374,6-1.13,13.444-1.592,19.473-.137,2.079-.353,4.318-.288,6.353a1,1,0,1,1-1.985.149,32.077,32.077,0,0,1,.07-3.39c.208-3.275.586-6.527.984-9.776.524-4.325,1.134-8.633,1.934-12.918a.443.443,0,0,1,.877.111Z" transform="translate(-461.256 -474.139)" fill="#607f7f"/>
          </g>
          <g id="Grupo_1200624" data-name="Grupo 1200624" transform="translate(115.913 196.616)">
            <path id="Trazado_1045774" data-name="Trazado 1045774" d="M566.046,468.439a135.961,135.961,0,0,1,8.2,22.131,49.127,49.127,0,0,1,1.5,7.844,1,1,0,1,1-1.984.175c-1.306-10.251-5.194-20.063-8.525-29.805a.443.443,0,0,1,.815-.345Z" transform="translate(-565.201 -468.19)" fill="#607f7f"/>
          </g>
        </g>
      </g>
    </g>
  </g>
</svg>
