<svg xmlns="http://www.w3.org/2000/svg" xmlns:xlink="http://www.w3.org/1999/xlink" width="103" height="103" viewBox="0 0 103 103">
  <defs>
    <filter id="Trazado_978624" x="0" y="0" width="103" height="103" filterUnits="userSpaceOnUse">
      <feOffset dy="3" input="SourceAlpha"/>
      <feGaussianBlur stdDeviation="3" result="blur"/>
      <feFlood flood-opacity="0.161"/>
      <feComposite operator="in" in2="blur"/>
      <feComposite in="SourceGraphic"/>
    </filter>
  </defs>
  <g id="Grupo_1201095" data-name="Grupo 1201095" transform="translate(-171 -7806.104)">
    <g id="Grupo_1183567" data-name="Grupo 1183567" transform="translate(180 7812.104)">
      <g id="Grupo_1174730" data-name="Grupo 1174730">
        <g id="Grupo_1173798" data-name="Grupo 1173798">
          <g id="Grupo_1171925" data-name="Grupo 1171925">
            <g id="Grupo_1164524" data-name="Grupo 1164524">
              <g id="Grupo_1144123" data-name="Grupo 1144123">
                <g transform="matrix(1, 0, 0, 1, -9, -6)" filter="url(#Trazado_978624)">
                  <g id="Trazado_978624-2" data-name="Trazado 978624" transform="translate(9 6)" fill="#fdfbec">
                    <path d="M 42.5 83.5 C 36.96437835693359 83.5 31.59512901306152 82.41617584228516 26.54141235351562 80.27863311767578 C 21.65934181213379 78.21369171142578 17.27447128295898 75.25723266601562 13.50862312316895 71.49137878417969 C 9.742764472961426 67.72553253173828 6.786305904388428 63.34066009521484 4.721364498138428 58.45858764648438 C 2.583823442459106 53.40486907958984 1.5 48.03562164306641 1.5 42.5 C 1.5 36.96437835693359 2.583823442459106 31.59512901306152 4.721364498138428 26.54141235351562 C 6.786305904388428 21.65934181213379 9.742764472961426 17.27447128295898 13.50862312316895 13.50862312316895 C 17.27447128295898 9.742764472961426 21.65934181213379 6.786305904388428 26.54141235351562 4.721364498138428 C 31.59512901306152 2.583823442459106 36.96437835693359 1.5 42.5 1.5 C 48.03562164306641 1.5 53.40486907958984 2.583823442459106 58.45858764648438 4.721364498138428 C 63.34066009521484 6.786305904388428 67.72553253173828 9.742764472961426 71.49137878417969 13.50862312316895 C 75.25723266601562 17.27447128295898 78.21369171142578 21.65934181213379 80.27863311767578 26.54141235351562 C 82.41617584228516 31.59512901306152 83.5 36.96437835693359 83.5 42.5 C 83.5 48.03562164306641 82.41617584228516 53.40486907958984 80.27863311767578 58.45858764648438 C 78.21369171142578 63.34066009521484 75.25723266601562 67.72553253173828 71.49137878417969 71.49137878417969 C 67.72553253173828 75.25723266601562 63.34066009521484 78.21369171142578 58.45858764648438 80.27863311767578 C 53.40486907958984 82.41617584228516 48.03562164306641 83.5 42.5 83.5 Z" stroke="none"/>
                    <path d="M 42.5 3 C 37.16621398925781 3 31.99356079101562 4.043960571289062 27.125732421875 6.102882385253906 C 22.42246627807617 8.092185974121094 18.19785308837891 10.94070434570312 14.56928253173828 14.56928253173828 C 10.94070434570312 18.19785308837891 8.092185974121094 22.42246627807617 6.102882385253906 27.125732421875 C 4.043960571289062 31.99356079101562 3 37.16621398925781 3 42.5 C 3 47.83378601074219 4.043960571289062 53.00643920898438 6.102882385253906 57.87425231933594 C 8.092185974121094 62.57753372192383 10.94070434570312 66.80213165283203 14.56928253173828 70.43071746826172 C 18.19786834716797 74.05929565429688 22.42246627807617 76.90781402587891 27.125732421875 78.89711761474609 C 31.99356079101562 80.95603942871094 37.16621398925781 82 42.5 82 C 47.83378601074219 82 53.00642395019531 80.95603942871094 57.87425231933594 78.89711761474609 C 62.57753372192383 76.90781402587891 66.80213165283203 74.05929565429688 70.43071746826172 70.43071746826172 C 74.05929565429688 66.80213165283203 76.90781402587891 62.57753372192383 78.89711761474609 57.87425231933594 C 80.95603942871094 53.00642395019531 82 47.83378601074219 82 42.5 C 82 37.16621398925781 80.95603942871094 31.99356079101562 78.89711761474609 27.125732421875 C 76.90781402587891 22.42246627807617 74.05929565429688 18.19786834716797 70.43071746826172 14.56928253173828 C 66.80213165283203 10.94070434570312 62.57753372192383 8.092185974121094 57.87425231933594 6.102882385253906 C 53.00643920898438 4.043960571289062 47.83378601074219 3 42.5 3 M 42.5 0 C 65.97209167480469 0 85 19.02789306640625 85 42.5 C 85 65.97209167480469 65.97209167480469 85 42.5 85 C 19.02789306640625 85 0 65.97209167480469 0 42.5 C 0 19.02789306640625 19.02789306640625 0 42.5 0 Z" stroke="none" fill="#84792b"/>
                  </g>
                </g>
              </g>
            </g>
          </g>
        </g>
      </g>
    </g>
    <g id="nino_2_" data-name="nino (2)" transform="translate(178.676 7825.438)">
      <g id="Grupo_1201072" data-name="Grupo 1201072" transform="translate(55.586 17.279)">
        <path id="Trazado_1074709" data-name="Trazado 1074709" d="M370.057,158.426h-7.439a3.38,3.38,0,0,1,0-6.76h7.9a3.38,3.38,0,1,1,0,6.76Z" transform="translate(-359.238 -151.666)" fill="#7fb0e4"/>
      </g>
      <g id="Grupo_1201073" data-name="Grupo 1201073" transform="translate(20.224 0.854)">
        <path id="Trazado_1074710" data-name="Trazado 1074710" d="M92.7,37.081H48.841v-7.65a21.931,21.931,0,0,1,43.862,0Z" transform="translate(-48.841 -7.5)" fill="#bed6f1"/>
      </g>
      <g id="Grupo_1201074" data-name="Grupo 1201074" transform="translate(20.224 0.854)">
        <path id="Trazado_1074711" data-name="Trazado 1074711" d="M57.8,30.114A22.01,22.01,0,0,1,76.876,8.371a21.76,21.76,0,0,0-6.1-.871A22,22,0,0,0,48.841,29.431v7.65H57.8V30.114Z" transform="translate(-48.841 -7.5)" fill="#93bce8"/>
      </g>
      <g id="Grupo_1201075" data-name="Grupo 1201075" transform="translate(28.723 39.988)">
        <path id="Trazado_1074712" data-name="Trazado 1074712" d="M136.875,351c-7.418,0-13.432,6.476-13.432,14.465v.031a3.015,3.015,0,0,0,3.025,2.991h20.814a3.015,3.015,0,0,0,3.025-2.991v-.031C150.306,357.476,144.293,351,136.875,351Z" transform="translate(-123.443 -351)" fill="#bed6f1"/>
      </g>
      <g id="Grupo_1201076" data-name="Grupo 1201076" transform="translate(28.723 39.988)">
        <path id="Trazado_1074713" data-name="Trazado 1074713" d="M129.675,365.5v-.031c0-6.834,4.4-12.56,10.316-14.073a12.55,12.55,0,0,0-3.116-.392c-7.418,0-13.432,6.476-13.432,14.465v.031a3.015,3.015,0,0,0,3.025,2.991H132.7a3.015,3.015,0,0,1-3.025-2.991Z" transform="translate(-123.443 -350.999)" fill="#93bce8"/>
      </g>
      <g id="Grupo_1201077" data-name="Grupo 1201077" transform="translate(37.858 40.33)">
        <circle id="Elipse_13495" data-name="Elipse 13495" cx="4.296" cy="4.296" r="4.296" transform="translate(0)" fill="#f2a888"/>
      </g>
      <g id="Grupo_1201078" data-name="Grupo 1201078" transform="translate(17.399 21.848)">
        <circle id="Elipse_13496" data-name="Elipse 13496" cx="5.317" cy="5.317" r="5.317" transform="translate(0)" fill="#f2a888"/>
      </g>
      <g id="Grupo_1201079" data-name="Grupo 1201079" transform="translate(56.733 21.848)">
        <circle id="Elipse_13497" data-name="Elipse 13497" cx="5.317" cy="5.317" r="5.317" fill="#ffbe9c"/>
      </g>
      <g id="Grupo_1201080" data-name="Grupo 1201080" transform="translate(22.425 17.967)">
        <path id="Trazado_1074714" data-name="Trazado 1074714" d="M107.624,166.132l-6.539-4.362-7.733-3.826c-1.759-.155-3.6-.238-5.5-.238-1.915,0-3.773.085-5.547.243l.1.1-8.131,4.243-6.109,3.844a19.737,19.737,0,0,0,39.459,0Z" transform="translate(-68.165 -157.706)" fill="#ffd3bc"/>
      </g>
      <g id="Grupo_1201081" data-name="Grupo 1201081" transform="translate(22.425 22.231)">
        <path id="Trazado_1074715" data-name="Trazado 1074715" d="M74.81,196.942q0-.913.073-1.807l-.61.318L68.164,199.3a19.747,19.747,0,0,0,22.61,18.968A22.225,22.225,0,0,1,74.81,196.942Z" transform="translate(-68.164 -195.135)" fill="#ffbe9c"/>
      </g>
      <g id="Grupo_1201082" data-name="Grupo 1201082" transform="translate(22.425 18.205)">
        <path id="Trazado_1074716" data-name="Trazado 1074716" d="M82.435,159.8a12.072,12.072,0,0,1-6.225,6.851,12.646,12.646,0,0,1-8.039,1.339c-.005-.184-.008-.368-.008-.553a19.814,19.814,0,0,1,.4-3.984l.025-.009C71.569,161.652,76.535,160.317,82.435,159.8Z" transform="translate(-68.164 -159.797)" fill="#7b849b"/>
      </g>
      <g id="Grupo_1201083" data-name="Grupo 1201083" transform="translate(47.612 18.205)">
        <path id="Trazado_1074717" data-name="Trazado 1074717" d="M289.248,159.8a12.072,12.072,0,0,0,6.224,6.851,12.646,12.646,0,0,0,8.039,1.339c.005-.184.008-.368.008-.553a19.815,19.815,0,0,0-.4-3.984l-.025-.009C300.115,161.652,295.149,160.317,289.248,159.8Z" transform="translate(-289.248 -159.797)" fill="#7b849b"/>
      </g>
      <g id="Grupo_1201084" data-name="Grupo 1201084" transform="translate(22.425 19.326)">
        <path id="Trazado_1074718" data-name="Trazado 1074718" d="M68.591,172.156l-.025.009a19.821,19.821,0,0,0-.4,3.984c0,.185,0,.369.008.553a12.194,12.194,0,0,0,6.7-.738q-.058-.8-.059-1.618a22.291,22.291,0,0,1,.5-4.713A24.334,24.334,0,0,0,68.591,172.156Z" transform="translate(-68.164 -169.634)" fill="#5d6a85"/>
      </g>
      <g id="Grupo_1201085" data-name="Grupo 1201085" transform="translate(35.749 6.048)">
        <path id="Trazado_1074719" data-name="Trazado 1074719" d="M194.206,60.526h-5.367a3.722,3.722,0,0,1,0-7.443h5.367a3.722,3.722,0,1,1,0,7.443Z" transform="translate(-185.117 -53.083)" fill="#7b849b"/>
      </g>
      <g id="Grupo_1201086" data-name="Grupo 1201086" transform="translate(35.749 6.048)">
        <path id="Trazado_1074720" data-name="Trazado 1074720" d="M191.523,56.8a3.735,3.735,0,0,1,3.2-3.684,3.715,3.715,0,0,0-.519-.037H188.84a3.722,3.722,0,1,0,0,7.443h5.367a3.7,3.7,0,0,0,.519-.037A3.735,3.735,0,0,1,191.523,56.8Z" transform="translate(-185.118 -53.083)" fill="#5d6a85"/>
      </g>
      <g id="Grupo_1201093" data-name="Grupo 1201093" transform="translate(27.619 26.477)">
        <g id="Grupo_1201089" data-name="Grupo 1201089" transform="translate(0 2.338)">
          <g id="Grupo_1201087" data-name="Grupo 1201087">
            <ellipse id="Elipse_13498" data-name="Elipse 13498" cx="3.915" cy="3.117" rx="3.915" ry="3.117" fill="#ffa1ac"/>
          </g>
          <g id="Grupo_1201088" data-name="Grupo 1201088" transform="translate(21.218)">
            <ellipse id="Elipse_13499" data-name="Elipse 13499" cx="3.915" cy="3.117" rx="3.915" ry="3.117" fill="#ffa1ac"/>
          </g>
        </g>
        <g id="Grupo_1201090" data-name="Grupo 1201090" transform="translate(5.341)">
          <path id="Trazado_1074721" data-name="Trazado 1074721" d="M161.493,235.71a.854.854,0,0,1-.854-.854v-1.6a.854.854,0,1,1,1.709,0v1.6A.854.854,0,0,1,161.493,235.71Z" transform="translate(-160.639 -232.401)"/>
        </g>
        <g id="Grupo_1201091" data-name="Grupo 1201091" transform="translate(21.997)">
          <path id="Trazado_1074722" data-name="Trazado 1074722" d="M307.687,235.71a.854.854,0,0,1-.854-.854v-1.6a.854.854,0,0,1,1.709,0v1.6A.854.854,0,0,1,307.687,235.71Z" transform="translate(-306.833 -232.401)"/>
        </g>
        <g id="Grupo_1201092" data-name="Grupo 1201092" transform="translate(11.474 1.553)">
          <path id="Trazado_1074723" data-name="Trazado 1074723" d="M217.514,248.738a3.767,3.767,0,0,1-2.84-1.293.854.854,0,1,1,1.288-1.123,2.055,2.055,0,0,0,3.1,0,.854.854,0,0,1,1.288,1.123A3.767,3.767,0,0,1,217.514,248.738Z" transform="translate(-214.464 -246.029)"/>
        </g>
      </g>
      <g id="Grupo_1201094" data-name="Grupo 1201094" transform="translate(16.544 0)">
        <path id="Trazado_1074724" data-name="Trazado 1074724" d="M71.1,20.659a4.239,4.239,0,0,0-4.234-4.234H64.033A22.749,22.749,0,0,0,27.242,5.592a.854.854,0,1,0,1.121,1.29A21.034,21.034,0,0,1,42.154,1.709,21.248,21.248,0,0,1,63.163,21.1a6.176,6.176,0,0,0-1.069-.1c-.13,0-.26,0-.39.011-4.207-2.439-11.5-3.892-19.59-3.892-8.073,0-15.369,1.451-19.578,3.885a6.148,6.148,0,0,0-1.4.2A21.111,21.111,0,0,1,26.056,9.222a.854.854,0,1,0-1.305-1.1,22.808,22.808,0,0,0-5.366,13.855,6.168,6.168,0,0,0,3.331,11.362c.086,0,.173,0,.259-.007a20.714,20.714,0,0,0,8.987,10.392,15.921,15.921,0,0,0-4.093,10.733v.033a3.871,3.871,0,0,0,3.879,3.844H52.562a3.871,3.871,0,0,0,3.879-3.841v-.036a15.946,15.946,0,0,0-4.089-10.728,20.618,20.618,0,0,0,3.712-2.708.854.854,0,1,0-1.155-1.26A18.883,18.883,0,0,1,23.335,27.386c.364.035.732.054,1.1.054a14.242,14.242,0,0,0,6.421-1.623,13.272,13.272,0,0,0,6.466-6.811c1.555-.121,3.159-.184,4.787-.184,1.657,0,3.289.066,4.869.19a13.125,13.125,0,0,0,6.465,6.8,14.252,14.252,0,0,0,6.424,1.623c.372,0,.74-.019,1.1-.054a18.671,18.671,0,0,1-3.852,9.96.854.854,0,1,0,1.354,1.043A20.556,20.556,0,0,0,61.359,33.3a6.248,6.248,0,0,0,.646.04h.045a6.171,6.171,0,0,0,5.7-8.535A4.241,4.241,0,0,0,71.1,20.659Zm-16.373,33.8v.029a2.16,2.16,0,0,1-2.17,2.139H31.747a2.16,2.16,0,0,1-2.17-2.141v-.027a14.161,14.161,0,0,1,3.966-9.918,20.434,20.434,0,0,0,3.6,1.271,5.151,5.151,0,0,0,10.027,0,20.489,20.489,0,0,0,3.6-1.268,14.184,14.184,0,0,1,3.961,9.914ZM45.217,46.2a3.442,3.442,0,0,1-6.125,0,20.652,20.652,0,0,0,6.125,0ZM18.253,27.164A4.469,4.469,0,0,1,21.786,22.8a20.8,20.8,0,0,0-.224,3.033,20.53,20.53,0,0,0,.827,5.781A4.467,4.467,0,0,1,18.253,27.164Zm11.83-2.869a12.211,12.211,0,0,1-6.81,1.365,19.049,19.049,0,0,1,.316-3.3c2.734-1.518,6.955-2.633,11.8-3.174A11.966,11.966,0,0,1,30.083,24.295Zm24.142,0a12.018,12.018,0,0,1-5.3-5.1c4.863.551,9.085,1.679,11.8,3.215a19.035,19.035,0,0,1,.309,3.248,12.226,12.226,0,0,1-6.81-1.366Zm7.824,7.332h-.033l-.091,0a20.808,20.808,0,0,0,.586-8.9,4.462,4.462,0,0,1-.463,8.9Zm4.821-8.442h-.111A6.207,6.207,0,0,0,64.913,21.7a22.751,22.751,0,0,0-.453-3.568h2.411a2.525,2.525,0,0,1,0,5.051Z" transform="translate(-16.544 0)"/>
        <path id="Trazado_1074725" data-name="Trazado 1074725" d="M187.594,54.735a4.548,4.548,0,0,0,4.543-4.543v-.066a4.548,4.548,0,0,0-4.543-4.543h-5.433a4.548,4.548,0,0,0-4.543,4.543v.066a4.548,4.548,0,0,0,4.543,4.543Zm-8.268-4.543v-.066a2.837,2.837,0,0,1,2.834-2.834h5.433a2.837,2.837,0,0,1,2.834,2.834v.066a2.837,2.837,0,0,1-2.834,2.834h-5.433A2.837,2.837,0,0,1,179.327,50.192Z" transform="translate(-159.267 -40.39)"/>
      </g>
    </g>
  </g>
</svg>
