<svg xmlns="http://www.w3.org/2000/svg" xmlns:xlink="http://www.w3.org/1999/xlink" width="315" height="210" viewBox="0 0 315 210">
  <defs>
    <clipPath id="clip-path">
      <rect id="Rectángulo_416153" data-name="Rectángulo 416153" width="315" height="210" transform="translate(265 7947)" fill="#fff" stroke="#707070" stroke-width="1" opacity="0.93"/>
    </clipPath>
  </defs>
  <g id="Enmascarar_grupo_1098852" data-name="Enmascarar grupo 1098852" transform="translate(-265 -7947)" clip-path="url(#clip-path)">
    <g id="Grupo_1201097" data-name="Grupo 1201097">
      <path id="Trazado_1074726" data-name="Trazado 1074726" d="M136.5,0A136.5,136.5,0,1,1,0,136.5,136.5,136.5,0,0,1,136.5,0Z" transform="translate(295 8036)" fill="#effbfe" opacity="0.73"/>
      <g id="Grupo_1201096" data-name="Grupo 1201096" transform="translate(3052.213 -833.63)">
        <path id="Trazado_1045775" data-name="Trazado 1045775" d="M850.709,445.872c-21.048.824-47.425.037-68.473-.748-14.95-.559-29.921-1.118-44.777-2.884-8.9-1.057-19.765,4.386-28.152,1.241,2.553-13.87,8.353-34.767,16.281-46.43s20.54-20.821,34.89-22.063a77.186,77.186,0,0,0,59.075-26.957,324.8,324.8,0,0,0,45.782-51.891q11.833,8.616,22.953,18.158a5.731,5.731,0,0,1,2.126,7.5,246.282,246.282,0,0,1-37.842,79.051,18.055,18.055,0,0,0-2.965,5.195,15.043,15.043,0,0,0-.487,4.234C849.046,421.446,851.619,445.837,850.709,445.872Z" transform="translate(-3410.443 8550.33)" fill="#e06b76"/>
        <path id="Trazado_1045776" data-name="Trazado 1045776" d="M831.885,385.953c16.829-6.611,26.181-28,30.646-40.86q-8.413,8.959-17.484,17.269a76.918,76.918,0,0,1-48.656,26.3C807.777,390.854,820.574,390.61,831.885,385.953Z" transform="translate(-3435.937 8535.999)" fill="#753988" opacity="0.14"/>
        <path id="Trazado_1045777" data-name="Trazado 1045777" d="M794.075,402.077a22.313,22.313,0,0,0,14.809,11.01,19.775,19.775,0,0,0,17.557-5.12,17.771,17.771,0,0,0,4.465-17.545C819.15,396.576,805.979,400.01,794.075,402.077Z" transform="translate(-3435.259 8522.729)" fill="#f3d5c1"/>
        <path id="Trazado_1045778" data-name="Trazado 1045778" d="M831.207,399.223a16.85,16.85,0,0,0-.3-8.8c-11.756,6.156-24.927,9.59-36.832,11.656.115.206.239.405.36.607C806.619,405.159,819.915,404.3,831.207,399.223Z" transform="translate(-3435.259 8522.729)" fill="#753988" opacity="0.14"/>
        <g id="Grupo_1200629" data-name="Grupo 1200629" transform="translate(-2707.036 8783.912)">
          <path id="Trazado_1045779" data-name="Trazado 1045779" d="M723.033,316.653c-4.721-2.135-10.766.088-13.522,4.475s-2.362,10.348.394,14.735a14.823,14.823,0,0,0,8.845,6.541c3.651.895,7.72.142,12.4-3.357,6.2,8.608,15.842,14.448,26.149,16.963s21.234,1.851,31.485-.885c16.936-4.521,47.161-27.756,41.259-52.115-1.417-5.848-5.522-10.69-9.749-14.973a35.873,35.873,0,0,1-4.2-4.657c-1.851-2.686-2.748-5.9-3.678-9.022-2.1-7.06-4.559-14.1-8.49-20.326s-9.471-11.653-16.339-14.317c-5.424-2.1-11.387-2.4-17.2-2.06a83.81,83.81,0,0,0-37.429,11.375c-4.594,2.7-9,5.92-12.136,10.233-5.479,7.545-6.391,17.489-5.721,26.789A85.3,85.3,0,0,0,723.033,316.653Z" transform="translate(-702.916 -216.426)" fill="#f9d9c2"/>
          <path id="Trazado_1045780" data-name="Trazado 1045780" d="M726.948,360.956a11.767,11.767,0,0,0-1.521-1.84c-3.429-3.216-9.763-3.359-12.126,0a7.186,7.186,0,0,0-.679.988c-.185.294-.491.558-.542.912a.7.7,0,0,0,1.173.583,4.346,4.346,0,0,1,2.118-1.582c.107-.053.217-.1.327-.148l.069-.028c.063-.021.071-.028.054-.028l.042-.006a4.7,4.7,0,0,1,1.128-.424,9.594,9.594,0,0,1,3.611-.126c.153.028.307.045.461.065-.431-.056-.261-.042.063.021a18.613,18.613,0,0,1,2.5.756l.1.047A14.2,14.2,0,0,1,726.5,362.1a.508.508,0,0,0,.791-.1C727.493,361.505,727.176,361.375,726.948,360.956Z" transform="translate(-704.215 -251.297)" fill="#dcb69c"/>
          <path id="Trazado_1045781" data-name="Trazado 1045781" d="M713.261,307.824a100.534,100.534,0,0,1-11.128-29.661c-1.087-5.141-1.748-10.521-.468-15.617s4.843-9.881,9.883-11.365c-.256-3.78,1.451-7.411,3.436-10.638A58.007,58.007,0,0,1,753.571,214.2a10.726,10.726,0,0,1,4.293-.133c1.4.324,2.748,1.28,2.769,2.587a40.206,40.206,0,0,1,23.181-8.942c2.934-.151,6.323.252,7.987,2.673a6.57,6.57,0,0,1,.489,5.775,19.45,19.45,0,0,1-3.052,5.149c3.507-1.215,7.29-2.441,10.858-1.417a9.259,9.259,0,0,1,6.285,6.474c.78,3.05-.17,6.481-2.242,8.141,4.4,4.282,6.733,10.342,7.59,16.424s.369,12.265-.12,18.388c-3.659-12.6-8.778-26.33-17.4-33.139-26.474,22.062-57.444,22.514-76,23.658a64.189,64.189,0,0,1,3.558,48.248C719.5,307.52,716.158,306.791,713.261,307.824Z" transform="translate(-700.964 -207.687)"/>
          <path id="Trazado_1045782" data-name="Trazado 1045782" d="M761.865,321.326a4.07,4.07,0,1,1,4.07,4.07A4.071,4.071,0,0,1,761.865,321.326Z" transform="translate(-718.793 -239.764)"/>
          <circle id="Elipse_13443" data-name="Elipse 13443" cx="4.071" cy="4.071" r="4.071" transform="translate(79.707 63.162)"/>
          <path id="Trazado_1045783" data-name="Trazado 1045783" d="M790.706,317.183a4.023,4.023,0,1,1,4.966,1.873A3.769,3.769,0,0,1,790.706,317.183Z" transform="translate(-727.178 -238.288)" fill="#dca49a"/>
          <g id="Grupo_1200627" data-name="Grupo 1200627" transform="translate(26.566 65.888)">
            <circle id="Elipse_13444" data-name="Elipse 13444" cx="13.759" cy="13.759" r="13.759" transform="translate(0 50.552) rotate(-76.827)" fill="#e89f9f"/>
            <circle id="Elipse_13445" data-name="Elipse 13445" cx="13.759" cy="13.759" r="13.759" transform="translate(60.87 19.458) rotate(-45)" fill="#e89f9f"/>
          </g>
          <path id="Trazado_1045784" data-name="Trazado 1045784" d="M816.843,318.338c-2.206-2.864-6.459-3.342-9.9-2.141,1.761,1.606,3.341,3.523,3.2,5.826-.105,1.744-1.314,3.17-2.369,4.562a22.979,22.979,0,0,1-1.506,1.775c.11.191.223.38.329.574-.106-.193-.219-.382-.329-.574-10.181,10.951-28.452,9.537-29.777,8.686-1.405-.9-2.431-3.538-2.486-6.157a11.79,11.79,0,0,0-2.847,1.548,9.152,9.152,0,0,0-3.468,8.111,12.681,12.681,0,0,0,4.143,8.008,20.929,20.929,0,0,0,8.007,4.422c.086.028.173.051.26.077,2.33-5.157,7.264-8.753,12.472-11.009a31.817,31.817,0,0,1,12.4-2.808,22.389,22.389,0,0,1,10.21,2.328,23.2,23.2,0,0,0,4.057-8.5C820.358,328.305,820.15,322.633,816.843,318.338Z" transform="translate(-720.489 -239.274)"/>
          <g id="Grupo_1200628" data-name="Grupo 1200628" transform="translate(53.517 81.339)">
            <path id="Trazado_1045785" data-name="Trazado 1045785" d="M819.384,331.421c6.657-7.181-5.086-6.42-7.394-8.725-1.016.958-3.895,4.093-4.541,4.7,1.528,2.562,1.264,6.751,2.791,9.313C812.357,335.485,817.624,333.319,819.384,331.421Z" transform="translate(-785.655 -322.696)"/>
            <path id="Trazado_1045786" data-name="Trazado 1045786" d="M790.664,334.088c-2.78.762-6.536.146-9.418.11a12.451,12.451,0,0,0-4.611.719c.055,2.619,1.08,5.254,2.486,6.157,1.029.661,12.271,1.654,22.012-3.057a1.972,1.972,0,0,0,.81-2.784l-3.514-5.893A21.759,21.759,0,0,1,790.664,334.088Z" transform="translate(-776.634 -324.641)" fill="#fff"/>
          </g>
          <path id="Trazado_1045787" data-name="Trazado 1045787" d="M821.3,326.841c1.055-1.393,2.264-2.818,2.369-4.562.139-2.3-1.441-4.221-3.2-5.826-.212.074-.422.153-.627.24a20.488,20.488,0,0,0-5.974,4.176,36.947,36.947,0,0,1,5.229,6.577,1.014,1.014,0,0,0,1.634.114C820.927,327.325,821.117,327.087,821.3,326.841Z" transform="translate(-734.017 -239.529)" fill="#fff"/>
          <path id="Trazado_1045788" data-name="Trazado 1045788" d="M797.726,351.838c-5.207,2.256-10.142,5.852-12.472,11.009a32.952,32.952,0,0,0,31.637-7.61,29.868,29.868,0,0,0,3.449-3.879,22.391,22.391,0,0,0-10.211-2.328A31.818,31.818,0,0,0,797.726,351.838Z" transform="translate(-725.64 -249.066)" fill="#d08f8f"/>
        </g>
        <path id="Trazado_1045789" data-name="Trazado 1045789" d="M763.686,448.669c-1.844,6.529-4.2,12.9-6.015,19.437-.929,3.347-1.4,6.8-2.277,10.155-.6,2.951-1.779,6.7-2.154,9.126a.779.779,0,0,0,1.316.448,15.162,15.162,0,0,0,.931-2.828c1.085-3.949,2.18-7.9,2.919-11.931,1.328-6.71,3.2-13.3,4.86-19.929.353-1.48.864-2.939,1.145-4.427A.373.373,0,0,0,763.686,448.669Z" transform="translate(-3423.304 8505.755)" fill="#a3424c"/>
        <path id="Trazado_1045790" data-name="Trazado 1045790" d="M943.175,287.383a10.635,10.635,0,0,0,3.573.478,4.435,4.435,0,0,0,3.167-1.536c1.281-1.637.742-4.173-.7-5.671a10.427,10.427,0,0,0-5.57-2.577,13.751,13.751,0,0,0-7.192.094,9.654,9.654,0,0,0-5.741,5.811,11.445,11.445,0,0,0,.581,8.8,35.393,35.393,0,0,0,16.025,14.206,11.043,11.043,0,0,0,4.911,1.185c3.852-.189,6.7-3.656,8.411-7.115a33.24,33.24,0,0,0,2.879-8.676,16.46,16.46,0,0,0,.11-6.49c-.759-3.463-3.162-6.355-5.885-8.626-2.818-2.35-6.208-4.239-9.873-4.412s-7.582,1.719-8.964,5.119" transform="translate(-3475.077 8557.152)" fill="#f9d9c2"/>
        <path id="Trazado_1045791" data-name="Trazado 1045791" d="M927.907,294.84a66.4,66.4,0,0,0-3.995,5.475.982.982,0,0,0,.338,1.632c9.553,6.936,19.086,15.04,28.017,21.524a30.168,30.168,0,0,0,2.924-7.556C955.14,315.346,935.195,297.709,927.907,294.84Z" transform="translate(-3473.181 8550.711)" fill="#c55762"/>
        <path id="Trazado_1045794" data-name="Trazado 1045794" d="M959.138,295.149c-.026.027-.024.006.079-.063-.453.314-1.214.927-1.939,1.426-2.277,1.719-4.387,1.891-4.98,1.463-3.113-2.507-1-6.178,2.383-8.546a11.744,11.744,0,0,1,3.137-1.476.647.647,0,0,0-.564-1.131,11.082,11.082,0,0,0-7.593,5.865,5.679,5.679,0,0,0-.3.736.966.966,0,0,0-.487.084c-.1.027-.2.047-.306.066l-.061,0a3.119,3.119,0,0,1-1.9-.419,4.089,4.089,0,0,1-1.561-1.61c-.035-.093-.062-.167-.083-.231a5.7,5.7,0,0,0,4.453-3.691,4.5,4.5,0,0,0-.125-2.775c-.03-.11-.069-.216-.105-.323a7.7,7.7,0,0,1,5.02-2.692c.348-.078.687-.193,1.035-.274-.166.026.136-.014.173-.095a.347.347,0,0,0-.139-.576,1,1,0,0,0-.12-.045,3.278,3.278,0,0,0-1.125-.307,7.57,7.57,0,0,0-3.39.925,9.611,9.611,0,0,0-2.1,1.767,4.017,4.017,0,0,0-.245-.324,10.051,10.051,0,0,0-10.6-3.623,9.929,9.929,0,0,0-7.32,6.173,10.085,10.085,0,0,0-.5,3.729c-.062.6.623.827.737.214a6.174,6.174,0,0,1,.857-3.343c1.8-4.374,7.181-6.186,11.819-4.632a13.492,13.492,0,0,1,3.708,2.6,2.756,2.756,0,0,1,.532.66.576.576,0,0,0,.243.494l.013.027a3.872,3.872,0,0,1,.245.89,2.787,2.787,0,0,1-1.438,2.74,2.872,2.872,0,0,1-1.448.483,4.137,4.137,0,0,1-1.819-.086c-.518-.064-.26-.215-.949.032a.9.9,0,0,0-.318,1.214c.5.576.427.3,1.218.69.052.015.1.022.156.035a5.036,5.036,0,0,0,4.588,4.073,6.142,6.142,0,0,0,1.044-.027,5.169,5.169,0,0,0,2.133,4.4c1.879,1.161,4.321.329,5.968-.883a9.9,9.9,0,0,0,2.824-3.265A.5.5,0,0,0,959.138,295.149Z" transform="translate(-3475.006 8555.37)" fill="#dcb69c"/>
      </g>
    </g>
  </g>
</svg>
