<svg xmlns="http://www.w3.org/2000/svg" xmlns:xlink="http://www.w3.org/1999/xlink" width="295" height="259" viewBox="0 0 295 259">
  <defs>
    <clipPath id="clip-path">
      <rect id="Rectángulo_416197" data-name="Rectángulo 416197" width="295" height="259" transform="translate(285.302 1412)" fill="#fff" stroke="#707070" stroke-width="1"/>
    </clipPath>
    <clipPath id="clip-path-2">
      <rect id="Rectángulo_416167" data-name="Rectángulo 416167" width="36.502" height="7.679" fill="none"/>
    </clipPath>
    <clipPath id="clip-path-3">
      <rect id="Rectángulo_416168" data-name="Rectángulo 416168" width="29.984" height="28.964" fill="none"/>
    </clipPath>
    <clipPath id="clip-path-5">
      <rect id="Rectángulo_416170" data-name="Rectángulo 416170" width="12.876" height="9.585" fill="none"/>
    </clipPath>
    <clipPath id="clip-path-6">
      <path id="Trazado_1074873" data-name="Trazado 1074873" d="M456.406,259.679a12.548,12.548,0,0,0-1.13,10.9c1.407,3.89,4.573,6.9,8.032,9.17a36.16,36.16,0,0,0,40.634-.68,23.6,23.6,0,0,0,7.219-7.617c1.714-3.083,2.852-6.966.9-11.008-1.569-3.259-5.2-5.183-8.807-5.453a20.735,20.735,0,0,0-10.437,2.462c-2.632,1.275-5.227,2.865-8.143,3.116-6.6.57-12.073-5.8-18.7-6.022-.111,0-.222-.006-.333-.006a11.265,11.265,0,0,0-9.243,5.132" transform="translate(-454.525 -254.547)" fill="none"/>
    </clipPath>
  </defs>
  <g id="Enmascarar_grupo_1098859" data-name="Enmascarar grupo 1098859" transform="translate(-285.302 -1412)" clip-path="url(#clip-path)">
    <g id="Grupo_1201460" data-name="Grupo 1201460" transform="translate(-7.562 16.391)">
      <circle id="Elipse_13510" data-name="Elipse 13510" cx="121.5" cy="121.5" r="121.5" transform="translate(318.864 1471.609)" fill="#effbfe"/>
      <g id="Grupo_1201459" data-name="Grupo 1201459" transform="translate(351.904 1415.908)">
        <path id="Trazado_1075417" data-name="Trazado 1075417" d="M565.844,260.184a13.017,13.017,0,0,0-4.31-1.005,14.109,14.109,0,0,0-11.064,4.2c-1.4-4.589-11.874-12.587-9.392-29.091.253-1.656.859-6.913.3-8.493-.691-1.97-3.177-2.467-5.252-2.745-7.593-1.01-17.868-1.687-24.2-5.983s-11.815-15.737-12.883-23.312c-3.911,11.8-14.754,25.171-27.04,28.086a111.958,111.958,0,0,1-12.92,1.94,3.071,3.071,0,0,0-1.678.533,3.235,3.235,0,0,0-.706,2.494c-.315,15.844-7.547,21.473-9.725,23.3a30.082,30.082,0,0,0-7.719,10.009,13.744,13.744,0,0,0-12.7-7.312c-.418.014-.823.038-1.24.088a18.575,18.575,0,0,0-13.179,8.772c-4.068,6.523-3.4,15.131.757,21.612,4.84,7.527,15.662,9.208,20.973,7.686,8.068,18.426,28.045,28.012,41.045,32.032-.165.989-.328,2.014-.493,3.015-.36,2.187-.71,4.288-1.023,5.651-.174.694,6.687,10.284,19.863,9.86,8.18-.263,15.311-3.3,18.482-10.171-.491-1.9-.818-3.674-1.193-5.383-.05-.253-.27-1.041-.536-1.959.026-.006.053-.011.079-.018a73.393,73.393,0,0,0,23.723-11.2c3.5-2.486,13.281-12.131,17.18-18.55,3.4,1.488,6.405,1.146,9.892-.146,7.385-2.769,11.6-8.266,13.408-15.429s-1.658-15.608-8.45-18.488" transform="translate(-403.504 -166.139)" fill="#a85643"/>
        <path id="Trazado_1075418" data-name="Trazado 1075418" d="M565.844,260.184a13.017,13.017,0,0,0-4.31-1.005,14.109,14.109,0,0,0-11.064,4.2c-1.4-4.589-11.874-12.587-9.392-29.091.253-1.656.859-6.913.3-8.493-.691-1.97-3.177-2.467-5.252-2.745-7.593-1.01-17.868-1.687-24.2-5.983s-11.815-15.737-12.883-23.312c-3.911,11.8-14.754,25.171-27.04,28.086a111.958,111.958,0,0,1-12.92,1.94,3.071,3.071,0,0,0-1.678.533,3.235,3.235,0,0,0-.706,2.494c-.315,15.844-7.547,21.473-9.725,23.3a30.082,30.082,0,0,0-7.719,10.009,13.744,13.744,0,0,0-12.7-7.312c-.418.014-.823.038-1.24.088a18.575,18.575,0,0,0-13.179,8.772c-4.068,6.523-3.4,15.131.757,21.612,4.84,7.527,15.662,9.208,20.973,7.686,8.068,18.426,28.045,28.012,41.045,32.032-.165.989-.328,2.014-.493,3.015-.36,2.187-.71,4.288-1.023,5.651-.174.694,6.687,10.284,19.863,9.86,8.18-.263,15.311-3.3,18.482-10.171-.491-1.9-.818-3.674-1.193-5.383-.05-.253-.27-1.041-.536-1.959.026-.006.053-.011.079-.018a73.393,73.393,0,0,0,23.723-11.2c3.5-2.486,13.281-12.131,17.18-18.55,3.4,1.488,6.405,1.146,9.892-.146,7.385-2.769,11.6-8.266,13.408-15.429s-1.658-15.608-8.45-18.488" transform="translate(-403.504 -166.139)" fill="#a85643"/>
        <path id="Trazado_1075419" data-name="Trazado 1075419" d="M560.255,232.587c1.535,9.491,1.387,19.428-1.889,28.458a14.1,14.1,0,0,0-11.063,4.2c-1.4-4.589-11.874-12.588-9.393-29.091.254-1.656.86-6.913.3-8.493-.691-1.97-3.177-2.467-5.251-2.745-7.592-1.01-17.867-1.687-24.2-5.983s-11.816-15.737-12.883-23.312c-3.911,11.8-14.754,25.171-27.04,28.086a112.035,112.035,0,0,1-12.92,1.94,3.072,3.072,0,0,0-1.68.533,3.24,3.24,0,0,0-.706,2.494c-.315,15.844-7.547,21.473-9.725,23.3a30.078,30.078,0,0,0-7.717,10.009,13.744,13.744,0,0,0-12.7-7.312l0-.665a61.064,61.064,0,0,1,12.935-41.635,74.139,74.139,0,0,1,15.435-14.314c12.212-8.641,27.613-14.484,42.571-9.973,6.673-3.521,14.785-2.787,22.109-.982,14.821,3.666,29.1,11.948,36.887,25.085a58.029,58.029,0,0,1,6.925,20.394" transform="translate(-400.336 -168.005)" fill="#00112e"/>
        <g id="Grupo_1201454" data-name="Grupo 1201454" transform="translate(71.201 156.86)" opacity="0.21" style="mix-blend-mode: multiply;isolation: isolate">
          <g id="Grupo_1201135" data-name="Grupo 1201135" transform="translate(0 0)">
            <g id="Grupo_1201134" data-name="Grupo 1201134" clip-path="url(#clip-path-2)">
              <path id="Trazado_1074848" data-name="Trazado 1074848" d="M499.053,304.991c-.227-1.051-.44-2.079-.659-3.074-.133-.672-.288-1.318-.457-1.977a61.867,61.867,0,0,1-29.561.52c-1.647-.377-3.544-.87-5.618-1.516-.069.417-.138.845-.208,1.27,10.649,6.719,24.28,7.871,36.5,4.777" transform="translate(-462.551 -298.943)" fill="#8a4a85"/>
            </g>
          </g>
        </g>
        <path id="Trazado_1075420" data-name="Trazado 1075420" d="M443.9,361.627c-10.552-.521-16.816-4.917-24.579-10.84-1.563-1.192-3.189-2.455-4.927-3.751a3.168,3.168,0,0,1-1.29-1.508,3.091,3.091,0,0,1,.378-2.015c13.054-28.338,33.079-41.869,60.071-40.819-.359,2.187-.67,2.964-.983,4.325-.174.694,6.687,10.284,19.863,9.86,8.179-.263,15.311-3.3,18.482-10.17-.491-1.9-.444-1.965-.818-3.674,24.943-6.15,48.811,7.109,64.56,27.4,1.078,1.391,2.149,2.98,2.021,4.742a7.331,7.331,0,0,1-1.345,3.24c-1.277,2-2.521,3.793-3.809,5.421-5.949,7.677-12.186,11.775-21.711,16.433,3.394,11.1,6.151,21.537,6.909,25.238a4.785,4.785,0,0,1,.193,1.408c-.405.788-19.471,19.545-69.638,17.347-25.52-1.111-37.138-5.347-48.09-10.649-.324-.162-.649-.312-.973-.473-.612-.288-1.354-.424-1.692-1a2.9,2.9,0,0,1,0-2.127c1.943-8.791,4.33-18.284,7.374-28.389" transform="translate(-402.674 -141.494)" fill="#f7c147"/>
        <path id="Trazado_1075421" data-name="Trazado 1075421" d="M562.109,369.378a4.622,4.622,0,0,1,.392,3.012,4.524,4.524,0,0,1-1.987,2.08c-5.945,3.965-24.188,12.764-24.725,12.129-1.559-1.855-2.97-7.108-4.529-8.963-.758-3.7-3.515-14.135-6.909-25.238,9.525-4.658,15.762-8.756,21.711-16.433,6.869,10.228,11.716,21.824,16.047,33.413" transform="translate(-377.216 -133.616)" fill="#a85643"/>
        <path id="Trazado_1075422" data-name="Trazado 1075422" d="M445.825,352.457c-3.044,10.1-5.431,19.6-7.374,28.389a2.9,2.9,0,0,0,0,2.127c.338.579,1.08.715,1.692,1,.324.161.649.311.973.473-.895,2.364-1.777,4.74-2.66,7.1a4.026,4.026,0,0,1-1.014,1.741,3.518,3.518,0,0,1-2.353.617,30.349,30.349,0,0,1-10.029-2.235,188.659,188.659,0,0,1-17.918-7.475,3.221,3.221,0,0,1-2.076-4.912,303.906,303.906,0,0,1,16.184-37.671c7.763,5.922,14.027,10.319,24.579,10.84" transform="translate(-404.603 -132.323)" fill="#a85643"/>
        <path id="Trazado_1075423" data-name="Trazado 1075423" d="M532.578,379.839c-5.141-17.166-10.294-35.39-16.457-52.2a.587.587,0,0,1,1.069-.478c4.175,8.221,7.09,16.971,9.849,25.734a221.625,221.625,0,0,1,6.687,26.711.587.587,0,0,1-1.148.235" transform="translate(-379.108 -135.702)" fill="#b2862f"/>
        <path id="Trazado_1075424" data-name="Trazado 1075424" d="M448.847,329.9c-4.162,13-8.676,27.272-12.272,40.356l-3.744,13.567a.586.586,0,0,1-1.144-.252c.759-4.652,1.73-9.263,2.806-13.851a259.751,259.751,0,0,1,8.037-27.1c1.613-4.428,3.3-8.829,5.221-13.135a.587.587,0,0,1,1.1.414" transform="translate(-398.411 -135.176)" fill="#b2862f"/>
        <path id="Trazado_1075425" data-name="Trazado 1075425" d="M505.066,196.967c-2.307-7.645,1.032-15.031,6.785-20.571,5.033-4.846,15.365-7.4,22.639-1.9a10.839,10.839,0,0,0,2.449,1.422,20.753,20.753,0,0,1,12.809,14.635c3.446,14.638-9.19,21.966-11.8,23.32-6.069,3.142-13.753,2.095-19.513-1.583s-11.422-8.885-13.365-15.322" transform="translate(-381.795 -171.255)" fill="#00112e"/>
        <path id="Trazado_1075426" data-name="Trazado 1075426" d="M437.145,216.295c-7.963.6-14.452-4.257-18.617-11.071-3.646-5.962-3.91-16.6,3.037-22.515a10.9,10.9,0,0,0,1.916-2.084,20.756,20.756,0,0,1,17.058-9.343c15.037-.2,19.46,13.721,20.217,16.565,1.757,6.6-.928,13.881-5.763,18.711s-11.143,9.23-17.848,9.736" transform="translate(-401.996 -171.28)" fill="#00112e"/>
        <g id="Grupo_1201455" data-name="Grupo 1201455" transform="translate(35.449 101.965)" opacity="0.4" style="mix-blend-mode: multiply;isolation: isolate">
          <g id="Grupo_1201138" data-name="Grupo 1201138" transform="translate(0 0)">
            <g id="Grupo_1201137" data-name="Grupo 1201137" clip-path="url(#clip-path-3)">
              <path id="Trazado_1074856" data-name="Trazado 1074856" d="M433.461,269.23a15,15,0,1,1,15.45,13.992,14.745,14.745,0,0,1-15.45-13.992" transform="translate(-433.454 -254.266)" fill="#d67188"/>
            </g>
          </g>
        </g>
        <g id="Grupo_1201456" data-name="Grupo 1201456" transform="translate(114.688 103.389)" opacity="0.4" style="mix-blend-mode: multiply;isolation: isolate">
          <g id="Grupo_1201141" data-name="Grupo 1201141" transform="translate(0)">
            <g id="Grupo_1201140" data-name="Grupo 1201140" clip-path="url(#clip-path-3)">
              <path id="Trazado_1074857" data-name="Trazado 1074857" d="M497.951,270.389a15,15,0,1,1,15.45,13.992,14.744,14.744,0,0,1-15.45-13.992" transform="translate(-497.944 -255.425)" fill="#d67188"/>
            </g>
          </g>
        </g>
        <path id="Trazado_1075427" data-name="Trazado 1075427" d="M525.368,264.313c.942-7.015,10.381-11.508,15.613-5.786a.6.6,0,0,1-.77.885c-5.221-3.085-11.17.128-13.732,5.275a.6.6,0,0,1-1.111-.373" transform="translate(-376.986 -151.923)" fill="#793d2e"/>
        <path id="Trazado_1075428" data-name="Trazado 1075428" d="M416.524,251.873c7.241-7.138,18.132,1.006,15.681,10.229a.592.592,0,0,1-1.161-.154c.177-7.361-6.9-13.383-13.743-9.2a.593.593,0,0,1-.776-.876" transform="translate(-401.91 -153.47)" fill="#793d2e"/>
        <path id="Trazado_1075429" data-name="Trazado 1075429" d="M450.213,231.9c-.827-2.319,1.9-5.344,4.69-6.934a11.508,11.508,0,0,1,7.269-1.608c1.606.24,3.362,1.22,3.507,2.837.131,1.462-1.144,2.7-2.493,3.273-2.156.923-4.463.63-8.452,2.994-1.821,1.079-3.831,1.368-4.52-.563" transform="translate(-394.206 -159.393)" fill="#00112e"/>
        <path id="Trazado_1075430" data-name="Trazado 1075430" d="M507.275,230.986c.677-2.367-2.241-5.211-5.125-6.618a11.5,11.5,0,0,0-7.358-1.138c-1.587.342-3.277,1.433-3.318,3.056-.037,1.467,1.315,2.617,2.7,3.106,2.21.783,4.493.343,8.627,2.445,1.887.96,3.911,1.119,4.475-.852" transform="translate(-384.735 -159.445)" fill="#00112e"/>
        <g id="Grupo_1201457" data-name="Grupo 1201457" transform="translate(84.182 88.099)" opacity="0.4" style="mix-blend-mode: multiply;isolation: isolate">
          <g id="Grupo_1201144" data-name="Grupo 1201144" transform="translate(0 0)">
            <g id="Grupo_1201143" data-name="Grupo 1201143" clip-path="url(#clip-path-5)">
              <path id="Trazado_1074862" data-name="Trazado 1074862" d="M485.767,246.125a5.146,5.146,0,0,0-3.89-2.89,9.038,9.038,0,0,0-5.946.574,4.944,4.944,0,0,0-2.643,2.741,4.4,4.4,0,0,0,1.578,4.6,8.181,8.181,0,0,0,9.591-.29,4.53,4.53,0,0,0,1.31-4.738" transform="translate(-473.116 -242.981)" fill="#b05e72"/>
            </g>
          </g>
        </g>
        <path id="Trazado_1075431" data-name="Trazado 1075431" d="M481.45,250.5c-.365-.343.858-1.685,1.348-2.14.26-.242.616-.433.842-.3.342.205-.267,1.068-.386,1.234-.554.77-1.67,1.328-1.8,1.2" transform="translate(-387.043 -153.73)" fill="#512f2b"/>
        <path id="Trazado_1075432" data-name="Trazado 1075432" d="M475.045,250.235c.283-.079-.068-1.75-1.028-2.412a.639.639,0,0,0-.37-.143.481.481,0,0,0-.415.441,1.1,1.1,0,0,0,.165.628,3.3,3.3,0,0,0,.514.707c.288.3.907.842,1.135.779" transform="translate(-388.909 -153.807)" fill="#512f2b"/>
        <path id="Trazado_1075433" data-name="Trazado 1075433" d="M508.57,247.963a16.007,16.007,0,0,0-2.282-3.33,8.729,8.729,0,0,0,1.461-2.677,7.01,7.01,0,0,0,.328-3.252c-.065-.412-.251-.89-.661-.96-.457-.077-.8.405-1,.823-.91,1.877-1.713,3.889-3.249,5.3a4.366,4.366,0,0,1-2.309,1.192,4.831,4.831,0,0,1-3.445-1.157,11.174,11.174,0,0,1-3.244-4.047,2.2,2.2,0,0,0-.456-.711.678.678,0,0,0-.783-.129,1.079,1.079,0,0,0-.424.963,7.494,7.494,0,0,0,1.772,4.973,6.8,6.8,0,0,0,2.375,1.972,18.836,18.836,0,0,0-.839,4.2c.568,1.648,1.882-1.725,2.537-3.585a7.574,7.574,0,0,0,2.826.133,17.872,17.872,0,0,0,1.692,3.846.421.421,0,0,0,.775-.238,17.354,17.354,0,0,0-.721-4.076,8.119,8.119,0,0,0,2.086-1.274,15.692,15.692,0,0,0,2.944,2.583.427.427,0,0,0,.613-.542" transform="translate(-384.499 -156.082)" fill="#041328"/>
        <path id="Trazado_1075434" data-name="Trazado 1075434" d="M467.116,239.331a.679.679,0,0,0-.773.178,2.191,2.191,0,0,0-.409.74,11.162,11.162,0,0,1-2.977,4.246,4.83,4.83,0,0,1-3.363,1.377,4.362,4.362,0,0,1-2.381-1.041c-1.623-1.31-2.553-3.266-3.583-5.081-.229-.4-.6-.865-1.048-.757-.4.1-.56.585-.6,1a6.979,6.979,0,0,0,.536,3.225,8.75,8.75,0,0,0,1.629,2.578,15.962,15.962,0,0,0-2.063,3.47.433.433,0,0,0,.052.4.426.426,0,0,0,.595.1A15.632,15.632,0,0,0,455.5,247a8.149,8.149,0,0,0,2.165,1.138,17.356,17.356,0,0,0-.458,4.115.421.421,0,0,0,.789.187,17.82,17.82,0,0,0,1.441-3.947,7.554,7.554,0,0,0,2.81-.313,18.7,18.7,0,0,0,2,3.717c1.5.918.329-2.6-.347-4.434a6.835,6.835,0,0,0,2.245-2.121,7.5,7.5,0,0,0,1.449-5.077,1.082,1.082,0,0,0-.485-.934" transform="translate(-393.772 -155.798)" fill="#041328"/>
        <path id="Trazado_1075435" data-name="Trazado 1075435" d="M463.148,302.283c4.038,9.09,14.49,12.191,23.571,10.245A15.253,15.253,0,0,0,498.711,302.5a1.463,1.463,0,0,1,1.88-.865c2.331.935-.113,6.795-.958,8.329-7.47,12.763-29.366,12.066-36.94-.281-.94-1.6-4.047-7.821-1.081-8.25a1.482,1.482,0,0,1,1.537.85" transform="translate(-391.852 -141.517)" fill="#fce688"/>
        <g id="Grupo_1201458" data-name="Grupo 1201458" transform="translate(61.339 102.31)">
          <g id="Grupo_1201148" data-name="Grupo 1201148" transform="translate(0 0)" clip-path="url(#clip-path-6)">
            <path id="Trazado_1074868" data-name="Trazado 1074868" d="M512.065,260.449c-1.569-3.259-5.2-5.181-8.807-5.453a20.747,20.747,0,0,0-10.437,2.462c-2.632,1.275-5.228,2.867-8.143,3.117-6.6.569-12.073-5.8-18.7-6.022a11.226,11.226,0,0,0-9.577,5.126,12.547,12.547,0,0,0-1.13,10.9c1.407,3.889,4.573,6.9,8.032,9.169a36.154,36.154,0,0,0,40.634-.679,23.62,23.62,0,0,0,7.219-7.616c1.713-3.084,2.852-6.966.9-11.009" transform="translate(-454.525 -254.547)" fill="#fff"/>
            <path id="Trazado_1074869" data-name="Trazado 1074869" d="M459.973,279.908a.631.631,0,0,1-.23-.044.616.616,0,0,1-.34-.8c3.2-7.918,6.607-15.89,10.121-23.7a.615.615,0,0,1,1.122.5c-3.509,7.791-6.907,15.749-10.1,23.653a.617.617,0,0,1-.57.383" transform="translate(-453.42 -254.442)" fill="#666563"/>
            <path id="Trazado_1074870" data-name="Trazado 1074870" d="M472.582,285.152a.559.559,0,0,1-.1-.009.613.613,0,0,1-.506-.705l4.191-25.526a.614.614,0,0,1,1.212.2l-4.191,25.526a.614.614,0,0,1-.6.515" transform="translate(-450.536 -253.666)" fill="#666563"/>
            <path id="Trazado_1074871" data-name="Trazado 1074871" d="M490.359,283.23a.615.615,0,0,1-.589-.437l-7.3-24.35a.614.614,0,1,1,1.176-.353l7.3,24.349a.614.614,0,0,1-.587.791" transform="translate(-448.141 -253.837)" fill="#666563"/>
            <path id="Trazado_1074872" data-name="Trazado 1074872" d="M500.732,275.269a.614.614,0,0,1-.557-.354c-3.121-6.673-6.586-13.277-10.3-19.631a.614.614,0,0,1,1.06-.62c3.732,6.387,7.214,13.024,10.352,19.731a.614.614,0,0,1-.557.875" transform="translate(-446.459 -254.59)" fill="#666563"/>
          </g>
        </g>
      </g>
    </g>
  </g>
</svg>
