<svg xmlns="http://www.w3.org/2000/svg" xmlns:xlink="http://www.w3.org/1999/xlink" width="103" height="103" viewBox="0 0 103 103">
  <defs>
    <filter id="Trazado_978624" x="0" y="0" width="103" height="103" filterUnits="userSpaceOnUse">
      <feOffset dy="3" input="SourceAlpha"/>
      <feGaussianBlur stdDeviation="3" result="blur"/>
      <feFlood flood-opacity="0.161"/>
      <feComposite operator="in" in2="blur"/>
      <feComposite in="SourceGraphic"/>
    </filter>
  </defs>
  <g id="Grupo_1200669" data-name="Grupo 1200669" transform="translate(-612 -1018.527)">
    <g id="Grupo_1181204" data-name="Grupo 1181204" transform="translate(0 70.527)">
      <g id="Grupo_1179494" data-name="Grupo 1179494" transform="translate(621 954)">
        <g id="Grupo_1144531" data-name="Grupo 1144531">
          <g transform="matrix(1, 0, 0, 1, -9, -6)" filter="url(#Trazado_978624)">
            <g id="Trazado_978624-2" data-name="Trazado 978624" transform="translate(9 6)" fill="#ebe9f0">
              <path d="M 42.5 83.5 C 36.96437835693359 83.5 31.59512901306152 82.41617584228516 26.54141235351562 80.27863311767578 C 21.65934181213379 78.21369171142578 17.27447128295898 75.25723266601562 13.50862312316895 71.49137878417969 C 9.742764472961426 67.72553253173828 6.786305904388428 63.34066009521484 4.721364498138428 58.45858764648438 C 2.583823442459106 53.40486907958984 1.5 48.03562164306641 1.5 42.5 C 1.5 36.96437835693359 2.583823442459106 31.59512901306152 4.721364498138428 26.54141235351562 C 6.786305904388428 21.65934181213379 9.742764472961426 17.27447128295898 13.50862312316895 13.50862312316895 C 17.27447128295898 9.742764472961426 21.65934181213379 6.786305904388428 26.54141235351562 4.721364498138428 C 31.59512901306152 2.583823442459106 36.96437835693359 1.5 42.5 1.5 C 48.03562164306641 1.5 53.40486907958984 2.583823442459106 58.45858764648438 4.721364498138428 C 63.34066009521484 6.786305904388428 67.72553253173828 9.742764472961426 71.49137878417969 13.50862312316895 C 75.25723266601562 17.27447128295898 78.21369171142578 21.65934181213379 80.27863311767578 26.54141235351562 C 82.41617584228516 31.59512901306152 83.5 36.96437835693359 83.5 42.5 C 83.5 48.03562164306641 82.41617584228516 53.40486907958984 80.27863311767578 58.45858764648438 C 78.21369171142578 63.34066009521484 75.25723266601562 67.72553253173828 71.49137878417969 71.49137878417969 C 67.72553253173828 75.25723266601562 63.34066009521484 78.21369171142578 58.45858764648438 80.27863311767578 C 53.40486907958984 82.41617584228516 48.03562164306641 83.5 42.5 83.5 Z" stroke="none"/>
              <path d="M 42.5 3 C 37.16621398925781 3 31.99356079101562 4.043960571289062 27.125732421875 6.102882385253906 C 22.42246627807617 8.092185974121094 18.19785308837891 10.94070434570312 14.56928253173828 14.56928253173828 C 10.94070434570312 18.19785308837891 8.092185974121094 22.42246627807617 6.102882385253906 27.125732421875 C 4.043960571289062 31.99356079101562 3 37.16621398925781 3 42.5 C 3 47.83378601074219 4.043960571289062 53.00643920898438 6.102882385253906 57.87425231933594 C 8.092185974121094 62.57753372192383 10.94070434570312 66.80213165283203 14.56928253173828 70.43071746826172 C 18.19786834716797 74.05929565429688 22.42246627807617 76.90781402587891 27.125732421875 78.89711761474609 C 31.99356079101562 80.95603942871094 37.16621398925781 82 42.5 82 C 47.83378601074219 82 53.00642395019531 80.95603942871094 57.87425231933594 78.89711761474609 C 62.57753372192383 76.90781402587891 66.80213165283203 74.05929565429688 70.43071746826172 70.43071746826172 C 74.05929565429688 66.80213165283203 76.90781402587891 62.57753372192383 78.89711761474609 57.87425231933594 C 80.95603942871094 53.00642395019531 82 47.83378601074219 82 42.5 C 82 37.16621398925781 80.95603942871094 31.99356079101562 78.89711761474609 27.125732421875 C 76.90781402587891 22.42246627807617 74.05929565429688 18.19786834716797 70.43071746826172 14.56928253173828 C 66.80213165283203 10.94070434570312 62.57753372192383 8.092185974121094 57.87425231933594 6.102882385253906 C 53.00643920898438 4.043960571289062 47.83378601074219 3 42.5 3 M 42.5 0 C 65.97209167480469 0 85 19.02789306640625 85 42.5 C 85 65.97209167480469 65.97209167480469 85 42.5 85 C 19.02789306640625 85 0 65.97209167480469 0 42.5 C 0 19.02789306640625 19.02789306640625 0 42.5 0 Z" stroke="none" fill="#453179"/>
            </g>
          </g>
        </g>
      </g>
    </g>
    <g id="familia_1_" data-name="familia (1)" transform="translate(637.074 1040.584)">
      <g id="Grupo_1200668" data-name="Grupo 1200668" transform="translate(0.775 0.788)">
        <path id="Trazado_1069457" data-name="Trazado 1069457" d="M45.59,46.494a1.756,1.756,0,0,1-1.576,0C37.052,43,29.349,38.155,24.645,31.974,20.25,26.2,18.527,18.089,23.559,12.151A13.209,13.209,0,0,1,40.223,9.218a12.272,12.272,0,0,1,3.239,2.706,1.771,1.771,0,0,0,2.681,0,12.268,12.268,0,0,1,3.239-2.706,13.209,13.209,0,0,1,16.665,2.933c5.032,5.938,3.308,14.049-1.087,19.823C60.255,38.155,52.552,43,45.59,46.494Z" transform="translate(-19.149 -7.465)" fill="#ff4f6b"/>
        <g id="Grupo_1200666" data-name="Grupo 1200666" transform="translate(24.104 0.001)">
          <path id="Trazado_1069458" data-name="Trazado 1069458" d="M263.8,12.157a13.214,13.214,0,0,0-11.643-4.594,13.211,13.211,0,0,1,8.546,4.594c5.032,5.938,3.308,14.049-1.087,19.823C255.08,37.937,247.762,42.656,241,46.114q.381.2.76.386a1.756,1.756,0,0,0,1.576,0c6.962-3.49,14.665-8.339,19.369-14.519C267.105,26.206,268.829,18.1,263.8,12.157Z" transform="translate(-241.005 -7.472)" fill="#fb2b3a"/>
        </g>
        <g id="Grupo_1200667" data-name="Grupo 1200667" transform="translate(0 36.892)">
          <path id="Trazado_1069459" data-name="Trazado 1069459" d="M57.775,379.253H8.539a1.034,1.034,0,0,1-.949-1.443L9.9,372.455a1.034,1.034,0,0,0,0-.818L7.59,366.282a1.034,1.034,0,0,1,.949-1.443H57.775a1.034,1.034,0,0,1,.949,1.443l-2.307,5.354a1.034,1.034,0,0,0,0,.818l2.307,5.354A1.034,1.034,0,0,1,57.775,379.253Z" transform="translate(-7.504 -364.839)" fill="#cfabf2"/>
          <path id="Trazado_1069460" data-name="Trazado 1069460" d="M453.692,372.455a1.034,1.034,0,0,1,0-.818L456,366.282a1.034,1.034,0,0,0-.949-1.443h-3.1a1.034,1.034,0,0,1,.949,1.443l-2.307,5.354a1.034,1.034,0,0,0,0,.818l2.307,5.354a1.034,1.034,0,0,1-.949,1.443h3.1a1.034,1.034,0,0,0,.949-1.443Z" transform="translate(-404.779 -364.839)" fill="#bd80e1"/>
        </g>
      </g>
      <path id="Trazado_1069461" data-name="Trazado 1069461" d="M32.833,41.06v7.652a.774.774,0,1,0,1.548,0V41.06a.774.774,0,1,0-1.548,0Zm4.589-.774a.774.774,0,0,0-.774.774v7.646a.774.774,0,0,0,.644.763c.055.009,1.947.016,2.815.011a.774.774,0,0,0-.009-1.548c-.666,0-1.383.006-1.9.006V41.06a.774.774,0,0,0-.774-.774Zm12.976,4.7a.261.261,0,0,1,0-.206l2.307-5.354a1.825,1.825,0,0,0-1.66-2.524h-7.4a.774.774,0,0,0,0,1.548h7.4a.249.249,0,0,1,.238.363l-2.307,5.354a1.816,1.816,0,0,0,0,1.431l2.307,5.354a.249.249,0,0,1-.238.363H1.81a.249.249,0,0,1-.238-.363L3.878,45.6a1.816,1.816,0,0,0,0-1.431L1.571,38.816a.25.25,0,0,1,.238-.363H40.033a.774.774,0,1,0,0-1.548H34.089c5.748-3.512,10.152-7.252,13.111-11.14a20.728,20.728,0,0,0,4.232-10.242A13.8,13.8,0,0,0,48.261,4.973a14,14,0,0,0-17.64-3.1,12.989,12.989,0,0,0-3.443,2.875,1,1,0,0,1-1.5,0,12.989,12.989,0,0,0-3.443-2.876,14,14,0,0,0-17.64,3.1,13.51,13.51,0,0,0-2.736,5.118.774.774,0,0,0,1.491.417A11.971,11.971,0,0,1,5.774,5.974,12.456,12.456,0,0,1,21.463,3.213,11.447,11.447,0,0,1,24.5,5.749a2.546,2.546,0,0,0,3.861,0,11.446,11.446,0,0,1,3.033-2.535A12.456,12.456,0,0,1,47.08,5.974a12.281,12.281,0,0,1,2.812,9.395,19.163,19.163,0,0,1-3.924,9.459c-3.213,4.221-8.238,8.284-14.934,12.078H21.82c-6.7-3.794-11.72-7.856-14.933-12.077a18.564,18.564,0,0,1-4-10.969.774.774,0,0,0-.77-.778h0a.774.774,0,0,0-.774.77A19.858,19.858,0,0,0,5.655,25.766c2.959,3.888,7.363,7.627,13.111,11.14H1.81a1.812,1.812,0,0,0-1.66,2.524l2.307,5.355a.262.262,0,0,1,0,.206L.149,50.344a1.823,1.823,0,0,0,1.66,2.524H51.045a1.829,1.829,0,0,0,1.66-2.524Zm-6.5,4.5h0a.774.774,0,0,0,.774-.772l.009-3.68,2.3-3.532a.774.774,0,1,0-1.3-.845l-1.776,2.729-1.8-2.749a.774.774,0,1,0-1.3.847l2.318,3.55-.009,3.678A.774.774,0,0,0,43.9,49.487Zm-15.7-9.2a.947.947,0,0,0-.962.68l-1.543,5.413c0-.011-1.6-5.437-1.608-5.448a.947.947,0,0,0-1.829.131l-1.345,7.452a.774.774,0,1,0,1.524.275l.894-4.953,1.468,4.976.009.028a.946.946,0,0,0,.9.645H25.7a.945.945,0,0,0,.9-.655l.008-.027,1.418-4.973.949,4.966a.774.774,0,1,0,1.521-.291l-1.426-7.464a.948.948,0,0,0-.875-.756ZM9.6,41.862a.774.774,0,1,0,0-1.548H6.523a.774.774,0,0,0-.774.774v7.6a.774.774,0,1,0,1.548,0v-3.1h2.06a.774.774,0,1,0,0-1.548H7.3V41.862Zm5.271-1.576a.945.945,0,0,0-.883.606l-2.873,7.545a.774.774,0,1,0,1.447.551l.526-1.38h3.548l.52,1.378a.774.774,0,0,0,1.449-.547l-2.847-7.545a.945.945,0,0,0-.886-.608Zm-1.194,5.773,1.192-3.131,1.181,3.131Z" transform="translate(0 0)"/>
    </g>
  </g>
</svg>
