<svg xmlns="http://www.w3.org/2000/svg" xmlns:xlink="http://www.w3.org/1999/xlink" width="103" height="103" viewBox="0 0 103 103">
  <defs>
    <filter id="Trazado_978624" x="0" y="0" width="103" height="103" filterUnits="userSpaceOnUse">
      <feOffset dy="3" input="SourceAlpha"/>
      <feGaussianBlur stdDeviation="3" result="blur"/>
      <feFlood flood-opacity="0.161"/>
      <feComposite operator="in" in2="blur"/>
      <feComposite in="SourceGraphic"/>
    </filter>
  </defs>
  <g id="Grupo_1201158" data-name="Grupo 1201158" transform="translate(-611 -1843)">
    <g id="Grupo_1183572" data-name="Grupo 1183572" transform="translate(0 -1837)">
      <g id="Grupo_1164359" data-name="Grupo 1164359" transform="translate(620 3686)">
        <g id="Grupo_1144531" data-name="Grupo 1144531">
          <g transform="matrix(1, 0, 0, 1, -9, -6)" filter="url(#Trazado_978624)">
            <g id="Trazado_978624-2" data-name="Trazado 978624" transform="translate(9 6)" fill="#fdfbec">
              <path d="M 42.5 83.5 C 36.96437835693359 83.5 31.59512901306152 82.41617584228516 26.54141235351562 80.27863311767578 C 21.65934181213379 78.21369171142578 17.27447128295898 75.25723266601562 13.50862312316895 71.49137878417969 C 9.742764472961426 67.72553253173828 6.786305904388428 63.34066009521484 4.721364498138428 58.45858764648438 C 2.583823442459106 53.40486907958984 1.5 48.03562164306641 1.5 42.5 C 1.5 36.96437835693359 2.583823442459106 31.59512901306152 4.721364498138428 26.54141235351562 C 6.786305904388428 21.65934181213379 9.742764472961426 17.27447128295898 13.50862312316895 13.50862312316895 C 17.27447128295898 9.742764472961426 21.65934181213379 6.786305904388428 26.54141235351562 4.721364498138428 C 31.59512901306152 2.583823442459106 36.96437835693359 1.5 42.5 1.5 C 48.03562164306641 1.5 53.40486907958984 2.583823442459106 58.45858764648438 4.721364498138428 C 63.34066009521484 6.786305904388428 67.72553253173828 9.742764472961426 71.49137878417969 13.50862312316895 C 75.25723266601562 17.27447128295898 78.21369171142578 21.65934181213379 80.27863311767578 26.54141235351562 C 82.41617584228516 31.59512901306152 83.5 36.96437835693359 83.5 42.5 C 83.5 48.03562164306641 82.41617584228516 53.40486907958984 80.27863311767578 58.45858764648438 C 78.21369171142578 63.34066009521484 75.25723266601562 67.72553253173828 71.49137878417969 71.49137878417969 C 67.72553253173828 75.25723266601562 63.34066009521484 78.21369171142578 58.45858764648438 80.27863311767578 C 53.40486907958984 82.41617584228516 48.03562164306641 83.5 42.5 83.5 Z" stroke="none"/>
              <path d="M 42.5 3 C 37.16621398925781 3 31.99356079101562 4.043960571289062 27.125732421875 6.102882385253906 C 22.42246627807617 8.092185974121094 18.19785308837891 10.94070434570312 14.56928253173828 14.56928253173828 C 10.94070434570312 18.19785308837891 8.092185974121094 22.42246627807617 6.102882385253906 27.125732421875 C 4.043960571289062 31.99356079101562 3 37.16621398925781 3 42.5 C 3 47.83378601074219 4.043960571289062 53.00643920898438 6.102882385253906 57.87425231933594 C 8.092185974121094 62.57753372192383 10.94070434570312 66.80213165283203 14.56928253173828 70.43071746826172 C 18.19786834716797 74.05929565429688 22.42246627807617 76.90781402587891 27.125732421875 78.89711761474609 C 31.99356079101562 80.95603942871094 37.16621398925781 82 42.5 82 C 47.83378601074219 82 53.00642395019531 80.95603942871094 57.87425231933594 78.89711761474609 C 62.57753372192383 76.90781402587891 66.80213165283203 74.05929565429688 70.43071746826172 70.43071746826172 C 74.05929565429688 66.80213165283203 76.90781402587891 62.57753372192383 78.89711761474609 57.87425231933594 C 80.95603942871094 53.00642395019531 82 47.83378601074219 82 42.5 C 82 37.16621398925781 80.95603942871094 31.99356079101562 78.89711761474609 27.125732421875 C 76.90781402587891 22.42246627807617 74.05929565429688 18.19786834716797 70.43071746826172 14.56928253173828 C 66.80213165283203 10.94070434570312 62.57753372192383 8.092185974121094 57.87425231933594 6.102882385253906 C 53.00643920898438 4.043960571289062 47.83378601074219 3 42.5 3 M 42.5 0 C 65.97209167480469 0 85 19.02789306640625 85 42.5 C 85 65.97209167480469 65.97209167480469 85 42.5 85 C 19.02789306640625 85 0 65.97209167480469 0 42.5 C 0 19.02789306640625 19.02789306640625 0 42.5 0 Z" stroke="none" fill="#bcac89"/>
            </g>
          </g>
        </g>
      </g>
    </g>
    <g id="coche-de-juguete" transform="translate(556.659 1862.005)">
      <g id="Grupo_1201156" data-name="Grupo 1201156" transform="translate(87.15 0.874)">
        <path id="Trazado_1074900" data-name="Trazado 1074900" d="M233.273,323.9l-1.447,11.456,1.447,6.755h8.672V323.9Z" transform="translate(-215.93 -287.468)" fill="#83deff"/>
        <path id="Trazado_1074901" data-name="Trazado 1074901" d="M169.1,323.9h8.672v18.211H169.1Z" transform="translate(-160.427 -287.468)" fill="#5ad6ff"/>
        <path id="Trazado_1074902" data-name="Trazado 1074902" d="M176.725,223.224v13.4H161.011l-2.454-9.719a4.634,4.634,0,0,1,2.071-3.683Z" transform="translate(-151.095 -198.389)" fill="#df8a57"/>
        <path id="Trazado_1074903" data-name="Trazado 1074903" d="M287.651,248.812,286,251.954a10.816,10.816,0,0,1-4.648-.517c-4.936-1.755-9.1-8.28-4.772-10.12a3.023,3.023,0,0,1,3.964,1.6,4.6,4.6,0,0,0,5.46,2.925Z" transform="translate(-253.923 -214.184)" fill="#e4996d"/>
        <path id="Trazado_1074904" data-name="Trazado 1074904" d="M372.293,283.371l.012-.473v-5.2l-.007-.436a4.073,4.073,0,0,0,.817-.327,3.022,3.022,0,0,1,4.084,1.262C378.691,281.02,375.814,283.009,372.293,283.371Z" transform="translate(-340.219 -245.601)" fill="#fed2a4"/>
        <path id="Trazado_1074905" data-name="Trazado 1074905" d="M93.8,138.877c0-4.016,6.07-4.016,6.07,0S93.8,142.893,93.8,138.877Z" transform="translate(-93.805 -121.091)" fill="#fed2a4"/>
        <path id="Trazado_1074906" data-name="Trazado 1074906" d="M348.345,138.877c0-4.016-6.07-4.016-6.07,0S348.345,142.893,348.345,138.877Z" transform="translate(-313.658 -121.091)" fill="#ffbd86"/>
        <path id="Trazado_1074907" data-name="Trazado 1074907" d="M162.337,36.6A13.883,13.883,0,0,1,145.1,50.062c-18.57-11.071-3.061-25.767-3.061-25.767a13.877,13.877,0,0,1,20.293,12.3Z" transform="translate(-131.119 -20.98)" fill="#fed2a4"/>
        <path id="Trazado_1074908" data-name="Trazado 1074908" d="M134.44,62.14a13.878,13.878,0,0,1-3.061-25.767C127.558,42.468,124.18,52.576,134.44,62.14Z" transform="translate(-120.454 -33.058)" fill="#ffbd86"/>
        <g id="Grupo_1201155" data-name="Grupo 1201155" transform="translate(7.514)">
          <path id="Trazado_1074909" data-name="Trazado 1074909" d="M168.662,464.631h-4.336c-3.442,0-3.442-5.2,0-5.2h4.336C172.1,459.428,172.1,464.631,168.662,464.631Z" transform="translate(-161.433 -407.389)" fill="#7888af"/>
          <path id="Trazado_1074910" data-name="Trazado 1074910" d="M247.07,464.631h4.4c3.424,0,3.388-5.2,0-5.2h-4.4C243.646,459.428,243.683,464.631,247.07,464.631Z" transform="translate(-234.672 -407.389)" fill="#7888af"/>
          <path id="Trazado_1074911" data-name="Trazado 1074911" d="M181.012,22.19c-1.374-4.288-4.325-6.137-4.249-5.054.192,2.76-2.376,5.975-2.73,4.954-.673-1.944-1.576-5.1-4.927-6.591a.572.572,0,0,0-.464,0c-4.789,2.13-4.426,7.46-5.381,6.739a6.566,6.566,0,0,1-2.279-5.1.3.3,0,0,0-.443-.294,7.9,7.9,0,0,0-1.14.83C157.442,11.9,164.194,8.4,164.194,8.4a13.861,13.861,0,0,1,8.959-.137h0a15.435,15.435,0,0,1,10.39,13.392,1.3,1.3,0,0,1-2.531.534Z" transform="translate(-159.043 -7.586)" fill="#7888af"/>
        </g>
        <path id="Trazado_1074912" data-name="Trazado 1074912" d="M126.96,14.653a27.827,27.827,0,0,0-4.795,9.274c-2.576,2.267-2.121,5.108-3.646,5.4a1.305,1.305,0,0,1-1.55-1.409A15.444,15.444,0,0,1,126.96,14.653Z" transform="translate(-114.296 -13.839)" fill="#687daa"/>
        <path id="Trazado_1074913" data-name="Trazado 1074913" d="M240.267,193.738l-14.044,19.843a2.586,2.586,0,0,1-3.606.617l-1.8-1.274a2.617,2.617,0,0,1-.416-3.891,3.925,3.925,0,0,0,.709-1.945l3.114-10.149,8.449-6a4.888,4.888,0,0,0,1.569-1.466,2.626,2.626,0,0,1,3.606-.617l1.8,1.274A2.588,2.588,0,0,1,240.267,193.738Z" transform="translate(-205.235 -167.545)" fill="#ff6e80"/>
        <circle id="Elipse_13500" data-name="Elipse 13500" cx="3.469" cy="3.469" r="3.469" transform="translate(21.035 37.601)" fill="#7888af"/>
        <circle id="Elipse_13501" data-name="Elipse 13501" cx="3.469" cy="3.469" r="3.469" transform="translate(28.048 27.691)" fill="#7888af"/>
        <path id="Trazado_1074914" data-name="Trazado 1074914" d="M229.222,210.3l-.29.423-4.51,6.374-.848.367-.151,1.042-5.512,7.789-.252.152a3.937,3.937,0,0,0-.98-2.95,3.335,3.335,0,0,1-.229-4.144l2.727-3.852,1.032-.379-.035-1.032,1.725-2.437a3.337,3.337,0,0,1,3.985-1.162,4.266,4.266,0,0,0,3.338-.191Z" transform="translate(-201.782 -186.903)" fill="#fbf198"/>
        <path id="Trazado_1074915" data-name="Trazado 1074915" d="M156.824,258.177l-1.4,3.152c-6.6.453-10.464-3.6-10.2-9.655.176-4,6.216-3.73,6.041.265-.1,2.217.675,3.6,3.609,3.385Z" transform="translate(-139.291 -221.025)" fill="#e4996d"/>
        <path id="Trazado_1074916" data-name="Trazado 1074916" d="M229.58,309.078a17.466,17.466,0,0,0,2.241-.312c3.919-.8,2.714-6.72-1.205-5.924a11.159,11.159,0,0,1-1.6.213Z" transform="translate(-213.448 -268.771)" fill="#fed2a4"/>
      </g>
      <g id="Grupo_1201157" data-name="Grupo 1201157" transform="translate(86.283 0)">
        <path id="Trazado_1074917" data-name="Trazado 1074917" d="M122.937,31.293a4.3,4.3,0,0,0-1.108-2.217l1.062-1.5a3.455,3.455,0,0,0-.824-4.81l-1.135-.8a3.9,3.9,0,0,0-.9-6.982c-.448-9.657-10.7-18.052-21.064-13.884a.864.864,0,0,0,.645,1.6,13.344,13.344,0,0,1,15.559,4.38,15.139,15.139,0,0,1,3.135,7.954.437.437,0,0,1-.848.191,12.327,12.327,0,0,0-2.394-4.377c-2.246-2.566-3.618-1.482-3.54-.354a6.157,6.157,0,0,1-1.328,3.8c-.713-2.049-1.866-4.843-5.115-6.289a1.438,1.438,0,0,0-1.166,0c-2.936,1.305-4.142,3.565-5.09,6.287a5.873,5.873,0,0,1-1.358-3.8A1.162,1.162,0,0,0,95.717,9.4a8.71,8.71,0,0,0-3.772,4.84c-.295.764-.491,1.231-.728,1.276a.441.441,0,0,1-.53-.479A14.937,14.937,0,0,1,96.375,4.55a.864.864,0,1,0-1.051-1.371,16.674,16.674,0,0,0-6.364,11.8A3.906,3.906,0,0,0,87.952,21.9a4.194,4.194,0,0,0,3.061.566,14.735,14.735,0,0,0,2.864,4.258,14.943,14.943,0,0,0,1.28,1.184,3.7,3.7,0,0,0-2.933,3.59,10.2,10.2,0,0,0,2.738,7.876v4.854a.864.864,0,1,0,1.728,0V40.689a10.747,10.747,0,0,0,4.805,1.364,3.444,3.444,0,0,0,.743,4.915l1.4.988v4.528a3.518,3.518,0,0,0-1.738-.425c-4.632,0-4.647-.033-5.206.1V47.736a.864.864,0,1,0-1.728,0v5.444a3.491,3.491,0,0,0,2.6,5.809H101.9a3.316,3.316,0,0,0,2.584-1.105l.014-.016.007.008a3.333,3.333,0,0,0,2.566,1.114h4.4a3.491,3.491,0,0,0,2.565-5.818V45.578a4.338,4.338,0,0,0,.94-6.415c3.232.9,7.6.324,9.534-1.909a3.812,3.812,0,0,0-1.569-5.96Zm-3.827,3.317a2.6,2.6,0,1,1,1.065-4.694A2.609,2.609,0,0,1,119.11,34.611Zm2.371-8.033-1.062,1.5a4.333,4.333,0,0,0-4.906,6.931l-2.108,2.977a4.335,4.335,0,0,0-4.684.778,4.2,4.2,0,0,0-.876-3.442l2.146-3.032,6.309-8.327c.442-.452,1.488-2.112,2.97-1.063l1.8,1.274a1.726,1.726,0,0,1,.411,2.4ZM111.467,52.059c-4.584,0-5.107-.136-6.106.412V48.81c2.558.505,3.6-1.552,4.55-2.894a4.263,4.263,0,0,0,2.394.32v5.917a3.757,3.757,0,0,0-.837-.094Zm-7.4-11.815-.4-4.3a9.323,9.323,0,0,1,1.367-.2c2.29.016,2.989,3.742.322,4.285C104.913,40.121,104.472,40.193,104.065,40.244Zm5.046-9.651-2.86-2.024,1.725-2.437a2.463,2.463,0,0,1,2.953-.861,4.628,4.628,0,0,0,1.952.356Zm-3.858-.614,2.836,2.007-1.633,2.307c-1.525-.638-2.561.021-4.2.042.156-.385.089-.243,3-4.357ZM118.6,20.806a14.658,14.658,0,0,0,.636-4.036,2.134,2.134,0,0,0,.188-.17A2.15,2.15,0,0,1,118.6,20.806ZM89.573,16.6a1.631,1.631,0,0,0,.188.17,14.761,14.761,0,0,0,.635,4.035A2.15,2.15,0,0,1,89.573,16.6Zm1.933.619c2.311-.4,1.555-3.54,4.279-5.761a7.407,7.407,0,0,0,2.581,4.765,1.083,1.083,0,0,0,.99.2c.63-.192.848-.821,1.15-1.693A7.852,7.852,0,0,1,104.5,9.639c2.661,1.244,3.486,3.553,4.343,6.03a1.114,1.114,0,0,0,1.3.75c1.215-.248,2.784-2.7,3.074-4.989a9.935,9.935,0,0,1,2.6,4.32,2.1,2.1,0,0,0,1.674,1.474,12.874,12.874,0,0,1-.9,4.1c-1.361.807-2.434,3.4-5,2.35a4.183,4.183,0,0,0-5.016,1.463l-3.07,4.338a13.009,13.009,0,0,1-11.99-12.254Zm10.849,13.865c-1.291,1.824-1.543,2.093-1.8,2.851a2.6,2.6,0,0,1-.57-2.1,4.23,4.23,0,0,0-.148-1.345,14.67,14.67,0,0,0,2.513.594Zm-8.405.486a2.159,2.159,0,0,1,4.314.189c-.117,2.654,1.023,4.227,3.678,4.306l.4,4.3C96.9,40.39,93.717,36.906,93.95,31.57Zm8.59,12.919c-.157-.989.566-1.563.958-2.451a19.341,19.341,0,0,0,2.2-.314,4.018,4.018,0,0,0,1.746-.8A4.338,4.338,0,0,0,108.5,44.92l-1.062,1.5a1.722,1.722,0,0,1-2.4.411c-1.783-1.262-2.361-1.5-2.495-2.343ZM101.9,57.262H97.56a1.738,1.738,0,0,1,0-3.475H101.9a1.738,1.738,0,0,1,0,3.475Zm9.572,0h-4.4a1.738,1.738,0,0,1,0-3.476h4.4A1.738,1.738,0,0,1,111.467,57.262Zm2.316-13.8a2.6,2.6,0,1,1-2.122-4.109,2.6,2.6,0,0,1,2.122,4.109ZM115.8,37.6l1.125-1.589a4.275,4.275,0,0,0,1.451.359v1.48a9.986,9.986,0,0,1-2.575-.25Zm4.3.049V36.132a4.334,4.334,0,0,0,2.736-2.9C124.371,34.5,124,36.84,120.1,37.645Z" transform="translate(-86.283 0)"/>
        <path id="Trazado_1074918" data-name="Trazado 1074918" d="M175.341,151.477a.864.864,0,0,0,.864-.864v-1.382a.864.864,0,1,0-1.728,0v1.382A.864.864,0,0,0,175.341,151.477Z" transform="translate(-164.32 -131.279)"/>
        <path id="Trazado_1074919" data-name="Trazado 1074919" d="M300.239,151.477a.864.864,0,0,0,.864-.864v-1.382a.864.864,0,1,0-1.728,0v1.382A.864.864,0,0,0,300.239,151.477Z" transform="translate(-274.833 -131.279)"/>
        <path id="Trazado_1074920" data-name="Trazado 1074920" d="M225.768,161.441a.864.864,0,1,0-1.3-1.135,1.648,1.648,0,0,1-2.49,0,.864.864,0,0,0-1.3,1.135A3.378,3.378,0,0,0,225.768,161.441Z" transform="translate(-205.007 -141.581)"/>
      </g>
    </g>
  </g>
</svg>
