<svg xmlns="http://www.w3.org/2000/svg" xmlns:xlink="http://www.w3.org/1999/xlink" width="295" height="236" viewBox="0 0 295 236">
  <defs>
    <clipPath id="clip-path">
      <rect id="Rectángulo_416147" data-name="Rectángulo 416147" width="295" height="236" transform="translate(180 1762)" fill="#fff" stroke="#707070" stroke-width="1"/>
    </clipPath>
  </defs>
  <g id="Enmascarar_grupo_1098848" data-name="Enmascarar grupo 1098848" transform="translate(-180 -1762)" clip-path="url(#clip-path)">
    <g id="OBJECTS" transform="translate(169.326 1736.458)">
      <g id="Grupo_1201037" data-name="Grupo 1201037" transform="translate(10.13 25.177)">
        <g id="Grupo_1201036" data-name="Grupo 1201036">
          <g id="Grupo_1200925" data-name="Grupo 1200925" transform="translate(0 3.48)">
            <g id="Grupo_1200859" data-name="Grupo 1200859" transform="translate(9.959 21.636)" opacity="0.37">
              <path id="Trazado_1069726" data-name="Trazado 1069726" d="M280.715,159.758c0,64.761-48.416,105.472-108.14,105.472S10.13,268.774,10.13,204.012s102.721-173.3,162.445-173.3S280.715,95,280.715,159.758Z" transform="translate(-10.13 -30.708)" fill="#ebe9f0"/>
            </g>
          </g>
          <g id="Grupo_1200934" data-name="Grupo 1200934" transform="translate(48.679)">
            <g id="Grupo_1200929" data-name="Grupo 1200929" transform="translate(22.012)">
              <g id="Grupo_1200926" data-name="Grupo 1200926" transform="translate(49)">
                <path id="Trazado_1069762" data-name="Trazado 1069762" d="M200.338,26.488a35.3,35.3,0,0,1,9.672-1.311q12.542,0,15.362,6.927a9.394,9.394,0,0,1,.643,3.562q0,5.121-2.82,7.719a23.931,23.931,0,0,1-2.808,2.177A22.154,22.154,0,0,0,217.8,47.54a9.988,9.988,0,0,0-2.771,4.478H206a12.975,12.975,0,0,1-.742-4.069,7.592,7.592,0,0,1,.507-3.006,6.924,6.924,0,0,1,1.286-1.992,9.215,9.215,0,0,1,1.67-1.41l1.669-1.088a7.958,7.958,0,0,0,1.286-1.014,1.641,1.641,0,0,0,.507-1.2q0-2.894-3.958-2.895a21.021,21.021,0,0,0-6.63,1.311q-.866.3-1.262.47V26.488Zm10.884,27.36a7.961,7.961,0,0,1,2.944.483,5.5,5.5,0,0,1,2,1.323,5.824,5.824,0,0,1,1.583,4.231,6.415,6.415,0,0,1-2.053,4.651,7.467,7.467,0,0,1-5.492,2.066q-3.439.012-5.047-1.682a5.963,5.963,0,0,1-1.62-4.243,6.4,6.4,0,0,1,2.189-4.688A7.567,7.567,0,0,1,211.222,53.848Z" transform="translate(-200.337 -25.177)" fill="#fe777d"/>
              </g>
              <g id="Grupo_1200927" data-name="Grupo 1200927" transform="translate(20.299 31.707)">
                <path id="Trazado_1069763" data-name="Trazado 1069763" d="M154.729,76.662a29.564,29.564,0,0,1,8.1-1.1q10.5,0,12.863,5.8a7.867,7.867,0,0,1,.539,2.983q0,4.288-2.362,6.463a20.08,20.08,0,0,1-2.351,1.822,18.528,18.528,0,0,0-2.165,1.657,8.364,8.364,0,0,0-2.32,3.749h-7.561a10.851,10.851,0,0,1-.622-3.407,6.35,6.35,0,0,1,.425-2.516,5.789,5.789,0,0,1,1.077-1.668,7.7,7.7,0,0,1,1.4-1.18l1.4-.911a6.6,6.6,0,0,0,1.077-.85,1.373,1.373,0,0,0,.425-1q0-2.423-3.314-2.423a17.593,17.593,0,0,0-5.551,1.1q-.726.248-1.057.393V76.662Zm9.114,22.909a6.674,6.674,0,0,1,2.465.4,4.614,4.614,0,0,1,1.678,1.108,4.876,4.876,0,0,1,1.325,3.542,5.372,5.372,0,0,1-1.719,3.894,6.254,6.254,0,0,1-4.6,1.73,5.557,5.557,0,0,1-4.226-1.409,4.99,4.99,0,0,1-1.357-3.552,5.359,5.359,0,0,1,1.833-3.925A6.336,6.336,0,0,1,163.844,99.571Z" transform="translate(-154.728 -75.564)" fill="#fe777d"/>
              </g>
              <g id="Grupo_1200928" data-name="Grupo 1200928" transform="translate(0 68.403)">
                <path id="Trazado_1069764" data-name="Trazado 1069764" d="M122.469,134.752a23.464,23.464,0,0,1,6.428-.872q8.336,0,10.209,4.6a6.24,6.24,0,0,1,.427,2.367,6.635,6.635,0,0,1-1.874,5.129,15.959,15.959,0,0,1-1.866,1.447,14.716,14.716,0,0,0-1.718,1.315,6.631,6.631,0,0,0-1.841,2.976h-6a8.628,8.628,0,0,1-.493-2.7,5.042,5.042,0,0,1,.337-2,4.593,4.593,0,0,1,.855-1.323,6.093,6.093,0,0,1,1.109-.937l1.11-.723a5.3,5.3,0,0,0,.855-.674,1.089,1.089,0,0,0,.337-.8q0-1.924-2.63-1.924a13.956,13.956,0,0,0-4.405.871q-.576.2-.839.313v-7.07Zm7.233,18.183a5.3,5.3,0,0,1,1.956.32,3.652,3.652,0,0,1,1.332.879,3.872,3.872,0,0,1,1.052,2.812,4.263,4.263,0,0,1-1.364,3.09,4.96,4.96,0,0,1-3.65,1.373,4.414,4.414,0,0,1-3.353-1.118,3.963,3.963,0,0,1-1.077-2.819,4.256,4.256,0,0,1,1.455-3.115A5.025,5.025,0,0,1,129.7,152.934Z" transform="translate(-122.469 -133.88)" fill="#fe777d"/>
              </g>
            </g>
            <g id="Grupo_1200933" data-name="Grupo 1200933" transform="translate(0 22.197)">
              <g id="Grupo_1200930" data-name="Grupo 1200930">
                <path id="Trazado_1069765" data-name="Trazado 1069765" d="M97.864,81.423H89.738l-2.25-20.971h12.626Zm-3.517,3.5a7.047,7.047,0,0,1,2.6.426,4.847,4.847,0,0,1,1.769,1.169,5.141,5.141,0,0,1,1.4,3.735A5.663,5.663,0,0,1,98.3,94.355a6.617,6.617,0,0,1-4.871,1.824,5.891,5.891,0,0,1-4.478-1.485,5.226,5.226,0,0,1-1.42-3.746,5.69,5.69,0,0,1,1.944-4.14A6.708,6.708,0,0,1,94.347,84.918Z" transform="translate(-87.488 -60.452)" fill="#ebe9f0"/>
              </g>
              <g id="Grupo_1200931" data-name="Grupo 1200931" transform="translate(161.734 94.008)">
                <path id="Trazado_1069766" data-name="Trazado 1069766" d="M353.165,227.34h-6.778l-1.877-17.494h10.533Zm-2.934,2.915a5.874,5.874,0,0,1,2.168.355,4.053,4.053,0,0,1,1.476.975,4.29,4.29,0,0,1,1.167,3.116,4.724,4.724,0,0,1-1.512,3.426,5.521,5.521,0,0,1-4.064,1.522,4.914,4.914,0,0,1-3.736-1.239,4.362,4.362,0,0,1-1.184-3.126,4.746,4.746,0,0,1,1.622-3.453A5.6,5.6,0,0,1,350.231,230.255Z" transform="translate(-344.509 -209.846)" fill="#ebe9f0"/>
              </g>
              <g id="Grupo_1200932" data-name="Grupo 1200932" transform="translate(52.539 69.897)">
                <path id="Trazado_1069767" data-name="Trazado 1069767" d="M178.066,185.851h-5.549L170.98,171.53H179.6Zm-2.4,2.387a4.81,4.81,0,0,1,1.775.291,3.315,3.315,0,0,1,1.208.8,3.512,3.512,0,0,1,.955,2.551,3.869,3.869,0,0,1-1.238,2.8,4.52,4.52,0,0,1-3.327,1.245,4.023,4.023,0,0,1-3.058-1.014,3.569,3.569,0,0,1-.97-2.559,3.886,3.886,0,0,1,1.328-2.827A4.58,4.58,0,0,1,175.664,188.238Z" transform="translate(-170.98 -171.53)" fill="#ebe9f0"/>
              </g>
            </g>
          </g>
          <g id="Grupo_1200946" data-name="Grupo 1200946" transform="translate(42.08 240.206)">
            <g id="Grupo_1200943" data-name="Grupo 1200943">
              <circle id="Elipse_13470" data-name="Elipse 13470" cx="3.161" cy="3.161" r="3.161" fill="#422038"/>
            </g>
            <g id="Grupo_1200944" data-name="Grupo 1200944" transform="translate(9.625)">
              <circle id="Elipse_13471" data-name="Elipse 13471" cx="3.161" cy="3.161" r="3.161" fill="#422038"/>
            </g>
            <g id="Grupo_1200945" data-name="Grupo 1200945" transform="translate(19.092)">
              <circle id="Elipse_13472" data-name="Elipse 13472" cx="3.161" cy="3.161" r="3.161" fill="#422038"/>
            </g>
          </g>
          <g id="Grupo_1201029" data-name="Grupo 1201029" transform="translate(10.93 40.521)">
            <g id="Grupo_1200947" data-name="Grupo 1200947" transform="translate(80.051 221.575)">
              <path id="Trazado_1069768" data-name="Trazado 1069768" d="M160.841,441.688a181.354,181.354,0,0,0-6.128,36.27h98.713V444.809Z" transform="translate(-154.713 -441.688)" fill="#422038"/>
            </g>
            <g id="Grupo_1200983" data-name="Grupo 1200983" transform="translate(110.508 0)">
              <g id="Grupo_1200948" data-name="Grupo 1200948">
                <path id="Trazado_1069769" data-name="Trazado 1069769" d="M270.5,137.594c2.512-.415,4.625-2.092,6.429-3.888,5.164-5.142,8.907-12.28,8.065-19.519a12.186,12.186,0,0,1-3.385,4.818c-.57.51-1.521.934-2.021.356,5.1-5.594,4.253-14.243.957-21.06-1.858-3.842-4.843-7.523-9-8.494a9.705,9.705,0,0,0-8.229,1.953c-1.417,1.164-2.518,2.732-4.125,3.615-2.471,1.359-5.5.8-8.284.337-6.556-1.091-13.5-1.394-19.649,1.12s-11.286,8.437-11.142,15.082c-1.116-1.63-3.547-2.511-5.52-2.608a12.471,12.471,0,0,0-11.146,6.064,13.823,13.823,0,0,1,12.707,1.15c-4.456,1.806-9.238,4.662-11.575,8.864s-1.993,10.159,1.79,13.128c1.71,1.342,3.925,1.971,5.513,3.457a6.856,6.856,0,0,1,1.4,7.866,5.607,5.607,0,0,1,4.89,3.557c.569,1.53.572,3.48,1.939,4.374a4.277,4.277,0,0,0,3.119.274,30.934,30.934,0,0,0,10.537-4.048c2.245-1.379,5.183-2.892,7.327-4.425a55.128,55.128,0,0,1,21.133-9.172c1.337-.269,3-.8,3.128-2.16C266.728,137.312,268.857,137.393,270.5,137.594Z" transform="translate(-203.113 -89.571)" fill="#422038"/>
              </g>
              <g id="Grupo_1200972" data-name="Grupo 1200972" transform="translate(14.748 22.196)">
                <g id="Grupo_1200970" data-name="Grupo 1200970">
                  <g id="Grupo_1200949" data-name="Grupo 1200949" transform="translate(5.673)">
                    <path id="Trazado_1069770" data-name="Trazado 1069770" d="M282.666,169.9c-4.965,16.446-16.812,19.74-29.077,14.119s-24.2-13.007-14.421-34.692c7.194-15.947,22.927-28.758,35.192-23.137S287.722,153.15,282.666,169.9Z" transform="translate(-235.566 -124.844)" fill="#f2ad97"/>
                  </g>
                  <g id="Grupo_1200950" data-name="Grupo 1200950" transform="translate(34.654 22.465)">
                    <path id="Trazado_1069771" data-name="Trazado 1069771" d="M289.453,171.052q-.05.446-.108.891a10.105,10.105,0,0,1-.774,3.115,3.907,3.907,0,0,1-2.318,2.128,3.856,3.856,0,0,1-4.476-2.627,6.977,6.977,0,0,1,.586-4.335,65.842,65.842,0,0,1,3.664-8.028c1.257-2.327,3.281-2.274,3.564.666A39.576,39.576,0,0,1,289.453,171.052Z" transform="translate(-281.621 -160.545)" fill="#ed8a85"/>
                  </g>
                  <g id="Grupo_1200951" data-name="Grupo 1200951" transform="translate(26.03 7.609)">
                    <path id="Trazado_1069772" data-name="Trazado 1069772" d="M273.3,137.673c2.172-.885,4.445-1.222,5.781.423a2.232,2.232,0,0,1-.255,3.12,3.41,3.41,0,0,1-1.535.466,54.016,54.016,0,0,1-7.79.456,2.584,2.584,0,0,1-.994-.148.922.922,0,0,1-.591-.76c-.017-.463.413-.8.8-1.049A30.38,30.38,0,0,1,273.3,137.673Z" transform="translate(-267.916 -136.936)" fill="#422038"/>
                  </g>
                  <g id="Grupo_1200953" data-name="Grupo 1200953" transform="translate(45.761 11.293)">
                    <g id="Grupo_1200952" data-name="Grupo 1200952">
                      <path id="Trazado_1069773" data-name="Trazado 1069773" d="M305.341,145.863c-1.075-1.885-2.533-3.429-4.428-3a2.043,2.043,0,0,0-1.573,2.407,3.186,3.186,0,0,0,.85,1.217,50.252,50.252,0,0,0,5.389,4.788,2.408,2.408,0,0,0,.8.462.839.839,0,0,0,.857-.212,1.263,1.263,0,0,0,.009-1.22A28.442,28.442,0,0,0,305.341,145.863Z" transform="translate(-299.272 -142.79)" fill="#422038"/>
                    </g>
                  </g>
                  <g id="Grupo_1200954" data-name="Grupo 1200954" transform="translate(18.322 23.871)">
                    <ellipse id="Elipse_13473" data-name="Elipse 13473" cx="2.883" cy="5.706" rx="2.883" ry="5.706" transform="translate(0 5.455) rotate(-71.089)" fill="#ed6f6d"/>
                  </g>
                  <g id="Grupo_1200955" data-name="Grupo 1200955" transform="translate(44.437 31.42)">
                    <ellipse id="Elipse_13474" data-name="Elipse 13474" cx="2.883" cy="5.835" rx="2.883" ry="5.835" transform="translate(0 5.456) rotate(-71.096)" fill="#ed6f6d"/>
                  </g>
                  <g id="Grupo_1200956" data-name="Grupo 1200956" transform="translate(0 8.707)">
                    <path id="Trazado_1069774" data-name="Trazado 1069774" d="M242.957,151.643c-2.158,4.785-6.513,9-10.832,7.017s-6.967-9.4-4.808-14.184,7.41-7.059,11.728-5.08S245.116,146.858,242.957,151.643Z" transform="translate(-226.55 -138.681)" fill="#f2ad97"/>
                  </g>
                  <g id="Grupo_1200958" data-name="Grupo 1200958" transform="translate(5.724 13.116)">
                    <g id="Grupo_1200957" data-name="Grupo 1200957">
                      <path id="Trazado_1069775" data-name="Trazado 1069775" d="M236.079,146.41c2.163-.406,3.71,1.871,3.8,3.781a8.793,8.793,0,0,1-.654,3.438,7.8,7.8,0,0,1-1.623,2.992c-.321.306.166.793.487.487a8.806,8.806,0,0,0,1.869-3.482,8.486,8.486,0,0,0,.542-4.1c-.33-2.167-2.289-4.21-4.6-3.776-.435.082-.251.746.183.664Z" transform="translate(-235.647 -145.687)" fill="#422038"/>
                    </g>
                  </g>
                  <g id="Grupo_1200960" data-name="Grupo 1200960" transform="translate(4.676 18.342)">
                    <g id="Grupo_1200959" data-name="Grupo 1200959">
                      <path id="Trazado_1069776" data-name="Trazado 1069776" d="M239.322,153.992a6.157,6.157,0,0,0-5.291,3.044.345.345,0,0,0,.595.347,5.458,5.458,0,0,1,4.7-2.7.344.344,0,0,0,0-.688Z" transform="translate(-233.981 -153.992)" fill="#422038"/>
                    </g>
                  </g>
                  <g id="Grupo_1200962" data-name="Grupo 1200962" transform="translate(28.023 40.059)">
                    <g id="Grupo_1200961" data-name="Grupo 1200961">
                      <path id="Trazado_1069777" data-name="Trazado 1069777" d="M273.246,191.9a1.81,1.81,0,0,0,.775-1.69,1.775,1.775,0,0,0-.345-.911,1.9,1.9,0,0,0-.945-.628,4.831,4.831,0,0,0-1.316-.172c-.443-.015-.443.674,0,.688a4.008,4.008,0,0,1,1.153.154,1.291,1.291,0,0,1,.435.24.82.82,0,0,1,.249.34c.01.022.009.02,0-.006.008.021.016.041.023.062.013.036.023.074.033.111s.017.076.025.114.007.044,0,.008c0,.016,0,.033,0,.05a2.091,2.091,0,0,1,0,.235c0,.014-.016.126,0,.059q-.009.058-.023.115a.939.939,0,0,1-.156.376c-.007.011-.07.1-.032.051-.024.03-.05.059-.076.086s-.055.054-.084.079l-.009.008-.055.038a.353.353,0,0,0-.123.471.347.347,0,0,0,.47.122Z" transform="translate(-271.083 -188.505)" fill="#422038"/>
                    </g>
                  </g>
                  <g id="Grupo_1200963" data-name="Grupo 1200963" transform="translate(0 27.798)">
                    <path id="Trazado_1069778" data-name="Trazado 1069778" d="M233.8,169.02l-7.253,44.647s8.42,8.5,16.477,5.622l2.031-32.68Z" transform="translate(-226.551 -169.02)" fill="#f2ad97"/>
                  </g>
                  <g id="Grupo_1200965" data-name="Grupo 1200965" transform="translate(7.293 37.622)">
                    <g id="Grupo_1200964" data-name="Grupo 1200964">
                      <path id="Trazado_1069779" data-name="Trazado 1069779" d="M249.4,203.094a20.6,20.6,0,0,1-10.565-18.129.344.344,0,0,0-.688,0,21.294,21.294,0,0,0,10.906,18.724c.389.212.737-.383.347-.595Z" transform="translate(-238.14 -184.632)" fill="#422038"/>
                    </g>
                  </g>
                  <g id="Grupo_1200966" data-name="Grupo 1200966" transform="translate(25.379 17.744)">
                    <ellipse id="Elipse_13475" data-name="Elipse 13475" cx="3.323" cy="1.979" rx="3.323" ry="1.979" transform="translate(0 6.184) rotate(-68.494)" fill="#422038"/>
                  </g>
                  <g id="Grupo_1200967" data-name="Grupo 1200967" transform="translate(44.566 23.654)">
                    <ellipse id="Elipse_13476" data-name="Elipse 13476" cx="3.323" cy="1.979" rx="3.323" ry="1.979" transform="translate(0 6.184) rotate(-68.494)" fill="#422038"/>
                  </g>
                  <g id="Grupo_1200968" data-name="Grupo 1200968" transform="translate(25.19 20.246)">
                    <circle id="Elipse_13477" data-name="Elipse 13477" cx="1.313" cy="1.313" r="1.313" fill="#fff"/>
                  </g>
                  <g id="Grupo_1200969" data-name="Grupo 1200969" transform="translate(44.263 26.465)">
                    <circle id="Elipse_13478" data-name="Elipse 13478" cx="1.313" cy="1.313" r="1.313" fill="#fff"/>
                  </g>
                </g>
                <g id="Grupo_1200971" data-name="Grupo 1200971" transform="translate(29.49 35.394)">
                  <path id="Trazado_1069780" data-name="Trazado 1069780" d="M273.743,181.266c.639-.611,2.189.449,3.756,2.087s2.555,3.234,1.917,3.845-2.931.26-4.5-1.378S273.1,181.877,273.743,181.266Z" transform="translate(-273.415 -181.091)" fill="#422038"/>
                </g>
              </g>
              <g id="Grupo_1200974" data-name="Grupo 1200974" transform="translate(20.349 4.547)">
                <g id="Grupo_1200973" data-name="Grupo 1200973">
                  <path id="Trazado_1069781" data-name="Trazado 1069781" d="M236.079,117.4a14.987,14.987,0,0,1,7.809-7.7,14.485,14.485,0,0,1,5.577-1.206,24.375,24.375,0,0,1,6.367,1.078,24.915,24.915,0,0,0,11.1.772,23.44,23.44,0,0,0,9.411-4.051,21.955,21.955,0,0,0,7.327-8.976c.175-.4-.418-.753-.595-.347a22.317,22.317,0,0,1-16.327,12.71,20.651,20.651,0,0,1-5.431.281,39.357,39.357,0,0,1-6.412-1.341,20.142,20.142,0,0,0-6.124-.791,15.329,15.329,0,0,0-4.949,1.152,15.619,15.619,0,0,0-8.349,8.069c-.174.4.419.753.6.347Z" transform="translate(-235.452 -96.797)" fill="#6d4f65"/>
                </g>
              </g>
              <g id="Grupo_1200976" data-name="Grupo 1200976" transform="translate(61.617 7.025)">
                <g id="Grupo_1200975" data-name="Grupo 1200975">
                  <path id="Trazado_1069782" data-name="Trazado 1069782" d="M301.53,115.135a23.859,23.859,0,0,0,9.236-13.972c.1-.432-.566-.616-.664-.183a23.14,23.14,0,0,1-8.919,13.56c-.356.258-.012.856.347.595Z" transform="translate(-301.033 -100.734)" fill="#6d4f65"/>
                </g>
              </g>
              <g id="Grupo_1200978" data-name="Grupo 1200978" transform="translate(68.185 8.269)">
                <g id="Grupo_1200977" data-name="Grupo 1200977">
                  <path id="Trazado_1069783" data-name="Trazado 1069783" d="M312.1,117.083a45.648,45.648,0,0,0,4-14.043c.052-.439-.637-.435-.688,0a44.611,44.611,0,0,1-3.9,13.7c-.187.4.407.749.595.347Z" transform="translate(-311.471 -102.712)" fill="#6d4f65"/>
                </g>
              </g>
              <g id="Grupo_1200980" data-name="Grupo 1200980" transform="translate(5.706 29.011)">
                <g id="Grupo_1200979" data-name="Grupo 1200979">
                  <path id="Trazado_1069784" data-name="Trazado 1069784" d="M221.161,135.679c-4.9-.208-8.4,5.057-8.922,9.434a7.566,7.566,0,0,0,2.158,6.268c1.5,1.59,3.442,2.8,4.669,4.632,1.853,2.773.481,6.062.913,9.125.062.437.726.251.664-.183-.364-2.573.648-5.245-.22-7.763a10.836,10.836,0,0,0-3.452-4.362c-1.54-1.354-3.246-2.754-3.848-4.8-.746-2.535.159-5.4,1.515-7.566,1.418-2.27,3.714-4.215,6.524-4.1.444.018.442-.671,0-.689Z" transform="translate(-212.181 -135.674)" fill="#6d4f65"/>
                </g>
              </g>
              <g id="Grupo_1200982" data-name="Grupo 1200982" transform="translate(19.876 3.066)">
                <g id="Grupo_1200981" data-name="Grupo 1200981">
                  <path id="Trazado_1069785" data-name="Trazado 1069785" d="M235.394,116.492a14.806,14.806,0,0,1,4.039-10.358,18.209,18.209,0,0,1,10.024-5.351c4.258-.821,8.368-.1,12.559.728,3.664.728,7.512,1.364,11.127.077,3.094-1.1,5.824-3.421,6.278-6.819.059-.438-.631-.434-.688,0-.461,3.454-3.657,5.648-6.809,6.474-4.029,1.055-8.221-.134-12.2-.887a26.814,26.814,0,0,0-11.6.015,18.471,18.471,0,0,0-9.346,5.456,15.482,15.482,0,0,0-4.076,10.663.344.344,0,0,0,.688,0Z" transform="translate(-234.7 -94.443)" fill="#6d4f65"/>
                </g>
              </g>
            </g>
            <g id="Grupo_1200993" data-name="Grupo 1200993" transform="translate(220.384 45.687)">
              <g id="Grupo_1200984" data-name="Grupo 1200984">
                <path id="Trazado_1069786" data-name="Trazado 1069786" d="M395.362,230.413q1.385-12.825,2.937-25.631c.179-1.482.418-3.084,1.484-4.129,1.461-1.433,3.8-1.23,5.843-1.132a31.34,31.34,0,0,0,27.186-13.884,4.146,4.146,0,0,0,.856-2.192,1.565,1.565,0,0,0-1.4-1.628,2.363,2.363,0,0,0-1.462.837,60.679,60.679,0,0,1-11.1,8.368c-1.286.755-3.182,1.352-4.052.142a33.115,33.115,0,0,0,17.325-20.107c.388-1.287.607-2.907-.417-3.777a2.543,2.543,0,0,0-3.309.437,9.141,9.141,0,0,0-2.087,3.47,21.414,21.414,0,0,0,2.315-6.293,3.163,3.163,0,0,0,.072-1.159c-.236-1.333-2.012-1.884-3.263-1.367s-2.013,1.8-2.758,2.929a2.7,2.7,0,0,0-2.143-1.418,3.881,3.881,0,0,0-2.378.74c-2.737,1.8-3.852,5.183-5.582,7.965a18.812,18.812,0,0,1-15.99,8.7l4.345-8.967a6.149,6.149,0,0,0,.859-2.988,2.115,2.115,0,0,0-1.931-2.082c-.917.036-1.584.85-2.124,1.592l-6.714,9.226a45.132,45.132,0,0,0-4.436,6.951c-3.5,7.331-2.836,15.991-5.476,23.675a151.233,151.233,0,0,0-4.244,16.131c2,1.038,4.635,3,6.776,3.713a39.606,39.606,0,0,0,4.31,1.179C390.489,230.072,393.758,231.026,395.362,230.413Z" transform="translate(-377.724 -162.174)" fill="#f2ad97"/>
              </g>
              <g id="Grupo_1200986" data-name="Grupo 1200986" transform="translate(31.606 3.039)">
                <g id="Grupo_1200985" data-name="Grupo 1200985">
                  <path id="Trazado_1069787" data-name="Trazado 1069787" d="M428.475,184.382a26.951,26.951,0,0,0,14.206-16.952.345.345,0,0,0-.664-.183,26.279,26.279,0,0,1-13.889,16.54c-.4.192-.051.786.347.6Z" transform="translate(-427.951 -167.003)" fill="#422038"/>
                </g>
              </g>
              <g id="Grupo_1200988" data-name="Grupo 1200988" transform="translate(35.485 6.591)">
                <g id="Grupo_1200987" data-name="Grupo 1200987">
                  <path id="Trazado_1069788" data-name="Trazado 1069788" d="M434.624,191.3c6.859-4.309,11.333-11.267,15.3-18.141a.345.345,0,0,0-.595-.347c-3.9,6.768-8.295,13.649-15.051,17.894-.375.235-.03.831.347.595Z" transform="translate(-434.115 -172.648)" fill="#422038"/>
                </g>
              </g>
              <g id="Grupo_1200990" data-name="Grupo 1200990" transform="translate(15.753 20.93)">
                <g id="Grupo_1200989" data-name="Grupo 1200989">
                  <path id="Trazado_1069789" data-name="Trazado 1069789" d="M403.27,205.433c3.027-1.8,4.546-5.079,6.962-7.509a6.548,6.548,0,0,1,2.391-1.708,2.794,2.794,0,0,1,2.964.908c1.525,1.666,1.878,4.494,1.959,6.649.016.442.705.444.688,0-.085-2.258-.464-4.942-1.873-6.791a3.578,3.578,0,0,0-5.038-.873c-3.431,2.275-4.83,6.609-8.4,8.729a.345.345,0,0,0,.347.595Z" transform="translate(-402.758 -195.436)" fill="#422038"/>
                </g>
              </g>
              <g id="Grupo_1200992" data-name="Grupo 1200992" transform="translate(17.842 31.018)">
                <g id="Grupo_1200991" data-name="Grupo 1200991">
                  <path id="Trazado_1069790" data-name="Trazado 1069790" d="M406.764,216.244a6.962,6.962,0,0,1,4.127-4.092c.414-.148.235-.814-.183-.664a7.7,7.7,0,0,0-4.608,4.573c-.153.417.512.6.664.183Z" transform="translate(-406.077 -211.466)" fill="#422038"/>
                </g>
              </g>
            </g>
            <g id="Grupo_1201003" data-name="Grupo 1201003" transform="translate(0 33.803)">
              <g id="Grupo_1200994" data-name="Grupo 1200994">
                <path id="Trazado_1069791" data-name="Trazado 1069791" d="M65.8,211.528Q64.42,198.7,62.868,185.9c-.179-1.482-.418-3.084-1.484-4.129-1.461-1.433-3.8-1.23-5.843-1.132a31.34,31.34,0,0,1-27.186-13.884,4.145,4.145,0,0,1-.856-2.192,1.565,1.565,0,0,1,1.4-1.628,2.363,2.363,0,0,1,1.462.837,60.7,60.7,0,0,0,11.1,8.368c1.286.755,3.182,1.352,4.052.142a33.115,33.115,0,0,1-17.325-20.107c-.388-1.287-.607-2.907.417-3.777a2.543,2.543,0,0,1,3.309.437,9.136,9.136,0,0,1,2.087,3.47,21.413,21.413,0,0,1-2.315-6.293,3.164,3.164,0,0,1-.072-1.159c.236-1.333,2.012-1.884,3.263-1.367s2.013,1.8,2.758,2.929a2.7,2.7,0,0,1,2.143-1.418,3.881,3.881,0,0,1,2.378.74c2.737,1.8,3.852,5.183,5.582,7.965a18.812,18.812,0,0,0,15.99,8.7l-4.345-8.967a6.149,6.149,0,0,1-.859-2.988,2.115,2.115,0,0,1,1.931-2.082c.917.036,1.584.85,2.124,1.592l6.714,9.226a45.135,45.135,0,0,1,4.436,6.951c3.5,7.331,2.836,15.991,5.476,23.675a151.235,151.235,0,0,1,4.244,16.131c-2,1.038-4.635,3-6.776,3.713a39.6,39.6,0,0,1-4.31,1.179C70.678,211.187,67.409,212.141,65.8,211.528Z" transform="translate(-27.499 -143.289)" fill="#f2ad97"/>
              </g>
              <g id="Grupo_1200996" data-name="Grupo 1200996" transform="translate(9.595 3.039)">
                <g id="Grupo_1200995" data-name="Grupo 1200995">
                  <path id="Trazado_1069792" data-name="Trazado 1069792" d="M57.314,164.9a26.279,26.279,0,0,1-13.889-16.54.345.345,0,0,0-.664.183A26.949,26.949,0,0,0,56.966,165.5c.4.189.748-.4.347-.6Z" transform="translate(-42.746 -148.119)" fill="#422038"/>
                </g>
              </g>
              <g id="Grupo_1200998" data-name="Grupo 1200998" transform="translate(4.603 6.591)">
                <g id="Grupo_1200997" data-name="Grupo 1200997">
                  <path id="Trazado_1069793" data-name="Trazado 1069793" d="M50.509,171.824c-6.756-4.245-11.147-11.125-15.051-17.894a.345.345,0,0,0-.595.347c3.965,6.873,8.439,13.831,15.3,18.141.376.237.722-.359.347-.595Z" transform="translate(-34.814 -153.764)" fill="#422038"/>
                </g>
              </g>
              <g id="Grupo_1201000" data-name="Grupo 1201000" transform="translate(24.715 20.93)">
                <g id="Grupo_1200999" data-name="Grupo 1200999">
                  <path id="Trazado_1069794" data-name="Trazado 1069794" d="M82.087,185.953c-3.572-2.12-4.971-6.454-8.4-8.729a3.574,3.574,0,0,0-5.011.838c-1.436,1.842-1.814,4.562-1.9,6.826-.016.443.672.442.688,0,.08-2.131.426-4.883,1.882-6.564a2.855,2.855,0,0,1,2.933-1.029,6.263,6.263,0,0,1,2.5,1.745c2.416,2.43,3.935,5.712,6.962,7.509a.344.344,0,0,0,.347-.595Z" transform="translate(-66.776 -176.55)" fill="#422038"/>
                </g>
              </g>
              <g id="Grupo_1201002" data-name="Grupo 1201002" transform="translate(33.054 31.018)">
                <g id="Grupo_1201001" data-name="Grupo 1201001">
                  <path id="Trazado_1069795" data-name="Trazado 1069795" d="M85.053,197.176a7.7,7.7,0,0,0-4.608-4.573c-.418-.15-.6.515-.183.664a6.96,6.96,0,0,1,4.127,4.092c.152.412.818.234.664-.183Z" transform="translate(-80.026 -192.581)" fill="#422038"/>
                </g>
              </g>
            </g>
            <g id="Grupo_1201004" data-name="Grupo 1201004" transform="translate(76.04 85.801)">
              <path id="Trazado_1069796" data-name="Trazado 1069796" d="M256.8,375.619c-36.677,5.967-73.9,1.189-108.462-12.469q2.414-43.821,4.826-87.643c.659-11.974,1.464-24.456,7.477-34.832s18.955-17.8,30.157-13.52c3.477,1.328,6.5,3.641,9.918,5.107s7.67,1.948,10.65-.282c7.041-5.269,17.784-3.7,25.949-.432,6.7,2.68,11.789,8.478,14.98,14.949s4.682,13.632,5.931,20.739C264.549,303.211,261.5,339.4,256.8,375.619Z" transform="translate(-148.339 -225.922)" fill="#6cd0d8"/>
            </g>
            <g id="Grupo_1201005" data-name="Grupo 1201005" transform="translate(116.653 86.591)">
              <path id="Trazado_1069797" data-name="Trazado 1069797" d="M222.092,231.472s-5.99-3.7-8.676-4.295c0,0-5.648,20.572,19.714,23.65S244.841,229.1,244.841,229.1s-5.35.345-7.114,1.7-4.8.205-4.8.205Z" transform="translate(-212.88 -227.177)" fill="#f2ad97"/>
            </g>
            <g id="Grupo_1201006" data-name="Grupo 1201006" transform="translate(171.814 96.04)">
              <path id="Trazado_1069798" data-name="Trazado 1069798" d="M300.539,242.657A230.549,230.549,0,0,1,333.5,287.724a2.06,2.06,0,0,1,.442-3.2,2.007,2.007,0,0,1,2.659,1.62c.031.348-.011.751.242.992s.812-.134.545-.36a322.886,322.886,0,0,1,11.879-44.58c2.827,1.586,5.066,3.236,7.893,4.822,4.509,2.53,9.058,5.088,12.9,8.542-5.711,19.087-11.54,52.238-19.532,70.488-2.223,5.075-5.743,10.84-11.284,10.867-3.09.016-5.832-1.853-8.348-3.645-7.02-5-17.636-15.153-21.316-22.948-2.956-6.26.4-22.015-.254-28.907A168.261,168.261,0,0,0,300.539,242.657Z" transform="translate(-300.539 -242.194)" fill="#6cd0d8"/>
            </g>
            <g id="Grupo_1201007" data-name="Grupo 1201007" transform="translate(34.07 82.945)">
              <path id="Trazado_1069799" data-name="Trazado 1069799" d="M150.319,226.161c-14.6,5.775-24.417,26.362-34.8,41.867a2.06,2.06,0,0,0-.185-3.228,2.007,2.007,0,0,0-2.779,1.4c-.059.344-.05.749-.32.97s-.8-.2-.515-.4a322.828,322.828,0,0,0-8.283-45.386c-2.945,1.355-5.308,2.821-8.253,4.176-4.7,2.162-9.435,4.349-13.545,7.485,4.169,19.481,7.333,52.992,13.843,71.822,1.81,5.236,4.86,11.263,10.38,11.733,3.078.262,5.961-1.381,8.613-2.968,7.4-4.426,18.789-13.7,23.08-21.173,3.446-6,1.361-21.977,2.56-28.8C142.392,250.735,145.04,238.182,150.319,226.161Z" transform="translate(-81.642 -221.384)" fill="#6cd0d8"/>
            </g>
            <g id="Grupo_1201009" data-name="Grupo 1201009" transform="translate(218.527 107.103)">
              <g id="Grupo_1201008" data-name="Grupo 1201008">
                <path id="Trazado_1069800" data-name="Trazado 1069800" d="M374.932,260.426q9.423,6.064,18.71,12.332c.368.249.714-.348.347-.595q-9.287-6.269-18.71-12.332c-.373-.24-.719.356-.347.595Z" transform="translate(-374.772 -259.775)" fill="#fff"/>
              </g>
            </g>
            <g id="Grupo_1201011" data-name="Grupo 1201011" transform="translate(37.496 96.218)">
              <g id="Grupo_1201010" data-name="Grupo 1201010">
                <path id="Trazado_1069801" data-name="Trazado 1069801" d="M87.6,252.225a122.807,122.807,0,0,1,19.249-9.063c.412-.152.234-.818-.183-.664a123.77,123.77,0,0,0-19.413,9.133.344.344,0,0,0,.347.594Z" transform="translate(-87.086 -242.475)" fill="#fff"/>
              </g>
            </g>
            <g id="Grupo_1201013" data-name="Grupo 1201013" transform="translate(79.711 101.38)">
              <g id="Grupo_1201012" data-name="Grupo 1201012" transform="translate(0)">
                <path id="Trazado_1069802" data-name="Trazado 1069802" d="M154.844,314.251a483.294,483.294,0,0,1,12.908-49.478q2.188-6.871,4.581-13.674c.147-.419-.518-.6-.664-.183a483.137,483.137,0,0,0-14.383,49.07q-1.658,7.018-3.106,14.082c-.089.432.575.617.664.183Z" transform="translate(-154.172 -250.68)" fill="#fff"/>
              </g>
            </g>
            <g id="Grupo_1201015" data-name="Grupo 1201015" transform="translate(175.874 106.492)">
              <g id="Grupo_1201014" data-name="Grupo 1201014">
                <path id="Trazado_1069803" data-name="Trazado 1069803" d="M320.48,327.561a235.615,235.615,0,0,0-8.206-53.694q-2.052-7.488-4.6-14.828c-.144-.416-.81-.237-.664.183a234.71,234.71,0,0,1,11.743,53.148q.766,7.577,1.038,15.191c.015.442.7.444.688,0Z" transform="translate(-306.99 -258.802)" fill="#fff"/>
              </g>
            </g>
            <g id="Grupo_1201017" data-name="Grupo 1201017" transform="translate(203.998 141.419)">
              <g id="Grupo_1201016" data-name="Grupo 1201016">
                <path id="Trazado_1069804" data-name="Trazado 1069804" d="M352.394,327.452a44.114,44.114,0,0,1,1.459-12.717.345.345,0,0,0-.664-.183,44.781,44.781,0,0,0-1.484,12.9c.013.442.7.444.688,0Z" transform="translate(-351.684 -314.308)" fill="#fff"/>
              </g>
            </g>
            <g id="Grupo_1201019" data-name="Grupo 1201019" transform="translate(208.473 144.373)">
              <g id="Grupo_1201018" data-name="Grupo 1201018">
                <path id="Trazado_1069805" data-name="Trazado 1069805" d="M360.455,323.681l-.985-4.432c-.1-.432-.76-.249-.664.183l.985,4.432c.1.432.76.249.664-.183Z" transform="translate(-358.796 -319.003)" fill="#fff"/>
              </g>
            </g>
            <g id="Grupo_1201021" data-name="Grupo 1201021" transform="translate(63.14 131.55)">
              <g id="Grupo_1201020" data-name="Grupo 1201020">
                <path id="Trazado_1069806" data-name="Trazado 1069806" d="M128.511,305.467l1.43-6.413c.1-.432-.568-.616-.664-.183l-1.43,6.413c-.1.432.568.616.664.183Z" transform="translate(-127.838 -298.625)" fill="#fff"/>
              </g>
            </g>
            <g id="Grupo_1201023" data-name="Grupo 1201023" transform="translate(67.639 133.019)">
              <g id="Grupo_1201022" data-name="Grupo 1201022" transform="translate(0)">
                <path id="Trazado_1069807" data-name="Trazado 1069807" d="M135.658,304.376a5.145,5.145,0,0,1,1.35-2.825c.305-.322-.181-.809-.487-.487a5.754,5.754,0,0,0-1.527,3.129.356.356,0,0,0,.24.423.348.348,0,0,0,.424-.24Z" transform="translate(-134.989 -300.958)" fill="#fff"/>
              </g>
            </g>
            <g id="Grupo_1201025" data-name="Grupo 1201025" transform="translate(115.843 87.324)">
              <g id="Grupo_1201024" data-name="Grupo 1201024">
                <path id="Trazado_1069808" data-name="Trazado 1069808" d="M211.957,228.591a18.275,18.275,0,0,0,1.846,12.335,19.671,19.671,0,0,0,9.823,8.488c4.386,1.863,9.529,2.917,14.248,1.863a12.245,12.245,0,0,0,9.113-7.581c1.689-4.826.027-10.195-1.963-14.657-.18-.4-.774-.054-.595.347,1.7,3.821,3.127,8.235,2.337,12.457a11.151,11.151,0,0,1-8.021,8.493c-4.4,1.343-9.277.512-13.52-1.028a19.964,19.964,0,0,1-10.075-7.473,17.556,17.556,0,0,1-2.529-13.061c.088-.433-.576-.618-.665-.183Z" transform="translate(-211.592 -228.343)" fill="#fff"/>
              </g>
            </g>
            <g id="Grupo_1201026" data-name="Grupo 1201026" transform="translate(111.529 130.865)">
              <circle id="Elipse_13479" data-name="Elipse 13479" cx="26.732" cy="26.732" r="26.732" fill="#fff"/>
            </g>
            <g id="Grupo_1201028" data-name="Grupo 1201028" transform="translate(116.227 137.056)">
              <g id="Grupo_1201027" data-name="Grupo 1201027">
                <path id="Trazado_1069809" data-name="Trazado 1069809" d="M230.45,348.387a24.555,24.555,0,0,1-12.612-7.113,18.5,18.5,0,0,1-4.908-13.705,15.846,15.846,0,0,1,7.479-12.347,28.672,28.672,0,0,1,6.765-3.1A23.731,23.731,0,0,1,235.1,310.6c2.995.109,5.144,1.865,6.868,4.173a39.363,39.363,0,0,1,4.223,7.2c2.036,4.458,3.9,9.971,2.588,14.893a8.58,8.58,0,0,1-4.555,5.564,18.429,18.429,0,0,1-8.079,1.69c-5.225.011-10.627-2.321-12.975-7.233-2.3-4.809-.233-10.486,3.4-14.014a21.454,21.454,0,0,1,6.719-4.267,29.237,29.237,0,0,1,7.957-2.24c5.879-.617,7.791,5.584,8.377,10.265a29.815,29.815,0,0,1-.085,8.827c-.434,2.426-1.583,4.95-4.313,5.288a10.293,10.293,0,0,1-7.206-2.329,8.732,8.732,0,0,1-3.435-6.125,7.623,7.623,0,0,1,2.3-6.2,6.356,6.356,0,0,1,6.159-1.2c5.449,1.772,4.031,9,1.918,12.859a9.345,9.345,0,0,1-5.314,4.682c-2.748.824-5.671.066-8.246-.986a27.893,27.893,0,0,1-6.974-3.916,11.863,11.863,0,0,1-4.2-6.631c-1.247-5.344.062-11.35,2.681-16.087,1.264-2.286,2.939-4.876,5.373-6.04,2.528-1.208,5.54-.68,8.1.133a24.616,24.616,0,0,1,11.376,7.7,20.765,20.765,0,0,1,4.979,12.66,19.3,19.3,0,0,1-4.4,12.426,16.737,16.737,0,0,1-11.533,6.324,27.851,27.851,0,0,1-8.738-.922,17.95,17.95,0,0,1-7.082-3.246c-4.045-3.293-5.121-8.688-5.14-13.653-.02-5.117.812-10.824,5.045-14.23,7.355-5.919,18.616-3.14,24.291,3.724a16.457,16.457,0,0,1,3.584,12.965c-.726,4.658-3.579,8.93-8.141,10.528-4.186,1.467-9.243.69-12.155-2.853-3.054-3.715-3.082-9.226-1.349-13.522,1.723-4.27,6.4-8.768,11.329-6.684a9.979,9.979,0,0,1,4.67,4.8,18.113,18.113,0,0,1,2.1,7.754c.052,2.567-.916,5.373-3.29,6.666a5.1,5.1,0,0,1-6.1-1.286c-3.669-4.008,1.068-10.136,5.939-8.732a6.709,6.709,0,0,1,4.619,5.037,7.176,7.176,0,0,1-2.372,6.5c-4,3.63-10.314,1.57-12.629-2.922-2.274-4.412-1.282-10.119,1.609-14,2.944-3.952,8.5-5.914,12.979-3.292,3.781,2.211,4.966,7.924,1.667,11.095-.32.308.167.794.487.487,3.447-3.312,2.474-9.283-1.333-11.876-4.4-3-10.331-1.474-13.673,2.341a14.608,14.608,0,0,0-2.665,14.881c2,4.683,7.82,7.453,12.519,4.867,4.42-2.431,5.7-8.61,1.843-12.145a6.568,6.568,0,0,0-6.578-1.536,6.772,6.772,0,0,0-4.354,5.064c-.8,4.678,4.869,8.554,8.862,5.823,4.843-3.312,3.257-10.582,1.01-14.973a10.764,10.764,0,0,0-4.912-5.125,7.6,7.6,0,0,0-6.831.432c-4.594,2.562-6.918,8.194-6.731,13.281.184,4.972,3.008,9.556,7.974,10.9a12.783,12.783,0,0,0,13.069-4.2,16.314,16.314,0,0,0,2.648-14.565,18.506,18.506,0,0,0-8.791-10.753,18.985,18.985,0,0,0-13.8-2.089,13.553,13.553,0,0,0-10.72,11.48,32.259,32.259,0,0,0-.434,8.375,20.224,20.224,0,0,0,2.026,7.912c2.742,5.271,8.5,7.272,14.038,8.1a20.361,20.361,0,0,0,9.022-.377,17.317,17.317,0,0,0,6.17-3.472,20.314,20.314,0,0,0,6.783-12.6c1.357-10.391-6.4-20.041-15.847-23.439-2.637-.949-5.69-1.622-8.443-.767-2.71.841-4.542,3.231-5.988,5.542a24.491,24.491,0,0,0-3.517,17.382,12.469,12.469,0,0,0,4.272,7.17,28.279,28.279,0,0,0,7.469,4.251c2.688,1.1,5.748,1.846,8.612.986a9.953,9.953,0,0,0,5.614-4.8c2.25-3.94,3.787-11.12-1.226-13.663a7.239,7.239,0,0,0-6.317-.06,7.476,7.476,0,0,0-3.881,5.453c-.938,5.194,2.883,9.653,7.709,11.025,2.481.705,5.3.643,6.974-1.588,1.628-2.174,1.789-5.24,1.853-7.848a29.419,29.419,0,0,0-1.117-9.352,10.051,10.051,0,0,0-3.842-5.7c-2.551-1.6-5.644-.8-8.34-.047a29.965,29.965,0,0,0-7.96,3.358c-4.626,2.908-8.335,8.078-7.74,13.774.575,5.512,5.273,9.549,10.47,10.716a20.6,20.6,0,0,0,9.012-.128,11.4,11.4,0,0,0,6.9-4.007c3.226-4.4,1.865-10.614.174-15.326a41.543,41.543,0,0,0-4.193-8.5c-1.472-2.28-3.192-4.739-5.77-5.848-2.805-1.206-5.989-.528-8.82.218a34.945,34.945,0,0,0-7.717,2.93c-4.889,2.638-8.458,6.972-9.243,12.566a19.045,19.045,0,0,0,4.5,14.951,25.014,25.014,0,0,0,13.389,7.825c.431.1.615-.563.183-.662Z" transform="translate(-212.203 -307.375)" fill="#6cd0d8"/>
              </g>
            </g>
          </g>
        </g>
      </g>
    </g>
  </g>
</svg>
